G75*
%MOIN*%
%OFA0B0*%
%FSLAX25Y25*%
%IPPOS*%
%LPD*%
%AMOC8*
5,1,8,0,0,1.08239X$1,22.5*
%
%ADD10C,0.03200*%
%ADD11C,0.01600*%
%ADD12C,0.07200*%
%ADD13C,0.06400*%
%ADD14C,0.08674*%
%ADD15C,0.07900*%
%ADD16R,0.05162X0.05162*%
D10*
X0077178Y0017130D02*
X0077178Y0023944D01*
X0077178Y0030344D02*
X0077178Y0037158D01*
X0077178Y0043558D02*
X0077178Y0050372D01*
X0077178Y0056772D02*
X0077178Y0063587D01*
X0082199Y0068607D01*
X0086724Y0073133D02*
X0091745Y0078154D01*
X0091745Y0088390D01*
X0095288Y0091933D01*
X0102439Y0091933D01*
X0108839Y0091933D02*
X0115990Y0091933D01*
X0122390Y0091933D02*
X0129540Y0091933D01*
X0137020Y0084453D01*
X0137020Y0076266D01*
X0137020Y0069866D02*
X0137020Y0061679D01*
X0137020Y0055279D02*
X0137020Y0047091D01*
X0137020Y0040691D02*
X0137020Y0032504D01*
X0137020Y0026104D02*
X0137020Y0017917D01*
D11*
X0138202Y0016736D02*
X0010643Y0016736D01*
X0010502Y0016738D01*
X0010361Y0016744D01*
X0010220Y0016753D01*
X0010080Y0016767D01*
X0009940Y0016785D01*
X0009801Y0016806D01*
X0009662Y0016831D01*
X0009524Y0016860D01*
X0009387Y0016893D01*
X0009250Y0016929D01*
X0009115Y0016969D01*
X0008981Y0017013D01*
X0008848Y0017061D01*
X0008717Y0017112D01*
X0008587Y0017167D01*
X0008459Y0017226D01*
X0008332Y0017287D01*
X0008207Y0017353D01*
X0008084Y0017422D01*
X0007963Y0017494D01*
X0007844Y0017569D01*
X0007727Y0017648D01*
X0007612Y0017730D01*
X0007499Y0017815D01*
X0007389Y0017903D01*
X0007282Y0017994D01*
X0007177Y0018089D01*
X0007074Y0018186D01*
X0006975Y0018285D01*
X0006878Y0018388D01*
X0006783Y0018493D01*
X0006692Y0018600D01*
X0006604Y0018710D01*
X0006519Y0018823D01*
X0006437Y0018938D01*
X0006358Y0019055D01*
X0006283Y0019174D01*
X0006211Y0019295D01*
X0006142Y0019418D01*
X0006076Y0019543D01*
X0006015Y0019670D01*
X0005956Y0019798D01*
X0005901Y0019928D01*
X0005850Y0020059D01*
X0005802Y0020192D01*
X0005758Y0020326D01*
X0005718Y0020461D01*
X0005682Y0020598D01*
X0005649Y0020735D01*
X0005620Y0020873D01*
X0005595Y0021012D01*
X0005574Y0021151D01*
X0005556Y0021291D01*
X0005542Y0021431D01*
X0005533Y0021572D01*
X0005527Y0021713D01*
X0005525Y0021854D01*
X0005524Y0021854D02*
X0005524Y0205713D01*
X0005526Y0205865D01*
X0005532Y0206017D01*
X0005542Y0206169D01*
X0005555Y0206320D01*
X0005573Y0206471D01*
X0005594Y0206622D01*
X0005620Y0206772D01*
X0005649Y0206921D01*
X0005682Y0207070D01*
X0005719Y0207217D01*
X0005759Y0207364D01*
X0005804Y0207509D01*
X0005852Y0207653D01*
X0005904Y0207796D01*
X0005959Y0207938D01*
X0006018Y0208078D01*
X0006081Y0208217D01*
X0006147Y0208354D01*
X0006217Y0208489D01*
X0006290Y0208622D01*
X0006367Y0208753D01*
X0006447Y0208883D01*
X0006530Y0209010D01*
X0006616Y0209135D01*
X0006706Y0209258D01*
X0006799Y0209378D01*
X0006895Y0209496D01*
X0006994Y0209612D01*
X0007096Y0209725D01*
X0007200Y0209835D01*
X0007308Y0209943D01*
X0007418Y0210047D01*
X0007531Y0210149D01*
X0007647Y0210248D01*
X0007765Y0210344D01*
X0007885Y0210437D01*
X0008008Y0210527D01*
X0008133Y0210613D01*
X0008260Y0210696D01*
X0008390Y0210776D01*
X0008521Y0210853D01*
X0008654Y0210926D01*
X0008789Y0210996D01*
X0008926Y0211062D01*
X0009065Y0211125D01*
X0009205Y0211184D01*
X0009347Y0211239D01*
X0009490Y0211291D01*
X0009634Y0211339D01*
X0009779Y0211384D01*
X0009926Y0211424D01*
X0010073Y0211461D01*
X0010222Y0211494D01*
X0010371Y0211523D01*
X0010521Y0211549D01*
X0010672Y0211570D01*
X0010823Y0211588D01*
X0010974Y0211601D01*
X0011126Y0211611D01*
X0011278Y0211617D01*
X0011430Y0211619D01*
X0011430Y0211618D02*
X0051194Y0211618D01*
X0051310Y0211616D01*
X0051426Y0211610D01*
X0051541Y0211601D01*
X0051656Y0211588D01*
X0051771Y0211571D01*
X0051885Y0211550D01*
X0051999Y0211525D01*
X0052111Y0211497D01*
X0052222Y0211465D01*
X0052333Y0211430D01*
X0052442Y0211391D01*
X0052550Y0211348D01*
X0052656Y0211302D01*
X0052761Y0211253D01*
X0052864Y0211200D01*
X0052966Y0211143D01*
X0053065Y0211084D01*
X0053162Y0211021D01*
X0053258Y0210955D01*
X0053351Y0210886D01*
X0053442Y0210814D01*
X0053530Y0210739D01*
X0053616Y0210661D01*
X0053699Y0210580D01*
X0053780Y0210497D01*
X0053858Y0210411D01*
X0053933Y0210323D01*
X0054005Y0210232D01*
X0054074Y0210139D01*
X0054140Y0210043D01*
X0054203Y0209946D01*
X0054262Y0209847D01*
X0054319Y0209745D01*
X0054372Y0209642D01*
X0054421Y0209537D01*
X0054467Y0209431D01*
X0054510Y0209323D01*
X0054549Y0209214D01*
X0054584Y0209103D01*
X0054616Y0208992D01*
X0054644Y0208880D01*
X0054669Y0208766D01*
X0054690Y0208652D01*
X0054707Y0208537D01*
X0054720Y0208422D01*
X0054729Y0208307D01*
X0054735Y0208191D01*
X0054737Y0208075D01*
X0054737Y0191146D01*
X0054739Y0191051D01*
X0054745Y0190956D01*
X0054754Y0190861D01*
X0054768Y0190767D01*
X0054785Y0190674D01*
X0054806Y0190581D01*
X0054830Y0190489D01*
X0054859Y0190398D01*
X0054890Y0190308D01*
X0054926Y0190220D01*
X0054965Y0190133D01*
X0055008Y0190048D01*
X0055053Y0189965D01*
X0055103Y0189884D01*
X0055155Y0189804D01*
X0055211Y0189727D01*
X0055269Y0189652D01*
X0055331Y0189580D01*
X0055396Y0189510D01*
X0055463Y0189443D01*
X0055533Y0189378D01*
X0055605Y0189316D01*
X0055680Y0189258D01*
X0055757Y0189202D01*
X0055837Y0189150D01*
X0055918Y0189100D01*
X0056001Y0189055D01*
X0056086Y0189012D01*
X0056173Y0188973D01*
X0056261Y0188937D01*
X0056351Y0188906D01*
X0056442Y0188877D01*
X0056534Y0188853D01*
X0056627Y0188832D01*
X0056720Y0188815D01*
X0056814Y0188801D01*
X0056909Y0188792D01*
X0057004Y0188786D01*
X0057099Y0188784D01*
X0057099Y0188783D02*
X0101981Y0188783D01*
X0101981Y0188784D02*
X0102076Y0188786D01*
X0102171Y0188792D01*
X0102266Y0188801D01*
X0102360Y0188815D01*
X0102453Y0188832D01*
X0102546Y0188853D01*
X0102638Y0188877D01*
X0102729Y0188906D01*
X0102819Y0188937D01*
X0102907Y0188973D01*
X0102994Y0189012D01*
X0103079Y0189055D01*
X0103162Y0189100D01*
X0103243Y0189150D01*
X0103323Y0189202D01*
X0103400Y0189258D01*
X0103475Y0189316D01*
X0103547Y0189378D01*
X0103617Y0189443D01*
X0103684Y0189510D01*
X0103749Y0189580D01*
X0103811Y0189652D01*
X0103869Y0189727D01*
X0103925Y0189804D01*
X0103977Y0189884D01*
X0104027Y0189965D01*
X0104072Y0190048D01*
X0104115Y0190133D01*
X0104154Y0190220D01*
X0104190Y0190308D01*
X0104221Y0190398D01*
X0104250Y0190489D01*
X0104274Y0190581D01*
X0104295Y0190674D01*
X0104312Y0190767D01*
X0104326Y0190861D01*
X0104335Y0190956D01*
X0104341Y0191051D01*
X0104343Y0191146D01*
X0104343Y0210043D01*
X0104345Y0210129D01*
X0104350Y0210215D01*
X0104360Y0210300D01*
X0104373Y0210385D01*
X0104390Y0210469D01*
X0104410Y0210553D01*
X0104434Y0210635D01*
X0104462Y0210716D01*
X0104493Y0210797D01*
X0104527Y0210875D01*
X0104565Y0210952D01*
X0104607Y0211028D01*
X0104651Y0211101D01*
X0104699Y0211172D01*
X0104750Y0211242D01*
X0104804Y0211309D01*
X0104860Y0211373D01*
X0104920Y0211435D01*
X0104982Y0211495D01*
X0105046Y0211551D01*
X0105113Y0211605D01*
X0105183Y0211656D01*
X0105254Y0211704D01*
X0105328Y0211748D01*
X0105403Y0211790D01*
X0105480Y0211828D01*
X0105558Y0211862D01*
X0105639Y0211893D01*
X0105720Y0211921D01*
X0105802Y0211945D01*
X0105886Y0211965D01*
X0105970Y0211982D01*
X0106055Y0211995D01*
X0106140Y0212005D01*
X0106226Y0212010D01*
X0106312Y0212012D01*
X0140170Y0212012D01*
X0140327Y0212010D01*
X0140484Y0212004D01*
X0140641Y0211994D01*
X0140797Y0211981D01*
X0140953Y0211963D01*
X0141109Y0211942D01*
X0141264Y0211916D01*
X0141418Y0211887D01*
X0141572Y0211854D01*
X0141724Y0211817D01*
X0141876Y0211777D01*
X0142027Y0211732D01*
X0142176Y0211684D01*
X0142324Y0211632D01*
X0142471Y0211577D01*
X0142617Y0211517D01*
X0142761Y0211455D01*
X0142903Y0211388D01*
X0143044Y0211318D01*
X0143183Y0211245D01*
X0143320Y0211168D01*
X0143455Y0211088D01*
X0143587Y0211004D01*
X0143718Y0210917D01*
X0143847Y0210827D01*
X0143973Y0210734D01*
X0144097Y0210638D01*
X0144219Y0210538D01*
X0144338Y0210436D01*
X0144454Y0210330D01*
X0144568Y0210222D01*
X0144679Y0210111D01*
X0144787Y0209997D01*
X0144893Y0209881D01*
X0144995Y0209762D01*
X0145095Y0209640D01*
X0145191Y0209516D01*
X0145284Y0209390D01*
X0145374Y0209261D01*
X0145461Y0209130D01*
X0145545Y0208998D01*
X0145625Y0208863D01*
X0145702Y0208726D01*
X0145775Y0208587D01*
X0145845Y0208446D01*
X0145912Y0208304D01*
X0145974Y0208160D01*
X0146034Y0208014D01*
X0146089Y0207867D01*
X0146141Y0207719D01*
X0146189Y0207570D01*
X0146234Y0207419D01*
X0146274Y0207267D01*
X0146311Y0207115D01*
X0146344Y0206961D01*
X0146373Y0206807D01*
X0146399Y0206652D01*
X0146420Y0206496D01*
X0146438Y0206340D01*
X0146451Y0206184D01*
X0146461Y0206027D01*
X0146467Y0205870D01*
X0146469Y0205713D01*
X0146469Y0025004D01*
X0146470Y0025004D02*
X0146468Y0024804D01*
X0146460Y0024605D01*
X0146448Y0024405D01*
X0146431Y0024206D01*
X0146410Y0024007D01*
X0146383Y0023809D01*
X0146352Y0023612D01*
X0146316Y0023415D01*
X0146275Y0023220D01*
X0146230Y0023025D01*
X0146180Y0022832D01*
X0146125Y0022640D01*
X0146065Y0022449D01*
X0146001Y0022260D01*
X0145933Y0022072D01*
X0145860Y0021886D01*
X0145782Y0021702D01*
X0145700Y0021520D01*
X0145614Y0021340D01*
X0145523Y0021162D01*
X0145428Y0020986D01*
X0145329Y0020812D01*
X0145225Y0020641D01*
X0145118Y0020473D01*
X0145006Y0020307D01*
X0144891Y0020144D01*
X0144772Y0019984D01*
X0144648Y0019827D01*
X0144521Y0019672D01*
X0144391Y0019521D01*
X0144256Y0019373D01*
X0144119Y0019229D01*
X0143977Y0019087D01*
X0143833Y0018950D01*
X0143685Y0018815D01*
X0143534Y0018685D01*
X0143379Y0018558D01*
X0143222Y0018434D01*
X0143062Y0018315D01*
X0142899Y0018200D01*
X0142733Y0018088D01*
X0142565Y0017981D01*
X0142394Y0017877D01*
X0142220Y0017778D01*
X0142044Y0017683D01*
X0141866Y0017592D01*
X0141686Y0017506D01*
X0141504Y0017424D01*
X0141320Y0017346D01*
X0141134Y0017273D01*
X0140946Y0017205D01*
X0140757Y0017141D01*
X0140566Y0017081D01*
X0140374Y0017026D01*
X0140181Y0016976D01*
X0139986Y0016931D01*
X0139791Y0016890D01*
X0139594Y0016854D01*
X0139397Y0016823D01*
X0139199Y0016796D01*
X0139000Y0016775D01*
X0138801Y0016758D01*
X0138601Y0016746D01*
X0138402Y0016738D01*
X0138202Y0016736D01*
D12*
X0067892Y0029557D02*
X0067892Y0035957D01*
X0067892Y0055157D02*
X0067892Y0061557D01*
X0050092Y0061557D02*
X0050092Y0055157D01*
X0050092Y0035957D02*
X0050092Y0029557D01*
X0134546Y0152787D02*
X0140946Y0152787D01*
X0140946Y0162787D02*
X0134546Y0162787D01*
X0134546Y0172787D02*
X0140946Y0172787D01*
X0140946Y0182787D02*
X0134546Y0182787D01*
X0134546Y0192787D02*
X0140946Y0192787D01*
X0140946Y0202787D02*
X0134546Y0202787D01*
D13*
X0118005Y0114108D02*
X0118005Y0108508D01*
X0108005Y0108508D02*
X0108005Y0114108D01*
X0108005Y0078508D02*
X0108005Y0072908D01*
X0118005Y0072908D02*
X0118005Y0078508D01*
X0024760Y0095730D02*
X0024760Y0101330D01*
X0024760Y0125730D02*
X0024760Y0131330D01*
D14*
X0019094Y0059331D02*
X0011220Y0059331D01*
X0011220Y0034528D02*
X0019094Y0034528D01*
X0034843Y0043583D02*
X0034843Y0051457D01*
D15*
X0103162Y0037333D02*
X0103162Y0030233D01*
X0122847Y0030233D02*
X0122847Y0037333D01*
D16*
X0072060Y0104531D03*
X0092532Y0137996D03*
X0089383Y0152169D03*
X0066548Y0168705D03*
X0137414Y0135240D03*
M02*
