G75*
%MOIN*%
%OFA0B0*%
%FSLAX25Y25*%
%IPPOS*%
%LPD*%
%AMOC8*
5,1,8,0,0,1.08239X$1,22.5*
%
%ADD10C,0.00400*%
%ADD11C,0.00600*%
%ADD12C,0.00300*%
%ADD13C,0.03200*%
%ADD14C,0.01600*%
%ADD15C,0.00800*%
%ADD16C,0.00500*%
%ADD17C,0.02400*%
%ADD18R,0.04000X0.01500*%
%ADD19R,0.16142X0.01181*%
%ADD20C,0.01200*%
D10*
X0040540Y0105350D02*
X0040576Y0105390D01*
X0040614Y0105427D01*
X0040656Y0105462D01*
X0040699Y0105493D01*
X0040745Y0105522D01*
X0040792Y0105547D01*
X0040841Y0105569D01*
X0040892Y0105587D01*
X0040944Y0105602D01*
X0040996Y0105613D01*
X0041049Y0105621D01*
X0041103Y0105625D01*
X0041157Y0105625D01*
X0041211Y0105621D01*
X0041264Y0105613D01*
X0041316Y0105602D01*
X0041368Y0105587D01*
X0041419Y0105569D01*
X0041468Y0105547D01*
X0041515Y0105522D01*
X0041561Y0105493D01*
X0041604Y0105462D01*
X0041646Y0105427D01*
X0041684Y0105390D01*
X0041720Y0105350D01*
X0041721Y0105350D02*
X0041757Y0105310D01*
X0041795Y0105273D01*
X0041837Y0105238D01*
X0041880Y0105207D01*
X0041926Y0105178D01*
X0041973Y0105153D01*
X0042022Y0105131D01*
X0042073Y0105113D01*
X0042125Y0105098D01*
X0042177Y0105087D01*
X0042230Y0105079D01*
X0042284Y0105075D01*
X0042338Y0105075D01*
X0042392Y0105079D01*
X0042445Y0105087D01*
X0042497Y0105098D01*
X0042549Y0105113D01*
X0042600Y0105131D01*
X0042649Y0105153D01*
X0042696Y0105178D01*
X0042742Y0105207D01*
X0042785Y0105238D01*
X0042827Y0105273D01*
X0042865Y0105310D01*
X0042901Y0105350D01*
X0043020Y0114189D02*
X0040520Y0114189D01*
X0051780Y0114091D02*
X0054280Y0114091D01*
X0053020Y0112870D02*
X0053020Y0115370D01*
X0054221Y0105350D02*
X0054257Y0105310D01*
X0054295Y0105273D01*
X0054337Y0105238D01*
X0054380Y0105207D01*
X0054426Y0105178D01*
X0054473Y0105153D01*
X0054522Y0105131D01*
X0054573Y0105113D01*
X0054625Y0105098D01*
X0054677Y0105087D01*
X0054730Y0105079D01*
X0054784Y0105075D01*
X0054838Y0105075D01*
X0054892Y0105079D01*
X0054945Y0105087D01*
X0054997Y0105098D01*
X0055049Y0105113D01*
X0055100Y0105131D01*
X0055149Y0105153D01*
X0055196Y0105178D01*
X0055242Y0105207D01*
X0055285Y0105238D01*
X0055327Y0105273D01*
X0055365Y0105310D01*
X0055401Y0105350D01*
X0054220Y0105350D02*
X0054184Y0105390D01*
X0054146Y0105427D01*
X0054104Y0105462D01*
X0054061Y0105493D01*
X0054015Y0105522D01*
X0053968Y0105547D01*
X0053919Y0105569D01*
X0053868Y0105587D01*
X0053816Y0105602D01*
X0053764Y0105613D01*
X0053711Y0105621D01*
X0053657Y0105625D01*
X0053603Y0105625D01*
X0053549Y0105621D01*
X0053496Y0105613D01*
X0053444Y0105602D01*
X0053392Y0105587D01*
X0053341Y0105569D01*
X0053292Y0105547D01*
X0053245Y0105522D01*
X0053199Y0105493D01*
X0053156Y0105462D01*
X0053114Y0105427D01*
X0053076Y0105390D01*
X0053040Y0105350D01*
X0086269Y0099277D02*
X0086269Y0095807D01*
X0086269Y0097542D02*
X0088003Y0099277D01*
X0088871Y0099277D01*
X0090566Y0098409D02*
X0090566Y0096674D01*
X0091433Y0095807D01*
X0093168Y0095807D01*
X0094035Y0097542D02*
X0090566Y0097542D01*
X0090566Y0098409D02*
X0091433Y0099277D01*
X0093168Y0099277D01*
X0094035Y0098409D01*
X0094035Y0097542D01*
X0095722Y0098409D02*
X0096589Y0099277D01*
X0099192Y0099277D01*
X0100878Y0098409D02*
X0101746Y0099277D01*
X0103481Y0099277D01*
X0104348Y0098409D01*
X0104348Y0097542D01*
X0100878Y0097542D01*
X0100878Y0098409D02*
X0100878Y0096674D01*
X0101746Y0095807D01*
X0103481Y0095807D01*
X0106902Y0096674D02*
X0106902Y0100144D01*
X0106035Y0099277D02*
X0107770Y0099277D01*
X0106902Y0096674D02*
X0107770Y0095807D01*
X0114219Y0103109D02*
X0095321Y0103109D01*
X0088628Y0109802D01*
X0088628Y0112165D01*
X0088628Y0119645D02*
X0088628Y0122007D01*
X0095321Y0128700D01*
X0114219Y0128700D01*
X0114219Y0119645D01*
X0114219Y0112165D02*
X0114219Y0103109D01*
X0103814Y0105587D02*
X0099210Y0105587D01*
X0101512Y0103285D01*
X0101512Y0106354D01*
X0103047Y0107889D02*
X0103814Y0107889D01*
X0103047Y0107889D02*
X0099978Y0110958D01*
X0099210Y0110958D01*
X0099210Y0107889D01*
X0099978Y0112493D02*
X0099210Y0113260D01*
X0099210Y0114795D01*
X0099978Y0115562D01*
X0103047Y0112493D01*
X0103814Y0113260D01*
X0103814Y0114795D01*
X0103047Y0115562D01*
X0099978Y0115562D01*
X0089809Y0119645D02*
X0089904Y0119928D01*
X0090006Y0120209D01*
X0090115Y0120486D01*
X0090230Y0120762D01*
X0090352Y0121034D01*
X0090481Y0121303D01*
X0090616Y0121569D01*
X0090758Y0121831D01*
X0090906Y0122090D01*
X0091060Y0122346D01*
X0091221Y0122597D01*
X0091388Y0122845D01*
X0091560Y0123088D01*
X0091739Y0123327D01*
X0091923Y0123562D01*
X0092113Y0123792D01*
X0092309Y0124017D01*
X0092510Y0124237D01*
X0092716Y0124453D01*
X0092928Y0124663D01*
X0093144Y0124868D01*
X0093366Y0125068D01*
X0093593Y0125262D01*
X0093824Y0125451D01*
X0094059Y0125634D01*
X0094299Y0125811D01*
X0094544Y0125982D01*
X0094792Y0126147D01*
X0095045Y0126306D01*
X0095301Y0126459D01*
X0095561Y0126606D01*
X0095824Y0126746D01*
X0096091Y0126880D01*
X0096361Y0127007D01*
X0096634Y0127127D01*
X0096909Y0127241D01*
X0097188Y0127348D01*
X0097469Y0127448D01*
X0097752Y0127541D01*
X0098038Y0127628D01*
X0098326Y0127707D01*
X0098615Y0127779D01*
X0098906Y0127844D01*
X0099199Y0127902D01*
X0099493Y0127953D01*
X0099788Y0127997D01*
X0100084Y0128033D01*
X0100381Y0128062D01*
X0100679Y0128084D01*
X0100977Y0128099D01*
X0101275Y0128106D01*
X0101573Y0128106D01*
X0101871Y0128099D01*
X0102169Y0128084D01*
X0102467Y0128062D01*
X0102764Y0128033D01*
X0103060Y0127997D01*
X0103355Y0127953D01*
X0103649Y0127902D01*
X0103942Y0127844D01*
X0104233Y0127779D01*
X0104522Y0127707D01*
X0104810Y0127628D01*
X0105096Y0127541D01*
X0105379Y0127448D01*
X0105660Y0127348D01*
X0105939Y0127241D01*
X0106214Y0127127D01*
X0106487Y0127007D01*
X0106757Y0126880D01*
X0107024Y0126746D01*
X0107287Y0126606D01*
X0107547Y0126459D01*
X0107803Y0126306D01*
X0108056Y0126147D01*
X0108304Y0125982D01*
X0108549Y0125811D01*
X0108789Y0125634D01*
X0109024Y0125451D01*
X0109255Y0125262D01*
X0109482Y0125068D01*
X0109704Y0124868D01*
X0109920Y0124663D01*
X0110132Y0124453D01*
X0110338Y0124237D01*
X0110539Y0124017D01*
X0110735Y0123792D01*
X0110925Y0123562D01*
X0111109Y0123327D01*
X0111288Y0123088D01*
X0111460Y0122845D01*
X0111627Y0122597D01*
X0111788Y0122346D01*
X0111942Y0122090D01*
X0112090Y0121831D01*
X0112232Y0121569D01*
X0112367Y0121303D01*
X0112496Y0121034D01*
X0112618Y0120762D01*
X0112733Y0120486D01*
X0112842Y0120209D01*
X0112944Y0119928D01*
X0113039Y0119645D01*
X0103814Y0120166D02*
X0103814Y0117864D01*
X0103047Y0117097D01*
X0100745Y0117097D01*
X0089809Y0112165D02*
X0089904Y0111882D01*
X0090006Y0111601D01*
X0090115Y0111324D01*
X0090230Y0111048D01*
X0090352Y0110776D01*
X0090481Y0110507D01*
X0090616Y0110241D01*
X0090758Y0109979D01*
X0090906Y0109720D01*
X0091060Y0109464D01*
X0091221Y0109213D01*
X0091388Y0108965D01*
X0091560Y0108722D01*
X0091739Y0108483D01*
X0091923Y0108248D01*
X0092113Y0108018D01*
X0092309Y0107793D01*
X0092510Y0107573D01*
X0092716Y0107357D01*
X0092928Y0107147D01*
X0093144Y0106942D01*
X0093366Y0106742D01*
X0093593Y0106548D01*
X0093824Y0106359D01*
X0094059Y0106176D01*
X0094299Y0105999D01*
X0094544Y0105828D01*
X0094792Y0105663D01*
X0095045Y0105504D01*
X0095301Y0105351D01*
X0095561Y0105204D01*
X0095824Y0105064D01*
X0096091Y0104930D01*
X0096361Y0104803D01*
X0096634Y0104683D01*
X0096909Y0104569D01*
X0097188Y0104462D01*
X0097469Y0104362D01*
X0097752Y0104269D01*
X0098038Y0104182D01*
X0098326Y0104103D01*
X0098615Y0104031D01*
X0098906Y0103966D01*
X0099199Y0103908D01*
X0099493Y0103857D01*
X0099788Y0103813D01*
X0100084Y0103777D01*
X0100381Y0103748D01*
X0100679Y0103726D01*
X0100977Y0103711D01*
X0101275Y0103704D01*
X0101573Y0103704D01*
X0101871Y0103711D01*
X0102169Y0103726D01*
X0102467Y0103748D01*
X0102764Y0103777D01*
X0103060Y0103813D01*
X0103355Y0103857D01*
X0103649Y0103908D01*
X0103942Y0103966D01*
X0104233Y0104031D01*
X0104522Y0104103D01*
X0104810Y0104182D01*
X0105096Y0104269D01*
X0105379Y0104362D01*
X0105660Y0104462D01*
X0105939Y0104569D01*
X0106214Y0104683D01*
X0106487Y0104803D01*
X0106757Y0104930D01*
X0107024Y0105064D01*
X0107287Y0105204D01*
X0107547Y0105351D01*
X0107803Y0105504D01*
X0108056Y0105663D01*
X0108304Y0105828D01*
X0108549Y0105999D01*
X0108789Y0106176D01*
X0109024Y0106359D01*
X0109255Y0106548D01*
X0109482Y0106742D01*
X0109704Y0106942D01*
X0109920Y0107147D01*
X0110132Y0107357D01*
X0110338Y0107573D01*
X0110539Y0107793D01*
X0110735Y0108018D01*
X0110925Y0108248D01*
X0111109Y0108483D01*
X0111288Y0108722D01*
X0111460Y0108965D01*
X0111627Y0109213D01*
X0111788Y0109464D01*
X0111942Y0109720D01*
X0112090Y0109979D01*
X0112232Y0110241D01*
X0112367Y0110507D01*
X0112496Y0110776D01*
X0112618Y0111048D01*
X0112733Y0111324D01*
X0112842Y0111601D01*
X0112944Y0111882D01*
X0113039Y0112165D01*
X0103047Y0112493D02*
X0099978Y0112493D01*
X0100745Y0120166D02*
X0103814Y0120166D01*
X0103814Y0122468D02*
X0099978Y0122468D01*
X0099210Y0123235D01*
X0101512Y0123235D02*
X0101512Y0121701D01*
X0107211Y0137254D02*
X0110280Y0137254D01*
X0108746Y0137254D02*
X0108746Y0141858D01*
X0107211Y0140324D01*
X0111815Y0141091D02*
X0111815Y0138022D01*
X0114884Y0141091D01*
X0114884Y0138022D01*
X0114117Y0137254D01*
X0112582Y0137254D01*
X0111815Y0138022D01*
X0111815Y0141091D02*
X0112582Y0141858D01*
X0114117Y0141858D01*
X0114884Y0141091D01*
X0116419Y0141091D02*
X0116419Y0138022D01*
X0119488Y0141091D01*
X0119488Y0138022D01*
X0118721Y0137254D01*
X0117186Y0137254D01*
X0116419Y0138022D01*
X0116419Y0141091D02*
X0117186Y0141858D01*
X0118721Y0141858D01*
X0119488Y0141091D01*
X0121023Y0140324D02*
X0123325Y0140324D01*
X0124092Y0139556D01*
X0124092Y0137254D01*
X0125627Y0137254D02*
X0125627Y0141858D01*
X0128696Y0141858D01*
X0127161Y0139556D02*
X0125627Y0139556D01*
X0121023Y0140324D02*
X0121023Y0137254D01*
X0095722Y0098409D02*
X0096589Y0097542D01*
X0098324Y0097542D01*
X0099192Y0096674D01*
X0098324Y0095807D01*
X0095722Y0095807D01*
X0115015Y0066506D02*
X0115015Y0065639D01*
X0116749Y0063904D01*
X0115015Y0063904D02*
X0118484Y0063904D01*
X0117617Y0062217D02*
X0118484Y0061350D01*
X0118484Y0059615D01*
X0117617Y0058747D01*
X0114147Y0062217D01*
X0117617Y0062217D01*
X0117617Y0058747D02*
X0114147Y0058747D01*
X0113280Y0059615D01*
X0113280Y0061350D01*
X0114147Y0062217D01*
X0114147Y0057061D02*
X0115015Y0057061D01*
X0115882Y0056193D01*
X0116749Y0057061D01*
X0117617Y0057061D01*
X0118484Y0056193D01*
X0118484Y0054458D01*
X0117617Y0053591D01*
X0117617Y0051904D02*
X0116749Y0051904D01*
X0115882Y0051037D01*
X0115882Y0050169D01*
X0115882Y0051037D02*
X0115015Y0051904D01*
X0114147Y0051904D01*
X0113280Y0051037D01*
X0113280Y0049302D01*
X0114147Y0048435D01*
X0117617Y0048435D02*
X0118484Y0049302D01*
X0118484Y0051037D01*
X0117617Y0051904D01*
X0115882Y0055326D02*
X0115882Y0056193D01*
X0114147Y0057061D02*
X0113280Y0056193D01*
X0113280Y0054458D01*
X0114147Y0053591D01*
X0155020Y0124754D02*
X0155020Y0128357D01*
X0156822Y0128357D01*
X0157423Y0127756D01*
X0157423Y0126555D01*
X0156822Y0125955D01*
X0155020Y0125955D01*
X0158704Y0125354D02*
X0159304Y0124754D01*
X0160505Y0124754D01*
X0161106Y0125354D01*
X0162387Y0125354D02*
X0162387Y0125955D01*
X0162987Y0126555D01*
X0164188Y0126555D01*
X0164789Y0125955D01*
X0164789Y0125354D01*
X0164188Y0124754D01*
X0162987Y0124754D01*
X0162387Y0125354D01*
X0162987Y0126555D02*
X0162387Y0127156D01*
X0162387Y0127756D01*
X0162987Y0128357D01*
X0164188Y0128357D01*
X0164789Y0127756D01*
X0164789Y0127156D01*
X0164188Y0126555D01*
X0166070Y0127156D02*
X0167271Y0128357D01*
X0167271Y0124754D01*
X0166070Y0124754D02*
X0168472Y0124754D01*
X0169753Y0124754D02*
X0169753Y0125354D01*
X0172155Y0127756D01*
X0172155Y0128357D01*
X0169753Y0128357D01*
X0161106Y0127756D02*
X0160505Y0128357D01*
X0159304Y0128357D01*
X0158704Y0127756D01*
X0158704Y0125354D01*
X0162359Y0144407D02*
X0160624Y0146142D01*
X0165828Y0146142D01*
X0165828Y0144407D02*
X0165828Y0147877D01*
X0164961Y0149563D02*
X0161491Y0153033D01*
X0164961Y0153033D01*
X0165828Y0152166D01*
X0165828Y0150431D01*
X0164961Y0149563D01*
X0161491Y0149563D01*
X0160624Y0150431D01*
X0160624Y0152166D01*
X0161491Y0153033D01*
X0160624Y0154720D02*
X0165828Y0154720D01*
X0164094Y0154720D02*
X0165828Y0157322D01*
X0164094Y0154720D02*
X0162359Y0157322D01*
X0161365Y0162361D02*
X0159630Y0164095D01*
X0164835Y0164095D01*
X0164835Y0162361D02*
X0164835Y0165830D01*
X0163967Y0167517D02*
X0160498Y0170987D01*
X0163967Y0170987D01*
X0164835Y0170119D01*
X0164835Y0168384D01*
X0163967Y0167517D01*
X0160498Y0167517D01*
X0159630Y0168384D01*
X0159630Y0170119D01*
X0160498Y0170987D01*
X0159630Y0172673D02*
X0164835Y0172673D01*
X0163100Y0172673D02*
X0164835Y0175276D01*
X0163100Y0172673D02*
X0161365Y0175276D01*
X0160965Y0208624D02*
X0157495Y0212094D01*
X0155801Y0212094D02*
X0154933Y0212094D01*
X0153198Y0210359D01*
X0153198Y0208624D02*
X0153198Y0212094D01*
X0157495Y0208624D02*
X0160965Y0212094D01*
X0160499Y0218467D02*
X0157030Y0221937D01*
X0155327Y0221937D02*
X0153592Y0221937D01*
X0154460Y0222804D02*
X0154460Y0219334D01*
X0155327Y0218467D01*
X0157030Y0218467D02*
X0160499Y0221937D01*
X0127351Y0201993D02*
X0126483Y0202860D01*
X0124748Y0202860D01*
X0123881Y0201993D01*
X0127351Y0201126D02*
X0123881Y0197656D01*
X0127351Y0197656D01*
X0127351Y0201126D02*
X0127351Y0201993D01*
X0122194Y0197656D02*
X0118725Y0197656D01*
X0120459Y0197656D02*
X0120459Y0202860D01*
X0118725Y0201126D01*
X0111881Y0200258D02*
X0108412Y0200258D01*
X0101569Y0200258D02*
X0100701Y0199391D01*
X0098099Y0199391D01*
X0096412Y0199391D02*
X0096412Y0198523D01*
X0095545Y0197656D01*
X0093810Y0197656D01*
X0092943Y0198523D01*
X0091256Y0197656D02*
X0087786Y0197656D01*
X0087786Y0202860D01*
X0091256Y0202860D01*
X0092943Y0201993D02*
X0092943Y0201126D01*
X0093810Y0200258D01*
X0095545Y0200258D01*
X0096412Y0199391D01*
X0098099Y0197656D02*
X0098099Y0202860D01*
X0100701Y0202860D01*
X0101569Y0201993D01*
X0101569Y0200258D01*
X0096412Y0201993D02*
X0095545Y0202860D01*
X0093810Y0202860D01*
X0092943Y0201993D01*
X0089521Y0200258D02*
X0087786Y0200258D01*
X0071259Y0221560D02*
X0071259Y0225029D01*
X0071259Y0223295D02*
X0066055Y0223295D01*
X0067789Y0221560D01*
X0066922Y0226716D02*
X0066055Y0227584D01*
X0066055Y0229318D01*
X0066922Y0230186D01*
X0070392Y0226716D01*
X0071259Y0227584D01*
X0071259Y0229318D01*
X0070392Y0230186D01*
X0066922Y0230186D01*
X0066055Y0231873D02*
X0071259Y0231873D01*
X0069524Y0231873D02*
X0071259Y0234475D01*
X0069524Y0231873D02*
X0067789Y0234475D01*
X0066922Y0226716D02*
X0070392Y0226716D01*
X0051761Y0226756D02*
X0051761Y0225021D01*
X0050894Y0224154D01*
X0047424Y0227624D01*
X0050894Y0227624D01*
X0051761Y0226756D01*
X0051761Y0229310D02*
X0046557Y0229310D01*
X0047424Y0227624D02*
X0046557Y0226756D01*
X0046557Y0225021D01*
X0047424Y0224154D01*
X0050894Y0224154D01*
X0051761Y0222467D02*
X0051761Y0218998D01*
X0051761Y0220732D02*
X0046557Y0220732D01*
X0048292Y0218998D01*
X0050027Y0229310D02*
X0048292Y0231913D01*
X0050027Y0229310D02*
X0051761Y0231913D01*
D11*
X0056317Y0205645D02*
X0041317Y0205645D01*
X0041317Y0192645D01*
X0041317Y0179645D01*
X0041317Y0166645D01*
X0056317Y0166645D01*
X0056317Y0179645D01*
X0056317Y0192645D01*
X0056317Y0205645D01*
X0060546Y0204300D02*
X0061614Y0205368D01*
X0064817Y0205368D01*
X0064817Y0203233D02*
X0061614Y0203233D01*
X0060546Y0204300D01*
X0061614Y0203233D02*
X0060546Y0202165D01*
X0060546Y0201098D01*
X0064817Y0201098D01*
X0064817Y0198923D02*
X0064817Y0195720D01*
X0063749Y0194652D01*
X0062681Y0195720D01*
X0062681Y0198923D01*
X0061614Y0198923D02*
X0064817Y0198923D01*
X0061614Y0198923D02*
X0060546Y0197855D01*
X0060546Y0195720D01*
X0060546Y0192484D02*
X0060546Y0191416D01*
X0062681Y0189281D01*
X0060546Y0189281D02*
X0064817Y0189281D01*
X0064817Y0187106D02*
X0064817Y0183903D01*
X0063749Y0182835D01*
X0061614Y0182835D01*
X0060546Y0183903D01*
X0060546Y0187106D01*
X0065884Y0187106D01*
X0066952Y0186038D01*
X0066952Y0184971D01*
X0063749Y0180660D02*
X0064817Y0179593D01*
X0064817Y0177458D01*
X0063749Y0176390D01*
X0061614Y0176390D01*
X0060546Y0177458D01*
X0060546Y0179593D01*
X0061614Y0180660D01*
X0063749Y0180660D01*
X0060546Y0174221D02*
X0060546Y0173154D01*
X0062681Y0171019D01*
X0060546Y0171019D02*
X0064817Y0171019D01*
X0063749Y0168844D02*
X0064817Y0167776D01*
X0064817Y0164573D01*
X0066952Y0164573D02*
X0060546Y0164573D01*
X0060546Y0167776D01*
X0061614Y0168844D01*
X0063749Y0168844D01*
X0056317Y0179645D02*
X0054317Y0179645D01*
X0054317Y0192645D01*
X0056317Y0192645D01*
X0051817Y0193645D02*
X0051817Y0178645D01*
X0045817Y0178645D01*
X0045817Y0193645D01*
X0051817Y0193645D01*
X0043317Y0192645D02*
X0041317Y0192645D01*
X0043317Y0192645D02*
X0043317Y0179645D01*
X0041317Y0179645D01*
X0040032Y0147724D02*
X0044201Y0147724D01*
X0040032Y0147724D02*
X0040032Y0137043D01*
X0045292Y0137012D02*
X0046705Y0137012D01*
X0051198Y0137012D02*
X0052610Y0137012D01*
X0057925Y0137043D02*
X0057925Y0147724D01*
X0053954Y0147724D01*
X0123120Y0080999D02*
X0123120Y0080200D01*
X0162420Y0080200D01*
X0162420Y0054200D01*
X0162420Y0044798D01*
X0123120Y0044798D01*
X0123120Y0054200D01*
X0123120Y0080200D01*
X0123120Y0080999D02*
X0162420Y0080999D01*
X0162420Y0080200D01*
X0150620Y0074998D02*
X0150622Y0075087D01*
X0150628Y0075176D01*
X0150638Y0075265D01*
X0150652Y0075353D01*
X0150669Y0075440D01*
X0150691Y0075526D01*
X0150717Y0075612D01*
X0150746Y0075696D01*
X0150779Y0075779D01*
X0150815Y0075860D01*
X0150856Y0075940D01*
X0150899Y0076017D01*
X0150946Y0076093D01*
X0150997Y0076166D01*
X0151050Y0076237D01*
X0151107Y0076306D01*
X0151167Y0076372D01*
X0151230Y0076436D01*
X0151295Y0076496D01*
X0151363Y0076554D01*
X0151434Y0076608D01*
X0151507Y0076659D01*
X0151582Y0076707D01*
X0151659Y0076752D01*
X0151738Y0076793D01*
X0151819Y0076830D01*
X0151901Y0076864D01*
X0151985Y0076895D01*
X0152070Y0076921D01*
X0152156Y0076944D01*
X0152243Y0076962D01*
X0152331Y0076977D01*
X0152420Y0076988D01*
X0152509Y0076995D01*
X0152598Y0076998D01*
X0152687Y0076997D01*
X0152776Y0076992D01*
X0152864Y0076983D01*
X0152953Y0076970D01*
X0153040Y0076953D01*
X0153127Y0076933D01*
X0153213Y0076908D01*
X0153297Y0076880D01*
X0153380Y0076848D01*
X0153462Y0076812D01*
X0153542Y0076773D01*
X0153620Y0076730D01*
X0153696Y0076684D01*
X0153770Y0076634D01*
X0153842Y0076581D01*
X0153911Y0076525D01*
X0153978Y0076466D01*
X0154042Y0076404D01*
X0154103Y0076340D01*
X0154162Y0076272D01*
X0154217Y0076202D01*
X0154269Y0076130D01*
X0154318Y0076055D01*
X0154363Y0075979D01*
X0154405Y0075900D01*
X0154443Y0075820D01*
X0154478Y0075738D01*
X0154509Y0075654D01*
X0154537Y0075569D01*
X0154560Y0075483D01*
X0154580Y0075396D01*
X0154596Y0075309D01*
X0154608Y0075220D01*
X0154616Y0075132D01*
X0154620Y0075043D01*
X0154620Y0074953D01*
X0154616Y0074864D01*
X0154608Y0074776D01*
X0154596Y0074687D01*
X0154580Y0074600D01*
X0154560Y0074513D01*
X0154537Y0074427D01*
X0154509Y0074342D01*
X0154478Y0074258D01*
X0154443Y0074176D01*
X0154405Y0074096D01*
X0154363Y0074017D01*
X0154318Y0073941D01*
X0154269Y0073866D01*
X0154217Y0073794D01*
X0154162Y0073724D01*
X0154103Y0073656D01*
X0154042Y0073592D01*
X0153978Y0073530D01*
X0153911Y0073471D01*
X0153842Y0073415D01*
X0153770Y0073362D01*
X0153696Y0073312D01*
X0153620Y0073266D01*
X0153542Y0073223D01*
X0153462Y0073184D01*
X0153380Y0073148D01*
X0153297Y0073116D01*
X0153213Y0073088D01*
X0153127Y0073063D01*
X0153040Y0073043D01*
X0152953Y0073026D01*
X0152864Y0073013D01*
X0152776Y0073004D01*
X0152687Y0072999D01*
X0152598Y0072998D01*
X0152509Y0073001D01*
X0152420Y0073008D01*
X0152331Y0073019D01*
X0152243Y0073034D01*
X0152156Y0073052D01*
X0152070Y0073075D01*
X0151985Y0073101D01*
X0151901Y0073132D01*
X0151819Y0073166D01*
X0151738Y0073203D01*
X0151659Y0073244D01*
X0151582Y0073289D01*
X0151507Y0073337D01*
X0151434Y0073388D01*
X0151363Y0073442D01*
X0151295Y0073500D01*
X0151230Y0073560D01*
X0151167Y0073624D01*
X0151107Y0073690D01*
X0151050Y0073759D01*
X0150997Y0073830D01*
X0150946Y0073903D01*
X0150899Y0073979D01*
X0150856Y0074056D01*
X0150815Y0074136D01*
X0150779Y0074217D01*
X0150746Y0074300D01*
X0150717Y0074384D01*
X0150691Y0074470D01*
X0150669Y0074556D01*
X0150652Y0074643D01*
X0150638Y0074731D01*
X0150628Y0074820D01*
X0150622Y0074909D01*
X0150620Y0074998D01*
X0149120Y0054200D02*
X0136420Y0054200D01*
X0129420Y0054200D02*
X0123120Y0054200D01*
X0130920Y0074998D02*
X0130922Y0075087D01*
X0130928Y0075176D01*
X0130938Y0075265D01*
X0130952Y0075353D01*
X0130969Y0075440D01*
X0130991Y0075526D01*
X0131017Y0075612D01*
X0131046Y0075696D01*
X0131079Y0075779D01*
X0131115Y0075860D01*
X0131156Y0075940D01*
X0131199Y0076017D01*
X0131246Y0076093D01*
X0131297Y0076166D01*
X0131350Y0076237D01*
X0131407Y0076306D01*
X0131467Y0076372D01*
X0131530Y0076436D01*
X0131595Y0076496D01*
X0131663Y0076554D01*
X0131734Y0076608D01*
X0131807Y0076659D01*
X0131882Y0076707D01*
X0131959Y0076752D01*
X0132038Y0076793D01*
X0132119Y0076830D01*
X0132201Y0076864D01*
X0132285Y0076895D01*
X0132370Y0076921D01*
X0132456Y0076944D01*
X0132543Y0076962D01*
X0132631Y0076977D01*
X0132720Y0076988D01*
X0132809Y0076995D01*
X0132898Y0076998D01*
X0132987Y0076997D01*
X0133076Y0076992D01*
X0133164Y0076983D01*
X0133253Y0076970D01*
X0133340Y0076953D01*
X0133427Y0076933D01*
X0133513Y0076908D01*
X0133597Y0076880D01*
X0133680Y0076848D01*
X0133762Y0076812D01*
X0133842Y0076773D01*
X0133920Y0076730D01*
X0133996Y0076684D01*
X0134070Y0076634D01*
X0134142Y0076581D01*
X0134211Y0076525D01*
X0134278Y0076466D01*
X0134342Y0076404D01*
X0134403Y0076340D01*
X0134462Y0076272D01*
X0134517Y0076202D01*
X0134569Y0076130D01*
X0134618Y0076055D01*
X0134663Y0075979D01*
X0134705Y0075900D01*
X0134743Y0075820D01*
X0134778Y0075738D01*
X0134809Y0075654D01*
X0134837Y0075569D01*
X0134860Y0075483D01*
X0134880Y0075396D01*
X0134896Y0075309D01*
X0134908Y0075220D01*
X0134916Y0075132D01*
X0134920Y0075043D01*
X0134920Y0074953D01*
X0134916Y0074864D01*
X0134908Y0074776D01*
X0134896Y0074687D01*
X0134880Y0074600D01*
X0134860Y0074513D01*
X0134837Y0074427D01*
X0134809Y0074342D01*
X0134778Y0074258D01*
X0134743Y0074176D01*
X0134705Y0074096D01*
X0134663Y0074017D01*
X0134618Y0073941D01*
X0134569Y0073866D01*
X0134517Y0073794D01*
X0134462Y0073724D01*
X0134403Y0073656D01*
X0134342Y0073592D01*
X0134278Y0073530D01*
X0134211Y0073471D01*
X0134142Y0073415D01*
X0134070Y0073362D01*
X0133996Y0073312D01*
X0133920Y0073266D01*
X0133842Y0073223D01*
X0133762Y0073184D01*
X0133680Y0073148D01*
X0133597Y0073116D01*
X0133513Y0073088D01*
X0133427Y0073063D01*
X0133340Y0073043D01*
X0133253Y0073026D01*
X0133164Y0073013D01*
X0133076Y0073004D01*
X0132987Y0072999D01*
X0132898Y0072998D01*
X0132809Y0073001D01*
X0132720Y0073008D01*
X0132631Y0073019D01*
X0132543Y0073034D01*
X0132456Y0073052D01*
X0132370Y0073075D01*
X0132285Y0073101D01*
X0132201Y0073132D01*
X0132119Y0073166D01*
X0132038Y0073203D01*
X0131959Y0073244D01*
X0131882Y0073289D01*
X0131807Y0073337D01*
X0131734Y0073388D01*
X0131663Y0073442D01*
X0131595Y0073500D01*
X0131530Y0073560D01*
X0131467Y0073624D01*
X0131407Y0073690D01*
X0131350Y0073759D01*
X0131297Y0073830D01*
X0131246Y0073903D01*
X0131199Y0073979D01*
X0131156Y0074056D01*
X0131115Y0074136D01*
X0131079Y0074217D01*
X0131046Y0074300D01*
X0131017Y0074384D01*
X0130991Y0074470D01*
X0130969Y0074556D01*
X0130952Y0074643D01*
X0130938Y0074731D01*
X0130928Y0074820D01*
X0130922Y0074909D01*
X0130920Y0074998D01*
X0156120Y0054200D02*
X0162420Y0054200D01*
X0152762Y0109523D02*
X0132762Y0109523D01*
X0132762Y0117023D01*
X0132888Y0117025D01*
X0133013Y0117031D01*
X0133138Y0117041D01*
X0133263Y0117055D01*
X0133388Y0117072D01*
X0133512Y0117094D01*
X0133635Y0117119D01*
X0133757Y0117149D01*
X0133878Y0117182D01*
X0133998Y0117219D01*
X0134117Y0117259D01*
X0134234Y0117304D01*
X0134351Y0117352D01*
X0134465Y0117404D01*
X0134578Y0117459D01*
X0134689Y0117518D01*
X0134798Y0117580D01*
X0134905Y0117646D01*
X0135010Y0117715D01*
X0135113Y0117787D01*
X0135214Y0117862D01*
X0135312Y0117941D01*
X0135407Y0118023D01*
X0135500Y0118107D01*
X0135590Y0118195D01*
X0135678Y0118285D01*
X0135762Y0118378D01*
X0135844Y0118473D01*
X0135923Y0118571D01*
X0135998Y0118672D01*
X0136070Y0118775D01*
X0136139Y0118880D01*
X0136205Y0118987D01*
X0136267Y0119096D01*
X0136326Y0119207D01*
X0136381Y0119320D01*
X0136433Y0119434D01*
X0136481Y0119551D01*
X0136526Y0119668D01*
X0136566Y0119787D01*
X0136603Y0119907D01*
X0136636Y0120028D01*
X0136666Y0120150D01*
X0136691Y0120273D01*
X0136713Y0120397D01*
X0136730Y0120522D01*
X0136744Y0120647D01*
X0136754Y0120772D01*
X0136760Y0120897D01*
X0136762Y0121023D01*
X0136760Y0121149D01*
X0136754Y0121274D01*
X0136744Y0121399D01*
X0136730Y0121524D01*
X0136713Y0121649D01*
X0136691Y0121773D01*
X0136666Y0121896D01*
X0136636Y0122018D01*
X0136603Y0122139D01*
X0136566Y0122259D01*
X0136526Y0122378D01*
X0136481Y0122495D01*
X0136433Y0122612D01*
X0136381Y0122726D01*
X0136326Y0122839D01*
X0136267Y0122950D01*
X0136205Y0123059D01*
X0136139Y0123166D01*
X0136070Y0123271D01*
X0135998Y0123374D01*
X0135923Y0123475D01*
X0135844Y0123573D01*
X0135762Y0123668D01*
X0135678Y0123761D01*
X0135590Y0123851D01*
X0135500Y0123939D01*
X0135407Y0124023D01*
X0135312Y0124105D01*
X0135214Y0124184D01*
X0135113Y0124259D01*
X0135010Y0124331D01*
X0134905Y0124400D01*
X0134798Y0124466D01*
X0134689Y0124528D01*
X0134578Y0124587D01*
X0134465Y0124642D01*
X0134351Y0124694D01*
X0134234Y0124742D01*
X0134117Y0124787D01*
X0133998Y0124827D01*
X0133878Y0124864D01*
X0133757Y0124897D01*
X0133635Y0124927D01*
X0133512Y0124952D01*
X0133388Y0124974D01*
X0133263Y0124991D01*
X0133138Y0125005D01*
X0133013Y0125015D01*
X0132888Y0125021D01*
X0132762Y0125023D01*
X0132762Y0132523D01*
X0152762Y0132523D01*
X0152762Y0109523D01*
X0165003Y0175302D02*
X0162503Y0177802D01*
X0162503Y0182802D01*
X0165003Y0185302D01*
X0162503Y0187802D01*
X0162503Y0192802D01*
X0165003Y0195302D01*
X0162503Y0197802D01*
X0162503Y0202802D01*
X0165003Y0205302D01*
X0162503Y0207802D01*
X0162503Y0212802D01*
X0165003Y0215302D01*
X0162503Y0217802D01*
X0162503Y0222802D01*
X0165003Y0225302D01*
X0162503Y0227802D01*
X0162503Y0232802D01*
X0165003Y0235302D01*
X0170003Y0235302D01*
X0172503Y0232802D01*
X0172503Y0227802D01*
X0170003Y0225302D01*
X0172503Y0222802D01*
X0172503Y0217802D01*
X0170003Y0215302D01*
X0165003Y0215302D01*
X0170003Y0215302D02*
X0172503Y0212802D01*
X0172503Y0207802D01*
X0170003Y0205302D01*
X0172503Y0202802D01*
X0172503Y0197802D01*
X0170003Y0195302D01*
X0172503Y0192802D01*
X0172503Y0187802D01*
X0170003Y0185302D01*
X0172503Y0182802D01*
X0172503Y0177802D01*
X0170003Y0175302D01*
X0165003Y0175302D01*
X0165003Y0185302D02*
X0170003Y0185302D01*
X0170003Y0195302D02*
X0165003Y0195302D01*
X0165003Y0205302D02*
X0170003Y0205302D01*
X0170003Y0225302D02*
X0165003Y0225302D01*
D12*
X0158864Y0105710D02*
X0159481Y0105093D01*
X0159481Y0103859D01*
X0158864Y0103241D01*
X0158246Y0103241D01*
X0157629Y0103859D01*
X0157629Y0105093D01*
X0158246Y0105710D01*
X0158864Y0105710D01*
X0157629Y0105093D02*
X0157012Y0105710D01*
X0156395Y0105710D01*
X0155778Y0105093D01*
X0155778Y0103859D01*
X0156395Y0103241D01*
X0157012Y0103241D01*
X0157629Y0103859D01*
X0157629Y0102027D02*
X0157629Y0099558D01*
X0155778Y0101410D01*
X0159481Y0101410D01*
X0159481Y0098344D02*
X0159481Y0095875D01*
X0159481Y0097109D02*
X0155778Y0097109D01*
X0157012Y0095875D01*
X0157629Y0094661D02*
X0157629Y0092192D01*
X0155778Y0094043D01*
X0159481Y0094043D01*
X0159481Y0090978D02*
X0155778Y0090978D01*
X0155778Y0088509D02*
X0159481Y0090978D01*
X0159481Y0088509D02*
X0155778Y0088509D01*
X0155778Y0086060D02*
X0159481Y0086060D01*
X0159481Y0084826D02*
X0159481Y0087294D01*
X0157012Y0084826D02*
X0155778Y0086060D01*
X0064184Y0134960D02*
X0060481Y0134960D01*
X0062332Y0134960D02*
X0062332Y0137429D01*
X0060481Y0137429D02*
X0064184Y0137429D01*
X0064184Y0139878D02*
X0060481Y0139878D01*
X0060481Y0141112D02*
X0060481Y0138643D01*
X0060481Y0142327D02*
X0060481Y0144795D01*
X0061098Y0144795D01*
X0063567Y0142327D01*
X0064184Y0142327D01*
X0063567Y0146010D02*
X0064184Y0146627D01*
X0064184Y0147861D01*
X0063567Y0148478D01*
X0062949Y0148478D01*
X0062332Y0147861D01*
X0062332Y0147244D01*
X0062332Y0147861D02*
X0061715Y0148478D01*
X0061098Y0148478D01*
X0060481Y0147861D01*
X0060481Y0146627D01*
X0061098Y0146010D01*
X0061098Y0149693D02*
X0060481Y0150310D01*
X0060481Y0151544D01*
X0061098Y0152162D01*
X0061715Y0152162D01*
X0062332Y0151544D01*
X0062949Y0152162D01*
X0063567Y0152162D01*
X0064184Y0151544D01*
X0064184Y0150310D01*
X0063567Y0149693D01*
X0062332Y0150927D02*
X0062332Y0151544D01*
X0061098Y0153376D02*
X0060481Y0153993D01*
X0060481Y0155228D01*
X0061098Y0155845D01*
X0061715Y0155845D01*
X0062332Y0155228D01*
X0062949Y0155845D01*
X0063567Y0155845D01*
X0064184Y0155228D01*
X0064184Y0153993D01*
X0063567Y0153376D01*
X0062332Y0154610D02*
X0062332Y0155228D01*
X0054192Y0111692D02*
X0052957Y0111692D01*
X0052340Y0111075D01*
X0052340Y0110457D01*
X0052957Y0109840D01*
X0054192Y0109840D01*
X0054809Y0109223D01*
X0054809Y0108606D01*
X0054192Y0107989D01*
X0052957Y0107989D01*
X0052340Y0108606D01*
X0051126Y0108606D02*
X0051126Y0109223D01*
X0050509Y0109840D01*
X0048657Y0109840D01*
X0048657Y0108606D01*
X0049274Y0107989D01*
X0050509Y0107989D01*
X0051126Y0108606D01*
X0049891Y0111075D02*
X0048657Y0109840D01*
X0047443Y0109223D02*
X0047443Y0108606D01*
X0046825Y0107989D01*
X0044974Y0107989D01*
X0044974Y0111692D01*
X0046825Y0111692D01*
X0047443Y0111075D01*
X0047443Y0110457D01*
X0046825Y0109840D01*
X0044974Y0109840D01*
X0046825Y0109840D02*
X0047443Y0109223D01*
X0049891Y0111075D02*
X0051126Y0111692D01*
X0054192Y0111692D02*
X0054809Y0111075D01*
X0043759Y0111692D02*
X0043759Y0107989D01*
X0041291Y0107989D02*
X0041291Y0111692D01*
X0042525Y0110457D01*
X0043759Y0111692D01*
D13*
X0106935Y0091102D02*
X0106935Y0084287D01*
X0106935Y0091102D02*
X0111956Y0096122D01*
X0116482Y0100648D02*
X0121502Y0105669D01*
X0121502Y0115905D01*
X0125046Y0119448D01*
X0132196Y0119448D01*
X0138596Y0119448D02*
X0145747Y0119448D01*
X0152147Y0119448D02*
X0159298Y0119448D01*
X0166778Y0111968D01*
X0166778Y0103781D01*
X0166778Y0097381D02*
X0166778Y0089194D01*
X0166778Y0082794D02*
X0166778Y0074606D01*
X0166778Y0068206D02*
X0166778Y0060019D01*
X0166778Y0053619D02*
X0166778Y0045432D01*
X0106935Y0044645D02*
X0106935Y0051459D01*
X0106935Y0057859D02*
X0106935Y0064673D01*
X0106935Y0071073D02*
X0106935Y0077887D01*
D14*
X0035282Y0049369D02*
X0035282Y0233228D01*
X0035281Y0233228D02*
X0035283Y0233380D01*
X0035289Y0233532D01*
X0035299Y0233684D01*
X0035312Y0233835D01*
X0035330Y0233986D01*
X0035351Y0234137D01*
X0035377Y0234287D01*
X0035406Y0234436D01*
X0035439Y0234585D01*
X0035476Y0234732D01*
X0035516Y0234879D01*
X0035561Y0235024D01*
X0035609Y0235168D01*
X0035661Y0235311D01*
X0035716Y0235453D01*
X0035775Y0235593D01*
X0035838Y0235732D01*
X0035904Y0235869D01*
X0035974Y0236004D01*
X0036047Y0236137D01*
X0036124Y0236268D01*
X0036204Y0236398D01*
X0036287Y0236525D01*
X0036373Y0236650D01*
X0036463Y0236773D01*
X0036556Y0236893D01*
X0036652Y0237011D01*
X0036751Y0237127D01*
X0036853Y0237240D01*
X0036957Y0237350D01*
X0037065Y0237458D01*
X0037175Y0237562D01*
X0037288Y0237664D01*
X0037404Y0237763D01*
X0037522Y0237859D01*
X0037642Y0237952D01*
X0037765Y0238042D01*
X0037890Y0238128D01*
X0038017Y0238211D01*
X0038147Y0238291D01*
X0038278Y0238368D01*
X0038411Y0238441D01*
X0038546Y0238511D01*
X0038683Y0238577D01*
X0038822Y0238640D01*
X0038962Y0238699D01*
X0039104Y0238754D01*
X0039247Y0238806D01*
X0039391Y0238854D01*
X0039536Y0238899D01*
X0039683Y0238939D01*
X0039830Y0238976D01*
X0039979Y0239009D01*
X0040128Y0239038D01*
X0040278Y0239064D01*
X0040429Y0239085D01*
X0040580Y0239103D01*
X0040731Y0239116D01*
X0040883Y0239126D01*
X0041035Y0239132D01*
X0041187Y0239134D01*
X0041187Y0239133D02*
X0080951Y0239133D01*
X0081067Y0239131D01*
X0081183Y0239125D01*
X0081298Y0239116D01*
X0081413Y0239103D01*
X0081528Y0239086D01*
X0081642Y0239065D01*
X0081756Y0239040D01*
X0081868Y0239012D01*
X0081979Y0238980D01*
X0082090Y0238945D01*
X0082199Y0238906D01*
X0082307Y0238863D01*
X0082413Y0238817D01*
X0082518Y0238768D01*
X0082621Y0238715D01*
X0082723Y0238658D01*
X0082822Y0238599D01*
X0082919Y0238536D01*
X0083015Y0238470D01*
X0083108Y0238401D01*
X0083199Y0238329D01*
X0083287Y0238254D01*
X0083373Y0238176D01*
X0083456Y0238095D01*
X0083537Y0238012D01*
X0083615Y0237926D01*
X0083690Y0237838D01*
X0083762Y0237747D01*
X0083831Y0237654D01*
X0083897Y0237558D01*
X0083960Y0237461D01*
X0084019Y0237362D01*
X0084076Y0237260D01*
X0084129Y0237157D01*
X0084178Y0237052D01*
X0084224Y0236946D01*
X0084267Y0236838D01*
X0084306Y0236729D01*
X0084341Y0236618D01*
X0084373Y0236507D01*
X0084401Y0236395D01*
X0084426Y0236281D01*
X0084447Y0236167D01*
X0084464Y0236052D01*
X0084477Y0235937D01*
X0084486Y0235822D01*
X0084492Y0235706D01*
X0084494Y0235590D01*
X0084494Y0218661D01*
X0084495Y0218661D02*
X0084497Y0218566D01*
X0084503Y0218471D01*
X0084512Y0218376D01*
X0084526Y0218282D01*
X0084543Y0218189D01*
X0084564Y0218096D01*
X0084588Y0218004D01*
X0084617Y0217913D01*
X0084648Y0217823D01*
X0084684Y0217735D01*
X0084723Y0217648D01*
X0084766Y0217563D01*
X0084811Y0217480D01*
X0084861Y0217399D01*
X0084913Y0217319D01*
X0084969Y0217242D01*
X0085027Y0217167D01*
X0085089Y0217095D01*
X0085154Y0217025D01*
X0085221Y0216958D01*
X0085291Y0216893D01*
X0085363Y0216831D01*
X0085438Y0216773D01*
X0085515Y0216717D01*
X0085595Y0216665D01*
X0085676Y0216615D01*
X0085759Y0216570D01*
X0085844Y0216527D01*
X0085931Y0216488D01*
X0086019Y0216452D01*
X0086109Y0216421D01*
X0086200Y0216392D01*
X0086292Y0216368D01*
X0086385Y0216347D01*
X0086478Y0216330D01*
X0086572Y0216316D01*
X0086667Y0216307D01*
X0086762Y0216301D01*
X0086857Y0216299D01*
X0086857Y0216298D02*
X0131739Y0216298D01*
X0131739Y0216299D02*
X0131834Y0216301D01*
X0131929Y0216307D01*
X0132024Y0216316D01*
X0132118Y0216330D01*
X0132211Y0216347D01*
X0132304Y0216368D01*
X0132396Y0216392D01*
X0132487Y0216421D01*
X0132577Y0216452D01*
X0132665Y0216488D01*
X0132752Y0216527D01*
X0132837Y0216570D01*
X0132920Y0216615D01*
X0133001Y0216665D01*
X0133081Y0216717D01*
X0133158Y0216773D01*
X0133233Y0216831D01*
X0133305Y0216893D01*
X0133375Y0216958D01*
X0133442Y0217025D01*
X0133507Y0217095D01*
X0133569Y0217167D01*
X0133627Y0217242D01*
X0133683Y0217319D01*
X0133735Y0217399D01*
X0133785Y0217480D01*
X0133830Y0217563D01*
X0133873Y0217648D01*
X0133912Y0217735D01*
X0133948Y0217823D01*
X0133979Y0217913D01*
X0134008Y0218004D01*
X0134032Y0218096D01*
X0134053Y0218189D01*
X0134070Y0218282D01*
X0134084Y0218376D01*
X0134093Y0218471D01*
X0134099Y0218566D01*
X0134101Y0218661D01*
X0134101Y0237558D01*
X0134100Y0237558D02*
X0134102Y0237644D01*
X0134107Y0237730D01*
X0134117Y0237815D01*
X0134130Y0237900D01*
X0134147Y0237984D01*
X0134167Y0238068D01*
X0134191Y0238150D01*
X0134219Y0238231D01*
X0134250Y0238312D01*
X0134284Y0238390D01*
X0134322Y0238467D01*
X0134364Y0238543D01*
X0134408Y0238616D01*
X0134456Y0238687D01*
X0134507Y0238757D01*
X0134561Y0238824D01*
X0134617Y0238888D01*
X0134677Y0238950D01*
X0134739Y0239010D01*
X0134803Y0239066D01*
X0134870Y0239120D01*
X0134940Y0239171D01*
X0135011Y0239219D01*
X0135085Y0239263D01*
X0135160Y0239305D01*
X0135237Y0239343D01*
X0135315Y0239377D01*
X0135396Y0239408D01*
X0135477Y0239436D01*
X0135559Y0239460D01*
X0135643Y0239480D01*
X0135727Y0239497D01*
X0135812Y0239510D01*
X0135897Y0239520D01*
X0135983Y0239525D01*
X0136069Y0239527D01*
X0169928Y0239527D01*
X0170085Y0239525D01*
X0170242Y0239519D01*
X0170399Y0239509D01*
X0170555Y0239496D01*
X0170711Y0239478D01*
X0170867Y0239457D01*
X0171022Y0239431D01*
X0171176Y0239402D01*
X0171330Y0239369D01*
X0171482Y0239332D01*
X0171634Y0239292D01*
X0171785Y0239247D01*
X0171934Y0239199D01*
X0172082Y0239147D01*
X0172229Y0239092D01*
X0172375Y0239032D01*
X0172519Y0238970D01*
X0172661Y0238903D01*
X0172802Y0238833D01*
X0172941Y0238760D01*
X0173078Y0238683D01*
X0173213Y0238603D01*
X0173345Y0238519D01*
X0173476Y0238432D01*
X0173605Y0238342D01*
X0173731Y0238249D01*
X0173855Y0238153D01*
X0173977Y0238053D01*
X0174096Y0237951D01*
X0174212Y0237845D01*
X0174326Y0237737D01*
X0174437Y0237626D01*
X0174545Y0237512D01*
X0174651Y0237396D01*
X0174753Y0237277D01*
X0174853Y0237155D01*
X0174949Y0237031D01*
X0175042Y0236905D01*
X0175132Y0236776D01*
X0175219Y0236645D01*
X0175303Y0236513D01*
X0175383Y0236378D01*
X0175460Y0236241D01*
X0175533Y0236102D01*
X0175603Y0235961D01*
X0175670Y0235819D01*
X0175732Y0235675D01*
X0175792Y0235529D01*
X0175847Y0235382D01*
X0175899Y0235234D01*
X0175947Y0235085D01*
X0175992Y0234934D01*
X0176032Y0234782D01*
X0176069Y0234630D01*
X0176102Y0234476D01*
X0176131Y0234322D01*
X0176157Y0234167D01*
X0176178Y0234011D01*
X0176196Y0233855D01*
X0176209Y0233699D01*
X0176219Y0233542D01*
X0176225Y0233385D01*
X0176227Y0233228D01*
X0176227Y0052519D01*
X0176225Y0052319D01*
X0176217Y0052120D01*
X0176205Y0051920D01*
X0176188Y0051721D01*
X0176167Y0051522D01*
X0176140Y0051324D01*
X0176109Y0051127D01*
X0176073Y0050930D01*
X0176032Y0050735D01*
X0175987Y0050540D01*
X0175937Y0050347D01*
X0175882Y0050155D01*
X0175822Y0049964D01*
X0175758Y0049775D01*
X0175690Y0049587D01*
X0175617Y0049401D01*
X0175539Y0049217D01*
X0175457Y0049035D01*
X0175371Y0048855D01*
X0175280Y0048677D01*
X0175185Y0048501D01*
X0175086Y0048327D01*
X0174982Y0048156D01*
X0174875Y0047988D01*
X0174763Y0047822D01*
X0174648Y0047659D01*
X0174529Y0047499D01*
X0174405Y0047342D01*
X0174278Y0047187D01*
X0174148Y0047036D01*
X0174013Y0046888D01*
X0173876Y0046744D01*
X0173734Y0046602D01*
X0173590Y0046465D01*
X0173442Y0046330D01*
X0173291Y0046200D01*
X0173136Y0046073D01*
X0172979Y0045949D01*
X0172819Y0045830D01*
X0172656Y0045715D01*
X0172490Y0045603D01*
X0172322Y0045496D01*
X0172151Y0045392D01*
X0171977Y0045293D01*
X0171801Y0045198D01*
X0171623Y0045107D01*
X0171443Y0045021D01*
X0171261Y0044939D01*
X0171077Y0044861D01*
X0170891Y0044788D01*
X0170703Y0044720D01*
X0170514Y0044656D01*
X0170323Y0044596D01*
X0170131Y0044541D01*
X0169938Y0044491D01*
X0169743Y0044446D01*
X0169548Y0044405D01*
X0169351Y0044369D01*
X0169154Y0044338D01*
X0168956Y0044311D01*
X0168757Y0044290D01*
X0168558Y0044273D01*
X0168358Y0044261D01*
X0168159Y0044253D01*
X0167959Y0044251D01*
X0040400Y0044251D01*
X0040259Y0044253D01*
X0040118Y0044259D01*
X0039977Y0044268D01*
X0039837Y0044282D01*
X0039697Y0044300D01*
X0039558Y0044321D01*
X0039419Y0044346D01*
X0039281Y0044375D01*
X0039144Y0044408D01*
X0039007Y0044444D01*
X0038872Y0044484D01*
X0038738Y0044528D01*
X0038605Y0044576D01*
X0038474Y0044627D01*
X0038344Y0044682D01*
X0038216Y0044741D01*
X0038089Y0044802D01*
X0037964Y0044868D01*
X0037841Y0044937D01*
X0037720Y0045009D01*
X0037601Y0045084D01*
X0037484Y0045163D01*
X0037369Y0045245D01*
X0037256Y0045330D01*
X0037146Y0045418D01*
X0037039Y0045509D01*
X0036934Y0045604D01*
X0036831Y0045701D01*
X0036732Y0045800D01*
X0036635Y0045903D01*
X0036540Y0046008D01*
X0036449Y0046115D01*
X0036361Y0046225D01*
X0036276Y0046338D01*
X0036194Y0046453D01*
X0036115Y0046570D01*
X0036040Y0046689D01*
X0035968Y0046810D01*
X0035899Y0046933D01*
X0035833Y0047058D01*
X0035772Y0047185D01*
X0035713Y0047313D01*
X0035658Y0047443D01*
X0035607Y0047574D01*
X0035559Y0047707D01*
X0035515Y0047841D01*
X0035475Y0047976D01*
X0035439Y0048113D01*
X0035406Y0048250D01*
X0035377Y0048388D01*
X0035352Y0048527D01*
X0035331Y0048666D01*
X0035313Y0048806D01*
X0035299Y0048946D01*
X0035290Y0049087D01*
X0035284Y0049228D01*
X0035282Y0049369D01*
D15*
X0038768Y0102496D02*
X0038768Y0118244D01*
X0057272Y0118244D01*
X0057272Y0102496D01*
X0038768Y0102496D01*
X0060450Y0104822D02*
X0060450Y0121822D01*
X0068450Y0125322D02*
X0076497Y0125322D01*
X0084450Y0121822D02*
X0084450Y0104822D01*
X0076379Y0101322D02*
X0068450Y0101322D01*
X0065450Y0113322D02*
X0065452Y0113494D01*
X0065458Y0113665D01*
X0065469Y0113837D01*
X0065484Y0114008D01*
X0065503Y0114179D01*
X0065526Y0114349D01*
X0065553Y0114519D01*
X0065585Y0114688D01*
X0065620Y0114856D01*
X0065660Y0115023D01*
X0065704Y0115189D01*
X0065751Y0115354D01*
X0065803Y0115518D01*
X0065859Y0115680D01*
X0065919Y0115841D01*
X0065983Y0116001D01*
X0066051Y0116159D01*
X0066122Y0116315D01*
X0066197Y0116469D01*
X0066277Y0116622D01*
X0066359Y0116772D01*
X0066446Y0116921D01*
X0066536Y0117067D01*
X0066630Y0117211D01*
X0066727Y0117353D01*
X0066828Y0117492D01*
X0066932Y0117629D01*
X0067039Y0117763D01*
X0067150Y0117894D01*
X0067263Y0118023D01*
X0067380Y0118149D01*
X0067500Y0118272D01*
X0067623Y0118392D01*
X0067749Y0118509D01*
X0067878Y0118622D01*
X0068009Y0118733D01*
X0068143Y0118840D01*
X0068280Y0118944D01*
X0068419Y0119045D01*
X0068561Y0119142D01*
X0068705Y0119236D01*
X0068851Y0119326D01*
X0069000Y0119413D01*
X0069150Y0119495D01*
X0069303Y0119575D01*
X0069457Y0119650D01*
X0069613Y0119721D01*
X0069771Y0119789D01*
X0069931Y0119853D01*
X0070092Y0119913D01*
X0070254Y0119969D01*
X0070418Y0120021D01*
X0070583Y0120068D01*
X0070749Y0120112D01*
X0070916Y0120152D01*
X0071084Y0120187D01*
X0071253Y0120219D01*
X0071423Y0120246D01*
X0071593Y0120269D01*
X0071764Y0120288D01*
X0071935Y0120303D01*
X0072107Y0120314D01*
X0072278Y0120320D01*
X0072450Y0120322D01*
X0072622Y0120320D01*
X0072793Y0120314D01*
X0072965Y0120303D01*
X0073136Y0120288D01*
X0073307Y0120269D01*
X0073477Y0120246D01*
X0073647Y0120219D01*
X0073816Y0120187D01*
X0073984Y0120152D01*
X0074151Y0120112D01*
X0074317Y0120068D01*
X0074482Y0120021D01*
X0074646Y0119969D01*
X0074808Y0119913D01*
X0074969Y0119853D01*
X0075129Y0119789D01*
X0075287Y0119721D01*
X0075443Y0119650D01*
X0075597Y0119575D01*
X0075750Y0119495D01*
X0075900Y0119413D01*
X0076049Y0119326D01*
X0076195Y0119236D01*
X0076339Y0119142D01*
X0076481Y0119045D01*
X0076620Y0118944D01*
X0076757Y0118840D01*
X0076891Y0118733D01*
X0077022Y0118622D01*
X0077151Y0118509D01*
X0077277Y0118392D01*
X0077400Y0118272D01*
X0077520Y0118149D01*
X0077637Y0118023D01*
X0077750Y0117894D01*
X0077861Y0117763D01*
X0077968Y0117629D01*
X0078072Y0117492D01*
X0078173Y0117353D01*
X0078270Y0117211D01*
X0078364Y0117067D01*
X0078454Y0116921D01*
X0078541Y0116772D01*
X0078623Y0116622D01*
X0078703Y0116469D01*
X0078778Y0116315D01*
X0078849Y0116159D01*
X0078917Y0116001D01*
X0078981Y0115841D01*
X0079041Y0115680D01*
X0079097Y0115518D01*
X0079149Y0115354D01*
X0079196Y0115189D01*
X0079240Y0115023D01*
X0079280Y0114856D01*
X0079315Y0114688D01*
X0079347Y0114519D01*
X0079374Y0114349D01*
X0079397Y0114179D01*
X0079416Y0114008D01*
X0079431Y0113837D01*
X0079442Y0113665D01*
X0079448Y0113494D01*
X0079450Y0113322D01*
X0079448Y0113150D01*
X0079442Y0112979D01*
X0079431Y0112807D01*
X0079416Y0112636D01*
X0079397Y0112465D01*
X0079374Y0112295D01*
X0079347Y0112125D01*
X0079315Y0111956D01*
X0079280Y0111788D01*
X0079240Y0111621D01*
X0079196Y0111455D01*
X0079149Y0111290D01*
X0079097Y0111126D01*
X0079041Y0110964D01*
X0078981Y0110803D01*
X0078917Y0110643D01*
X0078849Y0110485D01*
X0078778Y0110329D01*
X0078703Y0110175D01*
X0078623Y0110022D01*
X0078541Y0109872D01*
X0078454Y0109723D01*
X0078364Y0109577D01*
X0078270Y0109433D01*
X0078173Y0109291D01*
X0078072Y0109152D01*
X0077968Y0109015D01*
X0077861Y0108881D01*
X0077750Y0108750D01*
X0077637Y0108621D01*
X0077520Y0108495D01*
X0077400Y0108372D01*
X0077277Y0108252D01*
X0077151Y0108135D01*
X0077022Y0108022D01*
X0076891Y0107911D01*
X0076757Y0107804D01*
X0076620Y0107700D01*
X0076481Y0107599D01*
X0076339Y0107502D01*
X0076195Y0107408D01*
X0076049Y0107318D01*
X0075900Y0107231D01*
X0075750Y0107149D01*
X0075597Y0107069D01*
X0075443Y0106994D01*
X0075287Y0106923D01*
X0075129Y0106855D01*
X0074969Y0106791D01*
X0074808Y0106731D01*
X0074646Y0106675D01*
X0074482Y0106623D01*
X0074317Y0106576D01*
X0074151Y0106532D01*
X0073984Y0106492D01*
X0073816Y0106457D01*
X0073647Y0106425D01*
X0073477Y0106398D01*
X0073307Y0106375D01*
X0073136Y0106356D01*
X0072965Y0106341D01*
X0072793Y0106330D01*
X0072622Y0106324D01*
X0072450Y0106322D01*
X0072278Y0106324D01*
X0072107Y0106330D01*
X0071935Y0106341D01*
X0071764Y0106356D01*
X0071593Y0106375D01*
X0071423Y0106398D01*
X0071253Y0106425D01*
X0071084Y0106457D01*
X0070916Y0106492D01*
X0070749Y0106532D01*
X0070583Y0106576D01*
X0070418Y0106623D01*
X0070254Y0106675D01*
X0070092Y0106731D01*
X0069931Y0106791D01*
X0069771Y0106855D01*
X0069613Y0106923D01*
X0069457Y0106994D01*
X0069303Y0107069D01*
X0069150Y0107149D01*
X0069000Y0107231D01*
X0068851Y0107318D01*
X0068705Y0107408D01*
X0068561Y0107502D01*
X0068419Y0107599D01*
X0068280Y0107700D01*
X0068143Y0107804D01*
X0068009Y0107911D01*
X0067878Y0108022D01*
X0067749Y0108135D01*
X0067623Y0108252D01*
X0067500Y0108372D01*
X0067380Y0108495D01*
X0067263Y0108621D01*
X0067150Y0108750D01*
X0067039Y0108881D01*
X0066932Y0109015D01*
X0066828Y0109152D01*
X0066727Y0109291D01*
X0066630Y0109433D01*
X0066536Y0109577D01*
X0066446Y0109723D01*
X0066359Y0109872D01*
X0066277Y0110022D01*
X0066197Y0110175D01*
X0066122Y0110329D01*
X0066051Y0110485D01*
X0065983Y0110643D01*
X0065919Y0110803D01*
X0065859Y0110964D01*
X0065803Y0111126D01*
X0065751Y0111290D01*
X0065704Y0111455D01*
X0065660Y0111621D01*
X0065620Y0111788D01*
X0065585Y0111956D01*
X0065553Y0112125D01*
X0065526Y0112295D01*
X0065503Y0112465D01*
X0065484Y0112636D01*
X0065469Y0112807D01*
X0065458Y0112979D01*
X0065452Y0113150D01*
X0065450Y0113322D01*
X0084787Y0135487D02*
X0089117Y0135487D01*
X0084787Y0135487D02*
X0083212Y0137062D01*
X0083212Y0143361D01*
X0084787Y0144936D01*
X0089117Y0144936D01*
X0096991Y0144936D02*
X0102897Y0144936D01*
X0102897Y0135487D01*
X0096991Y0135487D01*
D16*
X0091554Y0136212D02*
X0091554Y0144212D01*
X0076322Y0147062D02*
X0139314Y0147062D01*
X0141119Y0091796D02*
X0141119Y0089920D01*
X0140159Y0089920D01*
X0141119Y0089920D02*
X0141119Y0088045D01*
X0141119Y0089920D02*
X0143619Y0091796D01*
X0143619Y0089920D01*
X0144578Y0089920D01*
X0143619Y0089920D02*
X0143619Y0088045D01*
X0141119Y0089920D01*
X0145420Y0073552D02*
X0144670Y0072802D01*
X0145420Y0073552D02*
X0146922Y0073552D01*
X0147672Y0072802D01*
X0147672Y0072051D01*
X0144670Y0069048D01*
X0147672Y0069048D01*
X0141681Y0051352D02*
X0141681Y0046848D01*
X0144684Y0046848D01*
X0140080Y0046848D02*
X0137078Y0046848D01*
X0137078Y0051352D01*
X0135476Y0051352D02*
X0132474Y0051352D01*
X0132474Y0046848D01*
X0135476Y0046848D01*
X0133975Y0049100D02*
X0132474Y0049100D01*
X0130872Y0048350D02*
X0130872Y0047599D01*
X0130122Y0046848D01*
X0127870Y0046848D01*
X0127870Y0051352D01*
X0130122Y0051352D01*
X0130872Y0050602D01*
X0130872Y0049851D01*
X0130122Y0049100D01*
X0127870Y0049100D01*
X0130122Y0049100D02*
X0130872Y0048350D01*
X0128172Y0069048D02*
X0125170Y0069048D01*
X0126671Y0069048D02*
X0126671Y0073552D01*
X0125170Y0072051D01*
X0139314Y0212810D02*
X0139314Y0241550D01*
X0076322Y0241550D01*
X0076322Y0212810D01*
D17*
X0088920Y0216747D02*
X0114511Y0216747D01*
X0114511Y0224621D02*
X0110180Y0224621D01*
X0110180Y0238401D01*
X0105850Y0238401D01*
X0105850Y0224228D01*
X0101125Y0224228D01*
X0101125Y0238401D01*
X0096401Y0238401D01*
X0096401Y0224228D01*
X0092464Y0224228D01*
X0092464Y0238794D01*
X0088920Y0238794D01*
X0088920Y0219503D01*
X0088920Y0219109D02*
X0088920Y0216747D01*
X0114511Y0224621D02*
X0114511Y0238401D01*
X0130259Y0238401D01*
D18*
X0048817Y0185395D03*
X0048817Y0182895D03*
X0048817Y0180395D03*
D19*
X0048020Y0116866D03*
D20*
X0051813Y0091183D02*
X0093151Y0091183D01*
X0093151Y0043939D01*
X0051813Y0043939D01*
X0051813Y0091183D01*
X0051813Y0043939D02*
X0051813Y0032128D01*
X0093151Y0032128D01*
X0093151Y0043939D01*
M02*
