G75*
%MOIN*%
%OFA0B0*%
%FSLAX25Y25*%
%IPPOS*%
%LPD*%
%AMOC8*
5,1,8,0,0,1.08239X$1,22.5*
%
%ADD10C,0.03200*%
%ADD11C,0.01600*%
%ADD12C,0.06400*%
%ADD13C,0.05600*%
%ADD14C,0.07450*%
%ADD15C,0.08274*%
D10*
X0106935Y0044645D02*
X0106935Y0051459D01*
X0106935Y0057859D02*
X0106935Y0064673D01*
X0106935Y0071073D02*
X0106935Y0077887D01*
X0106935Y0084287D02*
X0106935Y0091102D01*
X0111956Y0096122D01*
X0116482Y0100648D02*
X0121502Y0105669D01*
X0121502Y0115905D01*
X0125046Y0119448D01*
X0132196Y0119448D01*
X0138596Y0119448D02*
X0145747Y0119448D01*
X0152147Y0119448D02*
X0159298Y0119448D01*
X0166778Y0111968D01*
X0166778Y0103781D01*
X0166778Y0097381D02*
X0166778Y0089194D01*
X0166778Y0082794D02*
X0166778Y0074606D01*
X0166778Y0068206D02*
X0166778Y0060019D01*
X0166778Y0053619D02*
X0166778Y0045432D01*
D11*
X0035282Y0049369D02*
X0035282Y0233228D01*
X0035281Y0233228D02*
X0035283Y0233380D01*
X0035289Y0233532D01*
X0035299Y0233684D01*
X0035312Y0233835D01*
X0035330Y0233986D01*
X0035351Y0234137D01*
X0035377Y0234287D01*
X0035406Y0234436D01*
X0035439Y0234585D01*
X0035476Y0234732D01*
X0035516Y0234879D01*
X0035561Y0235024D01*
X0035609Y0235168D01*
X0035661Y0235311D01*
X0035716Y0235453D01*
X0035775Y0235593D01*
X0035838Y0235732D01*
X0035904Y0235869D01*
X0035974Y0236004D01*
X0036047Y0236137D01*
X0036124Y0236268D01*
X0036204Y0236398D01*
X0036287Y0236525D01*
X0036373Y0236650D01*
X0036463Y0236773D01*
X0036556Y0236893D01*
X0036652Y0237011D01*
X0036751Y0237127D01*
X0036853Y0237240D01*
X0036957Y0237350D01*
X0037065Y0237458D01*
X0037175Y0237562D01*
X0037288Y0237664D01*
X0037404Y0237763D01*
X0037522Y0237859D01*
X0037642Y0237952D01*
X0037765Y0238042D01*
X0037890Y0238128D01*
X0038017Y0238211D01*
X0038147Y0238291D01*
X0038278Y0238368D01*
X0038411Y0238441D01*
X0038546Y0238511D01*
X0038683Y0238577D01*
X0038822Y0238640D01*
X0038962Y0238699D01*
X0039104Y0238754D01*
X0039247Y0238806D01*
X0039391Y0238854D01*
X0039536Y0238899D01*
X0039683Y0238939D01*
X0039830Y0238976D01*
X0039979Y0239009D01*
X0040128Y0239038D01*
X0040278Y0239064D01*
X0040429Y0239085D01*
X0040580Y0239103D01*
X0040731Y0239116D01*
X0040883Y0239126D01*
X0041035Y0239132D01*
X0041187Y0239134D01*
X0041187Y0239133D02*
X0080951Y0239133D01*
X0081067Y0239131D01*
X0081183Y0239125D01*
X0081298Y0239116D01*
X0081413Y0239103D01*
X0081528Y0239086D01*
X0081642Y0239065D01*
X0081756Y0239040D01*
X0081868Y0239012D01*
X0081979Y0238980D01*
X0082090Y0238945D01*
X0082199Y0238906D01*
X0082307Y0238863D01*
X0082413Y0238817D01*
X0082518Y0238768D01*
X0082621Y0238715D01*
X0082723Y0238658D01*
X0082822Y0238599D01*
X0082919Y0238536D01*
X0083015Y0238470D01*
X0083108Y0238401D01*
X0083199Y0238329D01*
X0083287Y0238254D01*
X0083373Y0238176D01*
X0083456Y0238095D01*
X0083537Y0238012D01*
X0083615Y0237926D01*
X0083690Y0237838D01*
X0083762Y0237747D01*
X0083831Y0237654D01*
X0083897Y0237558D01*
X0083960Y0237461D01*
X0084019Y0237362D01*
X0084076Y0237260D01*
X0084129Y0237157D01*
X0084178Y0237052D01*
X0084224Y0236946D01*
X0084267Y0236838D01*
X0084306Y0236729D01*
X0084341Y0236618D01*
X0084373Y0236507D01*
X0084401Y0236395D01*
X0084426Y0236281D01*
X0084447Y0236167D01*
X0084464Y0236052D01*
X0084477Y0235937D01*
X0084486Y0235822D01*
X0084492Y0235706D01*
X0084494Y0235590D01*
X0084494Y0218661D01*
X0084495Y0218661D02*
X0084497Y0218566D01*
X0084503Y0218471D01*
X0084512Y0218376D01*
X0084526Y0218282D01*
X0084543Y0218189D01*
X0084564Y0218096D01*
X0084588Y0218004D01*
X0084617Y0217913D01*
X0084648Y0217823D01*
X0084684Y0217735D01*
X0084723Y0217648D01*
X0084766Y0217563D01*
X0084811Y0217480D01*
X0084861Y0217399D01*
X0084913Y0217319D01*
X0084969Y0217242D01*
X0085027Y0217167D01*
X0085089Y0217095D01*
X0085154Y0217025D01*
X0085221Y0216958D01*
X0085291Y0216893D01*
X0085363Y0216831D01*
X0085438Y0216773D01*
X0085515Y0216717D01*
X0085595Y0216665D01*
X0085676Y0216615D01*
X0085759Y0216570D01*
X0085844Y0216527D01*
X0085931Y0216488D01*
X0086019Y0216452D01*
X0086109Y0216421D01*
X0086200Y0216392D01*
X0086292Y0216368D01*
X0086385Y0216347D01*
X0086478Y0216330D01*
X0086572Y0216316D01*
X0086667Y0216307D01*
X0086762Y0216301D01*
X0086857Y0216299D01*
X0086857Y0216298D02*
X0131739Y0216298D01*
X0131739Y0216299D02*
X0131834Y0216301D01*
X0131929Y0216307D01*
X0132024Y0216316D01*
X0132118Y0216330D01*
X0132211Y0216347D01*
X0132304Y0216368D01*
X0132396Y0216392D01*
X0132487Y0216421D01*
X0132577Y0216452D01*
X0132665Y0216488D01*
X0132752Y0216527D01*
X0132837Y0216570D01*
X0132920Y0216615D01*
X0133001Y0216665D01*
X0133081Y0216717D01*
X0133158Y0216773D01*
X0133233Y0216831D01*
X0133305Y0216893D01*
X0133375Y0216958D01*
X0133442Y0217025D01*
X0133507Y0217095D01*
X0133569Y0217167D01*
X0133627Y0217242D01*
X0133683Y0217319D01*
X0133735Y0217399D01*
X0133785Y0217480D01*
X0133830Y0217563D01*
X0133873Y0217648D01*
X0133912Y0217735D01*
X0133948Y0217823D01*
X0133979Y0217913D01*
X0134008Y0218004D01*
X0134032Y0218096D01*
X0134053Y0218189D01*
X0134070Y0218282D01*
X0134084Y0218376D01*
X0134093Y0218471D01*
X0134099Y0218566D01*
X0134101Y0218661D01*
X0134101Y0237558D01*
X0134100Y0237558D02*
X0134102Y0237644D01*
X0134107Y0237730D01*
X0134117Y0237815D01*
X0134130Y0237900D01*
X0134147Y0237984D01*
X0134167Y0238068D01*
X0134191Y0238150D01*
X0134219Y0238231D01*
X0134250Y0238312D01*
X0134284Y0238390D01*
X0134322Y0238467D01*
X0134364Y0238543D01*
X0134408Y0238616D01*
X0134456Y0238687D01*
X0134507Y0238757D01*
X0134561Y0238824D01*
X0134617Y0238888D01*
X0134677Y0238950D01*
X0134739Y0239010D01*
X0134803Y0239066D01*
X0134870Y0239120D01*
X0134940Y0239171D01*
X0135011Y0239219D01*
X0135085Y0239263D01*
X0135160Y0239305D01*
X0135237Y0239343D01*
X0135315Y0239377D01*
X0135396Y0239408D01*
X0135477Y0239436D01*
X0135559Y0239460D01*
X0135643Y0239480D01*
X0135727Y0239497D01*
X0135812Y0239510D01*
X0135897Y0239520D01*
X0135983Y0239525D01*
X0136069Y0239527D01*
X0169928Y0239527D01*
X0170085Y0239525D01*
X0170242Y0239519D01*
X0170399Y0239509D01*
X0170555Y0239496D01*
X0170711Y0239478D01*
X0170867Y0239457D01*
X0171022Y0239431D01*
X0171176Y0239402D01*
X0171330Y0239369D01*
X0171482Y0239332D01*
X0171634Y0239292D01*
X0171785Y0239247D01*
X0171934Y0239199D01*
X0172082Y0239147D01*
X0172229Y0239092D01*
X0172375Y0239032D01*
X0172519Y0238970D01*
X0172661Y0238903D01*
X0172802Y0238833D01*
X0172941Y0238760D01*
X0173078Y0238683D01*
X0173213Y0238603D01*
X0173345Y0238519D01*
X0173476Y0238432D01*
X0173605Y0238342D01*
X0173731Y0238249D01*
X0173855Y0238153D01*
X0173977Y0238053D01*
X0174096Y0237951D01*
X0174212Y0237845D01*
X0174326Y0237737D01*
X0174437Y0237626D01*
X0174545Y0237512D01*
X0174651Y0237396D01*
X0174753Y0237277D01*
X0174853Y0237155D01*
X0174949Y0237031D01*
X0175042Y0236905D01*
X0175132Y0236776D01*
X0175219Y0236645D01*
X0175303Y0236513D01*
X0175383Y0236378D01*
X0175460Y0236241D01*
X0175533Y0236102D01*
X0175603Y0235961D01*
X0175670Y0235819D01*
X0175732Y0235675D01*
X0175792Y0235529D01*
X0175847Y0235382D01*
X0175899Y0235234D01*
X0175947Y0235085D01*
X0175992Y0234934D01*
X0176032Y0234782D01*
X0176069Y0234630D01*
X0176102Y0234476D01*
X0176131Y0234322D01*
X0176157Y0234167D01*
X0176178Y0234011D01*
X0176196Y0233855D01*
X0176209Y0233699D01*
X0176219Y0233542D01*
X0176225Y0233385D01*
X0176227Y0233228D01*
X0176227Y0052519D01*
X0176225Y0052319D01*
X0176217Y0052120D01*
X0176205Y0051920D01*
X0176188Y0051721D01*
X0176167Y0051522D01*
X0176140Y0051324D01*
X0176109Y0051127D01*
X0176073Y0050930D01*
X0176032Y0050735D01*
X0175987Y0050540D01*
X0175937Y0050347D01*
X0175882Y0050155D01*
X0175822Y0049964D01*
X0175758Y0049775D01*
X0175690Y0049587D01*
X0175617Y0049401D01*
X0175539Y0049217D01*
X0175457Y0049035D01*
X0175371Y0048855D01*
X0175280Y0048677D01*
X0175185Y0048501D01*
X0175086Y0048327D01*
X0174982Y0048156D01*
X0174875Y0047988D01*
X0174763Y0047822D01*
X0174648Y0047659D01*
X0174529Y0047499D01*
X0174405Y0047342D01*
X0174278Y0047187D01*
X0174148Y0047036D01*
X0174013Y0046888D01*
X0173876Y0046744D01*
X0173734Y0046602D01*
X0173590Y0046465D01*
X0173442Y0046330D01*
X0173291Y0046200D01*
X0173136Y0046073D01*
X0172979Y0045949D01*
X0172819Y0045830D01*
X0172656Y0045715D01*
X0172490Y0045603D01*
X0172322Y0045496D01*
X0172151Y0045392D01*
X0171977Y0045293D01*
X0171801Y0045198D01*
X0171623Y0045107D01*
X0171443Y0045021D01*
X0171261Y0044939D01*
X0171077Y0044861D01*
X0170891Y0044788D01*
X0170703Y0044720D01*
X0170514Y0044656D01*
X0170323Y0044596D01*
X0170131Y0044541D01*
X0169938Y0044491D01*
X0169743Y0044446D01*
X0169548Y0044405D01*
X0169351Y0044369D01*
X0169154Y0044338D01*
X0168956Y0044311D01*
X0168757Y0044290D01*
X0168558Y0044273D01*
X0168358Y0044261D01*
X0168159Y0044253D01*
X0167959Y0044251D01*
X0040400Y0044251D01*
X0040259Y0044253D01*
X0040118Y0044259D01*
X0039977Y0044268D01*
X0039837Y0044282D01*
X0039697Y0044300D01*
X0039558Y0044321D01*
X0039419Y0044346D01*
X0039281Y0044375D01*
X0039144Y0044408D01*
X0039007Y0044444D01*
X0038872Y0044484D01*
X0038738Y0044528D01*
X0038605Y0044576D01*
X0038474Y0044627D01*
X0038344Y0044682D01*
X0038216Y0044741D01*
X0038089Y0044802D01*
X0037964Y0044868D01*
X0037841Y0044937D01*
X0037720Y0045009D01*
X0037601Y0045084D01*
X0037484Y0045163D01*
X0037369Y0045245D01*
X0037256Y0045330D01*
X0037146Y0045418D01*
X0037039Y0045509D01*
X0036934Y0045604D01*
X0036831Y0045701D01*
X0036732Y0045800D01*
X0036635Y0045903D01*
X0036540Y0046008D01*
X0036449Y0046115D01*
X0036361Y0046225D01*
X0036276Y0046338D01*
X0036194Y0046453D01*
X0036115Y0046570D01*
X0036040Y0046689D01*
X0035968Y0046810D01*
X0035899Y0046933D01*
X0035833Y0047058D01*
X0035772Y0047185D01*
X0035713Y0047313D01*
X0035658Y0047443D01*
X0035607Y0047574D01*
X0035559Y0047707D01*
X0035515Y0047841D01*
X0035475Y0047976D01*
X0035439Y0048113D01*
X0035406Y0048250D01*
X0035377Y0048388D01*
X0035352Y0048527D01*
X0035331Y0048666D01*
X0035313Y0048806D01*
X0035299Y0048946D01*
X0035290Y0049087D01*
X0035284Y0049228D01*
X0035282Y0049369D01*
D12*
X0063550Y0097522D02*
X0063550Y0103522D01*
X0063550Y0123122D02*
X0063550Y0129122D01*
X0081350Y0129122D02*
X0081350Y0123122D01*
X0081350Y0103522D02*
X0081350Y0097522D01*
X0164503Y0180302D02*
X0170503Y0180302D01*
X0170503Y0190302D02*
X0164503Y0190302D01*
X0164503Y0200302D02*
X0170503Y0200302D01*
X0170503Y0210302D02*
X0164503Y0210302D01*
X0164503Y0220302D02*
X0170503Y0220302D01*
X0170503Y0230302D02*
X0164503Y0230302D01*
D13*
X0147762Y0141223D02*
X0147762Y0136023D01*
X0137762Y0136023D02*
X0137762Y0141223D01*
X0137762Y0106023D02*
X0137762Y0100823D01*
X0147762Y0100823D02*
X0147762Y0106023D01*
X0048817Y0168545D02*
X0048817Y0173745D01*
X0048817Y0198545D02*
X0048817Y0203745D01*
D14*
X0132920Y0064823D02*
X0132920Y0057773D01*
X0152605Y0057773D02*
X0152605Y0064823D01*
D15*
X0085592Y0070710D02*
X0085592Y0078584D01*
X0069844Y0086458D02*
X0061970Y0086458D01*
X0061970Y0061655D02*
X0069844Y0061655D01*
M02*
