%
M48
M72
T01C0.02362
T02C0.03200
T03C0.03937
T04C0.04000
T05C0.04700
%
T01
X68348Y218348
X96306Y196220
X119140Y179684
X122290Y165511
X101817Y132046
X167172Y162755
X154569Y190789
X63230Y159687
T02
X48817Y201145
X48817Y171145
X137762Y106023
X147762Y106023
X147762Y136023
X137762Y136023
T03
X85592Y74647
X65907Y86458
X65907Y61655
T04
X63550Y126122
X81350Y126122
X81350Y100522
X63550Y100522
X167503Y180302
X167503Y190302
X167503Y200302
X167503Y210302
X167503Y220302
X167503Y230302
T05
X132920Y61298
X152605Y61298
M30
