G75*
%MOIN*%
%OFA0B0*%
%FSLAX25Y25*%
%IPPOS*%
%LPD*%
%AMOC8*
5,1,8,0,0,1.08239X$1,22.5*
%
%ADD10C,0.03200*%
%ADD11C,0.01600*%
%ADD12R,0.05512X0.06299*%
%ADD13R,0.07087X0.06299*%
%ADD14R,0.11811X0.04724*%
%ADD15C,0.06000*%
%ADD16C,0.05200*%
%ADD17R,0.11811X0.05512*%
%ADD18R,0.02756X0.04331*%
%ADD19R,0.02756X0.07087*%
%ADD20R,0.07874X0.11024*%
%ADD21R,0.02500X0.05000*%
%ADD22C,0.07050*%
%ADD23R,0.05906X0.08268*%
%ADD24R,0.04724X0.04724*%
%ADD25C,0.07874*%
%ADD26R,0.03562X0.03562*%
%ADD27C,0.04000*%
%ADD28C,0.03562*%
%ADD29C,0.05000*%
D10*
X0039445Y0047941D02*
X0040065Y0047684D01*
X0040400Y0047651D01*
X0102735Y0047651D01*
X0102735Y0091937D01*
X0103375Y0093481D01*
X0117302Y0107408D01*
X0117302Y0110602D01*
X0117034Y0110549D01*
X0110872Y0110549D01*
X0110872Y0115905D01*
X0110872Y0115905D01*
X0102367Y0115905D01*
X0102367Y0118917D01*
X0102467Y0119419D01*
X0102663Y0119892D01*
X0102947Y0120318D01*
X0103310Y0120680D01*
X0103735Y0120965D01*
X0104209Y0121161D01*
X0104711Y0121261D01*
X0110872Y0121261D01*
X0110872Y0115905D01*
X0110872Y0115905D01*
X0102367Y0115905D01*
X0102367Y0112893D01*
X0102467Y0112390D01*
X0102663Y0111917D01*
X0102947Y0111491D01*
X0103310Y0111129D01*
X0103735Y0110845D01*
X0104209Y0110649D01*
X0104711Y0110549D01*
X0110872Y0110549D01*
X0110872Y0115905D01*
X0110872Y0121261D01*
X0117034Y0121261D01*
X0117536Y0121161D01*
X0118010Y0120965D01*
X0118435Y0120680D01*
X0118797Y0120318D01*
X0119082Y0119892D01*
X0119219Y0119561D01*
X0121485Y0121827D01*
X0121485Y0121827D01*
X0122667Y0123009D01*
X0124210Y0123648D01*
X0160133Y0123648D01*
X0161677Y0123009D01*
X0169157Y0115528D01*
X0170339Y0114347D01*
X0170978Y0112803D01*
X0170978Y0048769D01*
X0171401Y0049077D01*
X0172296Y0050309D01*
X0172767Y0051757D01*
X0172827Y0052519D01*
X0172827Y0175201D01*
X0172653Y0175112D01*
X0171814Y0174839D01*
X0170944Y0174702D01*
X0167503Y0174702D01*
X0167503Y0180301D01*
X0167503Y0180301D01*
X0167503Y0174702D01*
X0164062Y0174702D01*
X0163192Y0174839D01*
X0162353Y0175112D01*
X0161568Y0175512D01*
X0160914Y0175987D01*
X0160914Y0173694D01*
X0160548Y0172809D01*
X0159871Y0172132D01*
X0159094Y0171810D01*
X0159871Y0171489D01*
X0160548Y0170812D01*
X0160757Y0170305D01*
X0164425Y0170305D01*
X0165898Y0169695D01*
X0168650Y0166943D01*
X0169432Y0166943D01*
X0170316Y0166577D01*
X0170993Y0165900D01*
X0171360Y0165015D01*
X0171360Y0160495D01*
X0170993Y0159611D01*
X0170316Y0158933D01*
X0169432Y0158567D01*
X0164912Y0158567D01*
X0164027Y0158933D01*
X0163350Y0159611D01*
X0162983Y0160495D01*
X0162983Y0161276D01*
X0161969Y0162291D01*
X0160757Y0162291D01*
X0160548Y0161785D01*
X0160413Y0161650D01*
X0160423Y0161646D01*
X0161100Y0160969D01*
X0161467Y0160084D01*
X0161467Y0152827D01*
X0161100Y0151943D01*
X0160423Y0151266D01*
X0159899Y0151048D01*
X0160291Y0150886D01*
X0160717Y0150601D01*
X0161079Y0150239D01*
X0161364Y0149813D01*
X0161560Y0149340D01*
X0161660Y0148838D01*
X0161660Y0145432D01*
X0155517Y0145432D01*
X0155517Y0145432D01*
X0155517Y0139683D01*
X0159316Y0139683D01*
X0159818Y0139783D01*
X0160291Y0139979D01*
X0160717Y0140263D01*
X0161079Y0140625D01*
X0161364Y0141051D01*
X0161560Y0141524D01*
X0161660Y0142027D01*
X0161660Y0145432D01*
X0155517Y0145432D01*
X0155516Y0145432D01*
X0155516Y0139683D01*
X0152962Y0139683D01*
X0152962Y0136023D01*
X0147762Y0136023D01*
X0147762Y0146423D01*
X0147353Y0146423D01*
X0146545Y0146295D01*
X0145766Y0146042D01*
X0145037Y0145670D01*
X0144375Y0145189D01*
X0143796Y0144610D01*
X0143315Y0143948D01*
X0142943Y0143219D01*
X0142690Y0142441D01*
X0142687Y0142418D01*
X0142007Y0144059D01*
X0140598Y0145468D01*
X0138758Y0146230D01*
X0136766Y0146230D01*
X0134926Y0145468D01*
X0133517Y0144059D01*
X0132755Y0142219D01*
X0132755Y0135027D01*
X0133517Y0133187D01*
X0134926Y0131778D01*
X0136766Y0131016D01*
X0138758Y0131016D01*
X0140598Y0131778D01*
X0142007Y0133187D01*
X0142687Y0134828D01*
X0142690Y0134805D01*
X0142943Y0134027D01*
X0143315Y0133297D01*
X0143796Y0132635D01*
X0144375Y0132056D01*
X0145037Y0131575D01*
X0145766Y0131204D01*
X0146545Y0130951D01*
X0147353Y0130823D01*
X0147762Y0130823D01*
X0147762Y0136023D01*
X0147762Y0136023D01*
X0147762Y0146423D01*
X0148171Y0146423D01*
X0148980Y0146295D01*
X0149373Y0146167D01*
X0149373Y0148838D01*
X0149473Y0149340D01*
X0149669Y0149813D01*
X0149954Y0150239D01*
X0150316Y0150601D01*
X0150742Y0150886D01*
X0151134Y0151048D01*
X0150610Y0151266D01*
X0149933Y0151943D01*
X0149566Y0152827D01*
X0149566Y0153236D01*
X0149445Y0153236D01*
X0148607Y0153584D01*
X0148607Y0153361D01*
X0140102Y0153361D01*
X0140102Y0153361D01*
X0140102Y0148399D01*
X0146263Y0148399D01*
X0146765Y0148499D01*
X0147239Y0148695D01*
X0147664Y0148980D01*
X0148027Y0149342D01*
X0148311Y0149768D01*
X0148507Y0150241D01*
X0148607Y0150743D01*
X0148607Y0153361D01*
X0140102Y0153361D01*
X0140102Y0153361D01*
X0140102Y0148399D01*
X0133940Y0148399D01*
X0133438Y0148499D01*
X0132964Y0148695D01*
X0132539Y0148980D01*
X0132177Y0149342D01*
X0131892Y0149768D01*
X0131696Y0150241D01*
X0131596Y0150743D01*
X0131596Y0153361D01*
X0140101Y0153361D01*
X0140101Y0153361D01*
X0131596Y0153361D01*
X0131596Y0155980D01*
X0131696Y0156482D01*
X0131892Y0156955D01*
X0132177Y0157381D01*
X0132230Y0157435D01*
X0132155Y0157510D01*
X0131789Y0158394D01*
X0131789Y0164076D01*
X0132155Y0164961D01*
X0132367Y0165172D01*
X0132155Y0165384D01*
X0132132Y0165441D01*
X0131824Y0165441D01*
X0128497Y0162114D01*
X0127024Y0161504D01*
X0124987Y0161504D01*
X0124550Y0161323D01*
X0120030Y0161323D01*
X0119145Y0161689D01*
X0118468Y0162366D01*
X0118102Y0163251D01*
X0118102Y0167771D01*
X0118468Y0168656D01*
X0119145Y0169333D01*
X0120030Y0169699D01*
X0124550Y0169699D01*
X0124690Y0169641D01*
X0126767Y0171718D01*
X0127894Y0172845D01*
X0128211Y0172976D01*
X0121044Y0172976D01*
X0119571Y0173586D01*
X0117661Y0175496D01*
X0116880Y0175496D01*
X0115996Y0175863D01*
X0115318Y0176540D01*
X0114952Y0177424D01*
X0114952Y0181944D01*
X0115318Y0182829D01*
X0115996Y0183506D01*
X0116880Y0183872D01*
X0121400Y0183872D01*
X0122285Y0183506D01*
X0122962Y0182829D01*
X0123328Y0181944D01*
X0123328Y0181163D01*
X0123501Y0180991D01*
X0132297Y0180991D01*
X0132155Y0181132D01*
X0131789Y0182016D01*
X0131789Y0187698D01*
X0132155Y0188583D01*
X0132367Y0188794D01*
X0132155Y0189006D01*
X0131789Y0189890D01*
X0131789Y0195573D01*
X0132155Y0196457D01*
X0132367Y0196669D01*
X0132155Y0196880D01*
X0131789Y0197764D01*
X0131789Y0203447D01*
X0132155Y0204331D01*
X0132367Y0204543D01*
X0132155Y0204754D01*
X0131789Y0205639D01*
X0131789Y0211321D01*
X0132155Y0212205D01*
X0132833Y0212882D01*
X0132871Y0212898D01*
X0085711Y0212898D01*
X0083593Y0213776D01*
X0083593Y0213776D01*
X0081972Y0215397D01*
X0081972Y0215397D01*
X0081094Y0217514D01*
X0081094Y0235590D01*
X0081092Y0235618D01*
X0081070Y0235669D01*
X0081031Y0235709D01*
X0080979Y0235730D01*
X0080951Y0235733D01*
X0064917Y0235733D01*
X0065373Y0235277D01*
X0070217Y0235277D01*
X0071690Y0234667D01*
X0072817Y0233540D01*
X0078931Y0227426D01*
X0079541Y0225953D01*
X0079541Y0213249D01*
X0081919Y0213249D01*
X0082804Y0212882D01*
X0083255Y0212431D01*
X0092378Y0212431D01*
X0093851Y0211821D01*
X0094978Y0210694D01*
X0099703Y0205970D01*
X0100313Y0204497D01*
X0100313Y0198917D01*
X0100494Y0198480D01*
X0100494Y0193960D01*
X0100127Y0193075D01*
X0099450Y0192398D01*
X0098565Y0192031D01*
X0094046Y0192031D01*
X0093161Y0192398D01*
X0092484Y0193075D01*
X0092117Y0193960D01*
X0092117Y0198480D01*
X0092298Y0198917D01*
X0092298Y0202040D01*
X0089921Y0204417D01*
X0083395Y0204417D01*
X0083481Y0204331D01*
X0083847Y0203447D01*
X0083847Y0197764D01*
X0083481Y0196880D01*
X0083269Y0196669D01*
X0083481Y0196457D01*
X0083847Y0195573D01*
X0083847Y0189890D01*
X0083481Y0189006D01*
X0083269Y0188794D01*
X0083481Y0188583D01*
X0083847Y0187698D01*
X0083847Y0182016D01*
X0083481Y0181132D01*
X0083269Y0180920D01*
X0083481Y0180709D01*
X0083847Y0179824D01*
X0083847Y0174142D01*
X0083481Y0173258D01*
X0083269Y0173046D01*
X0083481Y0172835D01*
X0083847Y0171950D01*
X0083847Y0166268D01*
X0083481Y0165384D01*
X0083269Y0165172D01*
X0083481Y0164961D01*
X0083847Y0164076D01*
X0083847Y0158394D01*
X0083481Y0157510D01*
X0083269Y0157298D01*
X0083481Y0157087D01*
X0083847Y0156202D01*
X0083847Y0150520D01*
X0083481Y0149636D01*
X0082804Y0148959D01*
X0081919Y0148592D01*
X0079840Y0148592D01*
X0079840Y0147092D01*
X0082588Y0144344D01*
X0082746Y0144725D01*
X0083423Y0145402D01*
X0084308Y0145768D01*
X0090777Y0145768D01*
X0091662Y0145402D01*
X0092339Y0144725D01*
X0092705Y0143840D01*
X0092705Y0136583D01*
X0092592Y0136309D01*
X0092847Y0136054D01*
X0093414Y0136054D01*
X0093310Y0136304D01*
X0093210Y0136806D01*
X0093210Y0140212D01*
X0098566Y0140212D01*
X0098566Y0145961D01*
X0095554Y0145961D01*
X0095052Y0145861D01*
X0094579Y0145666D01*
X0094153Y0145381D01*
X0093791Y0145019D01*
X0093506Y0144593D01*
X0093310Y0144120D01*
X0093210Y0143617D01*
X0093210Y0140212D01*
X0098566Y0140212D01*
X0098566Y0140212D01*
X0098566Y0140212D01*
X0098566Y0145961D01*
X0101578Y0145961D01*
X0102080Y0145861D01*
X0102554Y0145666D01*
X0102979Y0145381D01*
X0103342Y0145019D01*
X0103626Y0144593D01*
X0103822Y0144120D01*
X0103922Y0143617D01*
X0103922Y0140212D01*
X0098566Y0140212D01*
X0108014Y0140212D01*
X0108510Y0140708D01*
X0110872Y0138346D01*
X0110872Y0115905D01*
X0110872Y0115905D01*
X0110872Y0115536D02*
X0110872Y0115536D01*
X0110872Y0118734D02*
X0110872Y0118734D01*
X0110872Y0112337D02*
X0110872Y0112337D01*
X0115834Y0105940D02*
X0086402Y0105940D01*
X0086539Y0105672D02*
X0086139Y0106457D01*
X0085621Y0107170D01*
X0084998Y0107793D01*
X0084285Y0108312D01*
X0083499Y0108712D01*
X0082661Y0108984D01*
X0081790Y0109122D01*
X0081350Y0109122D01*
X0081350Y0100522D01*
X0081350Y0100522D01*
X0086950Y0100522D01*
X0086950Y0103963D01*
X0086812Y0104833D01*
X0086539Y0105672D01*
X0086950Y0102742D02*
X0112636Y0102742D01*
X0109437Y0099543D02*
X0086950Y0099543D01*
X0086950Y0100522D02*
X0086950Y0097081D01*
X0086812Y0096211D01*
X0086539Y0095372D01*
X0086139Y0094587D01*
X0085621Y0093874D01*
X0084998Y0093251D01*
X0084285Y0092732D01*
X0083499Y0092332D01*
X0082661Y0092060D01*
X0081790Y0091922D01*
X0081350Y0091922D01*
X0081350Y0100522D01*
X0086950Y0100522D01*
X0086833Y0096345D02*
X0106239Y0096345D01*
X0103236Y0093146D02*
X0084854Y0093146D01*
X0081350Y0093146D02*
X0081350Y0093146D01*
X0081350Y0091922D02*
X0081350Y0100522D01*
X0081350Y0100522D01*
X0081350Y0100522D01*
X0081350Y0126122D01*
X0081350Y0117522D01*
X0081790Y0117522D01*
X0082661Y0117660D01*
X0083499Y0117932D01*
X0083662Y0118015D01*
X0083662Y0112670D01*
X0084029Y0111785D01*
X0084706Y0111108D01*
X0085590Y0110742D01*
X0098359Y0110742D01*
X0099244Y0111108D01*
X0099921Y0111785D01*
X0100287Y0112670D01*
X0100287Y0119139D01*
X0099921Y0120024D01*
X0099244Y0120701D01*
X0098359Y0121068D01*
X0095967Y0121068D01*
X0095372Y0122505D01*
X0091257Y0126620D01*
X0091257Y0128039D01*
X0099120Y0128039D01*
X0099557Y0127858D01*
X0104077Y0127858D01*
X0104962Y0128225D01*
X0105639Y0128902D01*
X0106005Y0129787D01*
X0106005Y0134306D01*
X0105639Y0135191D01*
X0104962Y0135868D01*
X0104077Y0136235D01*
X0103793Y0136235D01*
X0103822Y0136304D01*
X0103922Y0136806D01*
X0103922Y0140212D01*
X0098566Y0140212D01*
X0098566Y0140212D01*
X0098566Y0141124D02*
X0098566Y0141124D01*
X0098566Y0144322D02*
X0098566Y0144322D01*
X0093394Y0144322D02*
X0092506Y0144322D01*
X0092705Y0141124D02*
X0093210Y0141124D01*
X0093210Y0137925D02*
X0092705Y0137925D01*
X0087543Y0140212D02*
X0087250Y0139920D01*
X0087250Y0135983D01*
X0091187Y0132046D01*
X0101817Y0132046D01*
X0106005Y0131528D02*
X0135529Y0131528D01*
X0132879Y0134727D02*
X0105831Y0134727D01*
X0103922Y0137925D02*
X0132755Y0137925D01*
X0132755Y0141124D02*
X0103922Y0141124D01*
X0103738Y0144322D02*
X0133781Y0144322D01*
X0131601Y0150719D02*
X0083847Y0150719D01*
X0083847Y0153918D02*
X0131596Y0153918D01*
X0132000Y0157116D02*
X0083451Y0157116D01*
X0083847Y0160315D02*
X0131789Y0160315D01*
X0131789Y0163514D02*
X0129896Y0163514D01*
X0126227Y0165511D02*
X0130164Y0169448D01*
X0139763Y0169448D01*
X0140102Y0169109D01*
X0140102Y0161235D02*
X0146250Y0161235D01*
X0150243Y0157243D01*
X0154729Y0157243D01*
X0155517Y0156456D01*
X0150492Y0150719D02*
X0148602Y0150719D01*
X0149373Y0147521D02*
X0079840Y0147521D01*
X0075833Y0145432D02*
X0075833Y0153063D01*
X0075535Y0153361D01*
X0071826Y0148363D02*
X0071826Y0144635D01*
X0072436Y0143162D01*
X0073563Y0142035D01*
X0078784Y0136815D01*
X0080256Y0136205D01*
X0082536Y0136205D01*
X0082746Y0135699D01*
X0083243Y0135201D01*
X0083243Y0134395D01*
X0082661Y0134584D01*
X0081790Y0134722D01*
X0081350Y0134722D01*
X0081350Y0126122D01*
X0081350Y0126122D01*
X0081350Y0126122D01*
X0081350Y0117522D01*
X0080909Y0117522D01*
X0080038Y0117660D01*
X0079200Y0117932D01*
X0078415Y0118332D01*
X0077701Y0118851D01*
X0077078Y0119474D01*
X0076560Y0120187D01*
X0076160Y0120972D01*
X0075888Y0121811D01*
X0075750Y0122681D01*
X0075750Y0126122D01*
X0081349Y0126122D01*
X0081349Y0126122D01*
X0075750Y0126122D01*
X0075750Y0129563D01*
X0075888Y0130433D01*
X0076160Y0131272D01*
X0076560Y0132057D01*
X0077078Y0132770D01*
X0077701Y0133393D01*
X0078415Y0133912D01*
X0079200Y0134312D01*
X0080038Y0134584D01*
X0080909Y0134722D01*
X0081350Y0134722D01*
X0081350Y0126122D01*
X0081350Y0125131D02*
X0081350Y0125131D01*
X0081350Y0121933D02*
X0081350Y0121933D01*
X0081350Y0118734D02*
X0081350Y0118734D01*
X0083662Y0115536D02*
X0067557Y0115536D01*
X0067557Y0118734D02*
X0077861Y0118734D01*
X0075868Y0121933D02*
X0068910Y0121933D01*
X0068957Y0122047D02*
X0068957Y0130198D01*
X0068134Y0132185D01*
X0066612Y0133706D01*
X0064625Y0134529D01*
X0063711Y0134529D01*
X0067316Y0138134D01*
X0068556Y0139374D01*
X0069227Y0140993D01*
X0069227Y0147145D01*
X0070445Y0148363D01*
X0071826Y0148363D01*
X0071826Y0147521D02*
X0069603Y0147521D01*
X0069227Y0144322D02*
X0071956Y0144322D01*
X0074475Y0141124D02*
X0069227Y0141124D01*
X0067108Y0137925D02*
X0077673Y0137925D01*
X0081054Y0140212D02*
X0075833Y0145432D01*
X0081054Y0140212D02*
X0087543Y0140212D01*
X0087250Y0135983D02*
X0087250Y0124960D01*
X0091975Y0120235D01*
X0091975Y0115905D01*
X0095609Y0121933D02*
X0121591Y0121933D01*
X0125046Y0119448D02*
X0132196Y0119448D01*
X0138596Y0119448D02*
X0145747Y0119448D01*
X0152147Y0119448D02*
X0159298Y0119448D01*
X0166778Y0111968D01*
X0166778Y0103781D01*
X0170978Y0102742D02*
X0172827Y0102742D01*
X0172827Y0105940D02*
X0170978Y0105940D01*
X0170978Y0109139D02*
X0172827Y0109139D01*
X0172827Y0112337D02*
X0170978Y0112337D01*
X0169150Y0115536D02*
X0172827Y0115536D01*
X0172827Y0118734D02*
X0165951Y0118734D01*
X0162752Y0121933D02*
X0172827Y0121933D01*
X0172827Y0125131D02*
X0092746Y0125131D01*
X0100287Y0118734D02*
X0102367Y0118734D01*
X0102367Y0115536D02*
X0100287Y0115536D01*
X0100150Y0112337D02*
X0102489Y0112337D01*
X0105067Y0128330D02*
X0172827Y0128330D01*
X0172827Y0131528D02*
X0150395Y0131528D01*
X0150488Y0131575D02*
X0151150Y0132056D01*
X0151729Y0132635D01*
X0152210Y0133297D01*
X0152581Y0134027D01*
X0152834Y0134805D01*
X0152962Y0135614D01*
X0152962Y0136023D01*
X0147762Y0136023D01*
X0148274Y0136535D01*
X0148274Y0147007D01*
X0149849Y0145432D01*
X0155517Y0145432D01*
X0155516Y0144322D02*
X0155517Y0144322D01*
X0155516Y0141124D02*
X0155517Y0141124D01*
X0152962Y0137925D02*
X0172827Y0137925D01*
X0172827Y0141124D02*
X0161394Y0141124D01*
X0161660Y0144322D02*
X0172827Y0144322D01*
X0172827Y0147521D02*
X0161660Y0147521D01*
X0160541Y0150719D02*
X0172827Y0150719D01*
X0172827Y0153918D02*
X0161467Y0153918D01*
X0161467Y0157116D02*
X0172827Y0157116D01*
X0172827Y0160315D02*
X0171285Y0160315D01*
X0171360Y0163514D02*
X0172827Y0163514D01*
X0172827Y0166712D02*
X0169990Y0166712D01*
X0172827Y0169911D02*
X0165379Y0169911D01*
X0163628Y0166298D02*
X0167172Y0162755D01*
X0163058Y0160315D02*
X0161371Y0160315D01*
X0163628Y0166298D02*
X0154964Y0166298D01*
X0160672Y0173109D02*
X0172827Y0173109D01*
X0167503Y0176308D02*
X0167503Y0176308D01*
X0167503Y0179506D02*
X0167503Y0179506D01*
X0162189Y0185408D02*
X0161440Y0185718D01*
X0159919Y0187239D01*
X0159096Y0189226D01*
X0159096Y0191377D01*
X0159919Y0193364D01*
X0161440Y0194885D01*
X0162445Y0195302D01*
X0161440Y0195718D01*
X0159919Y0197239D01*
X0159096Y0199226D01*
X0159096Y0201377D01*
X0159919Y0203364D01*
X0161440Y0204885D01*
X0162445Y0205302D01*
X0161440Y0205718D01*
X0161258Y0205899D01*
X0160386Y0205027D01*
X0159714Y0204749D01*
X0157855Y0202890D01*
X0157577Y0202218D01*
X0156449Y0201090D01*
X0152567Y0197208D01*
X0151095Y0196598D01*
X0147906Y0196598D01*
X0148048Y0196457D01*
X0148414Y0195573D01*
X0148414Y0189890D01*
X0148048Y0189006D01*
X0147836Y0188794D01*
X0148048Y0188583D01*
X0148414Y0187698D01*
X0148414Y0182016D01*
X0148129Y0181329D01*
X0149170Y0181329D01*
X0149380Y0181835D01*
X0150057Y0182512D01*
X0150942Y0182879D01*
X0158986Y0182879D01*
X0159436Y0182692D01*
X0159714Y0183237D01*
X0160232Y0183950D01*
X0160855Y0184573D01*
X0161568Y0185091D01*
X0162189Y0185408D01*
X0161255Y0185903D02*
X0148414Y0185903D01*
X0148414Y0182705D02*
X0150521Y0182705D01*
X0148087Y0189102D02*
X0159148Y0189102D01*
X0159478Y0192300D02*
X0148414Y0192300D01*
X0148414Y0195499D02*
X0161969Y0195499D01*
X0159315Y0198697D02*
X0154056Y0198697D01*
X0157255Y0201896D02*
X0159311Y0201896D01*
X0160453Y0205094D02*
X0161944Y0205094D01*
X0158117Y0208424D02*
X0159691Y0209999D01*
X0167201Y0209999D01*
X0167503Y0210302D01*
X0158117Y0208424D02*
X0157723Y0208424D01*
X0154180Y0204881D01*
X0154180Y0204487D01*
X0150298Y0200606D01*
X0140102Y0200606D01*
X0140102Y0208480D02*
X0147935Y0208480D01*
X0152605Y0213149D01*
X0152605Y0216692D01*
X0156148Y0220235D01*
X0167437Y0220235D01*
X0167503Y0220302D01*
X0159443Y0182705D02*
X0159406Y0182705D01*
X0154964Y0177322D02*
X0140440Y0177322D01*
X0140102Y0176983D01*
X0121841Y0176983D01*
X0119140Y0179684D01*
X0115551Y0176308D02*
X0083847Y0176308D01*
X0083847Y0179506D02*
X0114952Y0179506D01*
X0115267Y0182705D02*
X0083847Y0182705D01*
X0083847Y0185903D02*
X0131789Y0185903D01*
X0131789Y0182705D02*
X0123013Y0182705D01*
X0120724Y0173109D02*
X0083332Y0173109D01*
X0083847Y0169911D02*
X0124959Y0169911D01*
X0126227Y0165511D02*
X0122290Y0165511D01*
X0118102Y0166712D02*
X0083847Y0166712D01*
X0083847Y0163514D02*
X0118102Y0163514D01*
X0118353Y0150550D02*
X0126227Y0150550D01*
X0128589Y0152913D01*
X0139653Y0152913D01*
X0140102Y0153361D01*
X0141920Y0153361D01*
X0148274Y0147007D01*
X0147762Y0144322D02*
X0147762Y0144322D01*
X0147762Y0141124D02*
X0147762Y0141124D01*
X0147762Y0137925D02*
X0147762Y0137925D01*
X0147762Y0136023D02*
X0147762Y0136023D01*
X0147762Y0136023D01*
X0147762Y0130823D01*
X0148171Y0130823D01*
X0148980Y0130951D01*
X0149758Y0131204D01*
X0150488Y0131575D01*
X0147762Y0131528D02*
X0147762Y0131528D01*
X0147762Y0134727D02*
X0147762Y0134727D01*
X0145129Y0131528D02*
X0139996Y0131528D01*
X0142645Y0134727D02*
X0142716Y0134727D01*
X0143587Y0144322D02*
X0141744Y0144322D01*
X0140102Y0150719D02*
X0140102Y0150719D01*
X0152809Y0134727D02*
X0172827Y0134727D01*
X0172827Y0099543D02*
X0170978Y0099543D01*
X0170978Y0096345D02*
X0172827Y0096345D01*
X0172827Y0093146D02*
X0170978Y0093146D01*
X0170978Y0089948D02*
X0172827Y0089948D01*
X0172827Y0086749D02*
X0170978Y0086749D01*
X0170978Y0083551D02*
X0172827Y0083551D01*
X0172827Y0080352D02*
X0170978Y0080352D01*
X0170978Y0077154D02*
X0172827Y0077154D01*
X0172827Y0073955D02*
X0170978Y0073955D01*
X0170978Y0070757D02*
X0172827Y0070757D01*
X0172827Y0067558D02*
X0170978Y0067558D01*
X0170978Y0064360D02*
X0172827Y0064360D01*
X0172827Y0061161D02*
X0170978Y0061161D01*
X0170978Y0057963D02*
X0172827Y0057963D01*
X0172827Y0054764D02*
X0170978Y0054764D01*
X0170978Y0051566D02*
X0172705Y0051566D01*
X0166778Y0053619D02*
X0166778Y0045432D01*
X0166778Y0060019D02*
X0166778Y0068206D01*
X0166778Y0074606D02*
X0166778Y0082794D01*
X0166778Y0089194D02*
X0166778Y0097381D01*
X0152605Y0086771D02*
X0149455Y0089920D01*
X0149455Y0104330D01*
X0147762Y0106023D01*
X0137762Y0106023D02*
X0135282Y0103543D01*
X0135282Y0089920D01*
X0134888Y0089527D01*
X0121502Y0089527D01*
X0116384Y0084409D01*
X0114809Y0083621D01*
X0106935Y0084287D02*
X0106935Y0091102D01*
X0111956Y0096122D01*
X0116482Y0100648D02*
X0121502Y0105669D01*
X0121502Y0115905D01*
X0125046Y0119448D01*
X0117302Y0109139D02*
X0067557Y0109139D01*
X0067557Y0107162D02*
X0067557Y0119482D01*
X0068134Y0120059D01*
X0068957Y0122047D01*
X0068957Y0125131D02*
X0075750Y0125131D01*
X0075750Y0128330D02*
X0068957Y0128330D01*
X0068405Y0131528D02*
X0076291Y0131528D01*
X0081350Y0131528D02*
X0081350Y0131528D01*
X0081350Y0128330D02*
X0081350Y0128330D01*
X0083243Y0134727D02*
X0063909Y0134727D01*
X0058143Y0130087D02*
X0058143Y0122047D01*
X0058966Y0120059D01*
X0059543Y0119482D01*
X0059543Y0107162D01*
X0058966Y0106585D01*
X0058143Y0104598D01*
X0058143Y0096447D01*
X0058966Y0094459D01*
X0060487Y0092938D01*
X0060815Y0092802D01*
X0060708Y0092802D01*
X0059572Y0092332D01*
X0057901Y0094003D01*
X0057901Y0095506D01*
X0057907Y0095521D01*
X0057907Y0097053D01*
X0058045Y0097386D01*
X0058045Y0099338D01*
X0057907Y0099671D01*
X0057907Y0101203D01*
X0057541Y0102088D01*
X0056863Y0102765D01*
X0055979Y0103131D01*
X0054447Y0103131D01*
X0054114Y0103269D01*
X0052162Y0103269D01*
X0051829Y0103131D01*
X0050297Y0103131D01*
X0049412Y0102765D01*
X0048735Y0102088D01*
X0048369Y0101203D01*
X0048369Y0099875D01*
X0048087Y0099194D01*
X0048087Y0090994D01*
X0048834Y0089190D01*
X0050214Y0087810D01*
X0050214Y0087810D01*
X0055726Y0082298D01*
X0057529Y0081551D01*
X0057905Y0081551D01*
X0058376Y0081080D01*
X0060708Y0080114D01*
X0071106Y0080114D01*
X0073438Y0081080D01*
X0075222Y0082865D01*
X0076188Y0085196D01*
X0076188Y0087720D01*
X0075222Y0090052D01*
X0073438Y0091837D01*
X0071106Y0092802D01*
X0066285Y0092802D01*
X0066612Y0092938D01*
X0068134Y0094459D01*
X0068957Y0096447D01*
X0068957Y0104598D01*
X0068134Y0106585D01*
X0067557Y0107162D01*
X0068401Y0105940D02*
X0076297Y0105940D01*
X0076160Y0105672D02*
X0075888Y0104833D01*
X0075750Y0103963D01*
X0075750Y0100522D01*
X0075750Y0097081D01*
X0075888Y0096211D01*
X0076160Y0095372D01*
X0076560Y0094587D01*
X0077078Y0093874D01*
X0077701Y0093251D01*
X0078415Y0092732D01*
X0079200Y0092332D01*
X0080038Y0092060D01*
X0080909Y0091922D01*
X0081350Y0091922D01*
X0077845Y0093146D02*
X0066821Y0093146D01*
X0068915Y0096345D02*
X0075866Y0096345D01*
X0075750Y0099543D02*
X0068957Y0099543D01*
X0068957Y0102742D02*
X0075750Y0102742D01*
X0075750Y0100522D02*
X0081349Y0100522D01*
X0075750Y0100522D01*
X0076160Y0105672D02*
X0076560Y0106457D01*
X0077078Y0107170D01*
X0077701Y0107793D01*
X0078415Y0108312D01*
X0079200Y0108712D01*
X0080038Y0108984D01*
X0080909Y0109122D01*
X0081350Y0109122D01*
X0081350Y0100522D01*
X0081349Y0100522D02*
X0081349Y0100522D01*
X0081350Y0099543D02*
X0081350Y0099543D01*
X0081350Y0096345D02*
X0081350Y0096345D01*
X0081350Y0102742D02*
X0081350Y0102742D01*
X0081350Y0105940D02*
X0081350Y0105940D01*
X0083800Y0112337D02*
X0067557Y0112337D01*
X0059543Y0112337D02*
X0038682Y0112337D01*
X0038682Y0115536D02*
X0059543Y0115536D01*
X0059543Y0118734D02*
X0057575Y0118734D01*
X0057541Y0118652D02*
X0057907Y0119537D01*
X0057907Y0125219D01*
X0057541Y0126104D01*
X0057071Y0126574D01*
X0056874Y0127048D01*
X0054001Y0129921D01*
X0056741Y0129921D01*
X0057140Y0130087D01*
X0058143Y0130087D01*
X0058143Y0128330D02*
X0055592Y0128330D01*
X0057907Y0125131D02*
X0058143Y0125131D01*
X0058190Y0121933D02*
X0057907Y0121933D01*
X0057541Y0118652D02*
X0056863Y0117975D01*
X0055979Y0117609D01*
X0050297Y0117609D01*
X0049412Y0117975D01*
X0048735Y0118652D01*
X0048369Y0119537D01*
X0048369Y0123089D01*
X0047864Y0123593D01*
X0047864Y0122378D01*
X0042902Y0122378D01*
X0042902Y0122378D01*
X0047864Y0122378D01*
X0047864Y0119760D01*
X0047764Y0119257D01*
X0047568Y0118784D01*
X0047283Y0118358D01*
X0046921Y0117996D01*
X0046495Y0117712D01*
X0046022Y0117516D01*
X0045520Y0117416D01*
X0042902Y0117416D01*
X0042902Y0122378D01*
X0042902Y0122378D01*
X0042902Y0127340D01*
X0044976Y0127340D01*
X0044913Y0127493D01*
X0044913Y0129136D01*
X0044667Y0129728D01*
X0043073Y0129728D01*
X0043073Y0134494D01*
X0043073Y0134494D01*
X0039095Y0134494D01*
X0039095Y0136915D01*
X0039195Y0137417D01*
X0039391Y0137891D01*
X0039676Y0138316D01*
X0040038Y0138679D01*
X0040464Y0138963D01*
X0040937Y0139159D01*
X0041439Y0139259D01*
X0042635Y0139259D01*
X0042635Y0150917D01*
X0043001Y0151802D01*
X0043678Y0152479D01*
X0044563Y0152846D01*
X0053395Y0152846D01*
X0054279Y0152479D01*
X0054956Y0151802D01*
X0055323Y0150917D01*
X0055323Y0139066D01*
X0055783Y0139066D01*
X0060413Y0143696D01*
X0060413Y0147710D01*
X0056790Y0151332D01*
X0056790Y0151332D01*
X0055663Y0152460D01*
X0055663Y0152460D01*
X0052837Y0155286D01*
X0041173Y0155286D01*
X0039700Y0155896D01*
X0038682Y0156914D01*
X0038682Y0126560D01*
X0038882Y0126760D01*
X0039308Y0127044D01*
X0039781Y0127240D01*
X0040283Y0127340D01*
X0042902Y0127340D01*
X0042902Y0122378D01*
X0042902Y0122378D01*
X0042902Y0117416D01*
X0040283Y0117416D01*
X0039781Y0117516D01*
X0039308Y0117712D01*
X0038882Y0117996D01*
X0038682Y0118196D01*
X0038682Y0102271D01*
X0039176Y0102765D01*
X0040061Y0103131D01*
X0045743Y0103131D01*
X0046627Y0102765D01*
X0047304Y0102088D01*
X0047671Y0101203D01*
X0047671Y0095521D01*
X0047304Y0094636D01*
X0047127Y0094459D01*
X0047127Y0078103D01*
X0058286Y0066943D01*
X0058376Y0067033D01*
X0060708Y0067999D01*
X0071106Y0067999D01*
X0073438Y0067033D01*
X0073515Y0066956D01*
X0078126Y0066956D01*
X0079650Y0068479D01*
X0079248Y0069448D01*
X0079248Y0079846D01*
X0080214Y0082178D01*
X0081998Y0083963D01*
X0084330Y0084928D01*
X0086854Y0084928D01*
X0089186Y0083963D01*
X0090970Y0082178D01*
X0091936Y0079846D01*
X0091936Y0069448D01*
X0090970Y0067117D01*
X0090499Y0066645D01*
X0090499Y0066506D01*
X0089752Y0064702D01*
X0084319Y0059269D01*
X0082939Y0057889D01*
X0081135Y0057142D01*
X0074303Y0057142D01*
X0073438Y0056277D01*
X0071106Y0055311D01*
X0060708Y0055311D01*
X0058376Y0056277D01*
X0057905Y0056748D01*
X0055659Y0056748D01*
X0053855Y0057495D01*
X0038682Y0072668D01*
X0038682Y0049369D01*
X0038715Y0049034D01*
X0038971Y0048415D01*
X0039445Y0047941D01*
X0039019Y0048367D02*
X0102735Y0048367D01*
X0102735Y0051566D02*
X0038682Y0051566D01*
X0038682Y0054764D02*
X0102735Y0054764D01*
X0102735Y0057963D02*
X0083013Y0057963D01*
X0086211Y0061161D02*
X0102735Y0061161D01*
X0102735Y0064360D02*
X0089410Y0064360D01*
X0091153Y0067558D02*
X0102735Y0067558D01*
X0102735Y0070757D02*
X0091936Y0070757D01*
X0091936Y0073955D02*
X0102735Y0073955D01*
X0102735Y0077154D02*
X0091936Y0077154D01*
X0091727Y0080352D02*
X0102735Y0080352D01*
X0102735Y0083551D02*
X0089598Y0083551D01*
X0081587Y0083551D02*
X0075507Y0083551D01*
X0076188Y0086749D02*
X0102735Y0086749D01*
X0102735Y0089948D02*
X0075265Y0089948D01*
X0071681Y0080352D02*
X0079458Y0080352D01*
X0079248Y0077154D02*
X0048076Y0077154D01*
X0047127Y0080352D02*
X0060133Y0080352D01*
X0054473Y0083551D02*
X0047127Y0083551D01*
X0047127Y0086749D02*
X0051275Y0086749D01*
X0048520Y0089948D02*
X0047127Y0089948D01*
X0047127Y0093146D02*
X0048087Y0093146D01*
X0048087Y0096345D02*
X0047671Y0096345D01*
X0047671Y0099543D02*
X0048231Y0099543D01*
X0049389Y0102742D02*
X0046651Y0102742D01*
X0039153Y0102742D02*
X0038682Y0102742D01*
X0038682Y0105940D02*
X0058699Y0105940D01*
X0058143Y0102742D02*
X0056887Y0102742D01*
X0057960Y0099543D02*
X0058143Y0099543D01*
X0058185Y0096345D02*
X0057907Y0096345D01*
X0058757Y0093146D02*
X0060279Y0093146D01*
X0063550Y0100522D02*
X0063550Y0126122D01*
X0057841Y0141124D02*
X0055323Y0141124D01*
X0055323Y0144322D02*
X0060413Y0144322D01*
X0060413Y0147521D02*
X0055323Y0147521D01*
X0055323Y0150719D02*
X0057403Y0150719D01*
X0059060Y0154730D02*
X0063230Y0158899D01*
X0063230Y0159687D01*
X0059042Y0160415D02*
X0057894Y0161563D01*
X0056767Y0162690D01*
X0055294Y0163300D01*
X0043630Y0163300D01*
X0043615Y0163315D01*
X0043615Y0204090D01*
X0043810Y0204285D01*
X0043810Y0197549D01*
X0044573Y0195709D01*
X0045981Y0194300D01*
X0047821Y0193538D01*
X0049813Y0193538D01*
X0051654Y0194300D01*
X0053062Y0195709D01*
X0053824Y0197549D01*
X0053824Y0204741D01*
X0053062Y0206581D01*
X0051654Y0207990D01*
X0049813Y0208752D01*
X0047821Y0208752D01*
X0045981Y0207990D01*
X0045587Y0207595D01*
X0045587Y0214116D01*
X0045602Y0214116D01*
X0046486Y0214482D01*
X0047163Y0215159D01*
X0047530Y0216044D01*
X0047530Y0223301D01*
X0047163Y0224186D01*
X0046486Y0224863D01*
X0045710Y0225184D01*
X0046486Y0225506D01*
X0047163Y0226183D01*
X0047303Y0226520D01*
X0047613Y0226210D01*
X0047613Y0212973D01*
X0048223Y0211500D01*
X0056813Y0202910D01*
X0056813Y0196873D01*
X0057423Y0195400D01*
X0062323Y0190500D01*
X0063450Y0189373D01*
X0064923Y0188763D01*
X0067768Y0188763D01*
X0067588Y0188583D01*
X0067222Y0187698D01*
X0067222Y0182016D01*
X0067588Y0181132D01*
X0067800Y0180920D01*
X0067588Y0180709D01*
X0067222Y0179824D01*
X0067222Y0174142D01*
X0067588Y0173258D01*
X0067800Y0173046D01*
X0067588Y0172835D01*
X0067222Y0171950D01*
X0067222Y0166268D01*
X0067588Y0165384D01*
X0067800Y0165172D01*
X0067588Y0164961D01*
X0067222Y0164076D01*
X0067222Y0162420D01*
X0067052Y0162831D01*
X0066375Y0163508D01*
X0065490Y0163875D01*
X0060970Y0163875D01*
X0060085Y0163508D01*
X0059408Y0162831D01*
X0059042Y0161947D01*
X0059042Y0160415D01*
X0057894Y0161563D02*
X0057894Y0161563D01*
X0060098Y0163514D02*
X0050160Y0163514D01*
X0050035Y0163473D02*
X0050813Y0163726D01*
X0051543Y0164097D01*
X0052205Y0164579D01*
X0052784Y0165157D01*
X0053265Y0165819D01*
X0053636Y0166549D01*
X0053889Y0167327D01*
X0054017Y0168136D01*
X0054017Y0171145D01*
X0054017Y0174154D01*
X0053889Y0174963D01*
X0053636Y0175741D01*
X0053265Y0176470D01*
X0052784Y0177132D01*
X0052205Y0177711D01*
X0051543Y0178192D01*
X0050813Y0178564D01*
X0050035Y0178817D01*
X0049227Y0178945D01*
X0048817Y0178945D01*
X0048408Y0178945D01*
X0047600Y0178817D01*
X0046821Y0178564D01*
X0046092Y0178192D01*
X0045430Y0177711D01*
X0044851Y0177132D01*
X0044370Y0176470D01*
X0043998Y0175741D01*
X0043745Y0174963D01*
X0043617Y0174154D01*
X0043617Y0171145D01*
X0048817Y0171145D01*
X0048817Y0171145D01*
X0048817Y0178945D01*
X0048817Y0171145D01*
X0048817Y0171145D01*
X0043617Y0171145D01*
X0043617Y0168136D01*
X0043745Y0167327D01*
X0043998Y0166549D01*
X0044370Y0165819D01*
X0044851Y0165157D01*
X0045430Y0164579D01*
X0046092Y0164097D01*
X0046821Y0163726D01*
X0047600Y0163473D01*
X0048408Y0163345D01*
X0048817Y0163345D01*
X0048817Y0171145D01*
X0048817Y0171145D01*
X0054017Y0171145D01*
X0048817Y0171145D01*
X0048817Y0171145D01*
X0048817Y0163345D01*
X0049227Y0163345D01*
X0050035Y0163473D01*
X0048817Y0163514D02*
X0048817Y0163514D01*
X0047475Y0163514D02*
X0043615Y0163514D01*
X0043615Y0166712D02*
X0043945Y0166712D01*
X0043615Y0169911D02*
X0043617Y0169911D01*
X0043615Y0173109D02*
X0043617Y0173109D01*
X0043615Y0176308D02*
X0044287Y0176308D01*
X0043615Y0179506D02*
X0067222Y0179506D01*
X0067222Y0176308D02*
X0053348Y0176308D01*
X0054017Y0173109D02*
X0067737Y0173109D01*
X0067222Y0169911D02*
X0054017Y0169911D01*
X0053689Y0166712D02*
X0067222Y0166712D01*
X0067222Y0163514D02*
X0066362Y0163514D01*
X0059060Y0154730D02*
X0064820Y0148970D01*
X0059060Y0154730D02*
X0054497Y0159293D01*
X0041970Y0159293D01*
X0039608Y0161655D01*
X0039608Y0205750D01*
X0041580Y0207721D01*
X0041580Y0219672D01*
X0047530Y0221087D02*
X0047613Y0221087D01*
X0047613Y0224285D02*
X0047064Y0224285D01*
X0051620Y0227870D02*
X0051620Y0213770D01*
X0060820Y0204570D01*
X0060820Y0197670D01*
X0065720Y0192770D01*
X0075496Y0192770D01*
X0075535Y0192731D01*
X0083847Y0192300D02*
X0093397Y0192300D01*
X0092117Y0195499D02*
X0083847Y0195499D01*
X0083847Y0198697D02*
X0092207Y0198697D01*
X0092298Y0201896D02*
X0083847Y0201896D01*
X0091581Y0208424D02*
X0075590Y0208424D01*
X0075535Y0208480D01*
X0075534Y0208480D01*
X0075534Y0225156D01*
X0069420Y0231270D01*
X0060663Y0231270D01*
X0059973Y0230580D01*
X0051620Y0227870D02*
X0048794Y0230696D01*
X0041580Y0230696D01*
X0047530Y0217888D02*
X0047613Y0217888D01*
X0047613Y0214690D02*
X0046694Y0214690D01*
X0045587Y0211491D02*
X0048232Y0211491D01*
X0046713Y0208293D02*
X0045587Y0208293D01*
X0050922Y0208293D02*
X0051430Y0208293D01*
X0053678Y0205094D02*
X0054629Y0205094D01*
X0053824Y0201896D02*
X0056813Y0201896D01*
X0056813Y0198697D02*
X0053824Y0198697D01*
X0052852Y0195499D02*
X0057382Y0195499D01*
X0060523Y0192300D02*
X0043615Y0192300D01*
X0043615Y0189102D02*
X0064105Y0189102D01*
X0067222Y0185903D02*
X0043615Y0185903D01*
X0043615Y0182705D02*
X0067222Y0182705D01*
X0083520Y0189102D02*
X0132116Y0189102D01*
X0131789Y0192300D02*
X0099214Y0192300D01*
X0100494Y0195499D02*
X0131789Y0195499D01*
X0131789Y0198697D02*
X0100404Y0198697D01*
X0100313Y0201896D02*
X0131789Y0201896D01*
X0132014Y0205094D02*
X0100065Y0205094D01*
X0097380Y0208293D02*
X0131789Y0208293D01*
X0131860Y0211491D02*
X0094181Y0211491D01*
X0091581Y0208424D02*
X0096306Y0203700D01*
X0096306Y0196220D01*
X0082679Y0214690D02*
X0079541Y0214690D01*
X0079541Y0217888D02*
X0081094Y0217888D01*
X0081094Y0221087D02*
X0079541Y0221087D01*
X0079541Y0224285D02*
X0081094Y0224285D01*
X0081094Y0227484D02*
X0078873Y0227484D01*
X0081094Y0230682D02*
X0075674Y0230682D01*
X0072476Y0233881D02*
X0081094Y0233881D01*
X0067139Y0219557D02*
X0068348Y0218348D01*
X0067139Y0219557D02*
X0059973Y0219557D01*
X0043810Y0201896D02*
X0043615Y0201896D01*
X0043615Y0198697D02*
X0043810Y0198697D01*
X0043615Y0195499D02*
X0044782Y0195499D01*
X0048817Y0176308D02*
X0048817Y0176308D01*
X0048817Y0173109D02*
X0048817Y0173109D01*
X0048817Y0169911D02*
X0048817Y0169911D01*
X0048817Y0166712D02*
X0048817Y0166712D01*
X0054205Y0153918D02*
X0038682Y0153918D01*
X0038682Y0150719D02*
X0042635Y0150719D01*
X0042635Y0147521D02*
X0038682Y0147521D01*
X0038682Y0144322D02*
X0042635Y0144322D01*
X0042635Y0141124D02*
X0038682Y0141124D01*
X0038682Y0137925D02*
X0039414Y0137925D01*
X0039095Y0134727D02*
X0038682Y0134727D01*
X0039095Y0134494D02*
X0039095Y0132072D01*
X0039195Y0131570D01*
X0039391Y0131097D01*
X0039676Y0130671D01*
X0040038Y0130309D01*
X0040464Y0130024D01*
X0040937Y0129828D01*
X0041439Y0129728D01*
X0043073Y0129728D01*
X0043073Y0134494D01*
X0039095Y0134494D01*
X0039212Y0131528D02*
X0038682Y0131528D01*
X0038682Y0128330D02*
X0044913Y0128330D01*
X0043073Y0131528D02*
X0043073Y0131528D01*
X0043073Y0134494D02*
X0043073Y0134494D01*
X0048979Y0135872D02*
X0049844Y0135006D01*
X0049844Y0129372D01*
X0048663Y0130553D01*
X0048663Y0131340D01*
X0049450Y0132128D01*
X0049450Y0138427D01*
X0048663Y0139214D01*
X0048663Y0144726D01*
X0049057Y0144332D01*
X0049057Y0142364D01*
X0049450Y0142757D01*
X0049450Y0144332D01*
X0049320Y0144202D01*
X0049320Y0128370D01*
X0048369Y0121933D02*
X0047864Y0121933D01*
X0047535Y0118734D02*
X0048701Y0118734D01*
X0042902Y0118734D02*
X0042902Y0118734D01*
X0042902Y0121933D02*
X0042902Y0121933D01*
X0042902Y0125131D02*
X0042902Y0125131D01*
X0038682Y0109139D02*
X0059543Y0109139D01*
X0051274Y0073955D02*
X0079248Y0073955D01*
X0079248Y0070757D02*
X0054473Y0070757D01*
X0057671Y0067558D02*
X0059643Y0067558D01*
X0053387Y0057963D02*
X0038682Y0057963D01*
X0038682Y0061161D02*
X0050189Y0061161D01*
X0046990Y0064360D02*
X0038682Y0064360D01*
X0038682Y0067558D02*
X0043792Y0067558D01*
X0040593Y0070757D02*
X0038682Y0070757D01*
X0072171Y0067558D02*
X0078729Y0067558D01*
X0106935Y0064673D02*
X0106935Y0057859D01*
X0106935Y0051459D02*
X0106935Y0044645D01*
X0121384Y0061298D02*
X0116778Y0065905D01*
X0116778Y0072204D01*
X0114809Y0072598D01*
X0106935Y0071073D02*
X0106935Y0077887D01*
X0121384Y0061298D02*
X0132920Y0061298D01*
X0152605Y0061298D02*
X0152605Y0086771D01*
X0108510Y0140708D02*
X0118353Y0150550D01*
D11*
X0035282Y0233228D02*
X0035282Y0049369D01*
X0035284Y0049228D01*
X0035290Y0049087D01*
X0035299Y0048946D01*
X0035313Y0048806D01*
X0035331Y0048666D01*
X0035352Y0048527D01*
X0035377Y0048388D01*
X0035406Y0048250D01*
X0035439Y0048113D01*
X0035475Y0047976D01*
X0035515Y0047841D01*
X0035559Y0047707D01*
X0035607Y0047574D01*
X0035658Y0047443D01*
X0035713Y0047313D01*
X0035772Y0047185D01*
X0035833Y0047058D01*
X0035899Y0046933D01*
X0035968Y0046810D01*
X0036040Y0046689D01*
X0036115Y0046570D01*
X0036194Y0046453D01*
X0036276Y0046338D01*
X0036361Y0046225D01*
X0036449Y0046115D01*
X0036540Y0046008D01*
X0036635Y0045903D01*
X0036732Y0045800D01*
X0036831Y0045701D01*
X0036934Y0045604D01*
X0037039Y0045509D01*
X0037146Y0045418D01*
X0037256Y0045330D01*
X0037369Y0045245D01*
X0037484Y0045163D01*
X0037601Y0045084D01*
X0037720Y0045009D01*
X0037841Y0044937D01*
X0037964Y0044868D01*
X0038089Y0044802D01*
X0038216Y0044741D01*
X0038344Y0044682D01*
X0038474Y0044627D01*
X0038605Y0044576D01*
X0038738Y0044528D01*
X0038872Y0044484D01*
X0039007Y0044444D01*
X0039144Y0044408D01*
X0039281Y0044375D01*
X0039419Y0044346D01*
X0039558Y0044321D01*
X0039697Y0044300D01*
X0039837Y0044282D01*
X0039977Y0044268D01*
X0040118Y0044259D01*
X0040259Y0044253D01*
X0040400Y0044251D01*
X0167959Y0044251D01*
X0168159Y0044253D01*
X0168358Y0044261D01*
X0168558Y0044273D01*
X0168757Y0044290D01*
X0168956Y0044311D01*
X0169154Y0044338D01*
X0169351Y0044369D01*
X0169548Y0044405D01*
X0169743Y0044446D01*
X0169938Y0044491D01*
X0170131Y0044541D01*
X0170323Y0044596D01*
X0170514Y0044656D01*
X0170703Y0044720D01*
X0170891Y0044788D01*
X0171077Y0044861D01*
X0171261Y0044939D01*
X0171443Y0045021D01*
X0171623Y0045107D01*
X0171801Y0045198D01*
X0171977Y0045293D01*
X0172151Y0045392D01*
X0172322Y0045496D01*
X0172490Y0045603D01*
X0172656Y0045715D01*
X0172819Y0045830D01*
X0172979Y0045949D01*
X0173136Y0046073D01*
X0173291Y0046200D01*
X0173442Y0046330D01*
X0173590Y0046465D01*
X0173734Y0046602D01*
X0173876Y0046744D01*
X0174013Y0046888D01*
X0174148Y0047036D01*
X0174278Y0047187D01*
X0174405Y0047342D01*
X0174529Y0047499D01*
X0174648Y0047659D01*
X0174763Y0047822D01*
X0174875Y0047988D01*
X0174982Y0048156D01*
X0175086Y0048327D01*
X0175185Y0048501D01*
X0175280Y0048677D01*
X0175371Y0048855D01*
X0175457Y0049035D01*
X0175539Y0049217D01*
X0175617Y0049401D01*
X0175690Y0049587D01*
X0175758Y0049775D01*
X0175822Y0049964D01*
X0175882Y0050155D01*
X0175937Y0050347D01*
X0175987Y0050540D01*
X0176032Y0050735D01*
X0176073Y0050930D01*
X0176109Y0051127D01*
X0176140Y0051324D01*
X0176167Y0051522D01*
X0176188Y0051721D01*
X0176205Y0051920D01*
X0176217Y0052120D01*
X0176225Y0052319D01*
X0176227Y0052519D01*
X0176227Y0233228D01*
X0176225Y0233385D01*
X0176219Y0233542D01*
X0176209Y0233699D01*
X0176196Y0233855D01*
X0176178Y0234011D01*
X0176157Y0234167D01*
X0176131Y0234322D01*
X0176102Y0234476D01*
X0176069Y0234630D01*
X0176032Y0234782D01*
X0175992Y0234934D01*
X0175947Y0235085D01*
X0175899Y0235234D01*
X0175847Y0235382D01*
X0175792Y0235529D01*
X0175732Y0235675D01*
X0175670Y0235819D01*
X0175603Y0235961D01*
X0175533Y0236102D01*
X0175460Y0236241D01*
X0175383Y0236378D01*
X0175303Y0236513D01*
X0175219Y0236645D01*
X0175132Y0236776D01*
X0175042Y0236905D01*
X0174949Y0237031D01*
X0174853Y0237155D01*
X0174753Y0237277D01*
X0174651Y0237396D01*
X0174545Y0237512D01*
X0174437Y0237626D01*
X0174326Y0237737D01*
X0174212Y0237845D01*
X0174096Y0237951D01*
X0173977Y0238053D01*
X0173855Y0238153D01*
X0173731Y0238249D01*
X0173605Y0238342D01*
X0173476Y0238432D01*
X0173345Y0238519D01*
X0173213Y0238603D01*
X0173078Y0238683D01*
X0172941Y0238760D01*
X0172802Y0238833D01*
X0172661Y0238903D01*
X0172519Y0238970D01*
X0172375Y0239032D01*
X0172229Y0239092D01*
X0172082Y0239147D01*
X0171934Y0239199D01*
X0171785Y0239247D01*
X0171634Y0239292D01*
X0171482Y0239332D01*
X0171330Y0239369D01*
X0171176Y0239402D01*
X0171022Y0239431D01*
X0170867Y0239457D01*
X0170711Y0239478D01*
X0170555Y0239496D01*
X0170399Y0239509D01*
X0170242Y0239519D01*
X0170085Y0239525D01*
X0169928Y0239527D01*
X0136069Y0239527D01*
X0135983Y0239525D01*
X0135897Y0239520D01*
X0135812Y0239510D01*
X0135727Y0239497D01*
X0135643Y0239480D01*
X0135559Y0239460D01*
X0135477Y0239436D01*
X0135396Y0239408D01*
X0135315Y0239377D01*
X0135237Y0239343D01*
X0135160Y0239305D01*
X0135085Y0239263D01*
X0135011Y0239219D01*
X0134940Y0239171D01*
X0134870Y0239120D01*
X0134803Y0239066D01*
X0134739Y0239010D01*
X0134677Y0238950D01*
X0134617Y0238888D01*
X0134561Y0238824D01*
X0134507Y0238757D01*
X0134456Y0238687D01*
X0134408Y0238616D01*
X0134364Y0238543D01*
X0134322Y0238467D01*
X0134284Y0238390D01*
X0134250Y0238312D01*
X0134219Y0238231D01*
X0134191Y0238150D01*
X0134167Y0238068D01*
X0134147Y0237984D01*
X0134130Y0237900D01*
X0134117Y0237815D01*
X0134107Y0237730D01*
X0134102Y0237644D01*
X0134100Y0237558D01*
X0134101Y0237558D02*
X0134101Y0218661D01*
X0134099Y0218566D01*
X0134093Y0218471D01*
X0134084Y0218376D01*
X0134070Y0218282D01*
X0134053Y0218189D01*
X0134032Y0218096D01*
X0134008Y0218004D01*
X0133979Y0217913D01*
X0133948Y0217823D01*
X0133912Y0217735D01*
X0133873Y0217648D01*
X0133830Y0217563D01*
X0133785Y0217480D01*
X0133735Y0217399D01*
X0133683Y0217319D01*
X0133627Y0217242D01*
X0133569Y0217167D01*
X0133507Y0217095D01*
X0133442Y0217025D01*
X0133375Y0216958D01*
X0133305Y0216893D01*
X0133233Y0216831D01*
X0133158Y0216773D01*
X0133081Y0216717D01*
X0133001Y0216665D01*
X0132920Y0216615D01*
X0132837Y0216570D01*
X0132752Y0216527D01*
X0132665Y0216488D01*
X0132577Y0216452D01*
X0132487Y0216421D01*
X0132396Y0216392D01*
X0132304Y0216368D01*
X0132211Y0216347D01*
X0132118Y0216330D01*
X0132024Y0216316D01*
X0131929Y0216307D01*
X0131834Y0216301D01*
X0131739Y0216299D01*
X0131739Y0216298D02*
X0086857Y0216298D01*
X0086857Y0216299D02*
X0086762Y0216301D01*
X0086667Y0216307D01*
X0086572Y0216316D01*
X0086478Y0216330D01*
X0086385Y0216347D01*
X0086292Y0216368D01*
X0086200Y0216392D01*
X0086109Y0216421D01*
X0086019Y0216452D01*
X0085931Y0216488D01*
X0085844Y0216527D01*
X0085759Y0216570D01*
X0085676Y0216615D01*
X0085595Y0216665D01*
X0085515Y0216717D01*
X0085438Y0216773D01*
X0085363Y0216831D01*
X0085291Y0216893D01*
X0085221Y0216958D01*
X0085154Y0217025D01*
X0085089Y0217095D01*
X0085027Y0217167D01*
X0084969Y0217242D01*
X0084913Y0217319D01*
X0084861Y0217399D01*
X0084811Y0217480D01*
X0084766Y0217563D01*
X0084723Y0217648D01*
X0084684Y0217735D01*
X0084648Y0217823D01*
X0084617Y0217913D01*
X0084588Y0218004D01*
X0084564Y0218096D01*
X0084543Y0218189D01*
X0084526Y0218282D01*
X0084512Y0218376D01*
X0084503Y0218471D01*
X0084497Y0218566D01*
X0084495Y0218661D01*
X0084494Y0218661D02*
X0084494Y0235590D01*
X0084492Y0235706D01*
X0084486Y0235822D01*
X0084477Y0235937D01*
X0084464Y0236052D01*
X0084447Y0236167D01*
X0084426Y0236281D01*
X0084401Y0236395D01*
X0084373Y0236507D01*
X0084341Y0236618D01*
X0084306Y0236729D01*
X0084267Y0236838D01*
X0084224Y0236946D01*
X0084178Y0237052D01*
X0084129Y0237157D01*
X0084076Y0237260D01*
X0084019Y0237362D01*
X0083960Y0237461D01*
X0083897Y0237558D01*
X0083831Y0237654D01*
X0083762Y0237747D01*
X0083690Y0237838D01*
X0083615Y0237926D01*
X0083537Y0238012D01*
X0083456Y0238095D01*
X0083373Y0238176D01*
X0083287Y0238254D01*
X0083199Y0238329D01*
X0083108Y0238401D01*
X0083015Y0238470D01*
X0082919Y0238536D01*
X0082822Y0238599D01*
X0082723Y0238658D01*
X0082621Y0238715D01*
X0082518Y0238768D01*
X0082413Y0238817D01*
X0082307Y0238863D01*
X0082199Y0238906D01*
X0082090Y0238945D01*
X0081979Y0238980D01*
X0081868Y0239012D01*
X0081756Y0239040D01*
X0081642Y0239065D01*
X0081528Y0239086D01*
X0081413Y0239103D01*
X0081298Y0239116D01*
X0081183Y0239125D01*
X0081067Y0239131D01*
X0080951Y0239133D01*
X0041187Y0239133D01*
X0041187Y0239134D02*
X0041035Y0239132D01*
X0040883Y0239126D01*
X0040731Y0239116D01*
X0040580Y0239103D01*
X0040429Y0239085D01*
X0040278Y0239064D01*
X0040128Y0239038D01*
X0039979Y0239009D01*
X0039830Y0238976D01*
X0039683Y0238939D01*
X0039536Y0238899D01*
X0039391Y0238854D01*
X0039247Y0238806D01*
X0039104Y0238754D01*
X0038962Y0238699D01*
X0038822Y0238640D01*
X0038683Y0238577D01*
X0038546Y0238511D01*
X0038411Y0238441D01*
X0038278Y0238368D01*
X0038147Y0238291D01*
X0038017Y0238211D01*
X0037890Y0238128D01*
X0037765Y0238042D01*
X0037642Y0237952D01*
X0037522Y0237859D01*
X0037404Y0237763D01*
X0037288Y0237664D01*
X0037175Y0237562D01*
X0037065Y0237458D01*
X0036957Y0237350D01*
X0036853Y0237240D01*
X0036751Y0237127D01*
X0036652Y0237011D01*
X0036556Y0236893D01*
X0036463Y0236773D01*
X0036373Y0236650D01*
X0036287Y0236525D01*
X0036204Y0236398D01*
X0036124Y0236268D01*
X0036047Y0236137D01*
X0035974Y0236004D01*
X0035904Y0235869D01*
X0035838Y0235732D01*
X0035775Y0235593D01*
X0035716Y0235453D01*
X0035661Y0235311D01*
X0035609Y0235168D01*
X0035561Y0235024D01*
X0035516Y0234879D01*
X0035476Y0234732D01*
X0035439Y0234585D01*
X0035406Y0234436D01*
X0035377Y0234287D01*
X0035351Y0234137D01*
X0035330Y0233986D01*
X0035312Y0233835D01*
X0035299Y0233684D01*
X0035289Y0233532D01*
X0035283Y0233380D01*
X0035281Y0233228D01*
D12*
X0087543Y0140212D03*
X0098566Y0140212D03*
D13*
X0114809Y0083621D03*
X0114809Y0072598D03*
X0155517Y0145432D03*
X0155517Y0156456D03*
X0154964Y0166298D03*
X0154964Y0177322D03*
X0059973Y0219557D03*
X0059973Y0230580D03*
X0041580Y0230696D03*
X0041580Y0219672D03*
D14*
X0075535Y0208480D03*
X0075535Y0200606D03*
X0075535Y0192731D03*
X0075535Y0184857D03*
X0075535Y0176983D03*
X0075535Y0169109D03*
X0075535Y0161235D03*
X0075535Y0153361D03*
X0140102Y0153361D03*
X0140102Y0161235D03*
X0140102Y0169109D03*
X0140102Y0176983D03*
X0140102Y0184857D03*
X0140102Y0192731D03*
X0140102Y0200606D03*
X0140102Y0208480D03*
D15*
X0164503Y0210302D02*
X0170503Y0210302D01*
X0170503Y0200302D02*
X0164503Y0200302D01*
X0164503Y0190302D02*
X0170503Y0190302D01*
X0170503Y0180302D02*
X0164503Y0180302D01*
X0164503Y0220302D02*
X0170503Y0220302D01*
X0170503Y0230302D02*
X0164503Y0230302D01*
X0081350Y0129122D02*
X0081350Y0123122D01*
X0081350Y0103522D02*
X0081350Y0097522D01*
X0063550Y0097522D02*
X0063550Y0103522D01*
X0063550Y0123122D02*
X0063550Y0129122D01*
D16*
X0048817Y0168545D02*
X0048817Y0173745D01*
X0048817Y0198545D02*
X0048817Y0203745D01*
X0137762Y0141223D02*
X0137762Y0136023D01*
X0147762Y0136023D02*
X0147762Y0141223D01*
X0147762Y0106023D02*
X0147762Y0100823D01*
X0137762Y0100823D02*
X0137762Y0106023D01*
D17*
X0110872Y0115905D03*
X0091975Y0115905D03*
D18*
X0054884Y0134494D03*
X0043073Y0134494D03*
D19*
X0048979Y0135872D03*
D20*
X0048979Y0144927D03*
D21*
X0048979Y0145065D03*
X0048979Y0143096D03*
X0048979Y0140734D03*
X0048979Y0137584D03*
X0048979Y0134828D03*
X0048585Y0147427D03*
D22*
X0132920Y0064823D02*
X0132920Y0057773D01*
X0152605Y0057773D02*
X0152605Y0064823D01*
D23*
X0149455Y0089920D03*
X0135282Y0089920D03*
D24*
X0053138Y0098362D03*
X0042902Y0098362D03*
X0042902Y0122378D03*
X0053138Y0122378D03*
D25*
X0061970Y0086458D02*
X0069844Y0086458D01*
X0085592Y0078584D02*
X0085592Y0070710D01*
X0069844Y0061655D02*
X0061970Y0061655D01*
D26*
X0101817Y0132046D03*
X0122290Y0165511D03*
X0119140Y0179684D03*
X0096306Y0196220D03*
X0068348Y0218348D03*
X0063230Y0159687D03*
X0167172Y0162755D03*
D27*
X0075535Y0153361D02*
X0074943Y0152770D01*
X0068620Y0152770D01*
X0064820Y0148970D01*
X0064820Y0141870D01*
X0057443Y0134494D01*
X0054884Y0134494D01*
X0049320Y0128370D02*
X0053138Y0124552D01*
X0053138Y0122378D01*
X0049320Y0128370D02*
X0049320Y0144586D01*
X0048979Y0144927D01*
X0043073Y0134494D02*
X0042902Y0134322D01*
X0042902Y0122378D01*
X0042902Y0098362D02*
X0042720Y0098180D01*
X0042720Y0075570D01*
X0052920Y0098144D02*
X0053138Y0098362D01*
D28*
X0154569Y0190789D03*
D29*
X0085592Y0074647D02*
X0085592Y0067482D01*
X0080159Y0062049D01*
X0066301Y0062049D01*
X0065907Y0061655D01*
X0056635Y0061655D01*
X0042720Y0075570D01*
X0058506Y0086458D02*
X0052994Y0091970D01*
X0052994Y0098218D01*
X0053138Y0098362D01*
X0058506Y0086458D02*
X0065907Y0086458D01*
M02*
