G75*
%MOIN*%
%OFA0B0*%
%FSLAX25Y25*%
%IPPOS*%
%LPD*%
%AMOC8*
5,1,8,0,0,1.08239X$1,22.5*
%
%ADD10C,0.03200*%
%ADD11C,0.01600*%
%ADD12R,0.00100X0.00500*%
%ADD13R,0.00100X0.00700*%
%ADD14R,0.00100X0.00900*%
%ADD15R,0.00100X0.01200*%
%ADD16R,0.00100X0.01300*%
%ADD17R,0.00100X0.01500*%
%ADD18R,0.00100X0.01600*%
%ADD19R,0.00100X0.01800*%
%ADD20R,0.00100X0.01900*%
%ADD21R,0.00100X0.02000*%
%ADD22R,0.00100X0.02200*%
%ADD23R,0.00100X0.02400*%
%ADD24R,0.00100X0.02500*%
%ADD25R,0.00100X0.02600*%
%ADD26R,0.00100X0.02700*%
%ADD27R,0.00100X0.02800*%
%ADD28R,0.00100X0.02900*%
%ADD29R,0.00100X0.03000*%
%ADD30R,0.00100X0.03100*%
%ADD31R,0.00100X0.00800*%
%ADD32R,0.00100X0.01400*%
%ADD33R,0.00100X0.01100*%
%ADD34R,0.00100X0.01000*%
%ADD35R,0.00100X0.02100*%
%ADD36R,0.00100X0.03200*%
%ADD37R,0.00100X0.03300*%
%ADD38R,0.00100X0.01700*%
%ADD39R,0.00100X0.02300*%
%ADD40R,0.00100X0.17100*%
%ADD41R,0.00100X0.17000*%
%ADD42R,0.00100X0.17300*%
%ADD43R,0.00100X0.00600*%
%ADD44R,0.00100X0.00200*%
%ADD45R,0.00100X0.00300*%
%ADD46R,0.00100X0.17200*%
%ADD47R,0.00100X0.00400*%
%ADD48R,0.00100X0.07700*%
%ADD49R,0.00100X0.09200*%
%ADD50R,0.00100X0.06400*%
%ADD51R,0.00100X0.09100*%
%ADD52R,0.00100X0.08000*%
%ADD53R,0.00100X0.09500*%
%ADD54R,0.00100X0.07200*%
%ADD55R,0.00100X0.08100*%
%ADD56R,0.00100X0.09600*%
%ADD57R,0.00100X0.03500*%
%ADD58R,0.00100X0.08500*%
%ADD59R,0.00100X0.08800*%
%ADD60R,0.00100X0.03700*%
%ADD61R,0.00100X0.09400*%
%ADD62R,0.00100X0.03900*%
%ADD63R,0.00100X0.09800*%
%ADD64R,0.00100X0.04100*%
%ADD65R,0.00100X0.10000*%
%ADD66R,0.00100X0.10100*%
%ADD67R,0.00100X0.04200*%
%ADD68R,0.00100X0.10200*%
%ADD69R,0.00100X0.04300*%
%ADD70R,0.00100X0.10300*%
%ADD71R,0.00100X0.03400*%
%ADD72R,0.00100X0.10400*%
%ADD73R,0.00100X0.04500*%
%ADD74R,0.00100X0.10500*%
%ADD75R,0.00100X0.04600*%
%ADD76R,0.00100X0.10600*%
%ADD77R,0.00100X0.04700*%
%ADD78R,0.00100X0.04800*%
%ADD79R,0.00100X0.10700*%
%ADD80R,0.00100X0.04900*%
%ADD81R,0.00100X0.09300*%
%ADD82R,0.00100X0.06600*%
%ADD83R,0.00100X0.06500*%
%ADD84R,0.00100X0.06300*%
%ADD85R,0.00100X0.06100*%
%ADD86R,0.00100X0.06000*%
%ADD87R,0.00100X0.05900*%
%ADD88R,0.00100X0.05800*%
%ADD89R,0.00100X0.05700*%
%ADD90R,0.00100X0.06200*%
%ADD91R,0.00100X0.06700*%
%ADD92R,0.00100X0.00100*%
%ADD93R,0.00100X0.05000*%
%ADD94R,0.00100X0.03600*%
%ADD95R,0.00100X0.09700*%
%ADD96R,0.00100X0.04400*%
%ADD97R,0.00100X0.08900*%
%ADD98R,0.00100X0.08700*%
%ADD99R,0.00100X0.08300*%
%ADD100R,0.00100X0.07300*%
%ADD101R,0.00100X0.03800*%
%ADD102R,0.00100X0.04000*%
%ADD103R,0.00100X0.05100*%
%ADD104R,0.00100X0.05400*%
%ADD105R,0.00100X0.05600*%
%ADD106R,0.00100X0.05500*%
%ADD107R,0.00100X0.07000*%
%ADD108R,0.00100X0.07500*%
%ADD109R,0.00100X0.06900*%
%ADD110R,0.00100X0.05300*%
%ADD111R,0.00100X0.07800*%
%ADD112R,0.00100X0.06800*%
%ADD113R,0.00100X0.17400*%
%ADD114R,0.00100X0.16900*%
%ADD115R,0.00100X0.16400*%
%ADD116R,0.00100X0.16000*%
%ADD117R,0.00100X0.15600*%
%ADD118R,0.00100X0.15000*%
%ADD119R,0.00100X0.14500*%
%ADD120R,0.00100X0.13900*%
%ADD121R,0.00100X0.13300*%
%ADD122R,0.00100X0.12700*%
%ADD123R,0.00100X0.12200*%
%ADD124R,0.00100X0.11300*%
%ADD125R,0.00100X0.05200*%
%ADD126R,0.00100X0.07900*%
%ADD127R,0.00100X0.11800*%
%ADD128R,0.00100X0.11900*%
%ADD129R,0.00100X0.12000*%
%ADD130R,0.00100X0.11600*%
%ADD131R,0.00100X0.11400*%
%ADD132R,0.00100X0.11000*%
%ADD133R,0.00100X0.08400*%
%ADD134R,0.00100X0.07100*%
%ADD135C,0.00400*%
%ADD136C,0.00000*%
D10*
X0115973Y0044645D02*
X0115973Y0051459D01*
X0115973Y0057859D02*
X0115973Y0064673D01*
X0115973Y0071073D02*
X0115973Y0077887D01*
X0115973Y0084287D02*
X0115973Y0091102D01*
X0120994Y0096122D01*
X0125519Y0100648D02*
X0130540Y0105669D01*
X0130540Y0115905D01*
X0132902Y0119054D01*
X0140447Y0119138D01*
X0146847Y0119209D02*
X0154391Y0119293D01*
X0160791Y0119364D02*
X0168335Y0119448D01*
X0175816Y0111968D01*
X0175816Y0103781D01*
X0175816Y0097381D02*
X0175816Y0089194D01*
X0175816Y0082794D02*
X0175816Y0074606D01*
X0175816Y0068206D02*
X0175816Y0060019D01*
X0175816Y0053619D02*
X0175816Y0045432D01*
D11*
X0176997Y0044251D02*
X0019517Y0044251D01*
X0019376Y0044253D01*
X0019235Y0044259D01*
X0019094Y0044268D01*
X0018954Y0044282D01*
X0018814Y0044300D01*
X0018675Y0044321D01*
X0018536Y0044346D01*
X0018398Y0044375D01*
X0018261Y0044408D01*
X0018124Y0044444D01*
X0017989Y0044484D01*
X0017855Y0044528D01*
X0017722Y0044576D01*
X0017591Y0044627D01*
X0017461Y0044682D01*
X0017333Y0044741D01*
X0017206Y0044802D01*
X0017081Y0044868D01*
X0016958Y0044937D01*
X0016837Y0045009D01*
X0016718Y0045084D01*
X0016601Y0045163D01*
X0016486Y0045245D01*
X0016373Y0045330D01*
X0016263Y0045418D01*
X0016156Y0045509D01*
X0016051Y0045604D01*
X0015948Y0045701D01*
X0015849Y0045800D01*
X0015752Y0045903D01*
X0015657Y0046008D01*
X0015566Y0046115D01*
X0015478Y0046225D01*
X0015393Y0046338D01*
X0015311Y0046453D01*
X0015232Y0046570D01*
X0015157Y0046689D01*
X0015085Y0046810D01*
X0015016Y0046933D01*
X0014950Y0047058D01*
X0014889Y0047185D01*
X0014830Y0047313D01*
X0014775Y0047443D01*
X0014724Y0047574D01*
X0014676Y0047707D01*
X0014632Y0047841D01*
X0014592Y0047976D01*
X0014556Y0048113D01*
X0014523Y0048250D01*
X0014494Y0048388D01*
X0014469Y0048527D01*
X0014448Y0048666D01*
X0014430Y0048806D01*
X0014416Y0048946D01*
X0014407Y0049087D01*
X0014401Y0049228D01*
X0014399Y0049369D01*
X0014398Y0049369D02*
X0013611Y0233228D01*
X0013613Y0233380D01*
X0013619Y0233532D01*
X0013629Y0233684D01*
X0013642Y0233835D01*
X0013660Y0233986D01*
X0013681Y0234137D01*
X0013707Y0234287D01*
X0013736Y0234436D01*
X0013769Y0234585D01*
X0013806Y0234732D01*
X0013846Y0234879D01*
X0013891Y0235024D01*
X0013939Y0235168D01*
X0013991Y0235311D01*
X0014046Y0235453D01*
X0014105Y0235593D01*
X0014168Y0235732D01*
X0014234Y0235869D01*
X0014304Y0236004D01*
X0014377Y0236137D01*
X0014454Y0236268D01*
X0014534Y0236398D01*
X0014617Y0236525D01*
X0014703Y0236650D01*
X0014793Y0236773D01*
X0014886Y0236893D01*
X0014982Y0237011D01*
X0015081Y0237127D01*
X0015183Y0237240D01*
X0015287Y0237350D01*
X0015395Y0237458D01*
X0015505Y0237562D01*
X0015618Y0237664D01*
X0015734Y0237763D01*
X0015852Y0237859D01*
X0015972Y0237952D01*
X0016095Y0238042D01*
X0016220Y0238128D01*
X0016347Y0238211D01*
X0016477Y0238291D01*
X0016608Y0238368D01*
X0016741Y0238441D01*
X0016876Y0238511D01*
X0017013Y0238577D01*
X0017152Y0238640D01*
X0017292Y0238699D01*
X0017434Y0238754D01*
X0017577Y0238806D01*
X0017721Y0238854D01*
X0017866Y0238899D01*
X0018013Y0238939D01*
X0018160Y0238976D01*
X0018309Y0239009D01*
X0018458Y0239038D01*
X0018608Y0239064D01*
X0018759Y0239085D01*
X0018910Y0239103D01*
X0019061Y0239116D01*
X0019213Y0239126D01*
X0019365Y0239132D01*
X0019517Y0239134D01*
X0019517Y0239133D02*
X0089989Y0239133D01*
X0090105Y0239131D01*
X0090221Y0239125D01*
X0090336Y0239116D01*
X0090451Y0239103D01*
X0090566Y0239086D01*
X0090680Y0239065D01*
X0090794Y0239040D01*
X0090906Y0239012D01*
X0091017Y0238980D01*
X0091128Y0238945D01*
X0091237Y0238906D01*
X0091345Y0238863D01*
X0091451Y0238817D01*
X0091556Y0238768D01*
X0091659Y0238715D01*
X0091761Y0238658D01*
X0091860Y0238599D01*
X0091957Y0238536D01*
X0092053Y0238470D01*
X0092146Y0238401D01*
X0092237Y0238329D01*
X0092325Y0238254D01*
X0092411Y0238176D01*
X0092494Y0238095D01*
X0092575Y0238012D01*
X0092653Y0237926D01*
X0092728Y0237838D01*
X0092800Y0237747D01*
X0092869Y0237654D01*
X0092935Y0237558D01*
X0092998Y0237461D01*
X0093057Y0237362D01*
X0093114Y0237260D01*
X0093167Y0237157D01*
X0093216Y0237052D01*
X0093262Y0236946D01*
X0093305Y0236838D01*
X0093344Y0236729D01*
X0093379Y0236618D01*
X0093411Y0236507D01*
X0093439Y0236395D01*
X0093464Y0236281D01*
X0093485Y0236167D01*
X0093502Y0236052D01*
X0093515Y0235937D01*
X0093524Y0235822D01*
X0093530Y0235706D01*
X0093532Y0235590D01*
X0093532Y0218661D01*
X0093534Y0218566D01*
X0093540Y0218471D01*
X0093549Y0218376D01*
X0093563Y0218282D01*
X0093580Y0218189D01*
X0093601Y0218096D01*
X0093625Y0218004D01*
X0093654Y0217913D01*
X0093685Y0217823D01*
X0093721Y0217735D01*
X0093760Y0217648D01*
X0093803Y0217563D01*
X0093848Y0217480D01*
X0093898Y0217399D01*
X0093950Y0217319D01*
X0094006Y0217242D01*
X0094064Y0217167D01*
X0094126Y0217095D01*
X0094191Y0217025D01*
X0094258Y0216958D01*
X0094328Y0216893D01*
X0094400Y0216831D01*
X0094475Y0216773D01*
X0094552Y0216717D01*
X0094632Y0216665D01*
X0094713Y0216615D01*
X0094796Y0216570D01*
X0094881Y0216527D01*
X0094968Y0216488D01*
X0095056Y0216452D01*
X0095146Y0216421D01*
X0095237Y0216392D01*
X0095329Y0216368D01*
X0095422Y0216347D01*
X0095515Y0216330D01*
X0095609Y0216316D01*
X0095704Y0216307D01*
X0095799Y0216301D01*
X0095894Y0216299D01*
X0095894Y0216298D02*
X0140776Y0216298D01*
X0140776Y0216299D02*
X0140871Y0216301D01*
X0140966Y0216307D01*
X0141061Y0216316D01*
X0141155Y0216330D01*
X0141248Y0216347D01*
X0141341Y0216368D01*
X0141433Y0216392D01*
X0141524Y0216421D01*
X0141614Y0216452D01*
X0141702Y0216488D01*
X0141789Y0216527D01*
X0141874Y0216570D01*
X0141957Y0216615D01*
X0142038Y0216665D01*
X0142118Y0216717D01*
X0142195Y0216773D01*
X0142270Y0216831D01*
X0142342Y0216893D01*
X0142412Y0216958D01*
X0142479Y0217025D01*
X0142544Y0217095D01*
X0142606Y0217167D01*
X0142664Y0217242D01*
X0142720Y0217319D01*
X0142772Y0217399D01*
X0142822Y0217480D01*
X0142867Y0217563D01*
X0142910Y0217648D01*
X0142949Y0217735D01*
X0142985Y0217823D01*
X0143016Y0217913D01*
X0143045Y0218004D01*
X0143069Y0218096D01*
X0143090Y0218189D01*
X0143107Y0218282D01*
X0143121Y0218376D01*
X0143130Y0218471D01*
X0143136Y0218566D01*
X0143138Y0218661D01*
X0143139Y0218661D02*
X0143139Y0237558D01*
X0143138Y0237558D02*
X0143140Y0237644D01*
X0143145Y0237730D01*
X0143155Y0237815D01*
X0143168Y0237900D01*
X0143185Y0237984D01*
X0143205Y0238068D01*
X0143229Y0238150D01*
X0143257Y0238231D01*
X0143288Y0238312D01*
X0143322Y0238390D01*
X0143360Y0238467D01*
X0143402Y0238543D01*
X0143446Y0238616D01*
X0143494Y0238687D01*
X0143545Y0238757D01*
X0143599Y0238824D01*
X0143655Y0238888D01*
X0143715Y0238950D01*
X0143777Y0239010D01*
X0143841Y0239066D01*
X0143908Y0239120D01*
X0143978Y0239171D01*
X0144049Y0239219D01*
X0144123Y0239263D01*
X0144198Y0239305D01*
X0144275Y0239343D01*
X0144353Y0239377D01*
X0144434Y0239408D01*
X0144515Y0239436D01*
X0144597Y0239460D01*
X0144681Y0239480D01*
X0144765Y0239497D01*
X0144850Y0239510D01*
X0144935Y0239520D01*
X0145021Y0239525D01*
X0145107Y0239527D01*
X0178965Y0239527D01*
X0179122Y0239525D01*
X0179279Y0239519D01*
X0179436Y0239509D01*
X0179592Y0239496D01*
X0179748Y0239478D01*
X0179904Y0239457D01*
X0180059Y0239431D01*
X0180213Y0239402D01*
X0180367Y0239369D01*
X0180519Y0239332D01*
X0180671Y0239292D01*
X0180822Y0239247D01*
X0180971Y0239199D01*
X0181119Y0239147D01*
X0181266Y0239092D01*
X0181412Y0239032D01*
X0181556Y0238970D01*
X0181698Y0238903D01*
X0181839Y0238833D01*
X0181978Y0238760D01*
X0182115Y0238683D01*
X0182250Y0238603D01*
X0182382Y0238519D01*
X0182513Y0238432D01*
X0182642Y0238342D01*
X0182768Y0238249D01*
X0182892Y0238153D01*
X0183014Y0238053D01*
X0183133Y0237951D01*
X0183249Y0237845D01*
X0183363Y0237737D01*
X0183474Y0237626D01*
X0183582Y0237512D01*
X0183688Y0237396D01*
X0183790Y0237277D01*
X0183890Y0237155D01*
X0183986Y0237031D01*
X0184079Y0236905D01*
X0184169Y0236776D01*
X0184256Y0236645D01*
X0184340Y0236513D01*
X0184420Y0236378D01*
X0184497Y0236241D01*
X0184570Y0236102D01*
X0184640Y0235961D01*
X0184707Y0235819D01*
X0184769Y0235675D01*
X0184829Y0235529D01*
X0184884Y0235382D01*
X0184936Y0235234D01*
X0184984Y0235085D01*
X0185029Y0234934D01*
X0185069Y0234782D01*
X0185106Y0234630D01*
X0185139Y0234476D01*
X0185168Y0234322D01*
X0185194Y0234167D01*
X0185215Y0234011D01*
X0185233Y0233855D01*
X0185246Y0233699D01*
X0185256Y0233542D01*
X0185262Y0233385D01*
X0185264Y0233228D01*
X0185265Y0233228D02*
X0185265Y0052519D01*
X0185263Y0052319D01*
X0185255Y0052120D01*
X0185243Y0051920D01*
X0185226Y0051721D01*
X0185205Y0051522D01*
X0185178Y0051324D01*
X0185147Y0051127D01*
X0185111Y0050930D01*
X0185070Y0050735D01*
X0185025Y0050540D01*
X0184975Y0050347D01*
X0184920Y0050155D01*
X0184860Y0049964D01*
X0184796Y0049775D01*
X0184728Y0049587D01*
X0184655Y0049401D01*
X0184577Y0049217D01*
X0184495Y0049035D01*
X0184409Y0048855D01*
X0184318Y0048677D01*
X0184223Y0048501D01*
X0184124Y0048327D01*
X0184020Y0048156D01*
X0183913Y0047988D01*
X0183801Y0047822D01*
X0183686Y0047659D01*
X0183567Y0047499D01*
X0183443Y0047342D01*
X0183316Y0047187D01*
X0183186Y0047036D01*
X0183051Y0046888D01*
X0182914Y0046744D01*
X0182772Y0046602D01*
X0182628Y0046465D01*
X0182480Y0046330D01*
X0182329Y0046200D01*
X0182174Y0046073D01*
X0182017Y0045949D01*
X0181857Y0045830D01*
X0181694Y0045715D01*
X0181528Y0045603D01*
X0181360Y0045496D01*
X0181189Y0045392D01*
X0181015Y0045293D01*
X0180839Y0045198D01*
X0180661Y0045107D01*
X0180481Y0045021D01*
X0180299Y0044939D01*
X0180115Y0044861D01*
X0179929Y0044788D01*
X0179741Y0044720D01*
X0179552Y0044656D01*
X0179361Y0044596D01*
X0179169Y0044541D01*
X0178976Y0044491D01*
X0178781Y0044446D01*
X0178586Y0044405D01*
X0178389Y0044369D01*
X0178192Y0044338D01*
X0177994Y0044311D01*
X0177795Y0044290D01*
X0177596Y0044273D01*
X0177396Y0044261D01*
X0177197Y0044253D01*
X0176997Y0044251D01*
D12*
X0101789Y0141695D03*
X0106589Y0170295D03*
X0098189Y0178395D03*
X0098089Y0178495D03*
X0097889Y0178595D03*
X0086889Y0179795D03*
X0086789Y0179795D03*
X0086689Y0179795D03*
X0086589Y0179795D03*
X0086489Y0179795D03*
X0086389Y0179795D03*
X0080389Y0174895D03*
X0080289Y0174795D03*
X0078189Y0185695D03*
X0070989Y0188295D03*
X0070489Y0174495D03*
X0070389Y0174495D03*
X0076189Y0151095D03*
D13*
X0079789Y0148495D03*
X0068589Y0164095D03*
X0079889Y0174395D03*
X0085489Y0179695D03*
X0085589Y0179695D03*
X0085689Y0179695D03*
X0085789Y0179695D03*
X0097289Y0178995D03*
X0097389Y0178895D03*
X0097489Y0178895D03*
X0097589Y0178795D03*
X0106489Y0170495D03*
X0101789Y0151695D03*
X0101789Y0147595D03*
X0098089Y0142495D03*
X0097089Y0138195D03*
X0098089Y0135895D03*
X0097989Y0128095D03*
X0071189Y0188395D03*
D14*
X0071289Y0188395D03*
X0070089Y0174595D03*
X0079589Y0174095D03*
X0079689Y0174195D03*
X0084789Y0179595D03*
X0084889Y0179595D03*
X0084989Y0179595D03*
X0085089Y0179595D03*
X0096589Y0179395D03*
X0096789Y0179295D03*
X0096889Y0179195D03*
X0096989Y0179195D03*
X0106389Y0170695D03*
X0100589Y0152895D03*
X0099089Y0150695D03*
X0098989Y0150695D03*
X0097989Y0147595D03*
X0096889Y0144495D03*
X0096789Y0144495D03*
X0098189Y0142495D03*
X0098289Y0142495D03*
X0098389Y0142495D03*
X0098489Y0142495D03*
X0098589Y0142495D03*
X0098689Y0142495D03*
X0098789Y0142495D03*
X0098889Y0142495D03*
X0098989Y0142495D03*
X0099089Y0142495D03*
X0099189Y0142495D03*
X0099289Y0142495D03*
X0099389Y0142495D03*
X0099489Y0142495D03*
X0099589Y0142495D03*
X0099689Y0142495D03*
X0099789Y0142495D03*
X0099889Y0142495D03*
X0099989Y0142495D03*
X0100089Y0142495D03*
X0100189Y0142495D03*
X0100289Y0142495D03*
X0100389Y0142495D03*
X0100489Y0142495D03*
X0101489Y0144495D03*
X0101589Y0144495D03*
X0101589Y0140095D03*
X0101589Y0135895D03*
X0097289Y0135895D03*
X0096589Y0135895D03*
X0097989Y0132795D03*
X0098289Y0129795D03*
X0101589Y0129695D03*
X0101589Y0127395D03*
X0097989Y0124595D03*
X0099089Y0123495D03*
X0076489Y0151095D03*
X0068689Y0163995D03*
D15*
X0069789Y0174645D03*
X0079089Y0173545D03*
X0079189Y0173645D03*
X0083389Y0179345D03*
X0083489Y0179345D03*
X0083589Y0179345D03*
X0083989Y0179445D03*
X0095089Y0180245D03*
X0095289Y0180145D03*
X0095389Y0180045D03*
X0095489Y0180045D03*
X0095589Y0179945D03*
X0106289Y0171045D03*
X0099289Y0152645D03*
X0100489Y0150645D03*
X0100889Y0148545D03*
X0100889Y0146545D03*
X0098889Y0146545D03*
X0100889Y0142345D03*
X0100689Y0140245D03*
X0098889Y0138145D03*
X0098889Y0133845D03*
X0098889Y0131845D03*
X0100889Y0131845D03*
X0100889Y0133845D03*
X0099089Y0129645D03*
X0098989Y0129645D03*
X0098089Y0128145D03*
X0098889Y0127545D03*
X0100989Y0125545D03*
D16*
X0099289Y0125495D03*
X0100389Y0123595D03*
X0098889Y0129595D03*
X0100789Y0140295D03*
X0106189Y0171195D03*
X0095189Y0180195D03*
X0094989Y0180295D03*
X0094889Y0180295D03*
X0094789Y0180395D03*
X0094589Y0180495D03*
X0083289Y0179295D03*
X0083189Y0179295D03*
X0083089Y0179295D03*
X0082989Y0179195D03*
X0082889Y0179195D03*
X0071589Y0188495D03*
X0068889Y0163795D03*
X0072789Y0162795D03*
D17*
X0068989Y0163695D03*
X0069589Y0174695D03*
X0078789Y0173195D03*
X0081889Y0178895D03*
X0081989Y0178895D03*
X0082189Y0178995D03*
X0082489Y0179095D03*
X0093489Y0180995D03*
X0093689Y0180895D03*
X0093789Y0180895D03*
X0093889Y0180795D03*
X0094089Y0180695D03*
X0094189Y0180695D03*
X0106089Y0171495D03*
X0099389Y0152495D03*
X0098089Y0151695D03*
X0101689Y0151695D03*
X0098089Y0147595D03*
X0101589Y0141695D03*
X0100989Y0137895D03*
X0101289Y0137795D03*
X0098089Y0132795D03*
X0098189Y0128195D03*
X0098089Y0124595D03*
X0098933Y0124202D03*
D18*
X0099389Y0125345D03*
X0101089Y0137845D03*
X0101189Y0137845D03*
X0105989Y0171745D03*
X0105889Y0171945D03*
X0093589Y0180945D03*
X0093389Y0181045D03*
X0093289Y0181045D03*
X0093189Y0181145D03*
X0093089Y0181145D03*
X0092989Y0181245D03*
X0092889Y0181245D03*
X0092689Y0181345D03*
X0081789Y0178845D03*
X0081689Y0178845D03*
X0081589Y0178745D03*
X0081489Y0178745D03*
X0081189Y0178645D03*
X0078689Y0173045D03*
X0078589Y0172945D03*
X0072689Y0162745D03*
X0069089Y0163545D03*
X0071789Y0188545D03*
D19*
X0080389Y0178345D03*
X0080489Y0178345D03*
X0080289Y0178245D03*
X0080689Y0178445D03*
X0078389Y0172645D03*
X0072589Y0162645D03*
X0069189Y0163445D03*
X0090689Y0182045D03*
X0090989Y0181945D03*
X0091089Y0181945D03*
X0091189Y0181945D03*
X0091289Y0181845D03*
X0091389Y0181845D03*
X0091489Y0181745D03*
X0091589Y0181745D03*
X0091889Y0181645D03*
X0105789Y0172145D03*
X0101589Y0147545D03*
X0101489Y0141745D03*
X0098789Y0138145D03*
X0101589Y0132845D03*
X0100289Y0123845D03*
D20*
X0099489Y0125095D03*
X0098189Y0124595D03*
X0093989Y0123895D03*
X0098189Y0132795D03*
X0093989Y0139895D03*
X0098189Y0147595D03*
X0098189Y0151695D03*
X0093989Y0152295D03*
X0105689Y0172395D03*
X0105589Y0172595D03*
X0090889Y0181995D03*
X0090789Y0181995D03*
X0090589Y0182095D03*
X0090489Y0182095D03*
X0090389Y0182195D03*
X0090289Y0182195D03*
X0090189Y0182195D03*
X0090089Y0182195D03*
X0089989Y0182295D03*
X0089889Y0182295D03*
X0089789Y0182295D03*
X0089589Y0182395D03*
X0089189Y0182495D03*
X0080189Y0178195D03*
X0080089Y0178195D03*
X0079989Y0178095D03*
X0079889Y0178095D03*
X0079689Y0177995D03*
X0078289Y0172495D03*
X0072489Y0162595D03*
X0072089Y0188595D03*
D21*
X0072189Y0188645D03*
X0079189Y0177745D03*
X0079389Y0177845D03*
X0079589Y0177945D03*
X0079789Y0178045D03*
X0078189Y0172345D03*
X0088089Y0182745D03*
X0088489Y0182645D03*
X0088589Y0182645D03*
X0088689Y0182645D03*
X0088889Y0182545D03*
X0088989Y0182545D03*
X0089089Y0182545D03*
X0089289Y0182445D03*
X0089389Y0182445D03*
X0089489Y0182445D03*
X0089689Y0182345D03*
X0105489Y0172845D03*
X0099489Y0152245D03*
X0101589Y0151745D03*
X0098689Y0138145D03*
X0101589Y0124545D03*
X0069289Y0163345D03*
D22*
X0072389Y0162545D03*
X0077989Y0172045D03*
X0078189Y0177145D03*
X0078389Y0177245D03*
X0078489Y0177345D03*
X0078689Y0177445D03*
X0084889Y0172445D03*
X0086289Y0183045D03*
X0086389Y0183045D03*
X0086489Y0183045D03*
X0086589Y0183045D03*
X0086689Y0183045D03*
X0086989Y0182945D03*
X0087089Y0182945D03*
X0087189Y0182945D03*
X0087489Y0182845D03*
X0087589Y0182845D03*
X0086089Y0183145D03*
X0085989Y0183145D03*
X0085889Y0183145D03*
X0085789Y0183145D03*
X0085689Y0183145D03*
X0105189Y0173445D03*
X0105289Y0173245D03*
X0105389Y0173045D03*
X0099589Y0152045D03*
X0098289Y0151745D03*
X0098289Y0147545D03*
X0101489Y0147545D03*
X0091089Y0136145D03*
X0090989Y0136145D03*
X0090889Y0136145D03*
X0090789Y0136145D03*
X0090689Y0136145D03*
X0090589Y0136145D03*
X0090489Y0136145D03*
X0090389Y0136145D03*
X0090289Y0136145D03*
X0090189Y0136145D03*
X0090089Y0136145D03*
X0089989Y0136145D03*
X0089889Y0136145D03*
X0089789Y0136145D03*
X0089689Y0136145D03*
X0089589Y0136145D03*
X0089489Y0136145D03*
X0089389Y0136145D03*
X0089289Y0136145D03*
X0089189Y0136145D03*
X0089089Y0136145D03*
X0088989Y0136145D03*
X0088889Y0136145D03*
X0088789Y0136145D03*
X0088689Y0136145D03*
X0088589Y0136145D03*
X0088489Y0136145D03*
X0088389Y0136145D03*
X0088289Y0136145D03*
X0088189Y0136145D03*
X0088089Y0136145D03*
X0087989Y0136145D03*
X0087889Y0136145D03*
X0087789Y0136145D03*
X0087689Y0136145D03*
X0087589Y0136145D03*
X0087489Y0136145D03*
X0100189Y0124045D03*
X0092089Y0111745D03*
X0091989Y0111745D03*
X0091889Y0111745D03*
X0091789Y0111745D03*
X0091689Y0111745D03*
X0091589Y0111745D03*
X0091489Y0111745D03*
X0091389Y0111745D03*
X0091289Y0111745D03*
X0091189Y0111745D03*
X0091089Y0111745D03*
X0090989Y0111745D03*
X0090889Y0111745D03*
X0090789Y0111745D03*
X0090689Y0111745D03*
X0090589Y0111745D03*
X0090489Y0111745D03*
X0090389Y0111745D03*
X0090289Y0111745D03*
X0090189Y0111745D03*
X0088289Y0111745D03*
X0088189Y0111745D03*
X0088089Y0111745D03*
X0087989Y0111745D03*
X0087889Y0111745D03*
X0087789Y0111745D03*
X0087689Y0111745D03*
X0087589Y0111745D03*
X0087489Y0111745D03*
X0087389Y0111745D03*
X0087289Y0111745D03*
X0087189Y0111745D03*
X0087089Y0111745D03*
X0086989Y0111745D03*
X0086889Y0111745D03*
X0086789Y0111745D03*
X0086689Y0111745D03*
X0086589Y0111745D03*
D23*
X0086489Y0111645D03*
X0090089Y0123845D03*
X0091389Y0127545D03*
X0091489Y0127545D03*
X0091589Y0127545D03*
X0087289Y0127545D03*
X0087189Y0127545D03*
X0086989Y0127645D03*
X0086989Y0136045D03*
X0086889Y0136045D03*
X0091489Y0136045D03*
X0091589Y0136045D03*
X0088189Y0143145D03*
X0088089Y0143145D03*
X0087889Y0143045D03*
X0087689Y0142945D03*
X0087589Y0142945D03*
X0087389Y0142845D03*
X0087189Y0142745D03*
X0086989Y0142645D03*
X0086889Y0142645D03*
X0088289Y0143245D03*
X0088389Y0143245D03*
X0088589Y0143345D03*
X0088789Y0143445D03*
X0088989Y0143545D03*
X0089089Y0143545D03*
X0089289Y0143645D03*
X0089489Y0143745D03*
X0089589Y0143745D03*
X0089689Y0143845D03*
X0089789Y0143845D03*
X0089989Y0143945D03*
X0090189Y0144045D03*
X0090289Y0144045D03*
X0090389Y0144145D03*
X0090489Y0144145D03*
X0090689Y0144245D03*
X0090889Y0144345D03*
X0090989Y0144345D03*
X0091089Y0144445D03*
X0091189Y0144445D03*
X0091289Y0144445D03*
X0091389Y0144545D03*
X0091489Y0144545D03*
X0091589Y0144645D03*
X0091689Y0144645D03*
X0091789Y0144745D03*
X0091889Y0144745D03*
X0091989Y0144845D03*
X0091989Y0147345D03*
X0091889Y0147445D03*
X0091789Y0147445D03*
X0091589Y0147545D03*
X0091389Y0147645D03*
X0091189Y0147745D03*
X0091089Y0147745D03*
X0090889Y0147845D03*
X0090789Y0147845D03*
X0090689Y0147945D03*
X0090489Y0148045D03*
X0090389Y0148045D03*
X0090189Y0148145D03*
X0090089Y0148145D03*
X0089989Y0148245D03*
X0089889Y0148245D03*
X0089789Y0148345D03*
X0089689Y0148345D03*
X0089489Y0148445D03*
X0089289Y0148545D03*
X0089089Y0148645D03*
X0088989Y0148645D03*
X0088789Y0148745D03*
X0088589Y0148845D03*
X0088389Y0148945D03*
X0088289Y0148945D03*
X0088089Y0149045D03*
X0087989Y0149045D03*
X0087889Y0149145D03*
X0087689Y0149245D03*
X0087589Y0149245D03*
X0087389Y0149345D03*
X0087289Y0149345D03*
X0087089Y0149445D03*
X0086889Y0149545D03*
X0086689Y0149645D03*
X0098389Y0151745D03*
X0100089Y0151345D03*
X0101489Y0151745D03*
X0101389Y0147545D03*
X0090089Y0163145D03*
X0088389Y0163145D03*
X0077689Y0171545D03*
X0077789Y0171745D03*
X0077589Y0176745D03*
X0077789Y0176845D03*
X0077889Y0176945D03*
X0082789Y0183345D03*
X0082889Y0183345D03*
X0082989Y0183345D03*
X0083089Y0183345D03*
X0083189Y0183345D03*
X0083289Y0183345D03*
X0083389Y0183345D03*
X0083489Y0183345D03*
X0083589Y0183345D03*
X0083689Y0183345D03*
X0083789Y0183345D03*
X0083889Y0183345D03*
X0083989Y0183345D03*
X0084089Y0183345D03*
X0084889Y0183245D03*
X0072489Y0188745D03*
X0104989Y0173845D03*
X0105089Y0173645D03*
X0099689Y0124745D03*
X0101489Y0124545D03*
D24*
X0099989Y0124395D03*
X0099889Y0124495D03*
X0099789Y0124595D03*
X0098389Y0124595D03*
X0091689Y0127595D03*
X0087089Y0127595D03*
X0086889Y0127695D03*
X0091689Y0135995D03*
X0087989Y0143095D03*
X0087789Y0142995D03*
X0087489Y0142895D03*
X0087289Y0142795D03*
X0087089Y0142695D03*
X0086789Y0142595D03*
X0086689Y0142495D03*
X0088489Y0143295D03*
X0088689Y0143395D03*
X0088889Y0143495D03*
X0089189Y0143595D03*
X0089389Y0143695D03*
X0090289Y0148095D03*
X0089589Y0148395D03*
X0089389Y0148495D03*
X0089189Y0148595D03*
X0088889Y0148695D03*
X0088689Y0148795D03*
X0088489Y0148895D03*
X0088189Y0148995D03*
X0087789Y0149195D03*
X0087489Y0149295D03*
X0087189Y0149395D03*
X0086989Y0149495D03*
X0086789Y0149595D03*
X0098389Y0147595D03*
X0099989Y0151495D03*
X0099689Y0151895D03*
X0086489Y0163095D03*
X0077589Y0171395D03*
X0077289Y0176495D03*
X0077389Y0176595D03*
X0077489Y0176695D03*
X0077689Y0176795D03*
X0082389Y0183295D03*
X0082489Y0183295D03*
X0082589Y0183295D03*
X0082689Y0183295D03*
X0104789Y0174195D03*
X0104889Y0173995D03*
X0101389Y0132795D03*
X0098389Y0132795D03*
D25*
X0101289Y0132845D03*
X0101389Y0124545D03*
X0098489Y0124545D03*
X0091789Y0127645D03*
X0086689Y0135845D03*
X0086789Y0135945D03*
X0101289Y0147545D03*
X0101389Y0151745D03*
X0099889Y0151645D03*
X0099789Y0151745D03*
X0098489Y0151745D03*
X0104689Y0174345D03*
X0104589Y0174545D03*
X0104489Y0174745D03*
X0104289Y0175045D03*
X0082289Y0183345D03*
X0082189Y0183345D03*
X0082089Y0183345D03*
X0081989Y0183345D03*
X0081889Y0183345D03*
X0081789Y0183345D03*
X0081689Y0183345D03*
X0081589Y0183345D03*
X0081489Y0183345D03*
X0080889Y0183245D03*
X0080789Y0183245D03*
X0077189Y0176445D03*
X0077089Y0176345D03*
X0077489Y0171245D03*
X0072589Y0188745D03*
D26*
X0072689Y0188795D03*
X0080289Y0183195D03*
X0080389Y0183195D03*
X0080489Y0183195D03*
X0080589Y0183195D03*
X0080689Y0183195D03*
X0080989Y0183295D03*
X0081089Y0183295D03*
X0081189Y0183295D03*
X0081289Y0183295D03*
X0081389Y0183295D03*
X0076989Y0176295D03*
X0076889Y0176195D03*
X0079589Y0149595D03*
X0091789Y0135895D03*
X0091889Y0135895D03*
X0098489Y0132795D03*
X0098589Y0124595D03*
X0091889Y0127695D03*
X0086789Y0127795D03*
X0098489Y0147595D03*
X0104389Y0174895D03*
X0104189Y0175195D03*
X0104089Y0175395D03*
D27*
X0103989Y0175545D03*
X0103789Y0175845D03*
X0103589Y0176145D03*
X0101289Y0151745D03*
X0098689Y0151745D03*
X0098589Y0151745D03*
X0101189Y0147545D03*
X0091989Y0135745D03*
X0086589Y0135745D03*
X0086689Y0127845D03*
X0091989Y0127845D03*
X0101289Y0124545D03*
X0101189Y0132845D03*
X0077289Y0170845D03*
X0077389Y0171045D03*
X0076489Y0175845D03*
X0076589Y0175945D03*
X0076689Y0176045D03*
X0076789Y0176145D03*
X0079789Y0183145D03*
X0079889Y0183145D03*
X0079989Y0183145D03*
X0080089Y0183145D03*
X0080189Y0183145D03*
X0072789Y0188845D03*
X0069389Y0163545D03*
D28*
X0076189Y0175595D03*
X0076289Y0175695D03*
X0076389Y0175795D03*
X0078889Y0182995D03*
X0078989Y0182995D03*
X0079089Y0182995D03*
X0079289Y0183095D03*
X0079389Y0183095D03*
X0079489Y0183095D03*
X0079589Y0183095D03*
X0079689Y0183095D03*
X0103089Y0176895D03*
X0103289Y0176595D03*
X0103389Y0176495D03*
X0103489Y0176295D03*
X0103689Y0175995D03*
X0103889Y0175695D03*
X0101189Y0151695D03*
X0098589Y0147595D03*
X0093989Y0146095D03*
X0098589Y0132795D03*
X0098689Y0124595D03*
X0093989Y0115595D03*
X0086589Y0127995D03*
D29*
X0098389Y0128745D03*
X0101089Y0124545D03*
X0101189Y0124545D03*
X0101089Y0132845D03*
X0098689Y0132845D03*
X0098689Y0147545D03*
X0101089Y0147545D03*
X0103189Y0176745D03*
X0102989Y0177045D03*
X0102889Y0177145D03*
X0102689Y0177445D03*
X0102589Y0177545D03*
X0102489Y0177745D03*
X0102389Y0177845D03*
X0102189Y0178145D03*
X0102089Y0178245D03*
X0101789Y0178645D03*
X0101689Y0178745D03*
X0079189Y0183045D03*
X0078789Y0182945D03*
X0078689Y0182945D03*
X0078589Y0182945D03*
X0078489Y0182945D03*
X0078289Y0182845D03*
X0078189Y0182845D03*
X0076089Y0175545D03*
X0075989Y0175445D03*
X0075889Y0175345D03*
X0077189Y0170645D03*
X0074189Y0161945D03*
X0072889Y0188845D03*
D30*
X0072989Y0188895D03*
X0077189Y0182595D03*
X0077489Y0182695D03*
X0077589Y0182695D03*
X0077689Y0182695D03*
X0077889Y0182795D03*
X0077989Y0182795D03*
X0078089Y0182795D03*
X0078389Y0182895D03*
X0075789Y0175195D03*
X0077089Y0170495D03*
X0092689Y0186195D03*
X0093089Y0185995D03*
X0093289Y0185895D03*
X0093589Y0185695D03*
X0093689Y0185695D03*
X0093789Y0185595D03*
X0094089Y0185395D03*
X0094289Y0185295D03*
X0094789Y0184995D03*
X0094889Y0184895D03*
X0095089Y0184795D03*
X0095189Y0184695D03*
X0095489Y0184495D03*
X0095589Y0184395D03*
X0095789Y0184295D03*
X0095889Y0184195D03*
X0096489Y0183795D03*
X0096589Y0183695D03*
X0096889Y0183495D03*
X0096989Y0183395D03*
X0097089Y0183295D03*
X0097189Y0183195D03*
X0097489Y0182995D03*
X0097589Y0182895D03*
X0097689Y0182795D03*
X0097789Y0182695D03*
X0098089Y0182495D03*
X0098189Y0182395D03*
X0098289Y0182295D03*
X0098389Y0182195D03*
X0098489Y0182095D03*
X0098589Y0181995D03*
X0098689Y0181895D03*
X0098889Y0181695D03*
X0099189Y0181395D03*
X0099489Y0181095D03*
X0099789Y0180795D03*
X0100089Y0180495D03*
X0100389Y0180195D03*
X0100489Y0180095D03*
X0100589Y0179995D03*
X0100689Y0179895D03*
X0100789Y0179795D03*
X0100889Y0179695D03*
X0100989Y0179595D03*
X0101089Y0179495D03*
X0101189Y0179295D03*
X0101289Y0179195D03*
X0101389Y0179095D03*
X0101489Y0178995D03*
X0101589Y0178895D03*
X0101889Y0178495D03*
X0101989Y0178395D03*
X0102289Y0177995D03*
X0102789Y0177295D03*
X0101089Y0151695D03*
X0100989Y0147595D03*
X0098789Y0147595D03*
X0101289Y0141195D03*
X0101389Y0141195D03*
X0100989Y0132795D03*
X0098789Y0132795D03*
X0098489Y0128695D03*
X0090789Y0119095D03*
X0090889Y0118995D03*
X0090989Y0118895D03*
X0090689Y0119195D03*
X0090589Y0119295D03*
X0090489Y0119395D03*
X0090289Y0119695D03*
X0090189Y0119795D03*
X0090089Y0119895D03*
X0088089Y0119795D03*
X0087989Y0119695D03*
X0087889Y0119595D03*
X0087589Y0119195D03*
X0087489Y0119095D03*
X0087389Y0118995D03*
D31*
X0098189Y0129745D03*
X0100589Y0125745D03*
X0101789Y0124545D03*
X0101789Y0132845D03*
X0096489Y0135945D03*
X0097989Y0151745D03*
X0097189Y0179045D03*
X0097089Y0179145D03*
X0085389Y0179645D03*
X0085289Y0179645D03*
X0085189Y0179645D03*
X0079789Y0174345D03*
X0070189Y0174545D03*
X0073089Y0163045D03*
X0076389Y0151045D03*
X0078089Y0185845D03*
D32*
X0071689Y0188545D03*
X0069689Y0174645D03*
X0078889Y0173345D03*
X0078989Y0173445D03*
X0082089Y0178945D03*
X0082289Y0179045D03*
X0082389Y0179045D03*
X0082589Y0179145D03*
X0082689Y0179145D03*
X0082789Y0179145D03*
X0093989Y0180745D03*
X0094289Y0180645D03*
X0094389Y0180545D03*
X0094489Y0180545D03*
X0094689Y0180445D03*
X0100389Y0150745D03*
X0101689Y0147545D03*
X0100889Y0140345D03*
X0101389Y0137745D03*
X0101489Y0137745D03*
X0101689Y0132845D03*
D33*
X0100789Y0133895D03*
X0100689Y0133995D03*
X0099289Y0134095D03*
X0099089Y0133995D03*
X0098989Y0133895D03*
X0098989Y0131695D03*
X0099189Y0131595D03*
X0100289Y0131495D03*
X0100589Y0131595D03*
X0100789Y0131695D03*
X0099289Y0129695D03*
X0099189Y0129695D03*
X0098989Y0127495D03*
X0099089Y0127395D03*
X0099189Y0127395D03*
X0099189Y0125595D03*
X0100789Y0125695D03*
X0100989Y0123495D03*
X0100489Y0123495D03*
X0101589Y0137695D03*
X0100889Y0138095D03*
X0100589Y0140195D03*
X0100489Y0140195D03*
X0101689Y0141695D03*
X0100789Y0142395D03*
X0100689Y0146395D03*
X0100789Y0146495D03*
X0099089Y0146395D03*
X0098989Y0146495D03*
X0098889Y0148595D03*
X0098989Y0148695D03*
X0100289Y0148895D03*
X0100589Y0148795D03*
X0100789Y0148695D03*
X0100589Y0150595D03*
X0100989Y0150695D03*
X0100989Y0152695D03*
X0100889Y0152795D03*
X0098789Y0152695D03*
X0098789Y0150795D03*
X0079289Y0173795D03*
X0079389Y0173895D03*
X0083689Y0179395D03*
X0083789Y0179395D03*
X0083889Y0179395D03*
X0084089Y0179495D03*
X0084189Y0179495D03*
X0084289Y0179495D03*
X0077989Y0185995D03*
X0071489Y0188495D03*
X0069989Y0174595D03*
X0069889Y0174595D03*
X0068789Y0163895D03*
X0072889Y0162895D03*
X0095689Y0179895D03*
X0095789Y0179895D03*
X0095889Y0179795D03*
X0096089Y0179695D03*
D34*
X0096189Y0179645D03*
X0096289Y0179545D03*
X0096389Y0179545D03*
X0096489Y0179445D03*
X0096689Y0179345D03*
X0095989Y0179745D03*
X0084689Y0179545D03*
X0084589Y0179545D03*
X0084489Y0179545D03*
X0084389Y0179545D03*
X0079489Y0174045D03*
X0072989Y0162945D03*
X0071389Y0188445D03*
X0098889Y0152745D03*
X0098989Y0152745D03*
X0099089Y0152745D03*
X0099189Y0152745D03*
X0100689Y0152845D03*
X0100789Y0152845D03*
X0100889Y0150645D03*
X0100789Y0150545D03*
X0100689Y0150545D03*
X0100189Y0148945D03*
X0100089Y0148945D03*
X0099989Y0148945D03*
X0099889Y0148945D03*
X0099789Y0148945D03*
X0099689Y0148945D03*
X0099589Y0148945D03*
X0099489Y0148945D03*
X0099389Y0148845D03*
X0099289Y0148845D03*
X0099189Y0148845D03*
X0099089Y0148745D03*
X0100389Y0148845D03*
X0100489Y0148845D03*
X0100689Y0148745D03*
X0100589Y0146345D03*
X0100489Y0146345D03*
X0100389Y0146245D03*
X0100289Y0146245D03*
X0100189Y0146245D03*
X0100089Y0146245D03*
X0099989Y0146245D03*
X0099889Y0146245D03*
X0099789Y0146245D03*
X0099689Y0146245D03*
X0099589Y0146245D03*
X0099489Y0146245D03*
X0099389Y0146245D03*
X0099289Y0146345D03*
X0099189Y0146345D03*
X0099189Y0144445D03*
X0099289Y0144445D03*
X0099389Y0144445D03*
X0099489Y0144445D03*
X0099589Y0144445D03*
X0099689Y0144445D03*
X0099789Y0144445D03*
X0099889Y0144445D03*
X0099989Y0144445D03*
X0100089Y0144445D03*
X0100189Y0144445D03*
X0100289Y0144445D03*
X0100389Y0144445D03*
X0100489Y0144445D03*
X0100589Y0144445D03*
X0100689Y0144445D03*
X0100789Y0144445D03*
X0100889Y0144445D03*
X0100989Y0144445D03*
X0101089Y0144445D03*
X0101189Y0144445D03*
X0101289Y0144445D03*
X0101389Y0144445D03*
X0100689Y0142445D03*
X0100589Y0142445D03*
X0100389Y0140145D03*
X0100289Y0140145D03*
X0100189Y0140145D03*
X0100089Y0140145D03*
X0099989Y0140145D03*
X0099889Y0140145D03*
X0099789Y0140145D03*
X0099689Y0140145D03*
X0099589Y0140145D03*
X0099489Y0140145D03*
X0099389Y0140145D03*
X0099289Y0140145D03*
X0099189Y0140145D03*
X0099089Y0140145D03*
X0098989Y0140145D03*
X0098889Y0140145D03*
X0098789Y0140145D03*
X0098689Y0140145D03*
X0098589Y0140145D03*
X0098489Y0140145D03*
X0098389Y0140145D03*
X0098289Y0140145D03*
X0098189Y0140145D03*
X0097989Y0138145D03*
X0097889Y0138145D03*
X0097789Y0138145D03*
X0097689Y0138145D03*
X0097589Y0138145D03*
X0097489Y0138145D03*
X0097389Y0138145D03*
X0097289Y0138145D03*
X0097189Y0138145D03*
X0098989Y0138145D03*
X0099089Y0138145D03*
X0099189Y0138145D03*
X0099289Y0138145D03*
X0099389Y0138145D03*
X0099489Y0138145D03*
X0099589Y0138145D03*
X0099689Y0138145D03*
X0099789Y0138145D03*
X0099889Y0138145D03*
X0099989Y0138145D03*
X0100089Y0138145D03*
X0100189Y0138145D03*
X0100289Y0138145D03*
X0100389Y0138145D03*
X0100489Y0138145D03*
X0100589Y0138145D03*
X0100689Y0138145D03*
X0100789Y0138145D03*
X0101489Y0140145D03*
X0101489Y0135945D03*
X0101389Y0135945D03*
X0101289Y0135945D03*
X0101189Y0135945D03*
X0101089Y0135945D03*
X0100989Y0135945D03*
X0100889Y0135945D03*
X0100789Y0135945D03*
X0100689Y0135945D03*
X0100589Y0135945D03*
X0100489Y0135945D03*
X0100389Y0135945D03*
X0100289Y0135945D03*
X0100189Y0135945D03*
X0100089Y0135945D03*
X0099989Y0135945D03*
X0099889Y0135945D03*
X0099789Y0135945D03*
X0099689Y0135945D03*
X0099589Y0135945D03*
X0099489Y0135945D03*
X0099389Y0135945D03*
X0099289Y0135945D03*
X0099189Y0135945D03*
X0099089Y0135945D03*
X0098989Y0135945D03*
X0098889Y0135945D03*
X0098789Y0135945D03*
X0098689Y0135945D03*
X0098589Y0135945D03*
X0098489Y0135945D03*
X0098389Y0135945D03*
X0098289Y0135945D03*
X0098189Y0135945D03*
X0097189Y0135945D03*
X0097089Y0135945D03*
X0096989Y0135945D03*
X0096889Y0135945D03*
X0096789Y0135945D03*
X0096689Y0135945D03*
X0099189Y0134045D03*
X0099389Y0134145D03*
X0099489Y0134145D03*
X0099589Y0134145D03*
X0099689Y0134145D03*
X0099789Y0134145D03*
X0099889Y0134145D03*
X0099989Y0134145D03*
X0100089Y0134145D03*
X0100189Y0134145D03*
X0100289Y0134145D03*
X0100389Y0134145D03*
X0100489Y0134045D03*
X0100589Y0134045D03*
X0100689Y0131645D03*
X0100489Y0131545D03*
X0100389Y0131545D03*
X0100189Y0131445D03*
X0100089Y0131445D03*
X0099989Y0131445D03*
X0099889Y0131445D03*
X0099789Y0131445D03*
X0099689Y0131445D03*
X0099589Y0131445D03*
X0099489Y0131445D03*
X0099389Y0131545D03*
X0099289Y0131545D03*
X0099089Y0131645D03*
X0099389Y0129745D03*
X0099489Y0129745D03*
X0099589Y0129745D03*
X0099689Y0129745D03*
X0099789Y0129745D03*
X0099889Y0129745D03*
X0099989Y0129745D03*
X0100089Y0129745D03*
X0100189Y0129745D03*
X0100289Y0129745D03*
X0100389Y0129745D03*
X0100489Y0129745D03*
X0100589Y0129745D03*
X0100689Y0129745D03*
X0100789Y0129745D03*
X0100889Y0129745D03*
X0100989Y0129745D03*
X0101089Y0129745D03*
X0101189Y0129745D03*
X0101289Y0129745D03*
X0101389Y0129745D03*
X0101489Y0129745D03*
X0101489Y0127345D03*
X0101389Y0127345D03*
X0101289Y0127345D03*
X0101189Y0127345D03*
X0101089Y0127345D03*
X0100989Y0127345D03*
X0100889Y0127345D03*
X0100789Y0127345D03*
X0100689Y0127345D03*
X0100589Y0127345D03*
X0100489Y0127345D03*
X0100389Y0127345D03*
X0100289Y0127345D03*
X0100189Y0127345D03*
X0100089Y0127345D03*
X0099989Y0127345D03*
X0099889Y0127345D03*
X0099789Y0127345D03*
X0099689Y0127345D03*
X0099589Y0127345D03*
X0099489Y0127345D03*
X0099389Y0127345D03*
X0099289Y0127345D03*
X0099089Y0125645D03*
X0098989Y0125645D03*
X0098889Y0125645D03*
X0098789Y0125545D03*
X0098789Y0123645D03*
X0098889Y0123545D03*
X0098989Y0123545D03*
X0100589Y0123445D03*
X0100689Y0123445D03*
X0100789Y0123445D03*
X0100889Y0123445D03*
X0100889Y0125645D03*
X0100689Y0125745D03*
X0099089Y0144445D03*
X0098989Y0144445D03*
X0098889Y0144445D03*
X0098789Y0144445D03*
X0098689Y0144445D03*
X0098589Y0144445D03*
X0098489Y0144445D03*
X0098389Y0144445D03*
X0098289Y0144445D03*
X0098189Y0144445D03*
X0098089Y0144445D03*
X0097989Y0144445D03*
X0097889Y0144445D03*
X0097789Y0144445D03*
X0097689Y0144445D03*
X0097589Y0144445D03*
X0097489Y0144445D03*
X0097389Y0144445D03*
X0097289Y0144445D03*
X0097189Y0144445D03*
X0097089Y0144445D03*
X0096989Y0144445D03*
X0098889Y0150745D03*
D35*
X0100189Y0151195D03*
X0093889Y0152295D03*
X0093889Y0139895D03*
X0098189Y0138095D03*
X0098289Y0138095D03*
X0098389Y0138095D03*
X0098489Y0138095D03*
X0098589Y0138095D03*
X0101489Y0132795D03*
X0093889Y0123895D03*
X0090889Y0127495D03*
X0087789Y0127495D03*
X0084789Y0123895D03*
X0084789Y0172495D03*
X0079489Y0177895D03*
X0079289Y0177795D03*
X0079089Y0177695D03*
X0078989Y0177595D03*
X0078889Y0177595D03*
X0078789Y0177495D03*
X0078589Y0177395D03*
X0078089Y0172195D03*
X0086189Y0183095D03*
X0086789Y0182995D03*
X0086889Y0182995D03*
X0087289Y0182895D03*
X0087389Y0182895D03*
X0087689Y0182795D03*
X0087789Y0182795D03*
X0087889Y0182795D03*
X0087989Y0182795D03*
X0088189Y0182695D03*
X0088289Y0182695D03*
X0088389Y0182695D03*
X0088789Y0182595D03*
X0072289Y0188695D03*
D36*
X0073089Y0188945D03*
X0076989Y0182545D03*
X0077089Y0182545D03*
X0077289Y0182645D03*
X0077389Y0182645D03*
X0077789Y0182745D03*
X0075689Y0175145D03*
X0075589Y0175045D03*
X0075489Y0174945D03*
X0076989Y0170245D03*
X0090289Y0187345D03*
X0090589Y0187245D03*
X0090989Y0187045D03*
X0091289Y0186945D03*
X0091389Y0186845D03*
X0091489Y0186845D03*
X0091589Y0186745D03*
X0091689Y0186745D03*
X0091889Y0186645D03*
X0091989Y0186545D03*
X0092089Y0186545D03*
X0092289Y0186445D03*
X0092389Y0186345D03*
X0092489Y0186345D03*
X0092589Y0186245D03*
X0092789Y0186145D03*
X0092889Y0186045D03*
X0092989Y0186045D03*
X0093189Y0185945D03*
X0093389Y0185845D03*
X0093489Y0185745D03*
X0093889Y0185545D03*
X0093989Y0185445D03*
X0094189Y0185345D03*
X0094389Y0185245D03*
X0094489Y0185145D03*
X0094589Y0185145D03*
X0094689Y0185045D03*
X0094989Y0184845D03*
X0095289Y0184645D03*
X0095389Y0184545D03*
X0095689Y0184345D03*
X0095989Y0184145D03*
X0096089Y0184045D03*
X0096189Y0184045D03*
X0096289Y0183945D03*
X0096389Y0183845D03*
X0096689Y0183645D03*
X0096789Y0183545D03*
X0097289Y0183145D03*
X0097389Y0183045D03*
X0097889Y0182645D03*
X0097989Y0182545D03*
X0098789Y0181845D03*
X0098989Y0181645D03*
X0099089Y0181545D03*
X0099289Y0181345D03*
X0099389Y0181245D03*
X0099589Y0181045D03*
X0099689Y0180945D03*
X0099889Y0180745D03*
X0099989Y0180645D03*
X0100189Y0180445D03*
X0100289Y0180345D03*
X0101089Y0141245D03*
X0101189Y0141245D03*
X0092089Y0135545D03*
X0092089Y0128045D03*
X0098589Y0128645D03*
X0098689Y0128645D03*
X0091089Y0118745D03*
X0091189Y0118645D03*
X0091289Y0118545D03*
X0091789Y0117945D03*
X0091889Y0117845D03*
X0091989Y0117745D03*
X0092589Y0117045D03*
X0092689Y0116945D03*
X0093389Y0116145D03*
X0093489Y0116045D03*
X0090389Y0119545D03*
X0087789Y0119445D03*
X0087689Y0119345D03*
X0087289Y0118845D03*
X0087189Y0118745D03*
X0087089Y0118645D03*
X0086889Y0118345D03*
X0086789Y0118245D03*
X0086689Y0118145D03*
D37*
X0086589Y0117995D03*
X0086489Y0117895D03*
X0086389Y0117795D03*
X0086189Y0117495D03*
X0086089Y0117395D03*
X0085989Y0117295D03*
X0085489Y0116695D03*
X0086989Y0118495D03*
X0091389Y0118395D03*
X0091489Y0118295D03*
X0091589Y0118195D03*
X0091689Y0118095D03*
X0092089Y0117595D03*
X0092189Y0117495D03*
X0092289Y0117395D03*
X0092389Y0117295D03*
X0092489Y0117195D03*
X0092889Y0116695D03*
X0092989Y0116595D03*
X0093089Y0116495D03*
X0093189Y0116395D03*
X0093289Y0116295D03*
X0093589Y0115895D03*
X0093689Y0115795D03*
X0093789Y0115695D03*
X0093889Y0115595D03*
X0098789Y0128595D03*
X0100989Y0141295D03*
X0093889Y0146095D03*
X0086489Y0135495D03*
X0069489Y0163695D03*
X0075189Y0174595D03*
X0075289Y0174695D03*
X0075389Y0174795D03*
X0076489Y0182395D03*
X0076689Y0182495D03*
X0076789Y0182495D03*
X0076889Y0182495D03*
X0088889Y0187895D03*
X0089089Y0187795D03*
X0089189Y0187795D03*
X0089389Y0187695D03*
X0089589Y0187595D03*
X0089689Y0187595D03*
X0089889Y0187495D03*
X0089989Y0187495D03*
X0090089Y0187395D03*
X0090189Y0187395D03*
X0090389Y0187295D03*
X0090489Y0187295D03*
X0090689Y0187195D03*
X0090789Y0187095D03*
X0090889Y0187095D03*
X0091089Y0186995D03*
X0091189Y0186995D03*
X0091789Y0186695D03*
X0092189Y0186495D03*
D38*
X0091789Y0181695D03*
X0091689Y0181695D03*
X0091989Y0181595D03*
X0092089Y0181595D03*
X0092189Y0181495D03*
X0092289Y0181495D03*
X0092389Y0181495D03*
X0092489Y0181395D03*
X0092589Y0181395D03*
X0092789Y0181295D03*
X0081389Y0178695D03*
X0081289Y0178695D03*
X0081089Y0178595D03*
X0080989Y0178595D03*
X0080889Y0178495D03*
X0080789Y0178495D03*
X0080589Y0178395D03*
X0078489Y0172795D03*
X0071989Y0188595D03*
X0071889Y0188595D03*
X0079689Y0148995D03*
X0098089Y0138095D03*
X0098289Y0128195D03*
X0100289Y0150995D03*
D39*
X0093789Y0152295D03*
X0093689Y0152295D03*
X0093589Y0152295D03*
X0093489Y0152295D03*
X0093389Y0152295D03*
X0093289Y0152295D03*
X0093189Y0152295D03*
X0093089Y0152295D03*
X0092989Y0152295D03*
X0092889Y0152295D03*
X0092789Y0152295D03*
X0092689Y0152295D03*
X0092589Y0152295D03*
X0092489Y0152295D03*
X0092389Y0152295D03*
X0092289Y0152295D03*
X0092189Y0152295D03*
X0092089Y0152295D03*
X0091989Y0152295D03*
X0091889Y0152295D03*
X0091789Y0152295D03*
X0091689Y0152295D03*
X0091589Y0152295D03*
X0091489Y0152295D03*
X0091389Y0152295D03*
X0091289Y0152295D03*
X0091189Y0152295D03*
X0091089Y0152295D03*
X0090989Y0152295D03*
X0090889Y0152295D03*
X0090789Y0152295D03*
X0090689Y0152295D03*
X0090589Y0152295D03*
X0090489Y0152295D03*
X0090389Y0152295D03*
X0090289Y0152295D03*
X0090189Y0152295D03*
X0090089Y0152295D03*
X0089989Y0152295D03*
X0089889Y0152295D03*
X0089789Y0152295D03*
X0089689Y0152295D03*
X0089589Y0152295D03*
X0089489Y0152295D03*
X0089389Y0152295D03*
X0089289Y0152295D03*
X0089189Y0152295D03*
X0089089Y0152295D03*
X0088989Y0152295D03*
X0088889Y0152295D03*
X0088789Y0152295D03*
X0088689Y0152295D03*
X0088589Y0152295D03*
X0088489Y0152295D03*
X0088389Y0152295D03*
X0088289Y0152295D03*
X0088189Y0152295D03*
X0088089Y0152295D03*
X0087989Y0152295D03*
X0087889Y0152295D03*
X0087789Y0152295D03*
X0087689Y0152295D03*
X0087589Y0152295D03*
X0087489Y0152295D03*
X0087389Y0152295D03*
X0087289Y0152295D03*
X0087189Y0152295D03*
X0087089Y0152295D03*
X0086989Y0152295D03*
X0086889Y0152295D03*
X0086789Y0152295D03*
X0086689Y0152295D03*
X0090589Y0147995D03*
X0090989Y0147795D03*
X0091289Y0147695D03*
X0091489Y0147595D03*
X0091689Y0147495D03*
X0090789Y0144295D03*
X0090589Y0144195D03*
X0090089Y0143995D03*
X0089889Y0143895D03*
X0089889Y0139895D03*
X0089989Y0139895D03*
X0090089Y0139895D03*
X0090189Y0139895D03*
X0090289Y0139895D03*
X0090389Y0139895D03*
X0090489Y0139895D03*
X0090589Y0139895D03*
X0090689Y0139895D03*
X0090789Y0139895D03*
X0090889Y0139895D03*
X0090989Y0139895D03*
X0091089Y0139895D03*
X0091189Y0139895D03*
X0091289Y0139895D03*
X0091389Y0139895D03*
X0091489Y0139895D03*
X0091589Y0139895D03*
X0091689Y0139895D03*
X0091789Y0139895D03*
X0091889Y0139895D03*
X0091989Y0139895D03*
X0092089Y0139895D03*
X0092189Y0139895D03*
X0092289Y0139895D03*
X0092389Y0139895D03*
X0092489Y0139895D03*
X0092589Y0139895D03*
X0092689Y0139895D03*
X0092789Y0139895D03*
X0092889Y0139895D03*
X0092989Y0139895D03*
X0093089Y0139895D03*
X0093189Y0139895D03*
X0093289Y0139895D03*
X0093389Y0139895D03*
X0093489Y0139895D03*
X0093589Y0139895D03*
X0093689Y0139895D03*
X0093789Y0139895D03*
X0091389Y0136095D03*
X0091289Y0136095D03*
X0091189Y0136095D03*
X0089789Y0139895D03*
X0089689Y0139895D03*
X0089589Y0139895D03*
X0089489Y0139895D03*
X0089389Y0139895D03*
X0089289Y0139895D03*
X0089189Y0139895D03*
X0089089Y0139895D03*
X0088989Y0139895D03*
X0088889Y0139895D03*
X0088789Y0139895D03*
X0088689Y0139895D03*
X0088589Y0139895D03*
X0088489Y0139895D03*
X0088389Y0139895D03*
X0088289Y0139895D03*
X0088189Y0139895D03*
X0088089Y0139895D03*
X0087989Y0139895D03*
X0087889Y0139895D03*
X0087789Y0139895D03*
X0087689Y0139895D03*
X0087589Y0139895D03*
X0087489Y0139895D03*
X0087389Y0139895D03*
X0087289Y0139895D03*
X0087189Y0139895D03*
X0087089Y0139895D03*
X0086989Y0139895D03*
X0086889Y0139895D03*
X0086789Y0139895D03*
X0086689Y0139895D03*
X0087089Y0136095D03*
X0087189Y0136095D03*
X0087289Y0136095D03*
X0087389Y0136095D03*
X0087389Y0127495D03*
X0087489Y0127495D03*
X0087589Y0127495D03*
X0087689Y0127495D03*
X0087689Y0123895D03*
X0087789Y0123895D03*
X0087889Y0123895D03*
X0087989Y0123895D03*
X0088089Y0123895D03*
X0087589Y0123895D03*
X0087489Y0123895D03*
X0087389Y0123895D03*
X0087289Y0123895D03*
X0087189Y0123895D03*
X0087089Y0123895D03*
X0086989Y0123895D03*
X0086889Y0123895D03*
X0086789Y0123895D03*
X0086689Y0123895D03*
X0086589Y0123895D03*
X0086489Y0123895D03*
X0086389Y0123895D03*
X0086289Y0123895D03*
X0086189Y0123895D03*
X0086089Y0123895D03*
X0085989Y0123895D03*
X0085889Y0123895D03*
X0085789Y0123895D03*
X0085689Y0123895D03*
X0085589Y0123895D03*
X0085489Y0123895D03*
X0085389Y0123895D03*
X0085289Y0123895D03*
X0085189Y0123895D03*
X0085089Y0123895D03*
X0084989Y0123895D03*
X0084889Y0123895D03*
X0090189Y0123895D03*
X0090289Y0123895D03*
X0090389Y0123895D03*
X0090489Y0123895D03*
X0090589Y0123895D03*
X0090689Y0123895D03*
X0090789Y0123895D03*
X0090889Y0123895D03*
X0090989Y0123895D03*
X0091089Y0123895D03*
X0091189Y0123895D03*
X0091289Y0123895D03*
X0091389Y0123895D03*
X0091489Y0123895D03*
X0091589Y0123895D03*
X0091689Y0123895D03*
X0091789Y0123895D03*
X0091889Y0123895D03*
X0091989Y0123895D03*
X0092089Y0123895D03*
X0092189Y0123895D03*
X0092289Y0123895D03*
X0092389Y0123895D03*
X0092489Y0123895D03*
X0092589Y0123895D03*
X0092689Y0123895D03*
X0092789Y0123895D03*
X0092889Y0123895D03*
X0092989Y0123895D03*
X0093089Y0123895D03*
X0093189Y0123895D03*
X0093289Y0123895D03*
X0093389Y0123895D03*
X0093489Y0123895D03*
X0093589Y0123895D03*
X0093689Y0123895D03*
X0093789Y0123895D03*
X0091289Y0127495D03*
X0091189Y0127495D03*
X0091089Y0127495D03*
X0090989Y0127495D03*
X0098289Y0124595D03*
X0099589Y0124895D03*
X0100089Y0124195D03*
X0098289Y0132795D03*
X0092189Y0111695D03*
X0090089Y0111695D03*
X0088389Y0111695D03*
X0088289Y0163195D03*
X0088189Y0163195D03*
X0088089Y0163195D03*
X0087989Y0163195D03*
X0087889Y0163195D03*
X0087789Y0163195D03*
X0087689Y0163195D03*
X0087589Y0163195D03*
X0087489Y0163195D03*
X0087389Y0163195D03*
X0087289Y0163195D03*
X0087189Y0163195D03*
X0087089Y0163195D03*
X0086989Y0163195D03*
X0086889Y0163195D03*
X0086789Y0163195D03*
X0086689Y0163195D03*
X0086589Y0163195D03*
X0090189Y0163195D03*
X0090289Y0163195D03*
X0090389Y0163195D03*
X0090489Y0163195D03*
X0090589Y0163195D03*
X0090689Y0163195D03*
X0090789Y0163195D03*
X0090889Y0163195D03*
X0090989Y0163195D03*
X0091089Y0163195D03*
X0091189Y0163195D03*
X0091289Y0163195D03*
X0091389Y0163195D03*
X0091489Y0163195D03*
X0091589Y0163195D03*
X0091689Y0163195D03*
X0091789Y0163195D03*
X0091889Y0163195D03*
X0091989Y0163195D03*
X0092089Y0163195D03*
X0092189Y0163195D03*
X0092089Y0172495D03*
X0091989Y0172495D03*
X0091889Y0172495D03*
X0091789Y0172495D03*
X0091689Y0172495D03*
X0091589Y0172495D03*
X0091489Y0172495D03*
X0091389Y0172495D03*
X0091289Y0172495D03*
X0091189Y0172495D03*
X0091089Y0172495D03*
X0090989Y0172495D03*
X0090889Y0172495D03*
X0090789Y0172495D03*
X0090689Y0172495D03*
X0090589Y0172495D03*
X0090489Y0172495D03*
X0090389Y0172495D03*
X0090289Y0172495D03*
X0090189Y0172495D03*
X0090089Y0172495D03*
X0089989Y0172495D03*
X0089889Y0172495D03*
X0089789Y0172495D03*
X0089689Y0172495D03*
X0089589Y0172495D03*
X0089489Y0172495D03*
X0089389Y0172495D03*
X0089289Y0172495D03*
X0089189Y0172495D03*
X0089089Y0172495D03*
X0088989Y0172495D03*
X0088889Y0172495D03*
X0088789Y0172495D03*
X0088689Y0172495D03*
X0088589Y0172495D03*
X0088489Y0172495D03*
X0088389Y0172495D03*
X0088289Y0172495D03*
X0088189Y0172495D03*
X0088089Y0172495D03*
X0087989Y0172495D03*
X0087889Y0172495D03*
X0087789Y0172495D03*
X0087689Y0172495D03*
X0087589Y0172495D03*
X0087489Y0172495D03*
X0087389Y0172495D03*
X0087289Y0172495D03*
X0087189Y0172495D03*
X0087089Y0172495D03*
X0086989Y0172495D03*
X0086889Y0172495D03*
X0086789Y0172495D03*
X0086689Y0172495D03*
X0086589Y0172495D03*
X0086489Y0172495D03*
X0086389Y0172495D03*
X0086289Y0172495D03*
X0086189Y0172495D03*
X0086089Y0172495D03*
X0085989Y0172495D03*
X0085889Y0172495D03*
X0085789Y0172495D03*
X0085689Y0172495D03*
X0085589Y0172495D03*
X0085489Y0172495D03*
X0085389Y0172495D03*
X0085289Y0172495D03*
X0085189Y0172495D03*
X0085089Y0172495D03*
X0084989Y0172495D03*
X0078289Y0177195D03*
X0078089Y0177095D03*
X0077989Y0176995D03*
X0077889Y0171895D03*
X0084189Y0183295D03*
X0084289Y0183295D03*
X0084389Y0183295D03*
X0084489Y0183295D03*
X0084589Y0183295D03*
X0084689Y0183295D03*
X0084789Y0183295D03*
X0084989Y0183195D03*
X0085089Y0183195D03*
X0085189Y0183195D03*
X0085289Y0183195D03*
X0085389Y0183195D03*
X0085489Y0183195D03*
X0085589Y0183195D03*
X0072389Y0188695D03*
D40*
X0099889Y0164995D03*
X0099789Y0111895D03*
X0099689Y0111895D03*
X0099589Y0111895D03*
X0099489Y0111895D03*
X0099389Y0111895D03*
X0099289Y0111895D03*
X0099189Y0111895D03*
X0099089Y0111895D03*
X0098989Y0111895D03*
D41*
X0098889Y0111845D03*
X0099889Y0111845D03*
D42*
X0099789Y0164995D03*
X0099689Y0164995D03*
X0099589Y0164995D03*
X0099489Y0164995D03*
X0099389Y0164995D03*
X0099289Y0164995D03*
X0099189Y0164995D03*
X0099089Y0164995D03*
X0098989Y0164995D03*
D43*
X0097989Y0178545D03*
X0097789Y0178645D03*
X0097689Y0178745D03*
X0086289Y0179745D03*
X0086189Y0179745D03*
X0086089Y0179745D03*
X0085989Y0179745D03*
X0085889Y0179745D03*
X0080189Y0174745D03*
X0080089Y0174645D03*
X0079989Y0174545D03*
X0070289Y0174545D03*
X0068489Y0164245D03*
X0073189Y0163145D03*
X0076289Y0151045D03*
X0099189Y0150645D03*
X0098089Y0140145D03*
X0098089Y0129745D03*
X0099189Y0123445D03*
X0071089Y0188345D03*
D44*
X0070789Y0188245D03*
X0080689Y0175145D03*
X0087689Y0179845D03*
X0098689Y0178045D03*
X0098989Y0177845D03*
D45*
X0098889Y0177895D03*
X0098789Y0177995D03*
X0098589Y0178095D03*
X0098489Y0178195D03*
X0087589Y0179795D03*
X0080589Y0175095D03*
X0073289Y0163195D03*
X0070589Y0174495D03*
X0070889Y0188295D03*
X0076089Y0151095D03*
D46*
X0098889Y0164945D03*
D47*
X0098389Y0178245D03*
X0098289Y0178345D03*
X0087489Y0179845D03*
X0087389Y0179845D03*
X0087289Y0179845D03*
X0087189Y0179845D03*
X0087089Y0179845D03*
X0086989Y0179845D03*
X0080489Y0175045D03*
X0068389Y0164345D03*
D48*
X0072489Y0169495D03*
X0093989Y0169595D03*
D49*
X0093989Y0159545D03*
X0089989Y0108245D03*
X0088489Y0108245D03*
D50*
X0088389Y0121845D03*
X0089789Y0121845D03*
X0093989Y0131745D03*
X0072789Y0170645D03*
X0067289Y0176345D03*
X0067389Y0176445D03*
X0065389Y0175745D03*
X0075589Y0189545D03*
X0076189Y0189345D03*
D51*
X0093489Y0131795D03*
X0093989Y0108095D03*
D52*
X0093789Y0131745D03*
X0093889Y0169545D03*
X0092189Y0169645D03*
D53*
X0092289Y0159595D03*
X0093889Y0159495D03*
X0086389Y0159595D03*
X0085389Y0131895D03*
X0085389Y0108095D03*
X0085489Y0108095D03*
X0085589Y0108095D03*
X0085689Y0108095D03*
X0085789Y0108095D03*
X0085889Y0108095D03*
X0085989Y0108095D03*
X0086089Y0108095D03*
X0086189Y0108095D03*
X0086289Y0108095D03*
X0086389Y0108095D03*
X0085289Y0108095D03*
X0085189Y0108095D03*
X0085089Y0108095D03*
X0084989Y0108095D03*
X0084889Y0108095D03*
X0084789Y0108095D03*
X0092389Y0108095D03*
X0092489Y0108095D03*
X0092589Y0108095D03*
X0092689Y0108095D03*
X0092789Y0108095D03*
X0092889Y0108095D03*
X0092989Y0108095D03*
X0093089Y0108095D03*
X0093189Y0108095D03*
X0093289Y0108095D03*
X0093389Y0108095D03*
X0093489Y0108095D03*
X0093589Y0108095D03*
X0093689Y0108095D03*
X0093789Y0108095D03*
X0093889Y0108095D03*
D54*
X0093889Y0131745D03*
X0076689Y0154045D03*
X0069989Y0164545D03*
X0072589Y0169945D03*
X0069089Y0177345D03*
X0069189Y0177445D03*
X0069289Y0177445D03*
D55*
X0072389Y0169195D03*
X0092289Y0169595D03*
X0092389Y0169595D03*
X0092489Y0169595D03*
X0092589Y0169595D03*
X0092689Y0169595D03*
X0092789Y0169595D03*
X0092889Y0169595D03*
X0092989Y0169595D03*
X0093089Y0169595D03*
X0093189Y0169595D03*
X0093289Y0169595D03*
X0093389Y0169595D03*
X0093489Y0169595D03*
X0093589Y0169595D03*
X0093689Y0169595D03*
X0093789Y0169595D03*
X0084889Y0131895D03*
D56*
X0093289Y0131745D03*
X0093289Y0159545D03*
X0093389Y0159545D03*
X0093489Y0159545D03*
X0093589Y0159545D03*
X0093689Y0159545D03*
X0093789Y0159545D03*
X0093189Y0159545D03*
X0093089Y0159545D03*
X0092989Y0159545D03*
X0092889Y0159545D03*
X0092789Y0159545D03*
X0092689Y0159545D03*
X0092589Y0159545D03*
X0092489Y0159545D03*
X0092389Y0159545D03*
X0086289Y0159545D03*
X0086189Y0159545D03*
X0086089Y0159545D03*
X0085989Y0159545D03*
X0085889Y0159545D03*
X0085789Y0159545D03*
X0085689Y0159545D03*
X0085589Y0159545D03*
X0085489Y0159545D03*
X0085389Y0159545D03*
X0085289Y0159545D03*
X0085189Y0159545D03*
X0085089Y0159545D03*
X0084989Y0159545D03*
X0084889Y0159545D03*
D57*
X0076789Y0169795D03*
X0074989Y0174395D03*
X0075089Y0174495D03*
X0075289Y0181995D03*
X0075589Y0182095D03*
X0075689Y0182095D03*
X0075789Y0182195D03*
X0075889Y0182195D03*
X0073389Y0188995D03*
X0085389Y0188895D03*
X0085689Y0188795D03*
X0085989Y0188695D03*
X0086089Y0188695D03*
X0086189Y0188695D03*
X0086489Y0188595D03*
X0086589Y0188595D03*
X0086689Y0188595D03*
X0086789Y0188595D03*
X0086889Y0188495D03*
X0086989Y0188495D03*
X0087089Y0188495D03*
X0087289Y0188395D03*
X0087389Y0188395D03*
X0087989Y0188195D03*
X0088289Y0188095D03*
X0088589Y0187995D03*
X0093589Y0146095D03*
X0093689Y0146095D03*
X0093789Y0146095D03*
D58*
X0093689Y0131695D03*
D59*
X0093589Y0131745D03*
X0074589Y0161845D03*
D60*
X0074689Y0173995D03*
X0074589Y0181695D03*
X0074789Y0181795D03*
X0073489Y0188995D03*
X0083089Y0189195D03*
X0083189Y0189195D03*
X0083289Y0189195D03*
X0083389Y0189195D03*
X0083489Y0189195D03*
X0083589Y0189195D03*
X0083689Y0189195D03*
X0083789Y0189095D03*
X0083889Y0189095D03*
X0083989Y0189095D03*
X0084089Y0189095D03*
X0084189Y0189095D03*
X0084689Y0188995D03*
X0084789Y0188995D03*
X0079489Y0150195D03*
X0093389Y0146095D03*
X0093489Y0146095D03*
D61*
X0089789Y0159645D03*
X0089689Y0159645D03*
X0089589Y0159645D03*
X0089489Y0159645D03*
X0089389Y0159645D03*
X0089289Y0159645D03*
X0089189Y0159645D03*
X0089089Y0159645D03*
X0088989Y0159645D03*
X0088889Y0159645D03*
X0088789Y0159645D03*
X0088689Y0159645D03*
X0084789Y0159545D03*
X0070389Y0164845D03*
X0093389Y0131745D03*
X0092289Y0108145D03*
D62*
X0093189Y0146095D03*
X0093289Y0146095D03*
X0078689Y0150895D03*
X0076589Y0169295D03*
X0074389Y0173595D03*
X0073689Y0181295D03*
X0073889Y0181395D03*
X0073989Y0181395D03*
X0074089Y0181495D03*
X0074289Y0181595D03*
X0074389Y0181595D03*
X0073689Y0189095D03*
X0081889Y0189295D03*
X0081989Y0189295D03*
X0082089Y0189295D03*
X0082189Y0189295D03*
X0082289Y0189295D03*
X0082389Y0189295D03*
X0082489Y0189295D03*
X0082589Y0189295D03*
X0082689Y0189295D03*
D63*
X0070489Y0164845D03*
X0074689Y0161845D03*
X0085589Y0131845D03*
X0093189Y0131745D03*
D64*
X0084789Y0140895D03*
X0084789Y0151295D03*
X0078389Y0151195D03*
X0092989Y0146095D03*
X0093089Y0146095D03*
X0074189Y0173295D03*
X0073089Y0180995D03*
X0073289Y0181095D03*
X0073489Y0181195D03*
X0073789Y0189095D03*
X0079189Y0189395D03*
X0079289Y0189395D03*
X0079389Y0189395D03*
X0079489Y0189395D03*
X0079589Y0189395D03*
X0079689Y0189395D03*
X0079789Y0189395D03*
X0079889Y0189395D03*
X0079989Y0189395D03*
X0080089Y0189395D03*
X0080189Y0189395D03*
X0080289Y0189395D03*
D65*
X0085689Y0131845D03*
X0093089Y0131745D03*
D66*
X0092989Y0131795D03*
X0085789Y0131895D03*
X0070589Y0164895D03*
D67*
X0076489Y0169045D03*
X0074089Y0173245D03*
X0072889Y0180845D03*
X0072789Y0180845D03*
X0072989Y0180945D03*
X0073189Y0181045D03*
X0073889Y0189145D03*
X0078289Y0189345D03*
X0078389Y0189345D03*
X0078489Y0189345D03*
X0078589Y0189345D03*
X0078689Y0189345D03*
X0078789Y0189345D03*
X0078889Y0189345D03*
X0078989Y0189345D03*
X0079089Y0189345D03*
X0078289Y0151345D03*
X0078889Y0150845D03*
X0092889Y0146045D03*
D68*
X0092889Y0131745D03*
X0085989Y0131845D03*
X0085889Y0131845D03*
D69*
X0084989Y0140895D03*
X0084889Y0140895D03*
X0092689Y0146095D03*
X0092789Y0146095D03*
X0084989Y0151295D03*
X0084889Y0151295D03*
X0078189Y0151495D03*
X0073889Y0172895D03*
X0073989Y0172995D03*
X0072389Y0180595D03*
X0072589Y0180695D03*
X0072689Y0180795D03*
X0077989Y0189295D03*
X0078089Y0189295D03*
X0078189Y0189295D03*
D70*
X0092789Y0131795D03*
D71*
X0086489Y0128245D03*
X0086289Y0117645D03*
X0085889Y0117145D03*
X0085789Y0117045D03*
X0085689Y0116945D03*
X0085589Y0116845D03*
X0085389Y0116545D03*
X0085289Y0116445D03*
X0085189Y0116345D03*
X0085089Y0116245D03*
X0084989Y0116045D03*
X0084889Y0115945D03*
X0084789Y0115845D03*
X0092789Y0116845D03*
X0076889Y0170045D03*
X0076089Y0182245D03*
X0075989Y0182245D03*
X0076189Y0182345D03*
X0076289Y0182345D03*
X0076389Y0182345D03*
X0076589Y0182445D03*
X0073289Y0188945D03*
X0073189Y0188945D03*
X0087189Y0188445D03*
X0087489Y0188345D03*
X0087589Y0188345D03*
X0087689Y0188245D03*
X0087789Y0188245D03*
X0087889Y0188245D03*
X0088089Y0188145D03*
X0088189Y0188145D03*
X0088389Y0188045D03*
X0088489Y0188045D03*
X0088689Y0187945D03*
X0088789Y0187945D03*
X0088989Y0187845D03*
X0089289Y0187745D03*
X0089489Y0187645D03*
X0089789Y0187545D03*
D72*
X0092689Y0131845D03*
X0086189Y0131845D03*
X0086089Y0131845D03*
D73*
X0085489Y0140995D03*
X0085389Y0140995D03*
X0085289Y0140995D03*
X0092489Y0146095D03*
X0092589Y0146095D03*
X0085489Y0151195D03*
X0085389Y0151195D03*
X0085289Y0151195D03*
X0078089Y0151595D03*
X0076389Y0168695D03*
X0073789Y0172695D03*
X0071889Y0180295D03*
X0071989Y0180395D03*
X0072089Y0180395D03*
X0074089Y0189195D03*
D74*
X0092489Y0131795D03*
X0092589Y0131795D03*
D75*
X0085689Y0141045D03*
X0085589Y0141045D03*
X0092389Y0146045D03*
X0085689Y0151145D03*
X0085589Y0151145D03*
X0079189Y0150845D03*
X0077989Y0151745D03*
X0069589Y0164045D03*
X0073689Y0172545D03*
X0071689Y0180145D03*
X0071789Y0180245D03*
D76*
X0074789Y0161845D03*
X0086289Y0131845D03*
X0086389Y0131845D03*
X0092289Y0131845D03*
X0092389Y0131845D03*
D77*
X0085889Y0141095D03*
X0085789Y0141095D03*
X0092289Y0146095D03*
X0085889Y0151095D03*
X0085789Y0151095D03*
X0079389Y0150695D03*
X0079289Y0150795D03*
X0077889Y0151895D03*
X0073589Y0172395D03*
X0071289Y0179895D03*
X0071389Y0179995D03*
X0071489Y0179995D03*
X0071589Y0180095D03*
X0074189Y0189195D03*
X0074289Y0189195D03*
D78*
X0074389Y0189245D03*
X0071189Y0179845D03*
X0071089Y0179745D03*
X0076289Y0168345D03*
X0077789Y0152045D03*
X0085989Y0151045D03*
X0086089Y0151045D03*
X0086189Y0151045D03*
X0092189Y0146045D03*
X0086189Y0141145D03*
X0086089Y0141145D03*
X0085989Y0141145D03*
D79*
X0092189Y0131795D03*
X0070689Y0164895D03*
D80*
X0073489Y0172195D03*
X0070889Y0179595D03*
X0070989Y0179695D03*
X0086289Y0150995D03*
X0086389Y0150995D03*
X0092089Y0146095D03*
X0086489Y0141195D03*
X0086389Y0141195D03*
X0086289Y0141195D03*
D81*
X0085289Y0131895D03*
X0088589Y0108195D03*
X0088689Y0108195D03*
X0088789Y0108195D03*
X0088889Y0108195D03*
X0088989Y0108195D03*
X0089089Y0108195D03*
X0089189Y0108195D03*
X0089289Y0108195D03*
X0089389Y0108195D03*
X0089489Y0108195D03*
X0089589Y0108195D03*
X0089689Y0108195D03*
X0089789Y0108195D03*
X0089889Y0108195D03*
X0089889Y0159695D03*
X0089989Y0159695D03*
X0088589Y0159695D03*
X0088489Y0159695D03*
D82*
X0076889Y0153645D03*
X0072689Y0170345D03*
X0067789Y0176645D03*
X0067589Y0176545D03*
X0065289Y0175745D03*
X0065189Y0175745D03*
X0075789Y0189645D03*
X0076089Y0189545D03*
X0088289Y0121745D03*
X0089989Y0121745D03*
D83*
X0089889Y0121795D03*
X0067489Y0176495D03*
X0075689Y0189595D03*
D84*
X0067189Y0176295D03*
X0067089Y0176195D03*
X0065489Y0175695D03*
X0076989Y0153395D03*
X0084689Y0131895D03*
X0088489Y0121895D03*
X0089689Y0121895D03*
D85*
X0089589Y0121995D03*
X0077089Y0153195D03*
X0069789Y0164395D03*
X0066789Y0175995D03*
X0066889Y0176095D03*
X0075389Y0189495D03*
X0076289Y0189195D03*
D86*
X0075289Y0189445D03*
X0066689Y0175945D03*
X0065689Y0175645D03*
X0072889Y0170945D03*
X0088689Y0122045D03*
X0089489Y0122045D03*
D87*
X0089389Y0122095D03*
X0088789Y0122095D03*
X0077189Y0153095D03*
X0076089Y0167495D03*
X0066589Y0175895D03*
X0066489Y0175795D03*
X0065889Y0175595D03*
X0065789Y0175595D03*
X0076389Y0188995D03*
X0077789Y0188495D03*
X0077889Y0188495D03*
D88*
X0075189Y0189445D03*
X0066389Y0175745D03*
X0072989Y0171145D03*
X0088889Y0122145D03*
X0089289Y0122145D03*
D89*
X0089189Y0122195D03*
X0089089Y0122195D03*
X0088989Y0122195D03*
X0077289Y0152895D03*
X0066189Y0175595D03*
X0066089Y0175595D03*
X0065989Y0175595D03*
X0066289Y0175695D03*
X0074989Y0189395D03*
X0075089Y0189395D03*
X0077489Y0188495D03*
X0077589Y0188495D03*
X0077689Y0188495D03*
D90*
X0075489Y0189545D03*
X0066989Y0176145D03*
X0065589Y0175645D03*
X0088589Y0121945D03*
D91*
X0088189Y0121695D03*
X0076489Y0155095D03*
X0067689Y0176595D03*
X0067889Y0176695D03*
X0065089Y0175795D03*
D92*
X0087789Y0179895D03*
D93*
X0074489Y0189245D03*
X0070789Y0179545D03*
X0070689Y0179445D03*
X0073389Y0172045D03*
X0077689Y0152245D03*
X0086489Y0150945D03*
X0086589Y0150945D03*
X0086589Y0141245D03*
D94*
X0074789Y0174145D03*
X0074889Y0174245D03*
X0074889Y0181845D03*
X0074989Y0181845D03*
X0075089Y0181945D03*
X0075189Y0181945D03*
X0075389Y0182045D03*
X0075489Y0182045D03*
X0084289Y0189045D03*
X0084389Y0189045D03*
X0084489Y0189045D03*
X0084589Y0189045D03*
X0084889Y0188945D03*
X0084989Y0188945D03*
X0085089Y0188945D03*
X0085189Y0188945D03*
X0085289Y0188945D03*
X0085489Y0188845D03*
X0085589Y0188845D03*
X0085789Y0188745D03*
X0085889Y0188745D03*
X0086289Y0188645D03*
X0086389Y0188645D03*
D95*
X0085489Y0131895D03*
D96*
X0085189Y0140945D03*
X0085089Y0140945D03*
X0085089Y0151245D03*
X0085189Y0151245D03*
X0079089Y0150845D03*
X0078989Y0150845D03*
X0072189Y0180445D03*
X0072289Y0180545D03*
X0072489Y0180645D03*
X0073989Y0189145D03*
D97*
X0070289Y0164795D03*
X0085189Y0131895D03*
D98*
X0085089Y0131895D03*
D99*
X0084989Y0131895D03*
X0076089Y0156795D03*
D100*
X0076289Y0155895D03*
X0069389Y0177495D03*
X0069489Y0177595D03*
X0084789Y0131895D03*
D101*
X0078589Y0150945D03*
X0076689Y0169545D03*
X0074489Y0173745D03*
X0074589Y0173845D03*
X0074189Y0181545D03*
X0074489Y0181645D03*
X0074689Y0181745D03*
X0073589Y0189045D03*
X0082789Y0189245D03*
X0082889Y0189245D03*
X0082989Y0189245D03*
D102*
X0081789Y0189345D03*
X0081689Y0189345D03*
X0081589Y0189345D03*
X0081489Y0189345D03*
X0081389Y0189345D03*
X0081289Y0189345D03*
X0081189Y0189345D03*
X0081089Y0189345D03*
X0080989Y0189345D03*
X0080889Y0189345D03*
X0080789Y0189345D03*
X0080689Y0189345D03*
X0080589Y0189345D03*
X0080489Y0189345D03*
X0080389Y0189345D03*
X0073789Y0181345D03*
X0073589Y0181245D03*
X0073389Y0181145D03*
X0074289Y0173445D03*
X0078489Y0151045D03*
X0078789Y0150845D03*
D103*
X0077589Y0152395D03*
X0074289Y0161895D03*
X0070389Y0179195D03*
X0070489Y0179295D03*
X0070589Y0179395D03*
X0074589Y0189295D03*
D104*
X0074789Y0189345D03*
X0074889Y0189345D03*
X0076689Y0188645D03*
X0076789Y0188645D03*
X0076889Y0188645D03*
X0077489Y0152545D03*
D105*
X0077389Y0152745D03*
X0077389Y0188545D03*
X0077289Y0188545D03*
D106*
X0077189Y0188595D03*
X0077089Y0188595D03*
X0076989Y0188595D03*
X0076589Y0188695D03*
X0076489Y0188795D03*
X0069789Y0178695D03*
X0069689Y0178595D03*
X0069589Y0178495D03*
X0073089Y0171395D03*
X0069689Y0164295D03*
D107*
X0064889Y0175845D03*
X0064589Y0175945D03*
X0068489Y0177045D03*
X0068589Y0177045D03*
X0068689Y0177145D03*
X0076789Y0153845D03*
D108*
X0076589Y0154295D03*
D109*
X0076389Y0155495D03*
X0074389Y0161895D03*
X0068289Y0176895D03*
X0068389Y0176995D03*
X0064989Y0175795D03*
D110*
X0069889Y0178795D03*
X0069989Y0178895D03*
X0073189Y0171595D03*
X0076189Y0167995D03*
D111*
X0070089Y0164645D03*
X0076189Y0156245D03*
D112*
X0069889Y0164545D03*
X0067989Y0176745D03*
X0068089Y0176845D03*
X0068189Y0176845D03*
X0075889Y0189645D03*
X0075989Y0189645D03*
D113*
X0075989Y0161545D03*
D114*
X0075889Y0161595D03*
D115*
X0075789Y0161645D03*
D116*
X0075689Y0161645D03*
D117*
X0075589Y0161645D03*
D118*
X0075489Y0161645D03*
D119*
X0075389Y0161695D03*
D120*
X0075289Y0161695D03*
D121*
X0075189Y0161695D03*
D122*
X0075089Y0161695D03*
D123*
X0074989Y0161745D03*
D124*
X0074889Y0161795D03*
D125*
X0073289Y0171845D03*
X0070089Y0178945D03*
X0070189Y0179045D03*
X0070289Y0179145D03*
X0074689Y0189345D03*
D126*
X0074489Y0161895D03*
D127*
X0072289Y0167245D03*
D128*
X0072189Y0166995D03*
X0072089Y0166895D03*
X0071989Y0166695D03*
X0071889Y0166595D03*
X0071789Y0166395D03*
X0071689Y0166195D03*
X0071589Y0166095D03*
X0071489Y0165895D03*
X0071289Y0165495D03*
X0071189Y0165295D03*
X0071089Y0165195D03*
D129*
X0071389Y0165745D03*
D130*
X0070989Y0165045D03*
D131*
X0070889Y0164945D03*
D132*
X0070789Y0164945D03*
D133*
X0070189Y0164745D03*
D134*
X0064789Y0175895D03*
X0064689Y0175895D03*
X0068789Y0177195D03*
X0068889Y0177295D03*
X0068989Y0177295D03*
D135*
X0146699Y0200615D02*
X0148234Y0202149D01*
X0151303Y0202149D01*
X0150536Y0203684D02*
X0151303Y0204451D01*
X0151303Y0205986D01*
X0150536Y0206753D01*
X0149768Y0206753D01*
X0146699Y0203684D01*
X0146699Y0206753D01*
X0146699Y0208288D02*
X0146699Y0209055D01*
X0147467Y0209055D01*
X0147467Y0208288D01*
X0146699Y0208288D01*
X0147467Y0210590D02*
X0150536Y0213659D01*
X0147467Y0213659D01*
X0146699Y0212892D01*
X0146699Y0211357D01*
X0147467Y0210590D01*
X0150536Y0210590D01*
X0151303Y0211357D01*
X0151303Y0212892D01*
X0150536Y0213659D01*
X0154199Y0212892D02*
X0157268Y0212892D01*
X0155734Y0212892D02*
X0157268Y0214426D01*
X0157268Y0215194D01*
X0157268Y0216728D02*
X0157268Y0219030D01*
X0156501Y0219798D01*
X0154967Y0219798D01*
X0154199Y0219030D01*
X0154199Y0216728D01*
X0158803Y0216728D01*
X0161699Y0214426D02*
X0166303Y0214426D01*
X0166303Y0212892D02*
X0166303Y0215961D01*
X0166303Y0211357D02*
X0166303Y0208288D01*
X0166303Y0209822D02*
X0161699Y0209822D01*
X0161699Y0206753D02*
X0163234Y0205219D01*
X0162467Y0206753D02*
X0161699Y0205986D01*
X0161699Y0204451D01*
X0162467Y0203684D01*
X0165536Y0203684D01*
X0166303Y0204451D01*
X0166303Y0205986D01*
X0165536Y0206753D01*
X0162467Y0206753D01*
X0161699Y0202149D02*
X0166303Y0202149D01*
X0164768Y0200615D01*
X0166303Y0199080D01*
X0161699Y0199080D01*
X0158803Y0202149D02*
X0154199Y0202149D01*
X0154199Y0199847D01*
X0154967Y0199080D01*
X0156501Y0199080D01*
X0157268Y0199847D01*
X0157268Y0202149D01*
X0156501Y0203684D02*
X0154967Y0203684D01*
X0154199Y0204451D01*
X0154199Y0205986D01*
X0154967Y0206753D01*
X0156501Y0206753D01*
X0157268Y0205986D01*
X0157268Y0204451D01*
X0156501Y0203684D01*
X0156501Y0208288D02*
X0154967Y0208288D01*
X0154199Y0209055D01*
X0154199Y0210590D01*
X0154967Y0211357D01*
X0156501Y0211357D01*
X0157268Y0210590D01*
X0157268Y0209055D01*
X0156501Y0208288D01*
X0151303Y0199080D02*
X0148234Y0199080D01*
X0146699Y0200615D01*
X0154967Y0221332D02*
X0156501Y0221332D01*
X0157268Y0222100D01*
X0157268Y0223634D01*
X0156501Y0224402D01*
X0155734Y0224402D01*
X0155734Y0221332D01*
X0154967Y0221332D02*
X0154199Y0222100D01*
X0154199Y0223634D01*
X0154199Y0225936D02*
X0154199Y0227471D01*
X0154199Y0226703D02*
X0158803Y0226703D01*
X0158803Y0225936D01*
X0167971Y0062649D02*
X0167971Y0059179D01*
X0169706Y0060914D02*
X0166236Y0060914D01*
X0158288Y0052099D02*
X0155686Y0052099D01*
X0154819Y0051232D01*
X0154819Y0050364D01*
X0155686Y0049497D01*
X0158288Y0049497D01*
X0158288Y0052099D02*
X0158288Y0046894D01*
X0155686Y0046894D01*
X0154819Y0047762D01*
X0154819Y0048629D01*
X0155686Y0049497D01*
X0153132Y0049497D02*
X0152264Y0050364D01*
X0150530Y0050364D01*
X0149662Y0049497D01*
X0149662Y0048629D01*
X0153132Y0048629D01*
X0153132Y0047762D02*
X0153132Y0049497D01*
X0153132Y0047762D02*
X0152264Y0046894D01*
X0150530Y0046894D01*
X0147975Y0046894D02*
X0146241Y0046894D01*
X0147108Y0046894D02*
X0147108Y0052099D01*
X0147975Y0052099D01*
X0144538Y0052099D02*
X0143670Y0052099D01*
X0143670Y0046894D01*
X0142803Y0046894D02*
X0144538Y0046894D01*
X0146551Y0061701D02*
X0150020Y0061701D01*
D136*
X0048227Y0211167D02*
X0048229Y0211247D01*
X0048235Y0211326D01*
X0048245Y0211405D01*
X0048259Y0211484D01*
X0048276Y0211562D01*
X0048298Y0211639D01*
X0048323Y0211714D01*
X0048353Y0211788D01*
X0048385Y0211861D01*
X0048422Y0211932D01*
X0048462Y0212001D01*
X0048505Y0212068D01*
X0048552Y0212133D01*
X0048601Y0212195D01*
X0048654Y0212255D01*
X0048710Y0212312D01*
X0048768Y0212367D01*
X0048829Y0212418D01*
X0048893Y0212466D01*
X0048959Y0212511D01*
X0049027Y0212553D01*
X0049097Y0212591D01*
X0049169Y0212625D01*
X0049242Y0212656D01*
X0049317Y0212684D01*
X0049394Y0212707D01*
X0049471Y0212727D01*
X0049549Y0212743D01*
X0049628Y0212755D01*
X0049707Y0212763D01*
X0049787Y0212767D01*
X0049867Y0212767D01*
X0049947Y0212763D01*
X0050026Y0212755D01*
X0050105Y0212743D01*
X0050183Y0212727D01*
X0050260Y0212707D01*
X0050337Y0212684D01*
X0050412Y0212656D01*
X0050485Y0212625D01*
X0050557Y0212591D01*
X0050627Y0212553D01*
X0050695Y0212511D01*
X0050761Y0212466D01*
X0050825Y0212418D01*
X0050886Y0212367D01*
X0050944Y0212312D01*
X0051000Y0212255D01*
X0051053Y0212195D01*
X0051102Y0212133D01*
X0051149Y0212068D01*
X0051192Y0212001D01*
X0051232Y0211932D01*
X0051269Y0211861D01*
X0051301Y0211788D01*
X0051331Y0211714D01*
X0051356Y0211639D01*
X0051378Y0211562D01*
X0051395Y0211484D01*
X0051409Y0211405D01*
X0051419Y0211326D01*
X0051425Y0211247D01*
X0051427Y0211167D01*
X0051425Y0211087D01*
X0051419Y0211008D01*
X0051409Y0210929D01*
X0051395Y0210850D01*
X0051378Y0210772D01*
X0051356Y0210695D01*
X0051331Y0210620D01*
X0051301Y0210546D01*
X0051269Y0210473D01*
X0051232Y0210402D01*
X0051192Y0210333D01*
X0051149Y0210266D01*
X0051102Y0210201D01*
X0051053Y0210139D01*
X0051000Y0210079D01*
X0050944Y0210022D01*
X0050886Y0209967D01*
X0050825Y0209916D01*
X0050761Y0209868D01*
X0050695Y0209823D01*
X0050627Y0209781D01*
X0050557Y0209743D01*
X0050485Y0209709D01*
X0050412Y0209678D01*
X0050337Y0209650D01*
X0050260Y0209627D01*
X0050183Y0209607D01*
X0050105Y0209591D01*
X0050026Y0209579D01*
X0049947Y0209571D01*
X0049867Y0209567D01*
X0049787Y0209567D01*
X0049707Y0209571D01*
X0049628Y0209579D01*
X0049549Y0209591D01*
X0049471Y0209607D01*
X0049394Y0209627D01*
X0049317Y0209650D01*
X0049242Y0209678D01*
X0049169Y0209709D01*
X0049097Y0209743D01*
X0049027Y0209781D01*
X0048959Y0209823D01*
X0048893Y0209868D01*
X0048829Y0209916D01*
X0048768Y0209967D01*
X0048710Y0210022D01*
X0048654Y0210079D01*
X0048601Y0210139D01*
X0048552Y0210201D01*
X0048505Y0210266D01*
X0048462Y0210333D01*
X0048422Y0210402D01*
X0048385Y0210473D01*
X0048353Y0210546D01*
X0048323Y0210620D01*
X0048298Y0210695D01*
X0048276Y0210772D01*
X0048259Y0210850D01*
X0048245Y0210929D01*
X0048235Y0211008D01*
X0048229Y0211087D01*
X0048227Y0211167D01*
X0048227Y0223167D02*
X0048229Y0223247D01*
X0048235Y0223326D01*
X0048245Y0223405D01*
X0048259Y0223484D01*
X0048276Y0223562D01*
X0048298Y0223639D01*
X0048323Y0223714D01*
X0048353Y0223788D01*
X0048385Y0223861D01*
X0048422Y0223932D01*
X0048462Y0224001D01*
X0048505Y0224068D01*
X0048552Y0224133D01*
X0048601Y0224195D01*
X0048654Y0224255D01*
X0048710Y0224312D01*
X0048768Y0224367D01*
X0048829Y0224418D01*
X0048893Y0224466D01*
X0048959Y0224511D01*
X0049027Y0224553D01*
X0049097Y0224591D01*
X0049169Y0224625D01*
X0049242Y0224656D01*
X0049317Y0224684D01*
X0049394Y0224707D01*
X0049471Y0224727D01*
X0049549Y0224743D01*
X0049628Y0224755D01*
X0049707Y0224763D01*
X0049787Y0224767D01*
X0049867Y0224767D01*
X0049947Y0224763D01*
X0050026Y0224755D01*
X0050105Y0224743D01*
X0050183Y0224727D01*
X0050260Y0224707D01*
X0050337Y0224684D01*
X0050412Y0224656D01*
X0050485Y0224625D01*
X0050557Y0224591D01*
X0050627Y0224553D01*
X0050695Y0224511D01*
X0050761Y0224466D01*
X0050825Y0224418D01*
X0050886Y0224367D01*
X0050944Y0224312D01*
X0051000Y0224255D01*
X0051053Y0224195D01*
X0051102Y0224133D01*
X0051149Y0224068D01*
X0051192Y0224001D01*
X0051232Y0223932D01*
X0051269Y0223861D01*
X0051301Y0223788D01*
X0051331Y0223714D01*
X0051356Y0223639D01*
X0051378Y0223562D01*
X0051395Y0223484D01*
X0051409Y0223405D01*
X0051419Y0223326D01*
X0051425Y0223247D01*
X0051427Y0223167D01*
X0051425Y0223087D01*
X0051419Y0223008D01*
X0051409Y0222929D01*
X0051395Y0222850D01*
X0051378Y0222772D01*
X0051356Y0222695D01*
X0051331Y0222620D01*
X0051301Y0222546D01*
X0051269Y0222473D01*
X0051232Y0222402D01*
X0051192Y0222333D01*
X0051149Y0222266D01*
X0051102Y0222201D01*
X0051053Y0222139D01*
X0051000Y0222079D01*
X0050944Y0222022D01*
X0050886Y0221967D01*
X0050825Y0221916D01*
X0050761Y0221868D01*
X0050695Y0221823D01*
X0050627Y0221781D01*
X0050557Y0221743D01*
X0050485Y0221709D01*
X0050412Y0221678D01*
X0050337Y0221650D01*
X0050260Y0221627D01*
X0050183Y0221607D01*
X0050105Y0221591D01*
X0050026Y0221579D01*
X0049947Y0221571D01*
X0049867Y0221567D01*
X0049787Y0221567D01*
X0049707Y0221571D01*
X0049628Y0221579D01*
X0049549Y0221591D01*
X0049471Y0221607D01*
X0049394Y0221627D01*
X0049317Y0221650D01*
X0049242Y0221678D01*
X0049169Y0221709D01*
X0049097Y0221743D01*
X0049027Y0221781D01*
X0048959Y0221823D01*
X0048893Y0221868D01*
X0048829Y0221916D01*
X0048768Y0221967D01*
X0048710Y0222022D01*
X0048654Y0222079D01*
X0048601Y0222139D01*
X0048552Y0222201D01*
X0048505Y0222266D01*
X0048462Y0222333D01*
X0048422Y0222402D01*
X0048385Y0222473D01*
X0048353Y0222546D01*
X0048323Y0222620D01*
X0048298Y0222695D01*
X0048276Y0222772D01*
X0048259Y0222850D01*
X0048245Y0222929D01*
X0048235Y0223008D01*
X0048229Y0223087D01*
X0048227Y0223167D01*
X0018036Y0202403D02*
X0018038Y0202489D01*
X0018044Y0202576D01*
X0018054Y0202661D01*
X0018068Y0202747D01*
X0018086Y0202831D01*
X0018107Y0202915D01*
X0018133Y0202997D01*
X0018162Y0203079D01*
X0018195Y0203158D01*
X0018232Y0203237D01*
X0018272Y0203313D01*
X0018316Y0203387D01*
X0018363Y0203460D01*
X0018414Y0203530D01*
X0018467Y0203598D01*
X0018524Y0203663D01*
X0018584Y0203725D01*
X0018646Y0203785D01*
X0018711Y0203842D01*
X0018779Y0203895D01*
X0018849Y0203946D01*
X0018922Y0203993D01*
X0018996Y0204037D01*
X0019072Y0204077D01*
X0019151Y0204114D01*
X0019230Y0204147D01*
X0019312Y0204176D01*
X0019394Y0204202D01*
X0019478Y0204223D01*
X0019562Y0204241D01*
X0019648Y0204255D01*
X0019733Y0204265D01*
X0019820Y0204271D01*
X0019906Y0204273D01*
X0019992Y0204271D01*
X0020079Y0204265D01*
X0020164Y0204255D01*
X0020250Y0204241D01*
X0020334Y0204223D01*
X0020418Y0204202D01*
X0020500Y0204176D01*
X0020582Y0204147D01*
X0020661Y0204114D01*
X0020740Y0204077D01*
X0020816Y0204037D01*
X0020890Y0203993D01*
X0020963Y0203946D01*
X0021033Y0203895D01*
X0021101Y0203842D01*
X0021166Y0203785D01*
X0021228Y0203725D01*
X0021288Y0203663D01*
X0021345Y0203598D01*
X0021398Y0203530D01*
X0021449Y0203460D01*
X0021496Y0203387D01*
X0021540Y0203313D01*
X0021580Y0203237D01*
X0021617Y0203158D01*
X0021650Y0203079D01*
X0021679Y0202997D01*
X0021705Y0202915D01*
X0021726Y0202831D01*
X0021744Y0202747D01*
X0021758Y0202661D01*
X0021768Y0202576D01*
X0021774Y0202489D01*
X0021776Y0202403D01*
X0021774Y0202317D01*
X0021768Y0202230D01*
X0021758Y0202145D01*
X0021744Y0202059D01*
X0021726Y0201975D01*
X0021705Y0201891D01*
X0021679Y0201809D01*
X0021650Y0201727D01*
X0021617Y0201648D01*
X0021580Y0201569D01*
X0021540Y0201493D01*
X0021496Y0201419D01*
X0021449Y0201346D01*
X0021398Y0201276D01*
X0021345Y0201208D01*
X0021288Y0201143D01*
X0021228Y0201081D01*
X0021166Y0201021D01*
X0021101Y0200964D01*
X0021033Y0200911D01*
X0020963Y0200860D01*
X0020890Y0200813D01*
X0020816Y0200769D01*
X0020740Y0200729D01*
X0020661Y0200692D01*
X0020582Y0200659D01*
X0020500Y0200630D01*
X0020418Y0200604D01*
X0020334Y0200583D01*
X0020250Y0200565D01*
X0020164Y0200551D01*
X0020079Y0200541D01*
X0019992Y0200535D01*
X0019906Y0200533D01*
X0019820Y0200535D01*
X0019733Y0200541D01*
X0019648Y0200551D01*
X0019562Y0200565D01*
X0019478Y0200583D01*
X0019394Y0200604D01*
X0019312Y0200630D01*
X0019230Y0200659D01*
X0019151Y0200692D01*
X0019072Y0200729D01*
X0018996Y0200769D01*
X0018922Y0200813D01*
X0018849Y0200860D01*
X0018779Y0200911D01*
X0018711Y0200964D01*
X0018646Y0201021D01*
X0018584Y0201081D01*
X0018524Y0201143D01*
X0018467Y0201208D01*
X0018414Y0201276D01*
X0018363Y0201346D01*
X0018316Y0201419D01*
X0018272Y0201493D01*
X0018232Y0201569D01*
X0018195Y0201648D01*
X0018162Y0201727D01*
X0018133Y0201809D01*
X0018107Y0201891D01*
X0018086Y0201975D01*
X0018068Y0202059D01*
X0018054Y0202145D01*
X0018044Y0202230D01*
X0018038Y0202317D01*
X0018036Y0202403D01*
X0018036Y0193348D02*
X0018038Y0193434D01*
X0018044Y0193521D01*
X0018054Y0193606D01*
X0018068Y0193692D01*
X0018086Y0193776D01*
X0018107Y0193860D01*
X0018133Y0193942D01*
X0018162Y0194024D01*
X0018195Y0194103D01*
X0018232Y0194182D01*
X0018272Y0194258D01*
X0018316Y0194332D01*
X0018363Y0194405D01*
X0018414Y0194475D01*
X0018467Y0194543D01*
X0018524Y0194608D01*
X0018584Y0194670D01*
X0018646Y0194730D01*
X0018711Y0194787D01*
X0018779Y0194840D01*
X0018849Y0194891D01*
X0018922Y0194938D01*
X0018996Y0194982D01*
X0019072Y0195022D01*
X0019151Y0195059D01*
X0019230Y0195092D01*
X0019312Y0195121D01*
X0019394Y0195147D01*
X0019478Y0195168D01*
X0019562Y0195186D01*
X0019648Y0195200D01*
X0019733Y0195210D01*
X0019820Y0195216D01*
X0019906Y0195218D01*
X0019992Y0195216D01*
X0020079Y0195210D01*
X0020164Y0195200D01*
X0020250Y0195186D01*
X0020334Y0195168D01*
X0020418Y0195147D01*
X0020500Y0195121D01*
X0020582Y0195092D01*
X0020661Y0195059D01*
X0020740Y0195022D01*
X0020816Y0194982D01*
X0020890Y0194938D01*
X0020963Y0194891D01*
X0021033Y0194840D01*
X0021101Y0194787D01*
X0021166Y0194730D01*
X0021228Y0194670D01*
X0021288Y0194608D01*
X0021345Y0194543D01*
X0021398Y0194475D01*
X0021449Y0194405D01*
X0021496Y0194332D01*
X0021540Y0194258D01*
X0021580Y0194182D01*
X0021617Y0194103D01*
X0021650Y0194024D01*
X0021679Y0193942D01*
X0021705Y0193860D01*
X0021726Y0193776D01*
X0021744Y0193692D01*
X0021758Y0193606D01*
X0021768Y0193521D01*
X0021774Y0193434D01*
X0021776Y0193348D01*
X0021774Y0193262D01*
X0021768Y0193175D01*
X0021758Y0193090D01*
X0021744Y0193004D01*
X0021726Y0192920D01*
X0021705Y0192836D01*
X0021679Y0192754D01*
X0021650Y0192672D01*
X0021617Y0192593D01*
X0021580Y0192514D01*
X0021540Y0192438D01*
X0021496Y0192364D01*
X0021449Y0192291D01*
X0021398Y0192221D01*
X0021345Y0192153D01*
X0021288Y0192088D01*
X0021228Y0192026D01*
X0021166Y0191966D01*
X0021101Y0191909D01*
X0021033Y0191856D01*
X0020963Y0191805D01*
X0020890Y0191758D01*
X0020816Y0191714D01*
X0020740Y0191674D01*
X0020661Y0191637D01*
X0020582Y0191604D01*
X0020500Y0191575D01*
X0020418Y0191549D01*
X0020334Y0191528D01*
X0020250Y0191510D01*
X0020164Y0191496D01*
X0020079Y0191486D01*
X0019992Y0191480D01*
X0019906Y0191478D01*
X0019820Y0191480D01*
X0019733Y0191486D01*
X0019648Y0191496D01*
X0019562Y0191510D01*
X0019478Y0191528D01*
X0019394Y0191549D01*
X0019312Y0191575D01*
X0019230Y0191604D01*
X0019151Y0191637D01*
X0019072Y0191674D01*
X0018996Y0191714D01*
X0018922Y0191758D01*
X0018849Y0191805D01*
X0018779Y0191856D01*
X0018711Y0191909D01*
X0018646Y0191966D01*
X0018584Y0192026D01*
X0018524Y0192088D01*
X0018467Y0192153D01*
X0018414Y0192221D01*
X0018363Y0192291D01*
X0018316Y0192364D01*
X0018272Y0192438D01*
X0018232Y0192514D01*
X0018195Y0192593D01*
X0018162Y0192672D01*
X0018133Y0192754D01*
X0018107Y0192836D01*
X0018086Y0192920D01*
X0018068Y0193004D01*
X0018054Y0193090D01*
X0018044Y0193175D01*
X0018038Y0193262D01*
X0018036Y0193348D01*
X0018429Y0105946D02*
X0018431Y0106032D01*
X0018437Y0106119D01*
X0018447Y0106204D01*
X0018461Y0106290D01*
X0018479Y0106374D01*
X0018500Y0106458D01*
X0018526Y0106540D01*
X0018555Y0106622D01*
X0018588Y0106701D01*
X0018625Y0106780D01*
X0018665Y0106856D01*
X0018709Y0106930D01*
X0018756Y0107003D01*
X0018807Y0107073D01*
X0018860Y0107141D01*
X0018917Y0107206D01*
X0018977Y0107268D01*
X0019039Y0107328D01*
X0019104Y0107385D01*
X0019172Y0107438D01*
X0019242Y0107489D01*
X0019315Y0107536D01*
X0019389Y0107580D01*
X0019465Y0107620D01*
X0019544Y0107657D01*
X0019623Y0107690D01*
X0019705Y0107719D01*
X0019787Y0107745D01*
X0019871Y0107766D01*
X0019955Y0107784D01*
X0020041Y0107798D01*
X0020126Y0107808D01*
X0020213Y0107814D01*
X0020299Y0107816D01*
X0020385Y0107814D01*
X0020472Y0107808D01*
X0020557Y0107798D01*
X0020643Y0107784D01*
X0020727Y0107766D01*
X0020811Y0107745D01*
X0020893Y0107719D01*
X0020975Y0107690D01*
X0021054Y0107657D01*
X0021133Y0107620D01*
X0021209Y0107580D01*
X0021283Y0107536D01*
X0021356Y0107489D01*
X0021426Y0107438D01*
X0021494Y0107385D01*
X0021559Y0107328D01*
X0021621Y0107268D01*
X0021681Y0107206D01*
X0021738Y0107141D01*
X0021791Y0107073D01*
X0021842Y0107003D01*
X0021889Y0106930D01*
X0021933Y0106856D01*
X0021973Y0106780D01*
X0022010Y0106701D01*
X0022043Y0106622D01*
X0022072Y0106540D01*
X0022098Y0106458D01*
X0022119Y0106374D01*
X0022137Y0106290D01*
X0022151Y0106204D01*
X0022161Y0106119D01*
X0022167Y0106032D01*
X0022169Y0105946D01*
X0022167Y0105860D01*
X0022161Y0105773D01*
X0022151Y0105688D01*
X0022137Y0105602D01*
X0022119Y0105518D01*
X0022098Y0105434D01*
X0022072Y0105352D01*
X0022043Y0105270D01*
X0022010Y0105191D01*
X0021973Y0105112D01*
X0021933Y0105036D01*
X0021889Y0104962D01*
X0021842Y0104889D01*
X0021791Y0104819D01*
X0021738Y0104751D01*
X0021681Y0104686D01*
X0021621Y0104624D01*
X0021559Y0104564D01*
X0021494Y0104507D01*
X0021426Y0104454D01*
X0021356Y0104403D01*
X0021283Y0104356D01*
X0021209Y0104312D01*
X0021133Y0104272D01*
X0021054Y0104235D01*
X0020975Y0104202D01*
X0020893Y0104173D01*
X0020811Y0104147D01*
X0020727Y0104126D01*
X0020643Y0104108D01*
X0020557Y0104094D01*
X0020472Y0104084D01*
X0020385Y0104078D01*
X0020299Y0104076D01*
X0020213Y0104078D01*
X0020126Y0104084D01*
X0020041Y0104094D01*
X0019955Y0104108D01*
X0019871Y0104126D01*
X0019787Y0104147D01*
X0019705Y0104173D01*
X0019623Y0104202D01*
X0019544Y0104235D01*
X0019465Y0104272D01*
X0019389Y0104312D01*
X0019315Y0104356D01*
X0019242Y0104403D01*
X0019172Y0104454D01*
X0019104Y0104507D01*
X0019039Y0104564D01*
X0018977Y0104624D01*
X0018917Y0104686D01*
X0018860Y0104751D01*
X0018807Y0104819D01*
X0018756Y0104889D01*
X0018709Y0104962D01*
X0018665Y0105036D01*
X0018625Y0105112D01*
X0018588Y0105191D01*
X0018555Y0105270D01*
X0018526Y0105352D01*
X0018500Y0105434D01*
X0018479Y0105518D01*
X0018461Y0105602D01*
X0018447Y0105688D01*
X0018437Y0105773D01*
X0018431Y0105860D01*
X0018429Y0105946D01*
X0018429Y0096891D02*
X0018431Y0096977D01*
X0018437Y0097064D01*
X0018447Y0097149D01*
X0018461Y0097235D01*
X0018479Y0097319D01*
X0018500Y0097403D01*
X0018526Y0097485D01*
X0018555Y0097567D01*
X0018588Y0097646D01*
X0018625Y0097725D01*
X0018665Y0097801D01*
X0018709Y0097875D01*
X0018756Y0097948D01*
X0018807Y0098018D01*
X0018860Y0098086D01*
X0018917Y0098151D01*
X0018977Y0098213D01*
X0019039Y0098273D01*
X0019104Y0098330D01*
X0019172Y0098383D01*
X0019242Y0098434D01*
X0019315Y0098481D01*
X0019389Y0098525D01*
X0019465Y0098565D01*
X0019544Y0098602D01*
X0019623Y0098635D01*
X0019705Y0098664D01*
X0019787Y0098690D01*
X0019871Y0098711D01*
X0019955Y0098729D01*
X0020041Y0098743D01*
X0020126Y0098753D01*
X0020213Y0098759D01*
X0020299Y0098761D01*
X0020385Y0098759D01*
X0020472Y0098753D01*
X0020557Y0098743D01*
X0020643Y0098729D01*
X0020727Y0098711D01*
X0020811Y0098690D01*
X0020893Y0098664D01*
X0020975Y0098635D01*
X0021054Y0098602D01*
X0021133Y0098565D01*
X0021209Y0098525D01*
X0021283Y0098481D01*
X0021356Y0098434D01*
X0021426Y0098383D01*
X0021494Y0098330D01*
X0021559Y0098273D01*
X0021621Y0098213D01*
X0021681Y0098151D01*
X0021738Y0098086D01*
X0021791Y0098018D01*
X0021842Y0097948D01*
X0021889Y0097875D01*
X0021933Y0097801D01*
X0021973Y0097725D01*
X0022010Y0097646D01*
X0022043Y0097567D01*
X0022072Y0097485D01*
X0022098Y0097403D01*
X0022119Y0097319D01*
X0022137Y0097235D01*
X0022151Y0097149D01*
X0022161Y0097064D01*
X0022167Y0096977D01*
X0022169Y0096891D01*
X0022167Y0096805D01*
X0022161Y0096718D01*
X0022151Y0096633D01*
X0022137Y0096547D01*
X0022119Y0096463D01*
X0022098Y0096379D01*
X0022072Y0096297D01*
X0022043Y0096215D01*
X0022010Y0096136D01*
X0021973Y0096057D01*
X0021933Y0095981D01*
X0021889Y0095907D01*
X0021842Y0095834D01*
X0021791Y0095764D01*
X0021738Y0095696D01*
X0021681Y0095631D01*
X0021621Y0095569D01*
X0021559Y0095509D01*
X0021494Y0095452D01*
X0021426Y0095399D01*
X0021356Y0095348D01*
X0021283Y0095301D01*
X0021209Y0095257D01*
X0021133Y0095217D01*
X0021054Y0095180D01*
X0020975Y0095147D01*
X0020893Y0095118D01*
X0020811Y0095092D01*
X0020727Y0095071D01*
X0020643Y0095053D01*
X0020557Y0095039D01*
X0020472Y0095029D01*
X0020385Y0095023D01*
X0020299Y0095021D01*
X0020213Y0095023D01*
X0020126Y0095029D01*
X0020041Y0095039D01*
X0019955Y0095053D01*
X0019871Y0095071D01*
X0019787Y0095092D01*
X0019705Y0095118D01*
X0019623Y0095147D01*
X0019544Y0095180D01*
X0019465Y0095217D01*
X0019389Y0095257D01*
X0019315Y0095301D01*
X0019242Y0095348D01*
X0019172Y0095399D01*
X0019104Y0095452D01*
X0019039Y0095509D01*
X0018977Y0095569D01*
X0018917Y0095631D01*
X0018860Y0095696D01*
X0018807Y0095764D01*
X0018756Y0095834D01*
X0018709Y0095907D01*
X0018665Y0095981D01*
X0018625Y0096057D01*
X0018588Y0096136D01*
X0018555Y0096215D01*
X0018526Y0096297D01*
X0018500Y0096379D01*
X0018479Y0096463D01*
X0018461Y0096547D01*
X0018447Y0096633D01*
X0018437Y0096718D01*
X0018431Y0096805D01*
X0018429Y0096891D01*
M02*
