G75*
%MOIN*%
%OFA0B0*%
%FSLAX25Y25*%
%IPPOS*%
%LPD*%
%AMOC8*
5,1,8,0,0,1.08239X$1,22.5*
%
%ADD10C,0.03200*%
%ADD11C,0.01600*%
%ADD12R,0.11811X0.04724*%
%ADD13C,0.06000*%
%ADD14R,0.11811X0.05512*%
%ADD15R,0.02756X0.04331*%
%ADD16R,0.02756X0.07087*%
%ADD17R,0.07874X0.11024*%
%ADD18R,0.02500X0.05000*%
%ADD19C,0.07050*%
%ADD20R,0.05906X0.08268*%
%ADD21R,0.04724X0.04724*%
%ADD22C,0.07874*%
%ADD23C,0.00875*%
%ADD24R,0.05000X0.02500*%
%ADD25C,0.00000*%
%ADD26R,0.03500X0.05701*%
%ADD27R,0.07000X0.05500*%
%ADD28R,0.04000X0.07000*%
%ADD29R,0.06500X0.06500*%
%ADD30C,0.06500*%
%ADD31R,0.03562X0.03562*%
%ADD32C,0.04000*%
D10*
X0018562Y0047941D02*
X0019181Y0047684D01*
X0019517Y0047651D01*
X0111773Y0047651D01*
X0111773Y0091937D01*
X0112413Y0093481D01*
X0126340Y0107408D01*
X0126340Y0110602D01*
X0126072Y0110549D01*
X0119910Y0110549D01*
X0119910Y0115905D01*
X0119910Y0121261D01*
X0113749Y0121261D01*
X0113246Y0121161D01*
X0112773Y0120965D01*
X0112347Y0120680D01*
X0111985Y0120318D01*
X0111701Y0119892D01*
X0111505Y0119419D01*
X0111405Y0118917D01*
X0111405Y0115905D01*
X0119910Y0115905D01*
X0119910Y0115905D01*
X0119910Y0115905D01*
X0119910Y0121261D01*
X0126072Y0121261D01*
X0126574Y0121161D01*
X0127047Y0120965D01*
X0127473Y0120680D01*
X0127835Y0120318D01*
X0128120Y0119892D01*
X0128177Y0119754D01*
X0129210Y0121132D01*
X0129316Y0121394D01*
X0129707Y0121794D01*
X0130044Y0122243D01*
X0130287Y0122386D01*
X0130484Y0122588D01*
X0130999Y0122808D01*
X0131481Y0123094D01*
X0131761Y0123134D01*
X0132020Y0123245D01*
X0132581Y0123251D01*
X0133135Y0123330D01*
X0133409Y0123260D01*
X0167478Y0123639D01*
X0167500Y0123648D01*
X0168313Y0123648D01*
X0169124Y0123657D01*
X0169147Y0123648D01*
X0169171Y0123648D01*
X0169922Y0123337D01*
X0170675Y0123035D01*
X0170692Y0123018D01*
X0170715Y0123009D01*
X0171289Y0122434D01*
X0171869Y0121867D01*
X0171879Y0121844D01*
X0178195Y0115528D01*
X0179376Y0114347D01*
X0180016Y0112803D01*
X0180016Y0048769D01*
X0180439Y0049077D01*
X0181334Y0050309D01*
X0181805Y0051757D01*
X0181865Y0052519D01*
X0181865Y0175201D01*
X0181691Y0175112D01*
X0180852Y0174839D01*
X0179982Y0174702D01*
X0176541Y0174702D01*
X0176541Y0180301D01*
X0176541Y0180301D01*
X0176541Y0174702D01*
X0173100Y0174702D01*
X0172230Y0174839D01*
X0171391Y0175112D01*
X0170913Y0175356D01*
X0170913Y0173407D01*
X0170480Y0172361D01*
X0170404Y0172285D01*
X0170480Y0172209D01*
X0170913Y0171163D01*
X0170913Y0167407D01*
X0170824Y0167191D01*
X0172963Y0165052D01*
X0174090Y0163925D01*
X0174700Y0162452D01*
X0174700Y0149834D01*
X0174090Y0148362D01*
X0168578Y0142850D01*
X0167451Y0141723D01*
X0165978Y0141113D01*
X0140328Y0141113D01*
X0140581Y0140859D01*
X0143931Y0140859D01*
X0145404Y0140249D01*
X0146531Y0139122D01*
X0147283Y0138369D01*
X0147843Y0138369D01*
X0148728Y0138003D01*
X0149405Y0137326D01*
X0149771Y0136441D01*
X0149771Y0129783D01*
X0149405Y0128898D01*
X0148728Y0128221D01*
X0147843Y0127854D01*
X0143385Y0127854D01*
X0142501Y0128221D01*
X0141824Y0128898D01*
X0141457Y0129783D01*
X0141457Y0132845D01*
X0136825Y0132845D01*
X0135361Y0133451D01*
X0134575Y0133451D01*
X0133690Y0133818D01*
X0133013Y0134495D01*
X0132646Y0135379D01*
X0132646Y0139899D01*
X0133013Y0140784D01*
X0133342Y0141113D01*
X0125896Y0141113D01*
X0123519Y0138736D01*
X0123519Y0135367D01*
X0123086Y0134322D01*
X0122286Y0133522D01*
X0121241Y0133089D01*
X0117484Y0133089D01*
X0116497Y0133497D01*
X0116113Y0133241D01*
X0115561Y0133012D01*
X0114974Y0132896D01*
X0113362Y0132896D01*
X0113362Y0137246D01*
X0113362Y0141596D01*
X0111751Y0141596D01*
X0111164Y0141479D01*
X0110611Y0141250D01*
X0110113Y0140918D01*
X0109690Y0140494D01*
X0109358Y0139997D01*
X0109129Y0139444D01*
X0109012Y0138857D01*
X0109012Y0137246D01*
X0113362Y0137246D01*
X0113362Y0137246D01*
X0113362Y0137246D01*
X0113362Y0141596D01*
X0114974Y0141596D01*
X0115111Y0141568D01*
X0115111Y0146216D01*
X0113547Y0147780D01*
X0100839Y0147780D01*
X0104410Y0144209D01*
X0105020Y0142736D01*
X0105020Y0121068D01*
X0107397Y0121068D01*
X0108282Y0120701D01*
X0108959Y0120024D01*
X0109325Y0119139D01*
X0109325Y0112670D01*
X0108959Y0111785D01*
X0108282Y0111108D01*
X0107397Y0110742D01*
X0094628Y0110742D01*
X0093744Y0111108D01*
X0093066Y0111785D01*
X0092700Y0112670D01*
X0092700Y0119139D01*
X0093066Y0120024D01*
X0093744Y0120701D01*
X0094628Y0121068D01*
X0097006Y0121068D01*
X0097006Y0140280D01*
X0090268Y0147017D01*
X0085724Y0147017D01*
X0085724Y0119519D01*
X0085114Y0118047D01*
X0083986Y0116919D01*
X0080443Y0113376D01*
X0078970Y0112766D01*
X0065565Y0112766D01*
X0064092Y0113376D01*
X0062965Y0114503D01*
X0058343Y0119125D01*
X0058311Y0119046D01*
X0057634Y0118369D01*
X0056749Y0118002D01*
X0051067Y0118002D01*
X0050182Y0118369D01*
X0049505Y0119046D01*
X0049139Y0119931D01*
X0049139Y0125613D01*
X0049505Y0126497D01*
X0049901Y0126893D01*
X0049901Y0127174D01*
X0049742Y0127333D01*
X0047422Y0127333D01*
X0047691Y0127153D01*
X0048053Y0126791D01*
X0048338Y0126365D01*
X0048534Y0125892D01*
X0048634Y0125390D01*
X0048634Y0122772D01*
X0043672Y0122772D01*
X0043672Y0122772D01*
X0048634Y0122772D01*
X0048634Y0120153D01*
X0048534Y0119651D01*
X0048338Y0119178D01*
X0048053Y0118752D01*
X0047691Y0118390D01*
X0047265Y0118105D01*
X0046792Y0117909D01*
X0046290Y0117809D01*
X0043672Y0117809D01*
X0043672Y0122772D01*
X0043672Y0122772D01*
X0043672Y0122772D01*
X0038709Y0122772D01*
X0038709Y0125390D01*
X0038809Y0125892D01*
X0039005Y0126365D01*
X0039290Y0126791D01*
X0039652Y0127153D01*
X0039921Y0127333D01*
X0030526Y0127333D01*
X0029053Y0127943D01*
X0026691Y0130305D01*
X0025564Y0131433D01*
X0024954Y0132905D01*
X0024954Y0135702D01*
X0024611Y0135634D01*
X0022977Y0135634D01*
X0022977Y0140399D01*
X0022977Y0140399D01*
X0018999Y0140399D01*
X0018999Y0137978D01*
X0019099Y0137475D01*
X0019295Y0137002D01*
X0019580Y0136576D01*
X0019942Y0136214D01*
X0020368Y0135930D01*
X0020841Y0135734D01*
X0021343Y0135634D01*
X0022977Y0135634D01*
X0022977Y0140399D01*
X0022977Y0140399D01*
X0018999Y0140399D01*
X0018999Y0142821D01*
X0019099Y0143323D01*
X0019295Y0143796D01*
X0019580Y0144222D01*
X0019942Y0144584D01*
X0020368Y0144869D01*
X0020841Y0145065D01*
X0021343Y0145165D01*
X0022539Y0145165D01*
X0022539Y0156823D01*
X0022905Y0157708D01*
X0023582Y0158385D01*
X0024467Y0158751D01*
X0033298Y0158751D01*
X0034183Y0158385D01*
X0034860Y0157708D01*
X0035227Y0156823D01*
X0035227Y0144972D01*
X0036645Y0144972D01*
X0037530Y0144605D01*
X0037729Y0144406D01*
X0045032Y0144406D01*
X0045032Y0173476D01*
X0045642Y0174949D01*
X0046770Y0176076D01*
X0049919Y0179225D01*
X0051392Y0179835D01*
X0063915Y0179835D01*
X0064717Y0180638D01*
X0064717Y0184188D01*
X0058386Y0184188D01*
X0057869Y0183671D01*
X0056823Y0183238D01*
X0053067Y0183238D01*
X0052021Y0183671D01*
X0051221Y0184471D01*
X0050788Y0185517D01*
X0050788Y0189274D01*
X0051221Y0190319D01*
X0051297Y0190395D01*
X0051221Y0190471D01*
X0050788Y0191517D01*
X0050788Y0195274D01*
X0051221Y0196319D01*
X0051331Y0196430D01*
X0051331Y0199066D01*
X0051942Y0200539D01*
X0053069Y0201666D01*
X0054250Y0202847D01*
X0055723Y0203457D01*
X0060811Y0203457D01*
X0060685Y0203510D01*
X0059348Y0203510D01*
X0058463Y0203876D01*
X0057786Y0204553D01*
X0057420Y0205438D01*
X0057420Y0208896D01*
X0057786Y0209780D01*
X0058463Y0210458D01*
X0059348Y0210824D01*
X0060462Y0210824D01*
X0061687Y0211331D01*
X0068639Y0211331D01*
X0073147Y0215840D01*
X0074620Y0216450D01*
X0090573Y0216450D01*
X0090132Y0217514D01*
X0090132Y0235590D01*
X0090130Y0235618D01*
X0090108Y0235669D01*
X0090069Y0235709D01*
X0090017Y0235730D01*
X0089989Y0235733D01*
X0019517Y0235733D01*
X0019125Y0235702D01*
X0018379Y0235460D01*
X0017745Y0234999D01*
X0017284Y0234365D01*
X0017042Y0233620D01*
X0017011Y0233228D01*
X0017077Y0217783D01*
X0020384Y0217783D01*
X0021269Y0217416D01*
X0021946Y0216739D01*
X0022313Y0215854D01*
X0022313Y0211659D01*
X0022649Y0211726D01*
X0026405Y0211726D01*
X0026405Y0206376D01*
X0026406Y0206376D01*
X0026406Y0211726D01*
X0030162Y0211726D01*
X0030664Y0211626D01*
X0031137Y0211430D01*
X0031563Y0211145D01*
X0031925Y0210783D01*
X0032210Y0210357D01*
X0032406Y0209884D01*
X0032505Y0209382D01*
X0032505Y0209103D01*
X0032786Y0209780D01*
X0033463Y0210458D01*
X0034348Y0210824D01*
X0040306Y0210824D01*
X0041190Y0210458D01*
X0041867Y0209780D01*
X0042234Y0208896D01*
X0042234Y0205438D01*
X0041867Y0204553D01*
X0041190Y0203876D01*
X0040306Y0203510D01*
X0034348Y0203510D01*
X0033463Y0203876D01*
X0032786Y0204553D01*
X0032505Y0205231D01*
X0032505Y0203370D01*
X0032406Y0202867D01*
X0032210Y0202394D01*
X0031925Y0201968D01*
X0031563Y0201606D01*
X0031137Y0201321D01*
X0030664Y0201126D01*
X0030162Y0201026D01*
X0026406Y0201026D01*
X0026406Y0206375D01*
X0026405Y0206375D01*
X0026405Y0201026D01*
X0024173Y0201026D01*
X0023695Y0199871D01*
X0022438Y0198614D01*
X0020795Y0197933D01*
X0019016Y0197933D01*
X0017373Y0198614D01*
X0017158Y0198829D01*
X0017166Y0196931D01*
X0017373Y0197138D01*
X0019016Y0197818D01*
X0020795Y0197818D01*
X0022438Y0197138D01*
X0023695Y0195880D01*
X0024253Y0194533D01*
X0030384Y0194533D01*
X0031269Y0194166D01*
X0031946Y0193489D01*
X0032313Y0192604D01*
X0032313Y0192434D01*
X0038075Y0192434D01*
X0038512Y0192615D01*
X0043032Y0192615D01*
X0043916Y0192248D01*
X0044593Y0191571D01*
X0044960Y0190687D01*
X0044960Y0186167D01*
X0044593Y0185282D01*
X0043916Y0184605D01*
X0043032Y0184239D01*
X0038512Y0184239D01*
X0038075Y0184420D01*
X0030870Y0184420D01*
X0030384Y0184219D01*
X0022427Y0184219D01*
X0022313Y0184266D01*
X0022313Y0179897D01*
X0021946Y0179012D01*
X0021269Y0178335D01*
X0020384Y0177969D01*
X0017248Y0177969D01*
X0017490Y0121326D01*
X0020778Y0121326D01*
X0021663Y0120960D01*
X0022340Y0120282D01*
X0022706Y0119398D01*
X0022706Y0115202D01*
X0023043Y0115269D01*
X0026799Y0115269D01*
X0026799Y0109919D01*
X0026799Y0109919D01*
X0026799Y0115269D01*
X0030555Y0115269D01*
X0031058Y0115169D01*
X0031531Y0114973D01*
X0031957Y0114688D01*
X0032319Y0114326D01*
X0032603Y0113900D01*
X0032799Y0113427D01*
X0032899Y0112925D01*
X0032899Y0109919D01*
X0026799Y0109919D01*
X0026799Y0109919D01*
X0026799Y0104569D01*
X0024567Y0104569D01*
X0024089Y0103414D01*
X0022831Y0102157D01*
X0021188Y0101476D01*
X0019410Y0101476D01*
X0017767Y0102157D01*
X0017572Y0102352D01*
X0017579Y0100493D01*
X0017767Y0100681D01*
X0019410Y0101361D01*
X0021188Y0101361D01*
X0022831Y0100681D01*
X0024089Y0099423D01*
X0024647Y0098076D01*
X0030778Y0098076D01*
X0031663Y0097710D01*
X0032340Y0097032D01*
X0032451Y0096765D01*
X0036106Y0096765D01*
X0036543Y0096946D01*
X0038902Y0096946D01*
X0038902Y0101597D01*
X0039269Y0102482D01*
X0039946Y0103159D01*
X0040831Y0103525D01*
X0046513Y0103525D01*
X0047397Y0103159D01*
X0048074Y0102482D01*
X0048441Y0101597D01*
X0048441Y0095915D01*
X0048074Y0095030D01*
X0047535Y0094490D01*
X0047535Y0075913D01*
X0057786Y0065662D01*
X0066043Y0065662D01*
X0067414Y0067033D01*
X0069746Y0067999D01*
X0080144Y0067999D01*
X0082476Y0067033D01*
X0083453Y0066056D01*
X0089112Y0066056D01*
X0089712Y0066656D01*
X0089252Y0067117D01*
X0088286Y0069448D01*
X0088286Y0079846D01*
X0089252Y0082178D01*
X0091036Y0083963D01*
X0093368Y0084928D01*
X0095892Y0084928D01*
X0098224Y0083963D01*
X0100008Y0082178D01*
X0100974Y0079846D01*
X0100974Y0069448D01*
X0100008Y0067117D01*
X0098637Y0065745D01*
X0098637Y0065110D01*
X0098027Y0063637D01*
X0094169Y0059779D01*
X0093041Y0058652D01*
X0091569Y0058042D01*
X0084240Y0058042D01*
X0082476Y0056277D01*
X0080144Y0055311D01*
X0069746Y0055311D01*
X0067414Y0056277D01*
X0066043Y0057648D01*
X0055329Y0057648D01*
X0053856Y0058258D01*
X0041258Y0070856D01*
X0040131Y0071984D01*
X0039520Y0073456D01*
X0039520Y0088569D01*
X0036543Y0088569D01*
X0036106Y0088750D01*
X0032285Y0088750D01*
X0031663Y0088128D01*
X0030778Y0087762D01*
X0022820Y0087762D01*
X0022706Y0087809D01*
X0022706Y0083440D01*
X0022340Y0082555D01*
X0021663Y0081878D01*
X0020778Y0081512D01*
X0017661Y0081512D01*
X0017796Y0050053D01*
X0017798Y0050046D01*
X0017798Y0049376D01*
X0017798Y0049369D01*
X0017831Y0049034D01*
X0018088Y0048415D01*
X0018562Y0047941D01*
X0017794Y0050336D02*
X0111773Y0050336D01*
X0111773Y0053534D02*
X0017781Y0053534D01*
X0017767Y0056733D02*
X0066958Y0056733D01*
X0066709Y0066328D02*
X0057120Y0066328D01*
X0053921Y0069527D02*
X0088286Y0069527D01*
X0088286Y0072725D02*
X0050723Y0072725D01*
X0047535Y0075924D02*
X0088286Y0075924D01*
X0088286Y0079122D02*
X0047535Y0079122D01*
X0047535Y0082321D02*
X0066174Y0082321D01*
X0066043Y0082451D02*
X0067414Y0081080D01*
X0069746Y0080114D01*
X0080144Y0080114D01*
X0082476Y0081080D01*
X0084260Y0082865D01*
X0085226Y0085196D01*
X0085226Y0087720D01*
X0084260Y0090052D01*
X0082476Y0091837D01*
X0080144Y0092802D01*
X0069746Y0092802D01*
X0067414Y0091837D01*
X0066043Y0090465D01*
X0062904Y0090465D01*
X0058558Y0094811D01*
X0058558Y0095628D01*
X0058677Y0095915D01*
X0058677Y0101597D01*
X0058311Y0102482D01*
X0057634Y0103159D01*
X0056749Y0103525D01*
X0051067Y0103525D01*
X0050182Y0103159D01*
X0049505Y0102482D01*
X0049139Y0101597D01*
X0049139Y0095915D01*
X0049505Y0095030D01*
X0050182Y0094353D01*
X0050544Y0094203D01*
X0050544Y0092354D01*
X0051154Y0090881D01*
X0052281Y0089754D01*
X0058974Y0083061D01*
X0060447Y0082451D01*
X0066043Y0082451D01*
X0061244Y0086458D02*
X0054551Y0093151D01*
X0054551Y0098113D01*
X0053908Y0098756D01*
X0058677Y0098313D02*
X0117245Y0098313D01*
X0120994Y0096122D02*
X0115973Y0091102D01*
X0115973Y0084287D01*
X0111773Y0085519D02*
X0085226Y0085519D01*
X0084813Y0088718D02*
X0111773Y0088718D01*
X0111773Y0091916D02*
X0082283Y0091916D01*
X0074945Y0086458D02*
X0061244Y0086458D01*
X0061453Y0091916D02*
X0067607Y0091916D01*
X0058558Y0095115D02*
X0114047Y0095115D01*
X0120444Y0101512D02*
X0058677Y0101512D01*
X0049139Y0101512D02*
X0048441Y0101512D01*
X0048441Y0098313D02*
X0049139Y0098313D01*
X0049470Y0095115D02*
X0048110Y0095115D01*
X0047535Y0091916D02*
X0050725Y0091916D01*
X0053318Y0088718D02*
X0047535Y0088718D01*
X0047535Y0085519D02*
X0056516Y0085519D01*
X0043528Y0074254D02*
X0043528Y0098612D01*
X0043672Y0098756D01*
X0038902Y0098313D02*
X0024549Y0098313D01*
X0021274Y0101512D02*
X0038902Y0101512D01*
X0032603Y0105937D02*
X0032799Y0106410D01*
X0032899Y0106913D01*
X0032899Y0109919D01*
X0026799Y0109919D01*
X0026799Y0109919D01*
X0026799Y0104569D01*
X0030555Y0104569D01*
X0031058Y0104669D01*
X0031531Y0104865D01*
X0031957Y0105149D01*
X0032319Y0105511D01*
X0032603Y0105937D01*
X0031158Y0104710D02*
X0123642Y0104710D01*
X0126340Y0107909D02*
X0032899Y0107909D01*
X0032899Y0111107D02*
X0093746Y0111107D01*
X0092700Y0114306D02*
X0081373Y0114306D01*
X0078173Y0116773D02*
X0081717Y0120317D01*
X0081717Y0148931D01*
X0084572Y0151787D01*
X0091165Y0151787D01*
X0101013Y0141939D01*
X0101013Y0115905D01*
X0093747Y0120703D02*
X0085724Y0120703D01*
X0084571Y0117504D02*
X0092700Y0117504D01*
X0097006Y0123901D02*
X0085724Y0123901D01*
X0085724Y0127100D02*
X0097006Y0127100D01*
X0097006Y0130298D02*
X0085724Y0130298D01*
X0085724Y0133497D02*
X0097006Y0133497D01*
X0097006Y0136695D02*
X0085724Y0136695D01*
X0085724Y0139894D02*
X0097006Y0139894D01*
X0094193Y0143092D02*
X0085724Y0143092D01*
X0085724Y0146291D02*
X0090994Y0146291D01*
X0091165Y0151787D02*
X0115207Y0151787D01*
X0119118Y0147876D01*
X0119118Y0140002D01*
X0124236Y0145120D01*
X0165181Y0145120D01*
X0170693Y0150631D01*
X0170693Y0161655D01*
X0166756Y0165592D01*
X0166756Y0168742D01*
X0170913Y0168681D02*
X0181865Y0168681D01*
X0181865Y0171879D02*
X0170617Y0171879D01*
X0170913Y0175078D02*
X0171497Y0175078D01*
X0176541Y0175078D02*
X0176541Y0175078D01*
X0176541Y0178276D02*
X0176541Y0178276D01*
X0176541Y0180302D02*
X0167941Y0180302D01*
X0176541Y0180302D01*
X0176541Y0180302D01*
X0171227Y0185408D02*
X0170606Y0185091D01*
X0169893Y0184573D01*
X0169270Y0183950D01*
X0168751Y0183237D01*
X0168351Y0182451D01*
X0168079Y0181613D01*
X0167941Y0180742D01*
X0167941Y0180302D01*
X0167941Y0179861D01*
X0168007Y0179442D01*
X0164878Y0179442D01*
X0164515Y0179292D01*
X0156928Y0179292D01*
X0156874Y0179346D01*
X0157086Y0179557D01*
X0157452Y0180442D01*
X0157452Y0186124D01*
X0157086Y0187008D01*
X0156874Y0187220D01*
X0157086Y0187431D01*
X0157452Y0188316D01*
X0157452Y0193998D01*
X0157086Y0194882D01*
X0156918Y0195050D01*
X0159285Y0195050D01*
X0160758Y0195660D01*
X0161885Y0196787D01*
X0164641Y0199543D01*
X0165251Y0201016D01*
X0165251Y0202121D01*
X0169424Y0206294D01*
X0169901Y0206294D01*
X0170478Y0205718D01*
X0171483Y0205302D01*
X0170478Y0204885D01*
X0168957Y0203364D01*
X0168134Y0201377D01*
X0168134Y0199226D01*
X0168957Y0197239D01*
X0170478Y0195718D01*
X0171483Y0195302D01*
X0170478Y0194885D01*
X0168957Y0193364D01*
X0168134Y0191377D01*
X0168134Y0189226D01*
X0168957Y0187239D01*
X0170478Y0185718D01*
X0171227Y0185408D01*
X0170031Y0184673D02*
X0157452Y0184673D01*
X0157452Y0181475D02*
X0168057Y0181475D01*
X0166756Y0175285D02*
X0149263Y0175285D01*
X0149139Y0175409D02*
X0132530Y0175409D01*
X0118331Y0189608D01*
X0118331Y0192364D01*
X0099433Y0211261D01*
X0095102Y0211261D01*
X0093921Y0212443D01*
X0075417Y0212443D01*
X0070299Y0207324D01*
X0062484Y0207324D01*
X0062327Y0207167D01*
X0057420Y0207063D02*
X0050893Y0207063D01*
X0050662Y0206967D02*
X0052206Y0207606D01*
X0053387Y0208788D01*
X0054027Y0210331D01*
X0054027Y0212002D01*
X0053387Y0213546D01*
X0052206Y0214728D01*
X0050662Y0215367D01*
X0048991Y0215367D01*
X0047448Y0214728D01*
X0046266Y0213546D01*
X0045627Y0212002D01*
X0045627Y0210331D01*
X0046266Y0208788D01*
X0047448Y0207606D01*
X0048991Y0206967D01*
X0050662Y0206967D01*
X0048760Y0207063D02*
X0042234Y0207063D01*
X0041387Y0210261D02*
X0045656Y0210261D01*
X0046230Y0213460D02*
X0022313Y0213460D01*
X0021980Y0216658D02*
X0032420Y0216658D01*
X0032420Y0215438D02*
X0032420Y0218896D01*
X0032786Y0219780D01*
X0033463Y0220458D01*
X0034348Y0220824D01*
X0040306Y0220824D01*
X0041190Y0220458D01*
X0041867Y0219780D01*
X0042234Y0218896D01*
X0042234Y0215438D01*
X0041867Y0214553D01*
X0041190Y0213876D01*
X0040306Y0213510D01*
X0034348Y0213510D01*
X0033463Y0213876D01*
X0032786Y0214553D01*
X0032420Y0215438D01*
X0032862Y0219857D02*
X0017068Y0219857D01*
X0017055Y0223055D02*
X0045627Y0223055D01*
X0045627Y0222331D02*
X0046266Y0220788D01*
X0047448Y0219606D01*
X0048991Y0218967D01*
X0050662Y0218967D01*
X0052206Y0219606D01*
X0053387Y0220788D01*
X0054027Y0222331D01*
X0054027Y0224002D01*
X0053387Y0225546D01*
X0052206Y0226728D01*
X0050662Y0227367D01*
X0048991Y0227367D01*
X0047448Y0226728D01*
X0046266Y0225546D01*
X0045627Y0224002D01*
X0045627Y0222331D01*
X0047197Y0219857D02*
X0041791Y0219857D01*
X0042234Y0216658D02*
X0057227Y0216658D01*
X0057227Y0217167D02*
X0057227Y0215661D01*
X0057327Y0215159D01*
X0057523Y0214685D01*
X0057807Y0214260D01*
X0058169Y0213897D01*
X0058595Y0213613D01*
X0059068Y0213417D01*
X0059571Y0213317D01*
X0062327Y0213317D01*
X0065083Y0213317D01*
X0065585Y0213417D01*
X0066058Y0213613D01*
X0066484Y0213897D01*
X0066846Y0214260D01*
X0067131Y0214685D01*
X0067327Y0215159D01*
X0067427Y0215661D01*
X0067427Y0217167D01*
X0067427Y0218673D01*
X0067327Y0219175D01*
X0067131Y0219648D01*
X0066846Y0220074D01*
X0066484Y0220436D01*
X0066058Y0220721D01*
X0065585Y0220917D01*
X0065083Y0221017D01*
X0062327Y0221017D01*
X0062327Y0217167D01*
X0067427Y0217167D01*
X0062327Y0217167D01*
X0062327Y0217167D01*
X0062327Y0217167D01*
X0062327Y0213317D01*
X0062327Y0217167D01*
X0062327Y0217167D01*
X0062327Y0221017D01*
X0059571Y0221017D01*
X0059068Y0220917D01*
X0058595Y0220721D01*
X0058169Y0220436D01*
X0057807Y0220074D01*
X0057523Y0219648D01*
X0057327Y0219175D01*
X0057227Y0218673D01*
X0057227Y0217167D01*
X0062327Y0217167D01*
X0062327Y0217167D01*
X0057227Y0217167D01*
X0057662Y0219857D02*
X0052456Y0219857D01*
X0054027Y0223055D02*
X0090132Y0223055D01*
X0090132Y0219857D02*
X0066992Y0219857D01*
X0067427Y0216658D02*
X0090487Y0216658D01*
X0090132Y0226254D02*
X0067234Y0226254D01*
X0067234Y0225438D02*
X0067234Y0228896D01*
X0066867Y0229780D01*
X0066190Y0230458D01*
X0065306Y0230824D01*
X0059348Y0230824D01*
X0058463Y0230458D01*
X0057786Y0229780D01*
X0057420Y0228896D01*
X0057420Y0225438D01*
X0057786Y0224553D01*
X0058463Y0223876D01*
X0059348Y0223510D01*
X0065306Y0223510D01*
X0066190Y0223876D01*
X0066867Y0224553D01*
X0067234Y0225438D01*
X0067003Y0229452D02*
X0090132Y0229452D01*
X0090132Y0232651D02*
X0017014Y0232651D01*
X0017027Y0229452D02*
X0032650Y0229452D01*
X0032786Y0229780D02*
X0032420Y0228896D01*
X0032420Y0225438D01*
X0032786Y0224553D01*
X0033463Y0223876D01*
X0034348Y0223510D01*
X0040306Y0223510D01*
X0041190Y0223876D01*
X0041867Y0224553D01*
X0042234Y0225438D01*
X0042234Y0228896D01*
X0041867Y0229780D01*
X0041190Y0230458D01*
X0040306Y0230824D01*
X0034348Y0230824D01*
X0033463Y0230458D01*
X0032786Y0229780D01*
X0032420Y0226254D02*
X0017041Y0226254D01*
X0026405Y0210261D02*
X0026406Y0210261D01*
X0026405Y0207063D02*
X0026406Y0207063D01*
X0026405Y0203864D02*
X0026406Y0203864D01*
X0024024Y0200666D02*
X0052068Y0200666D01*
X0051331Y0197467D02*
X0021642Y0197467D01*
X0018169Y0197467D02*
X0017164Y0197467D01*
X0026406Y0189376D02*
X0027354Y0188427D01*
X0040772Y0188427D01*
X0044960Y0187872D02*
X0050788Y0187872D01*
X0051137Y0184673D02*
X0043984Y0184673D01*
X0044801Y0191070D02*
X0050973Y0191070D01*
X0050788Y0194269D02*
X0031022Y0194269D01*
X0032505Y0203864D02*
X0033493Y0203864D01*
X0033267Y0210261D02*
X0032249Y0210261D01*
X0041161Y0203864D02*
X0058493Y0203864D01*
X0056520Y0199450D02*
X0055339Y0198269D01*
X0055339Y0193789D01*
X0054945Y0193395D01*
X0056520Y0199450D02*
X0073449Y0199450D01*
X0075417Y0197482D01*
X0075417Y0193939D01*
X0076624Y0192731D01*
X0079380Y0192731D01*
X0076260Y0188724D02*
X0076260Y0188316D01*
X0076626Y0187431D01*
X0076838Y0187220D01*
X0076626Y0187008D01*
X0076260Y0186124D01*
X0076260Y0180442D01*
X0076626Y0179557D01*
X0076838Y0179346D01*
X0076626Y0179134D01*
X0076260Y0178250D01*
X0076260Y0172568D01*
X0076626Y0171683D01*
X0076838Y0171472D01*
X0076626Y0171260D01*
X0076260Y0170376D01*
X0076260Y0164694D01*
X0076626Y0163809D01*
X0076838Y0163598D01*
X0076626Y0163386D01*
X0076260Y0162502D01*
X0076260Y0162095D01*
X0075700Y0162654D01*
X0074815Y0163021D01*
X0067358Y0163021D01*
X0066473Y0162654D01*
X0065796Y0161977D01*
X0065430Y0161093D01*
X0065430Y0153635D01*
X0065796Y0152750D01*
X0066473Y0152073D01*
X0067358Y0151707D01*
X0067429Y0151707D01*
X0066291Y0150568D01*
X0065430Y0148489D01*
X0065430Y0146239D01*
X0066291Y0144159D01*
X0067882Y0142568D01*
X0068375Y0142364D01*
X0067882Y0142160D01*
X0067093Y0141371D01*
X0065683Y0141371D01*
X0064210Y0140761D01*
X0059866Y0136416D01*
X0053046Y0143236D01*
X0053046Y0171019D01*
X0053849Y0171821D01*
X0066372Y0171821D01*
X0067845Y0172431D01*
X0068972Y0173559D01*
X0072121Y0176708D01*
X0072731Y0178181D01*
X0072731Y0185155D01*
X0072881Y0185517D01*
X0072881Y0189274D01*
X0072448Y0190319D01*
X0072372Y0190395D01*
X0072448Y0190471D01*
X0072674Y0191015D01*
X0073147Y0190542D01*
X0074355Y0189334D01*
X0075827Y0188724D01*
X0076260Y0188724D01*
X0076444Y0187872D02*
X0072881Y0187872D01*
X0072731Y0184673D02*
X0076260Y0184673D01*
X0076260Y0181475D02*
X0072731Y0181475D01*
X0072731Y0178276D02*
X0076271Y0178276D01*
X0076260Y0175078D02*
X0070491Y0175078D01*
X0068724Y0178978D02*
X0065575Y0175828D01*
X0052189Y0175828D01*
X0049039Y0172679D01*
X0049039Y0141974D01*
X0050217Y0140399D02*
X0059866Y0130750D01*
X0066480Y0137364D01*
X0071087Y0137364D01*
X0067617Y0132833D02*
X0067882Y0132568D01*
X0068176Y0132446D01*
X0068021Y0132367D01*
X0067276Y0131826D01*
X0066624Y0131175D01*
X0066083Y0130430D01*
X0065665Y0129609D01*
X0065381Y0128734D01*
X0065237Y0127824D01*
X0065237Y0127364D01*
X0071086Y0127364D01*
X0071086Y0127364D01*
X0065237Y0127364D01*
X0065237Y0126903D01*
X0065381Y0125994D01*
X0065665Y0125118D01*
X0066083Y0124298D01*
X0066624Y0123553D01*
X0067276Y0122902D01*
X0068021Y0122360D01*
X0068841Y0121942D01*
X0069717Y0121658D01*
X0070626Y0121514D01*
X0071087Y0121514D01*
X0071547Y0121514D01*
X0072456Y0121658D01*
X0073332Y0121942D01*
X0074153Y0122360D01*
X0074898Y0122902D01*
X0075549Y0123553D01*
X0076090Y0124298D01*
X0076508Y0125118D01*
X0076793Y0125994D01*
X0076937Y0126903D01*
X0076937Y0127364D01*
X0076937Y0127824D01*
X0076793Y0128734D01*
X0076508Y0129609D01*
X0076090Y0130430D01*
X0075549Y0131175D01*
X0074898Y0131826D01*
X0074153Y0132367D01*
X0073997Y0132446D01*
X0074291Y0132568D01*
X0075882Y0134159D01*
X0076744Y0136239D01*
X0076744Y0138489D01*
X0075882Y0140568D01*
X0074291Y0142160D01*
X0073798Y0142364D01*
X0074291Y0142568D01*
X0075882Y0144159D01*
X0076744Y0146239D01*
X0076744Y0147944D01*
X0077303Y0147384D01*
X0077709Y0147216D01*
X0077709Y0121976D01*
X0076513Y0120780D01*
X0068022Y0120780D01*
X0064857Y0123945D01*
X0064857Y0130074D01*
X0067617Y0132833D01*
X0066016Y0130298D02*
X0065082Y0130298D01*
X0065237Y0127100D02*
X0064857Y0127100D01*
X0064901Y0123901D02*
X0066371Y0123901D01*
X0071087Y0123901D02*
X0071087Y0123901D01*
X0071087Y0121514D02*
X0071087Y0127364D01*
X0076937Y0127364D01*
X0071087Y0127364D01*
X0071087Y0127364D01*
X0071087Y0127364D01*
X0071087Y0121514D01*
X0075802Y0123901D02*
X0077709Y0123901D01*
X0077709Y0127100D02*
X0076937Y0127100D01*
X0077709Y0130298D02*
X0076157Y0130298D01*
X0075220Y0133497D02*
X0077709Y0133497D01*
X0077709Y0136695D02*
X0076744Y0136695D01*
X0076162Y0139894D02*
X0077709Y0139894D01*
X0077709Y0143092D02*
X0074816Y0143092D01*
X0076744Y0146291D02*
X0077709Y0146291D01*
X0067358Y0143092D02*
X0053190Y0143092D01*
X0056389Y0139894D02*
X0063344Y0139894D01*
X0060145Y0136695D02*
X0059587Y0136695D01*
X0059866Y0130750D02*
X0060850Y0129765D01*
X0060850Y0122285D01*
X0066362Y0116773D01*
X0078173Y0116773D01*
X0071087Y0127100D02*
X0071087Y0127100D01*
X0059964Y0117504D02*
X0022706Y0117504D01*
X0021919Y0120703D02*
X0038709Y0120703D01*
X0038709Y0120153D02*
X0038809Y0119651D01*
X0039005Y0119178D01*
X0039290Y0118752D01*
X0039652Y0118390D01*
X0040078Y0118105D01*
X0040551Y0117909D01*
X0041053Y0117809D01*
X0043672Y0117809D01*
X0043672Y0122772D01*
X0038709Y0122772D01*
X0038709Y0120153D01*
X0038709Y0123901D02*
X0017479Y0123901D01*
X0017466Y0127100D02*
X0039599Y0127100D01*
X0043672Y0120703D02*
X0043672Y0120703D01*
X0048634Y0120703D02*
X0049139Y0120703D01*
X0049139Y0123901D02*
X0048634Y0123901D01*
X0047745Y0127100D02*
X0049901Y0127100D01*
X0053908Y0128834D02*
X0051402Y0131340D01*
X0031323Y0131340D01*
X0028961Y0133702D01*
X0028961Y0141699D01*
X0028883Y0141777D01*
X0028883Y0150832D01*
X0035227Y0149489D02*
X0045032Y0149489D01*
X0045032Y0146291D02*
X0035227Y0146291D01*
X0034788Y0140399D02*
X0047465Y0140399D01*
X0050217Y0140399D01*
X0053046Y0146291D02*
X0065430Y0146291D01*
X0065844Y0149489D02*
X0053046Y0149489D01*
X0053046Y0152688D02*
X0065858Y0152688D01*
X0065430Y0155886D02*
X0053046Y0155886D01*
X0053046Y0159085D02*
X0065430Y0159085D01*
X0066102Y0162284D02*
X0053046Y0162284D01*
X0053046Y0165482D02*
X0076260Y0165482D01*
X0076260Y0162284D02*
X0076071Y0162284D01*
X0076260Y0168681D02*
X0053046Y0168681D01*
X0048970Y0178276D02*
X0021127Y0178276D01*
X0022313Y0181475D02*
X0064717Y0181475D01*
X0068724Y0178978D02*
X0068724Y0187395D01*
X0068087Y0192757D02*
X0068724Y0193395D01*
X0068087Y0192757D02*
X0061638Y0192757D01*
X0058267Y0210261D02*
X0053998Y0210261D01*
X0053423Y0213460D02*
X0058965Y0213460D01*
X0062327Y0213460D02*
X0062327Y0213460D01*
X0062327Y0216658D02*
X0062327Y0216658D01*
X0062327Y0219857D02*
X0062327Y0219857D01*
X0065689Y0213460D02*
X0070768Y0213460D01*
X0057420Y0226254D02*
X0052680Y0226254D01*
X0046974Y0226254D02*
X0042234Y0226254D01*
X0042003Y0229452D02*
X0057650Y0229452D01*
X0084572Y0206905D02*
X0093947Y0206905D01*
X0097858Y0202994D01*
X0102046Y0202981D02*
X0102046Y0200734D01*
X0101680Y0199849D01*
X0101003Y0199172D01*
X0100118Y0198806D01*
X0095598Y0198806D01*
X0094714Y0199172D01*
X0094037Y0199849D01*
X0093670Y0200734D01*
X0093670Y0201515D01*
X0092582Y0202603D01*
X0092885Y0201872D01*
X0092885Y0196190D01*
X0092519Y0195305D01*
X0092307Y0195094D01*
X0092519Y0194882D01*
X0092885Y0193998D01*
X0092885Y0188316D01*
X0092519Y0187431D01*
X0092307Y0187220D01*
X0092519Y0187008D01*
X0092885Y0186124D01*
X0092885Y0180459D01*
X0096376Y0183950D01*
X0097849Y0184560D01*
X0110860Y0184560D01*
X0112333Y0183950D01*
X0113460Y0182823D01*
X0128421Y0167862D01*
X0129031Y0166389D01*
X0129031Y0161990D01*
X0129212Y0161553D01*
X0129212Y0157033D01*
X0128845Y0156148D01*
X0128168Y0155471D01*
X0127284Y0155105D01*
X0122764Y0155105D01*
X0121879Y0155471D01*
X0121202Y0156148D01*
X0120835Y0157033D01*
X0120835Y0161553D01*
X0121017Y0161990D01*
X0121017Y0163932D01*
X0108403Y0176546D01*
X0100305Y0176546D01*
X0096925Y0173165D01*
X0095797Y0172038D01*
X0094600Y0171542D01*
X0100650Y0171542D01*
X0102123Y0170932D01*
X0104849Y0168205D01*
X0105630Y0168205D01*
X0106515Y0167839D01*
X0107192Y0167162D01*
X0107558Y0166277D01*
X0107558Y0161757D01*
X0107192Y0160873D01*
X0106515Y0160196D01*
X0105630Y0159829D01*
X0101110Y0159829D01*
X0100225Y0160196D01*
X0099548Y0160873D01*
X0099182Y0161757D01*
X0099182Y0162539D01*
X0098193Y0163528D01*
X0092377Y0163528D01*
X0092519Y0163386D01*
X0092885Y0162502D01*
X0092885Y0156820D01*
X0092519Y0155935D01*
X0092377Y0155794D01*
X0116004Y0155794D01*
X0117477Y0155184D01*
X0121388Y0151273D01*
X0122515Y0150145D01*
X0123011Y0148949D01*
X0123439Y0149127D01*
X0140642Y0149127D01*
X0140634Y0149168D01*
X0140634Y0151787D01*
X0149139Y0151787D01*
X0149139Y0151787D01*
X0140634Y0151787D01*
X0140634Y0154405D01*
X0140734Y0154907D01*
X0140930Y0155380D01*
X0141214Y0155806D01*
X0141268Y0155860D01*
X0141193Y0155935D01*
X0140827Y0156820D01*
X0140827Y0162502D01*
X0141193Y0163386D01*
X0141405Y0163598D01*
X0141193Y0163809D01*
X0140827Y0164694D01*
X0140827Y0170376D01*
X0141193Y0171260D01*
X0141334Y0171402D01*
X0131733Y0171402D01*
X0130260Y0172012D01*
X0116061Y0186211D01*
X0114934Y0187338D01*
X0114324Y0188811D01*
X0114324Y0190704D01*
X0102046Y0202981D01*
X0102018Y0200666D02*
X0104362Y0200666D01*
X0107560Y0197467D02*
X0092885Y0197467D01*
X0092885Y0200666D02*
X0093698Y0200666D01*
X0092773Y0194269D02*
X0110759Y0194269D01*
X0113958Y0191070D02*
X0092885Y0191070D01*
X0092701Y0187872D02*
X0114713Y0187872D01*
X0117599Y0184673D02*
X0092885Y0184673D01*
X0092885Y0181475D02*
X0093901Y0181475D01*
X0098646Y0180553D02*
X0093528Y0175435D01*
X0084598Y0175435D01*
X0084572Y0175409D01*
X0084572Y0167535D02*
X0099853Y0167535D01*
X0103370Y0164017D01*
X0107558Y0165482D02*
X0119467Y0165482D01*
X0121017Y0162284D02*
X0107558Y0162284D01*
X0104374Y0168681D02*
X0116268Y0168681D01*
X0113070Y0171879D02*
X0095415Y0171879D01*
X0098837Y0175078D02*
X0109871Y0175078D01*
X0110063Y0180553D02*
X0098646Y0180553D01*
X0110063Y0180553D02*
X0125024Y0165592D01*
X0125024Y0159293D01*
X0128584Y0155886D02*
X0141242Y0155886D01*
X0140827Y0159085D02*
X0129212Y0159085D01*
X0129031Y0162284D02*
X0140827Y0162284D01*
X0140827Y0165482D02*
X0129031Y0165482D01*
X0127602Y0168681D02*
X0140827Y0168681D01*
X0149803Y0160324D02*
X0149139Y0159661D01*
X0149803Y0160324D02*
X0163213Y0160324D01*
X0158938Y0156317D02*
X0158863Y0155936D01*
X0158863Y0154324D01*
X0158863Y0152713D01*
X0158979Y0152126D01*
X0159208Y0151573D01*
X0159541Y0151076D01*
X0159964Y0150653D01*
X0160461Y0150320D01*
X0161014Y0150091D01*
X0161601Y0149974D01*
X0163213Y0149974D01*
X0164369Y0149974D01*
X0163521Y0149127D01*
X0157637Y0149127D01*
X0157645Y0149168D01*
X0157645Y0151787D01*
X0157645Y0154405D01*
X0157545Y0154907D01*
X0157349Y0155380D01*
X0157064Y0155806D01*
X0157011Y0155860D01*
X0157086Y0155935D01*
X0157244Y0156317D01*
X0158938Y0156317D01*
X0158863Y0155886D02*
X0157037Y0155886D01*
X0158863Y0154324D02*
X0163212Y0154324D01*
X0158863Y0154324D01*
X0158868Y0152688D02*
X0157645Y0152688D01*
X0157645Y0151787D02*
X0149139Y0151787D01*
X0149139Y0151787D01*
X0157645Y0151787D01*
X0157645Y0149489D02*
X0163884Y0149489D01*
X0163213Y0149974D02*
X0163213Y0154324D01*
X0163213Y0154324D01*
X0163213Y0149974D01*
X0163213Y0152688D02*
X0163213Y0152688D01*
X0163212Y0154324D02*
X0163212Y0154324D01*
X0172019Y0146291D02*
X0181865Y0146291D01*
X0181865Y0149489D02*
X0174557Y0149489D01*
X0174700Y0152688D02*
X0181865Y0152688D01*
X0181865Y0155886D02*
X0174700Y0155886D01*
X0174700Y0159085D02*
X0181865Y0159085D01*
X0181865Y0162284D02*
X0174700Y0162284D01*
X0172533Y0165482D02*
X0181865Y0165482D01*
X0181865Y0175078D02*
X0181585Y0175078D01*
X0168695Y0187872D02*
X0157268Y0187872D01*
X0157452Y0191070D02*
X0168134Y0191070D01*
X0169861Y0194269D02*
X0157340Y0194269D01*
X0158488Y0199057D02*
X0149165Y0199057D01*
X0149139Y0199031D01*
X0149113Y0191183D02*
X0149139Y0191157D01*
X0149113Y0191183D02*
X0138016Y0191183D01*
X0140276Y0195371D02*
X0135756Y0195371D01*
X0134871Y0195004D01*
X0134194Y0194327D01*
X0133828Y0193443D01*
X0133828Y0188923D01*
X0134194Y0188038D01*
X0134871Y0187361D01*
X0135494Y0187103D01*
X0131425Y0187103D01*
X0130540Y0186737D01*
X0129863Y0186060D01*
X0129497Y0185175D01*
X0129497Y0184109D01*
X0122338Y0191268D01*
X0122338Y0193161D01*
X0121728Y0194634D01*
X0103463Y0212898D01*
X0141923Y0212898D01*
X0144040Y0213776D01*
X0144040Y0213776D01*
X0145661Y0215397D01*
X0146539Y0217514D01*
X0146539Y0236127D01*
X0178965Y0236127D01*
X0179419Y0236091D01*
X0180282Y0235811D01*
X0180422Y0235709D01*
X0172465Y0235709D01*
X0170478Y0234885D01*
X0168957Y0233364D01*
X0168134Y0231377D01*
X0168134Y0229226D01*
X0168957Y0227239D01*
X0170478Y0225718D01*
X0171483Y0225302D01*
X0170478Y0224885D01*
X0169916Y0224324D01*
X0165959Y0224324D01*
X0164486Y0223714D01*
X0163359Y0222586D01*
X0160209Y0219437D01*
X0159599Y0217964D01*
X0159599Y0217252D01*
X0154021Y0211674D01*
X0142755Y0211674D01*
X0141870Y0211308D01*
X0141193Y0210630D01*
X0140827Y0209746D01*
X0140827Y0204064D01*
X0141193Y0203179D01*
X0141405Y0202968D01*
X0141193Y0202756D01*
X0140827Y0201872D01*
X0140827Y0196190D01*
X0141193Y0195305D01*
X0141308Y0195190D01*
X0140713Y0195190D01*
X0140276Y0195371D01*
X0140827Y0197467D02*
X0118894Y0197467D01*
X0121879Y0194269D02*
X0134170Y0194269D01*
X0133828Y0191070D02*
X0122535Y0191070D01*
X0125734Y0187872D02*
X0134360Y0187872D01*
X0133685Y0182915D02*
X0148772Y0182915D01*
X0149139Y0183283D01*
X0158488Y0199057D02*
X0161244Y0201813D01*
X0161244Y0203781D01*
X0167765Y0210302D01*
X0176541Y0210302D01*
X0169457Y0203864D02*
X0166994Y0203864D01*
X0168134Y0200666D02*
X0165106Y0200666D01*
X0162565Y0197467D02*
X0168862Y0197467D01*
X0154919Y0206905D02*
X0163606Y0215592D01*
X0163606Y0217167D01*
X0166756Y0220317D01*
X0176526Y0220317D01*
X0176541Y0220302D01*
X0169942Y0226254D02*
X0146539Y0226254D01*
X0146539Y0229452D02*
X0168134Y0229452D01*
X0168661Y0232651D02*
X0146539Y0232651D01*
X0146539Y0235849D02*
X0180163Y0235849D01*
X0163828Y0223055D02*
X0146539Y0223055D01*
X0146539Y0219857D02*
X0160629Y0219857D01*
X0159005Y0216658D02*
X0146184Y0216658D01*
X0143278Y0213460D02*
X0155807Y0213460D01*
X0154919Y0206905D02*
X0149139Y0206905D01*
X0140827Y0207063D02*
X0109299Y0207063D01*
X0106100Y0210261D02*
X0141040Y0210261D01*
X0140909Y0203864D02*
X0112497Y0203864D01*
X0115696Y0200666D02*
X0140827Y0200666D01*
X0129497Y0184673D02*
X0128932Y0184673D01*
X0123996Y0178276D02*
X0118007Y0178276D01*
X0120797Y0181475D02*
X0114808Y0181475D01*
X0121205Y0175078D02*
X0127194Y0175078D01*
X0124404Y0171879D02*
X0130580Y0171879D01*
X0120835Y0159085D02*
X0092885Y0159085D01*
X0092885Y0162284D02*
X0099182Y0162284D01*
X0092470Y0155886D02*
X0121464Y0155886D01*
X0119973Y0152688D02*
X0140634Y0152688D01*
X0140634Y0149489D02*
X0122787Y0149489D01*
X0115036Y0146291D02*
X0102328Y0146291D01*
X0104872Y0143092D02*
X0115111Y0143092D01*
X0113362Y0139894D02*
X0113362Y0139894D01*
X0113362Y0137246D02*
X0109012Y0137246D01*
X0109012Y0135634D01*
X0109129Y0135047D01*
X0109358Y0134494D01*
X0109690Y0133997D01*
X0110113Y0133574D01*
X0110611Y0133241D01*
X0111164Y0133012D01*
X0111751Y0132896D01*
X0113362Y0132896D01*
X0113362Y0137246D01*
X0113362Y0137246D01*
X0113362Y0136695D02*
X0113362Y0136695D01*
X0113362Y0133497D02*
X0113362Y0133497D01*
X0110228Y0133497D02*
X0105020Y0133497D01*
X0105020Y0136695D02*
X0109012Y0136695D01*
X0109315Y0139894D02*
X0105020Y0139894D01*
X0105020Y0130298D02*
X0141457Y0130298D01*
X0145614Y0133112D02*
X0145614Y0134372D01*
X0143134Y0136852D01*
X0137622Y0136852D01*
X0136835Y0137639D01*
X0132646Y0136695D02*
X0123519Y0136695D01*
X0124677Y0139894D02*
X0132646Y0139894D01*
X0134464Y0133497D02*
X0122226Y0133497D01*
X0119362Y0137246D02*
X0119118Y0137490D01*
X0119118Y0140002D01*
X0116498Y0133497D02*
X0116496Y0133497D01*
X0119910Y0120703D02*
X0119910Y0120703D01*
X0119910Y0117504D02*
X0119910Y0117504D01*
X0119910Y0115905D02*
X0111405Y0115905D01*
X0111405Y0112893D01*
X0111505Y0112390D01*
X0111701Y0111917D01*
X0111985Y0111491D01*
X0112347Y0111129D01*
X0112773Y0110845D01*
X0113246Y0110649D01*
X0113749Y0110549D01*
X0119910Y0110549D01*
X0119910Y0115905D01*
X0119910Y0115905D01*
X0119910Y0114306D02*
X0119910Y0114306D01*
X0119910Y0111107D02*
X0119910Y0111107D01*
X0112380Y0111107D02*
X0108280Y0111107D01*
X0109325Y0114306D02*
X0111405Y0114306D01*
X0111405Y0117504D02*
X0109325Y0117504D01*
X0108278Y0120703D02*
X0112381Y0120703D01*
X0105020Y0123901D02*
X0181865Y0123901D01*
X0181865Y0127100D02*
X0105020Y0127100D01*
X0130540Y0105669D02*
X0125519Y0100648D01*
X0130540Y0105669D02*
X0130540Y0115905D01*
X0132902Y0119054D01*
X0140447Y0119138D01*
X0146847Y0119209D02*
X0154391Y0119293D01*
X0160791Y0119364D02*
X0168335Y0119448D01*
X0175816Y0111968D01*
X0175816Y0103781D01*
X0180016Y0104710D02*
X0181865Y0104710D01*
X0181865Y0101512D02*
X0180016Y0101512D01*
X0180016Y0098313D02*
X0181865Y0098313D01*
X0181865Y0095115D02*
X0180016Y0095115D01*
X0180016Y0091916D02*
X0181865Y0091916D01*
X0181865Y0088718D02*
X0180016Y0088718D01*
X0180016Y0085519D02*
X0181865Y0085519D01*
X0181865Y0082321D02*
X0180016Y0082321D01*
X0180016Y0079122D02*
X0181865Y0079122D01*
X0181865Y0075924D02*
X0180016Y0075924D01*
X0180016Y0072725D02*
X0181865Y0072725D01*
X0181865Y0069527D02*
X0180016Y0069527D01*
X0180016Y0066328D02*
X0181865Y0066328D01*
X0181865Y0063130D02*
X0180016Y0063130D01*
X0180016Y0059931D02*
X0181865Y0059931D01*
X0181865Y0056733D02*
X0180016Y0056733D01*
X0180016Y0053534D02*
X0181865Y0053534D01*
X0181343Y0050336D02*
X0180016Y0050336D01*
X0175816Y0053619D02*
X0175816Y0045432D01*
X0175816Y0060019D02*
X0175816Y0068206D01*
X0175816Y0074606D02*
X0175816Y0082794D01*
X0175816Y0089194D02*
X0175816Y0097381D01*
X0180016Y0107909D02*
X0181865Y0107909D01*
X0181865Y0111107D02*
X0180016Y0111107D01*
X0179393Y0114306D02*
X0181865Y0114306D01*
X0181865Y0117504D02*
X0176219Y0117504D01*
X0173020Y0120703D02*
X0181865Y0120703D01*
X0181865Y0130298D02*
X0159964Y0130298D01*
X0159964Y0130005D02*
X0159964Y0133112D01*
X0159964Y0136218D01*
X0159864Y0136721D01*
X0159668Y0137194D01*
X0159384Y0137620D01*
X0159022Y0137982D01*
X0158596Y0138266D01*
X0158123Y0138462D01*
X0157620Y0138562D01*
X0155614Y0138562D01*
X0153608Y0138562D01*
X0153106Y0138462D01*
X0152633Y0138266D01*
X0152207Y0137982D01*
X0151845Y0137620D01*
X0151560Y0137194D01*
X0151364Y0136721D01*
X0151264Y0136218D01*
X0151264Y0133112D01*
X0155614Y0133112D01*
X0155614Y0138562D01*
X0155614Y0133112D01*
X0155614Y0133112D01*
X0155614Y0133112D01*
X0151264Y0133112D01*
X0151264Y0130005D01*
X0151364Y0129503D01*
X0151560Y0129030D01*
X0151845Y0128604D01*
X0152207Y0128242D01*
X0152633Y0127957D01*
X0153106Y0127761D01*
X0153608Y0127661D01*
X0155614Y0127661D01*
X0155614Y0133112D01*
X0159964Y0133112D01*
X0155614Y0133112D01*
X0155614Y0133112D01*
X0155614Y0133112D01*
X0155614Y0127661D01*
X0157620Y0127661D01*
X0158123Y0127761D01*
X0158596Y0127957D01*
X0159022Y0128242D01*
X0159384Y0128604D01*
X0159668Y0129030D01*
X0159864Y0129503D01*
X0159964Y0130005D01*
X0159964Y0133497D02*
X0181865Y0133497D01*
X0181865Y0136695D02*
X0159869Y0136695D01*
X0155614Y0136695D02*
X0155614Y0136695D01*
X0155614Y0133497D02*
X0155614Y0133497D01*
X0155614Y0130298D02*
X0155614Y0130298D01*
X0151264Y0130298D02*
X0149771Y0130298D01*
X0149771Y0133497D02*
X0151264Y0133497D01*
X0151359Y0136695D02*
X0149666Y0136695D01*
X0145759Y0139894D02*
X0181865Y0139894D01*
X0181865Y0143092D02*
X0168821Y0143092D01*
X0128889Y0120703D02*
X0127439Y0120703D01*
X0111773Y0082321D02*
X0099865Y0082321D01*
X0100974Y0079122D02*
X0111773Y0079122D01*
X0111773Y0075924D02*
X0100974Y0075924D01*
X0100974Y0072725D02*
X0111773Y0072725D01*
X0111773Y0069527D02*
X0100974Y0069527D01*
X0099220Y0066328D02*
X0111773Y0066328D01*
X0111773Y0063130D02*
X0097519Y0063130D01*
X0094630Y0065907D02*
X0090772Y0062049D01*
X0075339Y0062049D01*
X0074945Y0061655D01*
X0056126Y0061655D01*
X0043528Y0074254D01*
X0039823Y0072725D02*
X0017698Y0072725D01*
X0017712Y0069527D02*
X0042588Y0069527D01*
X0045786Y0066328D02*
X0017726Y0066328D01*
X0017740Y0063130D02*
X0048985Y0063130D01*
X0052183Y0059931D02*
X0017753Y0059931D01*
X0017685Y0075924D02*
X0039520Y0075924D01*
X0039520Y0079122D02*
X0017671Y0079122D01*
X0022105Y0082321D02*
X0039520Y0082321D01*
X0039520Y0085519D02*
X0022706Y0085519D01*
X0026961Y0092757D02*
X0026799Y0092919D01*
X0026961Y0092757D02*
X0038803Y0092757D01*
X0036185Y0088718D02*
X0032252Y0088718D01*
X0026799Y0104710D02*
X0026799Y0104710D01*
X0026799Y0107909D02*
X0026799Y0107909D01*
X0026799Y0111107D02*
X0026799Y0111107D01*
X0026799Y0114306D02*
X0026799Y0114306D01*
X0032332Y0114306D02*
X0063163Y0114306D01*
X0053908Y0122772D02*
X0053908Y0128834D01*
X0045032Y0152688D02*
X0035227Y0152688D01*
X0035227Y0155886D02*
X0045032Y0155886D01*
X0045032Y0159085D02*
X0017329Y0159085D01*
X0017315Y0162284D02*
X0045032Y0162284D01*
X0045032Y0165482D02*
X0017301Y0165482D01*
X0017287Y0168681D02*
X0045032Y0168681D01*
X0045032Y0171879D02*
X0017274Y0171879D01*
X0017260Y0175078D02*
X0045771Y0175078D01*
X0066511Y0171879D02*
X0076545Y0171879D01*
X0026698Y0130298D02*
X0017452Y0130298D01*
X0017438Y0133497D02*
X0024954Y0133497D01*
X0022977Y0136695D02*
X0022977Y0136695D01*
X0022977Y0139894D02*
X0022977Y0139894D01*
X0018999Y0139894D02*
X0017411Y0139894D01*
X0017397Y0143092D02*
X0019053Y0143092D01*
X0017383Y0146291D02*
X0022539Y0146291D01*
X0022539Y0149489D02*
X0017370Y0149489D01*
X0017356Y0152688D02*
X0022539Y0152688D01*
X0022539Y0155886D02*
X0017342Y0155886D01*
X0017424Y0136695D02*
X0019500Y0136695D01*
X0019325Y0101512D02*
X0017575Y0101512D01*
X0083716Y0082321D02*
X0089394Y0082321D01*
X0094630Y0074647D02*
X0094630Y0065907D01*
X0089384Y0066328D02*
X0083181Y0066328D01*
X0082931Y0056733D02*
X0111773Y0056733D01*
X0111773Y0059931D02*
X0094321Y0059931D01*
X0115973Y0057859D02*
X0115973Y0064673D01*
X0115973Y0071073D02*
X0115973Y0077887D01*
X0115973Y0051459D02*
X0115973Y0044645D01*
D11*
X0176997Y0044251D02*
X0019517Y0044251D01*
X0019376Y0044253D01*
X0019235Y0044259D01*
X0019094Y0044268D01*
X0018954Y0044282D01*
X0018814Y0044300D01*
X0018675Y0044321D01*
X0018536Y0044346D01*
X0018398Y0044375D01*
X0018261Y0044408D01*
X0018124Y0044444D01*
X0017989Y0044484D01*
X0017855Y0044528D01*
X0017722Y0044576D01*
X0017591Y0044627D01*
X0017461Y0044682D01*
X0017333Y0044741D01*
X0017206Y0044802D01*
X0017081Y0044868D01*
X0016958Y0044937D01*
X0016837Y0045009D01*
X0016718Y0045084D01*
X0016601Y0045163D01*
X0016486Y0045245D01*
X0016373Y0045330D01*
X0016263Y0045418D01*
X0016156Y0045509D01*
X0016051Y0045604D01*
X0015948Y0045701D01*
X0015849Y0045800D01*
X0015752Y0045903D01*
X0015657Y0046008D01*
X0015566Y0046115D01*
X0015478Y0046225D01*
X0015393Y0046338D01*
X0015311Y0046453D01*
X0015232Y0046570D01*
X0015157Y0046689D01*
X0015085Y0046810D01*
X0015016Y0046933D01*
X0014950Y0047058D01*
X0014889Y0047185D01*
X0014830Y0047313D01*
X0014775Y0047443D01*
X0014724Y0047574D01*
X0014676Y0047707D01*
X0014632Y0047841D01*
X0014592Y0047976D01*
X0014556Y0048113D01*
X0014523Y0048250D01*
X0014494Y0048388D01*
X0014469Y0048527D01*
X0014448Y0048666D01*
X0014430Y0048806D01*
X0014416Y0048946D01*
X0014407Y0049087D01*
X0014401Y0049228D01*
X0014399Y0049369D01*
X0014398Y0049369D02*
X0013611Y0233228D01*
X0013613Y0233380D01*
X0013619Y0233532D01*
X0013629Y0233684D01*
X0013642Y0233835D01*
X0013660Y0233986D01*
X0013681Y0234137D01*
X0013707Y0234287D01*
X0013736Y0234436D01*
X0013769Y0234585D01*
X0013806Y0234732D01*
X0013846Y0234879D01*
X0013891Y0235024D01*
X0013939Y0235168D01*
X0013991Y0235311D01*
X0014046Y0235453D01*
X0014105Y0235593D01*
X0014168Y0235732D01*
X0014234Y0235869D01*
X0014304Y0236004D01*
X0014377Y0236137D01*
X0014454Y0236268D01*
X0014534Y0236398D01*
X0014617Y0236525D01*
X0014703Y0236650D01*
X0014793Y0236773D01*
X0014886Y0236893D01*
X0014982Y0237011D01*
X0015081Y0237127D01*
X0015183Y0237240D01*
X0015287Y0237350D01*
X0015395Y0237458D01*
X0015505Y0237562D01*
X0015618Y0237664D01*
X0015734Y0237763D01*
X0015852Y0237859D01*
X0015972Y0237952D01*
X0016095Y0238042D01*
X0016220Y0238128D01*
X0016347Y0238211D01*
X0016477Y0238291D01*
X0016608Y0238368D01*
X0016741Y0238441D01*
X0016876Y0238511D01*
X0017013Y0238577D01*
X0017152Y0238640D01*
X0017292Y0238699D01*
X0017434Y0238754D01*
X0017577Y0238806D01*
X0017721Y0238854D01*
X0017866Y0238899D01*
X0018013Y0238939D01*
X0018160Y0238976D01*
X0018309Y0239009D01*
X0018458Y0239038D01*
X0018608Y0239064D01*
X0018759Y0239085D01*
X0018910Y0239103D01*
X0019061Y0239116D01*
X0019213Y0239126D01*
X0019365Y0239132D01*
X0019517Y0239134D01*
X0019517Y0239133D02*
X0089989Y0239133D01*
X0090105Y0239131D01*
X0090221Y0239125D01*
X0090336Y0239116D01*
X0090451Y0239103D01*
X0090566Y0239086D01*
X0090680Y0239065D01*
X0090794Y0239040D01*
X0090906Y0239012D01*
X0091017Y0238980D01*
X0091128Y0238945D01*
X0091237Y0238906D01*
X0091345Y0238863D01*
X0091451Y0238817D01*
X0091556Y0238768D01*
X0091659Y0238715D01*
X0091761Y0238658D01*
X0091860Y0238599D01*
X0091957Y0238536D01*
X0092053Y0238470D01*
X0092146Y0238401D01*
X0092237Y0238329D01*
X0092325Y0238254D01*
X0092411Y0238176D01*
X0092494Y0238095D01*
X0092575Y0238012D01*
X0092653Y0237926D01*
X0092728Y0237838D01*
X0092800Y0237747D01*
X0092869Y0237654D01*
X0092935Y0237558D01*
X0092998Y0237461D01*
X0093057Y0237362D01*
X0093114Y0237260D01*
X0093167Y0237157D01*
X0093216Y0237052D01*
X0093262Y0236946D01*
X0093305Y0236838D01*
X0093344Y0236729D01*
X0093379Y0236618D01*
X0093411Y0236507D01*
X0093439Y0236395D01*
X0093464Y0236281D01*
X0093485Y0236167D01*
X0093502Y0236052D01*
X0093515Y0235937D01*
X0093524Y0235822D01*
X0093530Y0235706D01*
X0093532Y0235590D01*
X0093532Y0218661D01*
X0093534Y0218566D01*
X0093540Y0218471D01*
X0093549Y0218376D01*
X0093563Y0218282D01*
X0093580Y0218189D01*
X0093601Y0218096D01*
X0093625Y0218004D01*
X0093654Y0217913D01*
X0093685Y0217823D01*
X0093721Y0217735D01*
X0093760Y0217648D01*
X0093803Y0217563D01*
X0093848Y0217480D01*
X0093898Y0217399D01*
X0093950Y0217319D01*
X0094006Y0217242D01*
X0094064Y0217167D01*
X0094126Y0217095D01*
X0094191Y0217025D01*
X0094258Y0216958D01*
X0094328Y0216893D01*
X0094400Y0216831D01*
X0094475Y0216773D01*
X0094552Y0216717D01*
X0094632Y0216665D01*
X0094713Y0216615D01*
X0094796Y0216570D01*
X0094881Y0216527D01*
X0094968Y0216488D01*
X0095056Y0216452D01*
X0095146Y0216421D01*
X0095237Y0216392D01*
X0095329Y0216368D01*
X0095422Y0216347D01*
X0095515Y0216330D01*
X0095609Y0216316D01*
X0095704Y0216307D01*
X0095799Y0216301D01*
X0095894Y0216299D01*
X0095894Y0216298D02*
X0140776Y0216298D01*
X0140776Y0216299D02*
X0140871Y0216301D01*
X0140966Y0216307D01*
X0141061Y0216316D01*
X0141155Y0216330D01*
X0141248Y0216347D01*
X0141341Y0216368D01*
X0141433Y0216392D01*
X0141524Y0216421D01*
X0141614Y0216452D01*
X0141702Y0216488D01*
X0141789Y0216527D01*
X0141874Y0216570D01*
X0141957Y0216615D01*
X0142038Y0216665D01*
X0142118Y0216717D01*
X0142195Y0216773D01*
X0142270Y0216831D01*
X0142342Y0216893D01*
X0142412Y0216958D01*
X0142479Y0217025D01*
X0142544Y0217095D01*
X0142606Y0217167D01*
X0142664Y0217242D01*
X0142720Y0217319D01*
X0142772Y0217399D01*
X0142822Y0217480D01*
X0142867Y0217563D01*
X0142910Y0217648D01*
X0142949Y0217735D01*
X0142985Y0217823D01*
X0143016Y0217913D01*
X0143045Y0218004D01*
X0143069Y0218096D01*
X0143090Y0218189D01*
X0143107Y0218282D01*
X0143121Y0218376D01*
X0143130Y0218471D01*
X0143136Y0218566D01*
X0143138Y0218661D01*
X0143139Y0218661D02*
X0143139Y0237558D01*
X0143138Y0237558D02*
X0143140Y0237644D01*
X0143145Y0237730D01*
X0143155Y0237815D01*
X0143168Y0237900D01*
X0143185Y0237984D01*
X0143205Y0238068D01*
X0143229Y0238150D01*
X0143257Y0238231D01*
X0143288Y0238312D01*
X0143322Y0238390D01*
X0143360Y0238467D01*
X0143402Y0238543D01*
X0143446Y0238616D01*
X0143494Y0238687D01*
X0143545Y0238757D01*
X0143599Y0238824D01*
X0143655Y0238888D01*
X0143715Y0238950D01*
X0143777Y0239010D01*
X0143841Y0239066D01*
X0143908Y0239120D01*
X0143978Y0239171D01*
X0144049Y0239219D01*
X0144123Y0239263D01*
X0144198Y0239305D01*
X0144275Y0239343D01*
X0144353Y0239377D01*
X0144434Y0239408D01*
X0144515Y0239436D01*
X0144597Y0239460D01*
X0144681Y0239480D01*
X0144765Y0239497D01*
X0144850Y0239510D01*
X0144935Y0239520D01*
X0145021Y0239525D01*
X0145107Y0239527D01*
X0178965Y0239527D01*
X0179122Y0239525D01*
X0179279Y0239519D01*
X0179436Y0239509D01*
X0179592Y0239496D01*
X0179748Y0239478D01*
X0179904Y0239457D01*
X0180059Y0239431D01*
X0180213Y0239402D01*
X0180367Y0239369D01*
X0180519Y0239332D01*
X0180671Y0239292D01*
X0180822Y0239247D01*
X0180971Y0239199D01*
X0181119Y0239147D01*
X0181266Y0239092D01*
X0181412Y0239032D01*
X0181556Y0238970D01*
X0181698Y0238903D01*
X0181839Y0238833D01*
X0181978Y0238760D01*
X0182115Y0238683D01*
X0182250Y0238603D01*
X0182382Y0238519D01*
X0182513Y0238432D01*
X0182642Y0238342D01*
X0182768Y0238249D01*
X0182892Y0238153D01*
X0183014Y0238053D01*
X0183133Y0237951D01*
X0183249Y0237845D01*
X0183363Y0237737D01*
X0183474Y0237626D01*
X0183582Y0237512D01*
X0183688Y0237396D01*
X0183790Y0237277D01*
X0183890Y0237155D01*
X0183986Y0237031D01*
X0184079Y0236905D01*
X0184169Y0236776D01*
X0184256Y0236645D01*
X0184340Y0236513D01*
X0184420Y0236378D01*
X0184497Y0236241D01*
X0184570Y0236102D01*
X0184640Y0235961D01*
X0184707Y0235819D01*
X0184769Y0235675D01*
X0184829Y0235529D01*
X0184884Y0235382D01*
X0184936Y0235234D01*
X0184984Y0235085D01*
X0185029Y0234934D01*
X0185069Y0234782D01*
X0185106Y0234630D01*
X0185139Y0234476D01*
X0185168Y0234322D01*
X0185194Y0234167D01*
X0185215Y0234011D01*
X0185233Y0233855D01*
X0185246Y0233699D01*
X0185256Y0233542D01*
X0185262Y0233385D01*
X0185264Y0233228D01*
X0185265Y0233228D02*
X0185265Y0052519D01*
X0185263Y0052319D01*
X0185255Y0052120D01*
X0185243Y0051920D01*
X0185226Y0051721D01*
X0185205Y0051522D01*
X0185178Y0051324D01*
X0185147Y0051127D01*
X0185111Y0050930D01*
X0185070Y0050735D01*
X0185025Y0050540D01*
X0184975Y0050347D01*
X0184920Y0050155D01*
X0184860Y0049964D01*
X0184796Y0049775D01*
X0184728Y0049587D01*
X0184655Y0049401D01*
X0184577Y0049217D01*
X0184495Y0049035D01*
X0184409Y0048855D01*
X0184318Y0048677D01*
X0184223Y0048501D01*
X0184124Y0048327D01*
X0184020Y0048156D01*
X0183913Y0047988D01*
X0183801Y0047822D01*
X0183686Y0047659D01*
X0183567Y0047499D01*
X0183443Y0047342D01*
X0183316Y0047187D01*
X0183186Y0047036D01*
X0183051Y0046888D01*
X0182914Y0046744D01*
X0182772Y0046602D01*
X0182628Y0046465D01*
X0182480Y0046330D01*
X0182329Y0046200D01*
X0182174Y0046073D01*
X0182017Y0045949D01*
X0181857Y0045830D01*
X0181694Y0045715D01*
X0181528Y0045603D01*
X0181360Y0045496D01*
X0181189Y0045392D01*
X0181015Y0045293D01*
X0180839Y0045198D01*
X0180661Y0045107D01*
X0180481Y0045021D01*
X0180299Y0044939D01*
X0180115Y0044861D01*
X0179929Y0044788D01*
X0179741Y0044720D01*
X0179552Y0044656D01*
X0179361Y0044596D01*
X0179169Y0044541D01*
X0178976Y0044491D01*
X0178781Y0044446D01*
X0178586Y0044405D01*
X0178389Y0044369D01*
X0178192Y0044338D01*
X0177994Y0044311D01*
X0177795Y0044290D01*
X0177596Y0044273D01*
X0177396Y0044261D01*
X0177197Y0044253D01*
X0176997Y0044251D01*
X0119362Y0137246D02*
X0119362Y0138427D01*
X0149263Y0175285D02*
X0149139Y0175409D01*
X0166756Y0169285D02*
X0166756Y0168742D01*
X0084572Y0183283D02*
X0084598Y0184883D01*
X0084572Y0191157D02*
X0079380Y0192731D01*
X0068724Y0187395D02*
X0054945Y0187395D01*
X0049039Y0141974D02*
X0047465Y0140399D01*
D12*
X0084572Y0151787D03*
X0084572Y0159661D03*
X0084572Y0167535D03*
X0084572Y0175409D03*
X0084572Y0183283D03*
X0084572Y0191157D03*
X0084572Y0199031D03*
X0084572Y0206905D03*
X0149139Y0206905D03*
X0149139Y0199031D03*
X0149139Y0191157D03*
X0149139Y0183283D03*
X0149139Y0175409D03*
X0149139Y0167535D03*
X0149139Y0159661D03*
X0149139Y0151787D03*
D13*
X0173541Y0180302D02*
X0179541Y0180302D01*
X0179541Y0190302D02*
X0173541Y0190302D01*
X0173541Y0200302D02*
X0179541Y0200302D01*
X0179541Y0210302D02*
X0173541Y0210302D01*
X0173541Y0220302D02*
X0179541Y0220302D01*
X0179541Y0230302D02*
X0173541Y0230302D01*
D14*
X0119910Y0115905D03*
X0101013Y0115905D03*
D15*
X0034788Y0140399D03*
X0022977Y0140399D03*
D16*
X0028883Y0141777D03*
D17*
X0028883Y0150832D03*
D18*
X0028883Y0150970D03*
X0028883Y0149002D03*
X0028883Y0146639D03*
X0028883Y0143490D03*
X0028883Y0140734D03*
X0028489Y0153332D03*
D19*
X0141957Y0064823D02*
X0141957Y0057773D01*
X0161643Y0057773D02*
X0161643Y0064823D01*
D20*
X0158493Y0091889D03*
X0144320Y0091889D03*
D21*
X0053908Y0098756D03*
X0043672Y0098756D03*
X0043672Y0122772D03*
X0053908Y0122772D03*
D22*
X0071008Y0086458D02*
X0078882Y0086458D01*
X0094630Y0078584D02*
X0094630Y0070710D01*
X0078882Y0061655D02*
X0071008Y0061655D01*
D23*
X0126730Y0072303D02*
X0126730Y0074929D01*
X0126730Y0072303D02*
X0124104Y0072303D01*
X0124104Y0074929D01*
X0126730Y0074929D01*
X0126730Y0073177D02*
X0124104Y0073177D01*
X0124104Y0074051D02*
X0126730Y0074051D01*
X0126730Y0074925D02*
X0124104Y0074925D01*
X0126730Y0078303D02*
X0126730Y0080929D01*
X0126730Y0078303D02*
X0124104Y0078303D01*
X0124104Y0080929D01*
X0126730Y0080929D01*
X0126730Y0079177D02*
X0124104Y0079177D01*
X0124104Y0080051D02*
X0126730Y0080051D01*
X0126730Y0080925D02*
X0124104Y0080925D01*
X0120675Y0135933D02*
X0118049Y0135933D01*
X0118049Y0138559D01*
X0120675Y0138559D01*
X0120675Y0135933D01*
X0120675Y0136807D02*
X0118049Y0136807D01*
X0118049Y0137681D02*
X0120675Y0137681D01*
X0120675Y0138555D02*
X0118049Y0138555D01*
X0114675Y0135933D02*
X0112049Y0135933D01*
X0112049Y0138559D01*
X0114675Y0138559D01*
X0114675Y0135933D01*
X0114675Y0136807D02*
X0112049Y0136807D01*
X0112049Y0137681D02*
X0114675Y0137681D01*
X0114675Y0138555D02*
X0112049Y0138555D01*
X0067411Y0186082D02*
X0067411Y0188708D01*
X0070037Y0188708D01*
X0070037Y0186082D01*
X0067411Y0186082D01*
X0067411Y0186956D02*
X0070037Y0186956D01*
X0070037Y0187830D02*
X0067411Y0187830D01*
X0067411Y0188704D02*
X0070037Y0188704D01*
X0067411Y0192082D02*
X0067411Y0194708D01*
X0070037Y0194708D01*
X0070037Y0192082D01*
X0067411Y0192082D01*
X0067411Y0192956D02*
X0070037Y0192956D01*
X0070037Y0193830D02*
X0067411Y0193830D01*
X0067411Y0194704D02*
X0070037Y0194704D01*
X0053632Y0194708D02*
X0053632Y0192082D01*
X0053632Y0194708D02*
X0056258Y0194708D01*
X0056258Y0192082D01*
X0053632Y0192082D01*
X0053632Y0192956D02*
X0056258Y0192956D01*
X0056258Y0193830D02*
X0053632Y0193830D01*
X0053632Y0194704D02*
X0056258Y0194704D01*
X0053632Y0188708D02*
X0053632Y0186082D01*
X0053632Y0188708D02*
X0056258Y0188708D01*
X0056258Y0186082D01*
X0053632Y0186082D01*
X0053632Y0186956D02*
X0056258Y0186956D01*
X0056258Y0187830D02*
X0053632Y0187830D01*
X0053632Y0188704D02*
X0056258Y0188704D01*
X0164526Y0161637D02*
X0164526Y0159011D01*
X0161900Y0159011D01*
X0161900Y0161637D01*
X0164526Y0161637D01*
X0164526Y0159885D02*
X0161900Y0159885D01*
X0161900Y0160759D02*
X0164526Y0160759D01*
X0164526Y0161633D02*
X0161900Y0161633D01*
X0164526Y0155637D02*
X0164526Y0153011D01*
X0161900Y0153011D01*
X0161900Y0155637D01*
X0164526Y0155637D01*
X0164526Y0153885D02*
X0161900Y0153885D01*
X0161900Y0154759D02*
X0164526Y0154759D01*
X0164526Y0155633D02*
X0161900Y0155633D01*
X0165443Y0167972D02*
X0165443Y0170598D01*
X0168069Y0170598D01*
X0168069Y0167972D01*
X0165443Y0167972D01*
X0165443Y0168846D02*
X0168069Y0168846D01*
X0168069Y0169720D02*
X0165443Y0169720D01*
X0165443Y0170594D02*
X0168069Y0170594D01*
X0165443Y0173972D02*
X0165443Y0176598D01*
X0168069Y0176598D01*
X0168069Y0173972D01*
X0165443Y0173972D01*
X0165443Y0174846D02*
X0168069Y0174846D01*
X0168069Y0175720D02*
X0165443Y0175720D01*
X0165443Y0176594D02*
X0168069Y0176594D01*
D24*
X0062327Y0207167D03*
X0062327Y0217167D03*
X0062327Y0227167D03*
X0037327Y0227167D03*
X0037327Y0217167D03*
X0037327Y0207167D03*
D25*
X0048227Y0211167D02*
X0048229Y0211247D01*
X0048235Y0211326D01*
X0048245Y0211405D01*
X0048259Y0211484D01*
X0048276Y0211562D01*
X0048298Y0211639D01*
X0048323Y0211714D01*
X0048353Y0211788D01*
X0048385Y0211861D01*
X0048422Y0211932D01*
X0048462Y0212001D01*
X0048505Y0212068D01*
X0048552Y0212133D01*
X0048601Y0212195D01*
X0048654Y0212255D01*
X0048710Y0212312D01*
X0048768Y0212367D01*
X0048829Y0212418D01*
X0048893Y0212466D01*
X0048959Y0212511D01*
X0049027Y0212553D01*
X0049097Y0212591D01*
X0049169Y0212625D01*
X0049242Y0212656D01*
X0049317Y0212684D01*
X0049394Y0212707D01*
X0049471Y0212727D01*
X0049549Y0212743D01*
X0049628Y0212755D01*
X0049707Y0212763D01*
X0049787Y0212767D01*
X0049867Y0212767D01*
X0049947Y0212763D01*
X0050026Y0212755D01*
X0050105Y0212743D01*
X0050183Y0212727D01*
X0050260Y0212707D01*
X0050337Y0212684D01*
X0050412Y0212656D01*
X0050485Y0212625D01*
X0050557Y0212591D01*
X0050627Y0212553D01*
X0050695Y0212511D01*
X0050761Y0212466D01*
X0050825Y0212418D01*
X0050886Y0212367D01*
X0050944Y0212312D01*
X0051000Y0212255D01*
X0051053Y0212195D01*
X0051102Y0212133D01*
X0051149Y0212068D01*
X0051192Y0212001D01*
X0051232Y0211932D01*
X0051269Y0211861D01*
X0051301Y0211788D01*
X0051331Y0211714D01*
X0051356Y0211639D01*
X0051378Y0211562D01*
X0051395Y0211484D01*
X0051409Y0211405D01*
X0051419Y0211326D01*
X0051425Y0211247D01*
X0051427Y0211167D01*
X0051425Y0211087D01*
X0051419Y0211008D01*
X0051409Y0210929D01*
X0051395Y0210850D01*
X0051378Y0210772D01*
X0051356Y0210695D01*
X0051331Y0210620D01*
X0051301Y0210546D01*
X0051269Y0210473D01*
X0051232Y0210402D01*
X0051192Y0210333D01*
X0051149Y0210266D01*
X0051102Y0210201D01*
X0051053Y0210139D01*
X0051000Y0210079D01*
X0050944Y0210022D01*
X0050886Y0209967D01*
X0050825Y0209916D01*
X0050761Y0209868D01*
X0050695Y0209823D01*
X0050627Y0209781D01*
X0050557Y0209743D01*
X0050485Y0209709D01*
X0050412Y0209678D01*
X0050337Y0209650D01*
X0050260Y0209627D01*
X0050183Y0209607D01*
X0050105Y0209591D01*
X0050026Y0209579D01*
X0049947Y0209571D01*
X0049867Y0209567D01*
X0049787Y0209567D01*
X0049707Y0209571D01*
X0049628Y0209579D01*
X0049549Y0209591D01*
X0049471Y0209607D01*
X0049394Y0209627D01*
X0049317Y0209650D01*
X0049242Y0209678D01*
X0049169Y0209709D01*
X0049097Y0209743D01*
X0049027Y0209781D01*
X0048959Y0209823D01*
X0048893Y0209868D01*
X0048829Y0209916D01*
X0048768Y0209967D01*
X0048710Y0210022D01*
X0048654Y0210079D01*
X0048601Y0210139D01*
X0048552Y0210201D01*
X0048505Y0210266D01*
X0048462Y0210333D01*
X0048422Y0210402D01*
X0048385Y0210473D01*
X0048353Y0210546D01*
X0048323Y0210620D01*
X0048298Y0210695D01*
X0048276Y0210772D01*
X0048259Y0210850D01*
X0048245Y0210929D01*
X0048235Y0211008D01*
X0048229Y0211087D01*
X0048227Y0211167D01*
X0048227Y0223167D02*
X0048229Y0223247D01*
X0048235Y0223326D01*
X0048245Y0223405D01*
X0048259Y0223484D01*
X0048276Y0223562D01*
X0048298Y0223639D01*
X0048323Y0223714D01*
X0048353Y0223788D01*
X0048385Y0223861D01*
X0048422Y0223932D01*
X0048462Y0224001D01*
X0048505Y0224068D01*
X0048552Y0224133D01*
X0048601Y0224195D01*
X0048654Y0224255D01*
X0048710Y0224312D01*
X0048768Y0224367D01*
X0048829Y0224418D01*
X0048893Y0224466D01*
X0048959Y0224511D01*
X0049027Y0224553D01*
X0049097Y0224591D01*
X0049169Y0224625D01*
X0049242Y0224656D01*
X0049317Y0224684D01*
X0049394Y0224707D01*
X0049471Y0224727D01*
X0049549Y0224743D01*
X0049628Y0224755D01*
X0049707Y0224763D01*
X0049787Y0224767D01*
X0049867Y0224767D01*
X0049947Y0224763D01*
X0050026Y0224755D01*
X0050105Y0224743D01*
X0050183Y0224727D01*
X0050260Y0224707D01*
X0050337Y0224684D01*
X0050412Y0224656D01*
X0050485Y0224625D01*
X0050557Y0224591D01*
X0050627Y0224553D01*
X0050695Y0224511D01*
X0050761Y0224466D01*
X0050825Y0224418D01*
X0050886Y0224367D01*
X0050944Y0224312D01*
X0051000Y0224255D01*
X0051053Y0224195D01*
X0051102Y0224133D01*
X0051149Y0224068D01*
X0051192Y0224001D01*
X0051232Y0223932D01*
X0051269Y0223861D01*
X0051301Y0223788D01*
X0051331Y0223714D01*
X0051356Y0223639D01*
X0051378Y0223562D01*
X0051395Y0223484D01*
X0051409Y0223405D01*
X0051419Y0223326D01*
X0051425Y0223247D01*
X0051427Y0223167D01*
X0051425Y0223087D01*
X0051419Y0223008D01*
X0051409Y0222929D01*
X0051395Y0222850D01*
X0051378Y0222772D01*
X0051356Y0222695D01*
X0051331Y0222620D01*
X0051301Y0222546D01*
X0051269Y0222473D01*
X0051232Y0222402D01*
X0051192Y0222333D01*
X0051149Y0222266D01*
X0051102Y0222201D01*
X0051053Y0222139D01*
X0051000Y0222079D01*
X0050944Y0222022D01*
X0050886Y0221967D01*
X0050825Y0221916D01*
X0050761Y0221868D01*
X0050695Y0221823D01*
X0050627Y0221781D01*
X0050557Y0221743D01*
X0050485Y0221709D01*
X0050412Y0221678D01*
X0050337Y0221650D01*
X0050260Y0221627D01*
X0050183Y0221607D01*
X0050105Y0221591D01*
X0050026Y0221579D01*
X0049947Y0221571D01*
X0049867Y0221567D01*
X0049787Y0221567D01*
X0049707Y0221571D01*
X0049628Y0221579D01*
X0049549Y0221591D01*
X0049471Y0221607D01*
X0049394Y0221627D01*
X0049317Y0221650D01*
X0049242Y0221678D01*
X0049169Y0221709D01*
X0049097Y0221743D01*
X0049027Y0221781D01*
X0048959Y0221823D01*
X0048893Y0221868D01*
X0048829Y0221916D01*
X0048768Y0221967D01*
X0048710Y0222022D01*
X0048654Y0222079D01*
X0048601Y0222139D01*
X0048552Y0222201D01*
X0048505Y0222266D01*
X0048462Y0222333D01*
X0048422Y0222402D01*
X0048385Y0222473D01*
X0048353Y0222546D01*
X0048323Y0222620D01*
X0048298Y0222695D01*
X0048276Y0222772D01*
X0048259Y0222850D01*
X0048245Y0222929D01*
X0048235Y0223008D01*
X0048229Y0223087D01*
X0048227Y0223167D01*
X0018036Y0202403D02*
X0018038Y0202489D01*
X0018044Y0202576D01*
X0018054Y0202661D01*
X0018068Y0202747D01*
X0018086Y0202831D01*
X0018107Y0202915D01*
X0018133Y0202997D01*
X0018162Y0203079D01*
X0018195Y0203158D01*
X0018232Y0203237D01*
X0018272Y0203313D01*
X0018316Y0203387D01*
X0018363Y0203460D01*
X0018414Y0203530D01*
X0018467Y0203598D01*
X0018524Y0203663D01*
X0018584Y0203725D01*
X0018646Y0203785D01*
X0018711Y0203842D01*
X0018779Y0203895D01*
X0018849Y0203946D01*
X0018922Y0203993D01*
X0018996Y0204037D01*
X0019072Y0204077D01*
X0019151Y0204114D01*
X0019230Y0204147D01*
X0019312Y0204176D01*
X0019394Y0204202D01*
X0019478Y0204223D01*
X0019562Y0204241D01*
X0019648Y0204255D01*
X0019733Y0204265D01*
X0019820Y0204271D01*
X0019906Y0204273D01*
X0019992Y0204271D01*
X0020079Y0204265D01*
X0020164Y0204255D01*
X0020250Y0204241D01*
X0020334Y0204223D01*
X0020418Y0204202D01*
X0020500Y0204176D01*
X0020582Y0204147D01*
X0020661Y0204114D01*
X0020740Y0204077D01*
X0020816Y0204037D01*
X0020890Y0203993D01*
X0020963Y0203946D01*
X0021033Y0203895D01*
X0021101Y0203842D01*
X0021166Y0203785D01*
X0021228Y0203725D01*
X0021288Y0203663D01*
X0021345Y0203598D01*
X0021398Y0203530D01*
X0021449Y0203460D01*
X0021496Y0203387D01*
X0021540Y0203313D01*
X0021580Y0203237D01*
X0021617Y0203158D01*
X0021650Y0203079D01*
X0021679Y0202997D01*
X0021705Y0202915D01*
X0021726Y0202831D01*
X0021744Y0202747D01*
X0021758Y0202661D01*
X0021768Y0202576D01*
X0021774Y0202489D01*
X0021776Y0202403D01*
X0021774Y0202317D01*
X0021768Y0202230D01*
X0021758Y0202145D01*
X0021744Y0202059D01*
X0021726Y0201975D01*
X0021705Y0201891D01*
X0021679Y0201809D01*
X0021650Y0201727D01*
X0021617Y0201648D01*
X0021580Y0201569D01*
X0021540Y0201493D01*
X0021496Y0201419D01*
X0021449Y0201346D01*
X0021398Y0201276D01*
X0021345Y0201208D01*
X0021288Y0201143D01*
X0021228Y0201081D01*
X0021166Y0201021D01*
X0021101Y0200964D01*
X0021033Y0200911D01*
X0020963Y0200860D01*
X0020890Y0200813D01*
X0020816Y0200769D01*
X0020740Y0200729D01*
X0020661Y0200692D01*
X0020582Y0200659D01*
X0020500Y0200630D01*
X0020418Y0200604D01*
X0020334Y0200583D01*
X0020250Y0200565D01*
X0020164Y0200551D01*
X0020079Y0200541D01*
X0019992Y0200535D01*
X0019906Y0200533D01*
X0019820Y0200535D01*
X0019733Y0200541D01*
X0019648Y0200551D01*
X0019562Y0200565D01*
X0019478Y0200583D01*
X0019394Y0200604D01*
X0019312Y0200630D01*
X0019230Y0200659D01*
X0019151Y0200692D01*
X0019072Y0200729D01*
X0018996Y0200769D01*
X0018922Y0200813D01*
X0018849Y0200860D01*
X0018779Y0200911D01*
X0018711Y0200964D01*
X0018646Y0201021D01*
X0018584Y0201081D01*
X0018524Y0201143D01*
X0018467Y0201208D01*
X0018414Y0201276D01*
X0018363Y0201346D01*
X0018316Y0201419D01*
X0018272Y0201493D01*
X0018232Y0201569D01*
X0018195Y0201648D01*
X0018162Y0201727D01*
X0018133Y0201809D01*
X0018107Y0201891D01*
X0018086Y0201975D01*
X0018068Y0202059D01*
X0018054Y0202145D01*
X0018044Y0202230D01*
X0018038Y0202317D01*
X0018036Y0202403D01*
X0018036Y0193348D02*
X0018038Y0193434D01*
X0018044Y0193521D01*
X0018054Y0193606D01*
X0018068Y0193692D01*
X0018086Y0193776D01*
X0018107Y0193860D01*
X0018133Y0193942D01*
X0018162Y0194024D01*
X0018195Y0194103D01*
X0018232Y0194182D01*
X0018272Y0194258D01*
X0018316Y0194332D01*
X0018363Y0194405D01*
X0018414Y0194475D01*
X0018467Y0194543D01*
X0018524Y0194608D01*
X0018584Y0194670D01*
X0018646Y0194730D01*
X0018711Y0194787D01*
X0018779Y0194840D01*
X0018849Y0194891D01*
X0018922Y0194938D01*
X0018996Y0194982D01*
X0019072Y0195022D01*
X0019151Y0195059D01*
X0019230Y0195092D01*
X0019312Y0195121D01*
X0019394Y0195147D01*
X0019478Y0195168D01*
X0019562Y0195186D01*
X0019648Y0195200D01*
X0019733Y0195210D01*
X0019820Y0195216D01*
X0019906Y0195218D01*
X0019992Y0195216D01*
X0020079Y0195210D01*
X0020164Y0195200D01*
X0020250Y0195186D01*
X0020334Y0195168D01*
X0020418Y0195147D01*
X0020500Y0195121D01*
X0020582Y0195092D01*
X0020661Y0195059D01*
X0020740Y0195022D01*
X0020816Y0194982D01*
X0020890Y0194938D01*
X0020963Y0194891D01*
X0021033Y0194840D01*
X0021101Y0194787D01*
X0021166Y0194730D01*
X0021228Y0194670D01*
X0021288Y0194608D01*
X0021345Y0194543D01*
X0021398Y0194475D01*
X0021449Y0194405D01*
X0021496Y0194332D01*
X0021540Y0194258D01*
X0021580Y0194182D01*
X0021617Y0194103D01*
X0021650Y0194024D01*
X0021679Y0193942D01*
X0021705Y0193860D01*
X0021726Y0193776D01*
X0021744Y0193692D01*
X0021758Y0193606D01*
X0021768Y0193521D01*
X0021774Y0193434D01*
X0021776Y0193348D01*
X0021774Y0193262D01*
X0021768Y0193175D01*
X0021758Y0193090D01*
X0021744Y0193004D01*
X0021726Y0192920D01*
X0021705Y0192836D01*
X0021679Y0192754D01*
X0021650Y0192672D01*
X0021617Y0192593D01*
X0021580Y0192514D01*
X0021540Y0192438D01*
X0021496Y0192364D01*
X0021449Y0192291D01*
X0021398Y0192221D01*
X0021345Y0192153D01*
X0021288Y0192088D01*
X0021228Y0192026D01*
X0021166Y0191966D01*
X0021101Y0191909D01*
X0021033Y0191856D01*
X0020963Y0191805D01*
X0020890Y0191758D01*
X0020816Y0191714D01*
X0020740Y0191674D01*
X0020661Y0191637D01*
X0020582Y0191604D01*
X0020500Y0191575D01*
X0020418Y0191549D01*
X0020334Y0191528D01*
X0020250Y0191510D01*
X0020164Y0191496D01*
X0020079Y0191486D01*
X0019992Y0191480D01*
X0019906Y0191478D01*
X0019820Y0191480D01*
X0019733Y0191486D01*
X0019648Y0191496D01*
X0019562Y0191510D01*
X0019478Y0191528D01*
X0019394Y0191549D01*
X0019312Y0191575D01*
X0019230Y0191604D01*
X0019151Y0191637D01*
X0019072Y0191674D01*
X0018996Y0191714D01*
X0018922Y0191758D01*
X0018849Y0191805D01*
X0018779Y0191856D01*
X0018711Y0191909D01*
X0018646Y0191966D01*
X0018584Y0192026D01*
X0018524Y0192088D01*
X0018467Y0192153D01*
X0018414Y0192221D01*
X0018363Y0192291D01*
X0018316Y0192364D01*
X0018272Y0192438D01*
X0018232Y0192514D01*
X0018195Y0192593D01*
X0018162Y0192672D01*
X0018133Y0192754D01*
X0018107Y0192836D01*
X0018086Y0192920D01*
X0018068Y0193004D01*
X0018054Y0193090D01*
X0018044Y0193175D01*
X0018038Y0193262D01*
X0018036Y0193348D01*
X0018429Y0105946D02*
X0018431Y0106032D01*
X0018437Y0106119D01*
X0018447Y0106204D01*
X0018461Y0106290D01*
X0018479Y0106374D01*
X0018500Y0106458D01*
X0018526Y0106540D01*
X0018555Y0106622D01*
X0018588Y0106701D01*
X0018625Y0106780D01*
X0018665Y0106856D01*
X0018709Y0106930D01*
X0018756Y0107003D01*
X0018807Y0107073D01*
X0018860Y0107141D01*
X0018917Y0107206D01*
X0018977Y0107268D01*
X0019039Y0107328D01*
X0019104Y0107385D01*
X0019172Y0107438D01*
X0019242Y0107489D01*
X0019315Y0107536D01*
X0019389Y0107580D01*
X0019465Y0107620D01*
X0019544Y0107657D01*
X0019623Y0107690D01*
X0019705Y0107719D01*
X0019787Y0107745D01*
X0019871Y0107766D01*
X0019955Y0107784D01*
X0020041Y0107798D01*
X0020126Y0107808D01*
X0020213Y0107814D01*
X0020299Y0107816D01*
X0020385Y0107814D01*
X0020472Y0107808D01*
X0020557Y0107798D01*
X0020643Y0107784D01*
X0020727Y0107766D01*
X0020811Y0107745D01*
X0020893Y0107719D01*
X0020975Y0107690D01*
X0021054Y0107657D01*
X0021133Y0107620D01*
X0021209Y0107580D01*
X0021283Y0107536D01*
X0021356Y0107489D01*
X0021426Y0107438D01*
X0021494Y0107385D01*
X0021559Y0107328D01*
X0021621Y0107268D01*
X0021681Y0107206D01*
X0021738Y0107141D01*
X0021791Y0107073D01*
X0021842Y0107003D01*
X0021889Y0106930D01*
X0021933Y0106856D01*
X0021973Y0106780D01*
X0022010Y0106701D01*
X0022043Y0106622D01*
X0022072Y0106540D01*
X0022098Y0106458D01*
X0022119Y0106374D01*
X0022137Y0106290D01*
X0022151Y0106204D01*
X0022161Y0106119D01*
X0022167Y0106032D01*
X0022169Y0105946D01*
X0022167Y0105860D01*
X0022161Y0105773D01*
X0022151Y0105688D01*
X0022137Y0105602D01*
X0022119Y0105518D01*
X0022098Y0105434D01*
X0022072Y0105352D01*
X0022043Y0105270D01*
X0022010Y0105191D01*
X0021973Y0105112D01*
X0021933Y0105036D01*
X0021889Y0104962D01*
X0021842Y0104889D01*
X0021791Y0104819D01*
X0021738Y0104751D01*
X0021681Y0104686D01*
X0021621Y0104624D01*
X0021559Y0104564D01*
X0021494Y0104507D01*
X0021426Y0104454D01*
X0021356Y0104403D01*
X0021283Y0104356D01*
X0021209Y0104312D01*
X0021133Y0104272D01*
X0021054Y0104235D01*
X0020975Y0104202D01*
X0020893Y0104173D01*
X0020811Y0104147D01*
X0020727Y0104126D01*
X0020643Y0104108D01*
X0020557Y0104094D01*
X0020472Y0104084D01*
X0020385Y0104078D01*
X0020299Y0104076D01*
X0020213Y0104078D01*
X0020126Y0104084D01*
X0020041Y0104094D01*
X0019955Y0104108D01*
X0019871Y0104126D01*
X0019787Y0104147D01*
X0019705Y0104173D01*
X0019623Y0104202D01*
X0019544Y0104235D01*
X0019465Y0104272D01*
X0019389Y0104312D01*
X0019315Y0104356D01*
X0019242Y0104403D01*
X0019172Y0104454D01*
X0019104Y0104507D01*
X0019039Y0104564D01*
X0018977Y0104624D01*
X0018917Y0104686D01*
X0018860Y0104751D01*
X0018807Y0104819D01*
X0018756Y0104889D01*
X0018709Y0104962D01*
X0018665Y0105036D01*
X0018625Y0105112D01*
X0018588Y0105191D01*
X0018555Y0105270D01*
X0018526Y0105352D01*
X0018500Y0105434D01*
X0018479Y0105518D01*
X0018461Y0105602D01*
X0018447Y0105688D01*
X0018437Y0105773D01*
X0018431Y0105860D01*
X0018429Y0105946D01*
X0018429Y0096891D02*
X0018431Y0096977D01*
X0018437Y0097064D01*
X0018447Y0097149D01*
X0018461Y0097235D01*
X0018479Y0097319D01*
X0018500Y0097403D01*
X0018526Y0097485D01*
X0018555Y0097567D01*
X0018588Y0097646D01*
X0018625Y0097725D01*
X0018665Y0097801D01*
X0018709Y0097875D01*
X0018756Y0097948D01*
X0018807Y0098018D01*
X0018860Y0098086D01*
X0018917Y0098151D01*
X0018977Y0098213D01*
X0019039Y0098273D01*
X0019104Y0098330D01*
X0019172Y0098383D01*
X0019242Y0098434D01*
X0019315Y0098481D01*
X0019389Y0098525D01*
X0019465Y0098565D01*
X0019544Y0098602D01*
X0019623Y0098635D01*
X0019705Y0098664D01*
X0019787Y0098690D01*
X0019871Y0098711D01*
X0019955Y0098729D01*
X0020041Y0098743D01*
X0020126Y0098753D01*
X0020213Y0098759D01*
X0020299Y0098761D01*
X0020385Y0098759D01*
X0020472Y0098753D01*
X0020557Y0098743D01*
X0020643Y0098729D01*
X0020727Y0098711D01*
X0020811Y0098690D01*
X0020893Y0098664D01*
X0020975Y0098635D01*
X0021054Y0098602D01*
X0021133Y0098565D01*
X0021209Y0098525D01*
X0021283Y0098481D01*
X0021356Y0098434D01*
X0021426Y0098383D01*
X0021494Y0098330D01*
X0021559Y0098273D01*
X0021621Y0098213D01*
X0021681Y0098151D01*
X0021738Y0098086D01*
X0021791Y0098018D01*
X0021842Y0097948D01*
X0021889Y0097875D01*
X0021933Y0097801D01*
X0021973Y0097725D01*
X0022010Y0097646D01*
X0022043Y0097567D01*
X0022072Y0097485D01*
X0022098Y0097403D01*
X0022119Y0097319D01*
X0022137Y0097235D01*
X0022151Y0097149D01*
X0022161Y0097064D01*
X0022167Y0096977D01*
X0022169Y0096891D01*
X0022167Y0096805D01*
X0022161Y0096718D01*
X0022151Y0096633D01*
X0022137Y0096547D01*
X0022119Y0096463D01*
X0022098Y0096379D01*
X0022072Y0096297D01*
X0022043Y0096215D01*
X0022010Y0096136D01*
X0021973Y0096057D01*
X0021933Y0095981D01*
X0021889Y0095907D01*
X0021842Y0095834D01*
X0021791Y0095764D01*
X0021738Y0095696D01*
X0021681Y0095631D01*
X0021621Y0095569D01*
X0021559Y0095509D01*
X0021494Y0095452D01*
X0021426Y0095399D01*
X0021356Y0095348D01*
X0021283Y0095301D01*
X0021209Y0095257D01*
X0021133Y0095217D01*
X0021054Y0095180D01*
X0020975Y0095147D01*
X0020893Y0095118D01*
X0020811Y0095092D01*
X0020727Y0095071D01*
X0020643Y0095053D01*
X0020557Y0095039D01*
X0020472Y0095029D01*
X0020385Y0095023D01*
X0020299Y0095021D01*
X0020213Y0095023D01*
X0020126Y0095029D01*
X0020041Y0095039D01*
X0019955Y0095053D01*
X0019871Y0095071D01*
X0019787Y0095092D01*
X0019705Y0095118D01*
X0019623Y0095147D01*
X0019544Y0095180D01*
X0019465Y0095217D01*
X0019389Y0095257D01*
X0019315Y0095301D01*
X0019242Y0095348D01*
X0019172Y0095399D01*
X0019104Y0095452D01*
X0019039Y0095509D01*
X0018977Y0095569D01*
X0018917Y0095631D01*
X0018860Y0095696D01*
X0018807Y0095764D01*
X0018756Y0095834D01*
X0018709Y0095907D01*
X0018665Y0095981D01*
X0018625Y0096057D01*
X0018588Y0096136D01*
X0018555Y0096215D01*
X0018526Y0096297D01*
X0018500Y0096379D01*
X0018479Y0096463D01*
X0018461Y0096547D01*
X0018447Y0096633D01*
X0018437Y0096718D01*
X0018431Y0096805D01*
X0018429Y0096891D01*
D26*
X0145614Y0107521D03*
X0155614Y0107521D03*
X0155614Y0133112D03*
X0145614Y0133112D03*
D27*
X0026799Y0109919D03*
X0026799Y0092919D03*
X0026406Y0189376D03*
X0026406Y0206376D03*
D28*
X0017906Y0211876D03*
X0017906Y0183876D03*
X0018299Y0115419D03*
X0018299Y0087419D03*
D29*
X0071087Y0157364D03*
D30*
X0071087Y0147364D03*
X0071087Y0137364D03*
X0071087Y0127364D03*
D31*
X0058882Y0167954D03*
X0040772Y0188427D03*
X0061638Y0192757D03*
X0097858Y0202994D03*
X0103370Y0164017D03*
X0125024Y0159293D03*
X0136047Y0161655D03*
X0133685Y0182915D03*
X0138016Y0191183D03*
X0156913Y0233309D03*
X0136835Y0137639D03*
X0038803Y0092757D03*
D32*
X0125417Y0084883D02*
X0125417Y0079616D01*
X0125417Y0084883D02*
X0131323Y0090789D01*
X0143220Y0090789D01*
X0144320Y0091889D01*
X0144320Y0099455D01*
X0145890Y0101025D01*
X0145890Y0107246D01*
X0145614Y0107521D01*
X0155614Y0107521D02*
X0155732Y0107403D01*
X0155732Y0101025D01*
X0158493Y0098265D01*
X0158493Y0091889D01*
X0161643Y0088739D01*
X0161643Y0061298D01*
X0141957Y0061298D02*
X0129317Y0061298D01*
X0126598Y0064017D01*
X0126598Y0072435D01*
X0125417Y0073616D01*
M02*
