%
M48
M72
T01C0.02362
T02C0.03200
T03C0.03500
T04C0.03740
T05C0.03937
T06C0.04000
T07C0.04700
%
T01
X38803Y92757
X58882Y167954
X40772Y188427
X61638Y192757
X97858Y202994
X103370Y164017
X125024Y159293
X136047Y161655
X133685Y182915
X138016Y191183
X156913Y233309
X136835Y137639
T02
X49827Y211167
X49827Y223167
T03
X71087Y157364
X71087Y147364
X71087Y137364
X71087Y127364
T04
X20299Y105946
X20299Y96891
X19906Y193348
X19906Y202403
T05
X74945Y86458
X94630Y74647
X74945Y61655
T06
X176541Y180302
X176541Y190302
X176541Y200302
X176541Y210302
X176541Y220302
X176541Y230302
T07
X161643Y61298
X141957Y61298
M30
