G75*
%MOIN*%
%OFA0B0*%
%FSLAX25Y25*%
%IPPOS*%
%LPD*%
%AMOC8*
5,1,8,0,0,1.08239X$1,22.5*
%
%ADD10C,0.03200*%
%ADD11C,0.01600*%
%ADD12C,0.06400*%
%ADD13C,0.05600*%
%ADD14C,0.07874*%
%ADD15C,0.07100*%
%ADD16R,0.04362X0.04362*%
D10*
X0050092Y0058357D02*
X0050092Y0109335D01*
X0068517Y0127760D01*
X0068517Y0166736D01*
X0066548Y0168705D01*
X0081902Y0179728D02*
X0038595Y0179728D01*
X0024816Y0165949D01*
X0024816Y0128586D01*
X0024760Y0128530D01*
X0072060Y0104531D02*
X0074422Y0101382D01*
X0133477Y0101382D01*
X0137414Y0105319D01*
X0137414Y0135240D01*
X0108005Y0108508D02*
X0097217Y0108508D01*
X0092926Y0112799D01*
X0092926Y0137602D01*
X0092532Y0137996D01*
X0089383Y0152169D02*
X0089383Y0172248D01*
X0081902Y0179728D01*
X0095288Y0091933D02*
X0102439Y0091933D01*
X0108839Y0091933D02*
X0115990Y0091933D01*
X0122390Y0091933D02*
X0129540Y0091933D01*
X0137020Y0084453D01*
X0137020Y0076266D01*
X0137020Y0069866D02*
X0137020Y0061679D01*
X0137020Y0055279D02*
X0137020Y0047091D01*
X0137020Y0040691D02*
X0137020Y0032504D01*
X0137020Y0026104D02*
X0137020Y0017917D01*
X0086724Y0073133D02*
X0091745Y0078154D01*
X0091745Y0088390D01*
X0095288Y0091933D01*
X0082199Y0068607D02*
X0077178Y0063587D01*
X0077178Y0056772D01*
X0077178Y0050372D02*
X0077178Y0043558D01*
X0077178Y0037158D02*
X0077178Y0030344D01*
X0077178Y0023944D02*
X0077178Y0017130D01*
D11*
X0138202Y0016736D02*
X0010643Y0016736D01*
X0010643Y0019136D02*
X0010112Y0019188D01*
X0009132Y0019594D01*
X0008382Y0020344D01*
X0007977Y0021324D01*
X0007924Y0021854D01*
X0007924Y0029831D01*
X0008214Y0029621D01*
X0009018Y0029211D01*
X0009877Y0028932D01*
X0010769Y0028791D01*
X0014973Y0028791D01*
X0014973Y0034343D01*
X0015342Y0034343D01*
X0015342Y0028791D01*
X0019546Y0028791D01*
X0020438Y0028932D01*
X0021297Y0029211D01*
X0022101Y0029621D01*
X0022832Y0030152D01*
X0023470Y0030790D01*
X0024001Y0031521D01*
X0024411Y0032325D01*
X0024690Y0033184D01*
X0024831Y0034076D01*
X0024831Y0034343D01*
X0015342Y0034343D01*
X0015342Y0034712D01*
X0024831Y0034712D01*
X0024831Y0034979D01*
X0024690Y0035871D01*
X0024411Y0036730D01*
X0024001Y0037534D01*
X0023470Y0038265D01*
X0022832Y0038903D01*
X0022101Y0039434D01*
X0021297Y0039844D01*
X0020438Y0040123D01*
X0019546Y0040265D01*
X0015342Y0040265D01*
X0015342Y0034712D01*
X0014973Y0034712D01*
X0014973Y0040265D01*
X0010769Y0040265D01*
X0009877Y0040123D01*
X0009018Y0039844D01*
X0008214Y0039434D01*
X0007924Y0039224D01*
X0007924Y0054786D01*
X0008080Y0054631D01*
X0010118Y0053787D01*
X0020197Y0053787D01*
X0022235Y0054631D01*
X0023795Y0056190D01*
X0024639Y0058228D01*
X0024639Y0060433D01*
X0023795Y0062471D01*
X0022235Y0064031D01*
X0020197Y0064875D01*
X0010118Y0064875D01*
X0008080Y0064031D01*
X0007924Y0063875D01*
X0007924Y0205713D01*
X0007992Y0206396D01*
X0008515Y0207660D01*
X0009482Y0208627D01*
X0010746Y0209151D01*
X0011430Y0209218D01*
X0051194Y0209218D01*
X0051417Y0209196D01*
X0051829Y0209025D01*
X0052144Y0208710D01*
X0052315Y0208298D01*
X0052337Y0208075D01*
X0052337Y0190198D01*
X0053062Y0188448D01*
X0054402Y0187108D01*
X0056152Y0186383D01*
X0102928Y0186383D01*
X0104679Y0187108D01*
X0106018Y0188448D01*
X0106743Y0190198D01*
X0106743Y0209612D01*
X0140170Y0209612D01*
X0140931Y0209537D01*
X0142336Y0208955D01*
X0143412Y0207879D01*
X0143950Y0206581D01*
X0143669Y0206862D01*
X0141902Y0207594D01*
X0133589Y0207594D01*
X0131823Y0206862D01*
X0130470Y0205510D01*
X0129739Y0203743D01*
X0129739Y0201830D01*
X0130470Y0200064D01*
X0131823Y0198711D01*
X0133589Y0197980D01*
X0141902Y0197980D01*
X0143669Y0198711D01*
X0144069Y0199112D01*
X0144069Y0196461D01*
X0143669Y0196862D01*
X0141902Y0197594D01*
X0133589Y0197594D01*
X0131823Y0196862D01*
X0130470Y0195510D01*
X0129739Y0193743D01*
X0129739Y0191830D01*
X0130470Y0190064D01*
X0131823Y0188711D01*
X0133589Y0187980D01*
X0141902Y0187980D01*
X0143669Y0188711D01*
X0144069Y0189112D01*
X0144069Y0186461D01*
X0143669Y0186862D01*
X0141902Y0187594D01*
X0133589Y0187594D01*
X0131823Y0186862D01*
X0130470Y0185510D01*
X0129739Y0183743D01*
X0129739Y0181830D01*
X0130470Y0180064D01*
X0131823Y0178711D01*
X0133589Y0177980D01*
X0141902Y0177980D01*
X0143669Y0178711D01*
X0144069Y0179112D01*
X0144069Y0176461D01*
X0143669Y0176862D01*
X0141902Y0177594D01*
X0133589Y0177594D01*
X0131823Y0176862D01*
X0130470Y0175510D01*
X0129739Y0173743D01*
X0129739Y0171830D01*
X0130470Y0170064D01*
X0131823Y0168711D01*
X0133589Y0167980D01*
X0141902Y0167980D01*
X0143669Y0168711D01*
X0144069Y0169112D01*
X0144069Y0166461D01*
X0143669Y0166862D01*
X0141902Y0167594D01*
X0133589Y0167594D01*
X0131823Y0166862D01*
X0130470Y0165510D01*
X0129739Y0163743D01*
X0129739Y0161830D01*
X0130470Y0160064D01*
X0131823Y0158711D01*
X0133589Y0157980D01*
X0141902Y0157980D01*
X0143669Y0158711D01*
X0144069Y0159112D01*
X0144069Y0156697D01*
X0143566Y0157063D01*
X0142865Y0157420D01*
X0142116Y0157663D01*
X0141339Y0157787D01*
X0137946Y0157787D01*
X0137946Y0152987D01*
X0137546Y0152987D01*
X0137546Y0157787D01*
X0134152Y0157787D01*
X0133375Y0157663D01*
X0132626Y0157420D01*
X0131925Y0157063D01*
X0131288Y0156600D01*
X0130732Y0156044D01*
X0130269Y0155407D01*
X0129912Y0154706D01*
X0129669Y0153957D01*
X0129546Y0153180D01*
X0129546Y0152987D01*
X0137546Y0152987D01*
X0137546Y0152587D01*
X0137946Y0152587D01*
X0137946Y0147787D01*
X0141339Y0147787D01*
X0142116Y0147910D01*
X0142865Y0148153D01*
X0143566Y0148510D01*
X0144069Y0148876D01*
X0144069Y0025004D01*
X0143997Y0024086D01*
X0143430Y0022340D01*
X0142351Y0020855D01*
X0140865Y0019776D01*
X0140220Y0019566D01*
X0140220Y0085089D01*
X0139733Y0086265D01*
X0138833Y0087166D01*
X0131353Y0094646D01*
X0130177Y0095133D01*
X0102813Y0095133D01*
X0102813Y0095561D01*
X0102447Y0096446D01*
X0101770Y0097123D01*
X0100885Y0097490D01*
X0099927Y0097490D01*
X0099043Y0097123D01*
X0098366Y0096446D01*
X0097999Y0095561D01*
X0097999Y0095133D01*
X0094652Y0095133D01*
X0093476Y0094646D01*
X0092575Y0093746D01*
X0089032Y0090202D01*
X0088545Y0089026D01*
X0088545Y0079479D01*
X0074465Y0065399D01*
X0073978Y0064223D01*
X0073978Y0019136D01*
X0010643Y0019136D01*
X0009962Y0019251D02*
X0073978Y0019251D01*
X0073978Y0020849D02*
X0008173Y0020849D01*
X0007924Y0022448D02*
X0073978Y0022448D01*
X0073978Y0024046D02*
X0007924Y0024046D01*
X0007924Y0025645D02*
X0047207Y0025645D01*
X0047369Y0025482D02*
X0049136Y0024750D01*
X0051048Y0024750D01*
X0052815Y0025482D01*
X0054167Y0026834D01*
X0054899Y0028601D01*
X0054899Y0036914D01*
X0054167Y0038680D01*
X0052815Y0040033D01*
X0051048Y0040765D01*
X0049136Y0040765D01*
X0047369Y0040033D01*
X0046017Y0038680D01*
X0045285Y0036914D01*
X0045285Y0028601D01*
X0046017Y0026834D01*
X0047369Y0025482D01*
X0045848Y0027243D02*
X0007924Y0027243D01*
X0007924Y0028842D02*
X0010446Y0028842D01*
X0014973Y0028842D02*
X0015342Y0028842D01*
X0015342Y0030440D02*
X0014973Y0030440D01*
X0014973Y0032039D02*
X0015342Y0032039D01*
X0015342Y0033637D02*
X0014973Y0033637D01*
X0014973Y0035236D02*
X0015342Y0035236D01*
X0015342Y0036834D02*
X0014973Y0036834D01*
X0014973Y0038433D02*
X0015342Y0038433D01*
X0015342Y0040031D02*
X0014973Y0040031D01*
X0020721Y0040031D02*
X0030331Y0040031D01*
X0030467Y0039845D02*
X0031105Y0039207D01*
X0031836Y0038676D01*
X0032640Y0038266D01*
X0033499Y0037987D01*
X0034391Y0037846D01*
X0034658Y0037846D01*
X0034658Y0047335D01*
X0035027Y0047335D01*
X0035027Y0037846D01*
X0035294Y0037846D01*
X0036186Y0037987D01*
X0037045Y0038266D01*
X0037849Y0038676D01*
X0038580Y0039207D01*
X0039218Y0039845D01*
X0039749Y0040576D01*
X0040159Y0041380D01*
X0040438Y0042239D01*
X0040580Y0043131D01*
X0040580Y0047335D01*
X0035027Y0047335D01*
X0035027Y0047704D01*
X0040580Y0047704D01*
X0040580Y0051908D01*
X0040438Y0052800D01*
X0040159Y0053659D01*
X0039749Y0054464D01*
X0039218Y0055194D01*
X0038580Y0055833D01*
X0037849Y0056363D01*
X0037045Y0056773D01*
X0036186Y0057052D01*
X0035294Y0057194D01*
X0035027Y0057194D01*
X0035027Y0047704D01*
X0034658Y0047704D01*
X0034658Y0047335D01*
X0029106Y0047335D01*
X0029106Y0043131D01*
X0029247Y0042239D01*
X0029526Y0041380D01*
X0029936Y0040576D01*
X0030467Y0039845D01*
X0029445Y0041630D02*
X0007924Y0041630D01*
X0007924Y0043228D02*
X0029106Y0043228D01*
X0029106Y0044827D02*
X0007924Y0044827D01*
X0007924Y0046425D02*
X0029106Y0046425D01*
X0029106Y0047704D02*
X0034658Y0047704D01*
X0034658Y0057194D01*
X0034391Y0057194D01*
X0033499Y0057052D01*
X0032640Y0056773D01*
X0031836Y0056363D01*
X0031105Y0055833D01*
X0030467Y0055194D01*
X0029936Y0054464D01*
X0029526Y0053659D01*
X0029247Y0052800D01*
X0029106Y0051908D01*
X0029106Y0047704D01*
X0029106Y0048024D02*
X0007924Y0048024D01*
X0007924Y0049622D02*
X0029106Y0049622D01*
X0029106Y0051221D02*
X0007924Y0051221D01*
X0007924Y0052819D02*
X0029253Y0052819D01*
X0029913Y0054418D02*
X0021721Y0054418D01*
X0023621Y0056016D02*
X0031358Y0056016D01*
X0034658Y0056016D02*
X0035027Y0056016D01*
X0035027Y0054418D02*
X0034658Y0054418D01*
X0034658Y0052819D02*
X0035027Y0052819D01*
X0035027Y0051221D02*
X0034658Y0051221D01*
X0034658Y0049622D02*
X0035027Y0049622D01*
X0035027Y0048024D02*
X0034658Y0048024D01*
X0034658Y0046425D02*
X0035027Y0046425D01*
X0035027Y0044827D02*
X0034658Y0044827D01*
X0034658Y0043228D02*
X0035027Y0043228D01*
X0035027Y0041630D02*
X0034658Y0041630D01*
X0034658Y0040031D02*
X0035027Y0040031D01*
X0035027Y0038433D02*
X0034658Y0038433D01*
X0032313Y0038433D02*
X0023303Y0038433D01*
X0024358Y0036834D02*
X0045285Y0036834D01*
X0045285Y0035236D02*
X0024791Y0035236D01*
X0024762Y0033637D02*
X0045285Y0033637D01*
X0045285Y0032039D02*
X0024265Y0032039D01*
X0023121Y0030440D02*
X0045285Y0030440D01*
X0045285Y0028842D02*
X0019869Y0028842D01*
X0010643Y0016736D02*
X0010502Y0016738D01*
X0010361Y0016744D01*
X0010220Y0016753D01*
X0010080Y0016767D01*
X0009940Y0016785D01*
X0009801Y0016806D01*
X0009662Y0016831D01*
X0009524Y0016860D01*
X0009387Y0016893D01*
X0009250Y0016929D01*
X0009115Y0016969D01*
X0008981Y0017013D01*
X0008848Y0017061D01*
X0008717Y0017112D01*
X0008587Y0017167D01*
X0008459Y0017226D01*
X0008332Y0017287D01*
X0008207Y0017353D01*
X0008084Y0017422D01*
X0007963Y0017494D01*
X0007844Y0017569D01*
X0007727Y0017648D01*
X0007612Y0017730D01*
X0007499Y0017815D01*
X0007389Y0017903D01*
X0007282Y0017994D01*
X0007177Y0018089D01*
X0007074Y0018186D01*
X0006975Y0018285D01*
X0006878Y0018388D01*
X0006783Y0018493D01*
X0006692Y0018600D01*
X0006604Y0018710D01*
X0006519Y0018823D01*
X0006437Y0018938D01*
X0006358Y0019055D01*
X0006283Y0019174D01*
X0006211Y0019295D01*
X0006142Y0019418D01*
X0006076Y0019543D01*
X0006015Y0019670D01*
X0005956Y0019798D01*
X0005901Y0019928D01*
X0005850Y0020059D01*
X0005802Y0020192D01*
X0005758Y0020326D01*
X0005718Y0020461D01*
X0005682Y0020598D01*
X0005649Y0020735D01*
X0005620Y0020873D01*
X0005595Y0021012D01*
X0005574Y0021151D01*
X0005556Y0021291D01*
X0005542Y0021431D01*
X0005533Y0021572D01*
X0005527Y0021713D01*
X0005525Y0021854D01*
X0005524Y0021854D02*
X0005524Y0205713D01*
X0007980Y0206276D02*
X0052337Y0206276D01*
X0052337Y0204678D02*
X0007924Y0204678D01*
X0007924Y0203079D02*
X0052337Y0203079D01*
X0052337Y0201481D02*
X0007924Y0201481D01*
X0007924Y0199882D02*
X0052337Y0199882D01*
X0052337Y0198284D02*
X0007924Y0198284D01*
X0007924Y0196685D02*
X0052337Y0196685D01*
X0052337Y0195087D02*
X0007924Y0195087D01*
X0007924Y0193488D02*
X0052337Y0193488D01*
X0052337Y0191890D02*
X0007924Y0191890D01*
X0007924Y0190291D02*
X0052337Y0190291D01*
X0052961Y0188693D02*
X0007924Y0188693D01*
X0007924Y0187094D02*
X0054436Y0187094D01*
X0054402Y0187108D02*
X0054402Y0187108D01*
X0053062Y0188448D02*
X0053062Y0188448D01*
X0054737Y0191146D02*
X0054737Y0208075D01*
X0052337Y0207875D02*
X0008730Y0207875D01*
X0005524Y0205713D02*
X0005526Y0205865D01*
X0005532Y0206017D01*
X0005542Y0206169D01*
X0005555Y0206320D01*
X0005573Y0206471D01*
X0005594Y0206622D01*
X0005620Y0206772D01*
X0005649Y0206921D01*
X0005682Y0207070D01*
X0005719Y0207217D01*
X0005759Y0207364D01*
X0005804Y0207509D01*
X0005852Y0207653D01*
X0005904Y0207796D01*
X0005959Y0207938D01*
X0006018Y0208078D01*
X0006081Y0208217D01*
X0006147Y0208354D01*
X0006217Y0208489D01*
X0006290Y0208622D01*
X0006367Y0208753D01*
X0006447Y0208883D01*
X0006530Y0209010D01*
X0006616Y0209135D01*
X0006706Y0209258D01*
X0006799Y0209378D01*
X0006895Y0209496D01*
X0006994Y0209612D01*
X0007096Y0209725D01*
X0007200Y0209835D01*
X0007308Y0209943D01*
X0007418Y0210047D01*
X0007531Y0210149D01*
X0007647Y0210248D01*
X0007765Y0210344D01*
X0007885Y0210437D01*
X0008008Y0210527D01*
X0008133Y0210613D01*
X0008260Y0210696D01*
X0008390Y0210776D01*
X0008521Y0210853D01*
X0008654Y0210926D01*
X0008789Y0210996D01*
X0008926Y0211062D01*
X0009065Y0211125D01*
X0009205Y0211184D01*
X0009347Y0211239D01*
X0009490Y0211291D01*
X0009634Y0211339D01*
X0009779Y0211384D01*
X0009926Y0211424D01*
X0010073Y0211461D01*
X0010222Y0211494D01*
X0010371Y0211523D01*
X0010521Y0211549D01*
X0010672Y0211570D01*
X0010823Y0211588D01*
X0010974Y0211601D01*
X0011126Y0211611D01*
X0011278Y0211617D01*
X0011430Y0211619D01*
X0011430Y0211618D02*
X0051194Y0211618D01*
X0051310Y0211616D01*
X0051426Y0211610D01*
X0051541Y0211601D01*
X0051656Y0211588D01*
X0051771Y0211571D01*
X0051885Y0211550D01*
X0051999Y0211525D01*
X0052111Y0211497D01*
X0052222Y0211465D01*
X0052333Y0211430D01*
X0052442Y0211391D01*
X0052550Y0211348D01*
X0052656Y0211302D01*
X0052761Y0211253D01*
X0052864Y0211200D01*
X0052966Y0211143D01*
X0053065Y0211084D01*
X0053162Y0211021D01*
X0053258Y0210955D01*
X0053351Y0210886D01*
X0053442Y0210814D01*
X0053530Y0210739D01*
X0053616Y0210661D01*
X0053699Y0210580D01*
X0053780Y0210497D01*
X0053858Y0210411D01*
X0053933Y0210323D01*
X0054005Y0210232D01*
X0054074Y0210139D01*
X0054140Y0210043D01*
X0054203Y0209946D01*
X0054262Y0209847D01*
X0054319Y0209745D01*
X0054372Y0209642D01*
X0054421Y0209537D01*
X0054467Y0209431D01*
X0054510Y0209323D01*
X0054549Y0209214D01*
X0054584Y0209103D01*
X0054616Y0208992D01*
X0054644Y0208880D01*
X0054669Y0208766D01*
X0054690Y0208652D01*
X0054707Y0208537D01*
X0054720Y0208422D01*
X0054729Y0208307D01*
X0054735Y0208191D01*
X0054737Y0208075D01*
X0054737Y0191146D02*
X0054739Y0191051D01*
X0054745Y0190956D01*
X0054754Y0190861D01*
X0054768Y0190767D01*
X0054785Y0190674D01*
X0054806Y0190581D01*
X0054830Y0190489D01*
X0054859Y0190398D01*
X0054890Y0190308D01*
X0054926Y0190220D01*
X0054965Y0190133D01*
X0055008Y0190048D01*
X0055053Y0189965D01*
X0055103Y0189884D01*
X0055155Y0189804D01*
X0055211Y0189727D01*
X0055269Y0189652D01*
X0055331Y0189580D01*
X0055396Y0189510D01*
X0055463Y0189443D01*
X0055533Y0189378D01*
X0055605Y0189316D01*
X0055680Y0189258D01*
X0055757Y0189202D01*
X0055837Y0189150D01*
X0055918Y0189100D01*
X0056001Y0189055D01*
X0056086Y0189012D01*
X0056173Y0188973D01*
X0056261Y0188937D01*
X0056351Y0188906D01*
X0056442Y0188877D01*
X0056534Y0188853D01*
X0056627Y0188832D01*
X0056720Y0188815D01*
X0056814Y0188801D01*
X0056909Y0188792D01*
X0057004Y0188786D01*
X0057099Y0188784D01*
X0057099Y0188783D02*
X0101981Y0188783D01*
X0101981Y0188784D02*
X0102076Y0188786D01*
X0102171Y0188792D01*
X0102266Y0188801D01*
X0102360Y0188815D01*
X0102453Y0188832D01*
X0102546Y0188853D01*
X0102638Y0188877D01*
X0102729Y0188906D01*
X0102819Y0188937D01*
X0102907Y0188973D01*
X0102994Y0189012D01*
X0103079Y0189055D01*
X0103162Y0189100D01*
X0103243Y0189150D01*
X0103323Y0189202D01*
X0103400Y0189258D01*
X0103475Y0189316D01*
X0103547Y0189378D01*
X0103617Y0189443D01*
X0103684Y0189510D01*
X0103749Y0189580D01*
X0103811Y0189652D01*
X0103869Y0189727D01*
X0103925Y0189804D01*
X0103977Y0189884D01*
X0104027Y0189965D01*
X0104072Y0190048D01*
X0104115Y0190133D01*
X0104154Y0190220D01*
X0104190Y0190308D01*
X0104221Y0190398D01*
X0104250Y0190489D01*
X0104274Y0190581D01*
X0104295Y0190674D01*
X0104312Y0190767D01*
X0104326Y0190861D01*
X0104335Y0190956D01*
X0104341Y0191051D01*
X0104343Y0191146D01*
X0104343Y0210043D01*
X0104345Y0210129D01*
X0104350Y0210215D01*
X0104360Y0210300D01*
X0104373Y0210385D01*
X0104390Y0210469D01*
X0104410Y0210553D01*
X0104434Y0210635D01*
X0104462Y0210716D01*
X0104493Y0210797D01*
X0104527Y0210875D01*
X0104565Y0210952D01*
X0104607Y0211028D01*
X0104651Y0211101D01*
X0104699Y0211172D01*
X0104750Y0211242D01*
X0104804Y0211309D01*
X0104860Y0211373D01*
X0104920Y0211435D01*
X0104982Y0211495D01*
X0105046Y0211551D01*
X0105113Y0211605D01*
X0105183Y0211656D01*
X0105254Y0211704D01*
X0105328Y0211748D01*
X0105403Y0211790D01*
X0105480Y0211828D01*
X0105558Y0211862D01*
X0105639Y0211893D01*
X0105720Y0211921D01*
X0105802Y0211945D01*
X0105886Y0211965D01*
X0105970Y0211982D01*
X0106055Y0211995D01*
X0106140Y0212005D01*
X0106226Y0212010D01*
X0106312Y0212012D01*
X0140170Y0212012D01*
X0141084Y0209473D02*
X0106743Y0209473D01*
X0106743Y0207875D02*
X0143414Y0207875D01*
X0146469Y0205713D02*
X0146469Y0025004D01*
X0144069Y0025645D02*
X0140220Y0025645D01*
X0140220Y0027243D02*
X0144069Y0027243D01*
X0144069Y0028842D02*
X0140220Y0028842D01*
X0140220Y0030440D02*
X0144069Y0030440D01*
X0144069Y0032039D02*
X0140220Y0032039D01*
X0140220Y0033637D02*
X0144069Y0033637D01*
X0144069Y0035236D02*
X0140220Y0035236D01*
X0140220Y0036834D02*
X0144069Y0036834D01*
X0144069Y0038433D02*
X0140220Y0038433D01*
X0140220Y0040031D02*
X0144069Y0040031D01*
X0144069Y0041630D02*
X0140220Y0041630D01*
X0140220Y0043228D02*
X0144069Y0043228D01*
X0144069Y0044827D02*
X0140220Y0044827D01*
X0140220Y0046425D02*
X0144069Y0046425D01*
X0144069Y0048024D02*
X0140220Y0048024D01*
X0140220Y0049622D02*
X0144069Y0049622D01*
X0144069Y0051221D02*
X0140220Y0051221D01*
X0140220Y0052819D02*
X0144069Y0052819D01*
X0144069Y0054418D02*
X0140220Y0054418D01*
X0140220Y0056016D02*
X0144069Y0056016D01*
X0144069Y0057615D02*
X0140220Y0057615D01*
X0140220Y0059213D02*
X0144069Y0059213D01*
X0144069Y0060812D02*
X0140220Y0060812D01*
X0140220Y0062410D02*
X0144069Y0062410D01*
X0144069Y0064009D02*
X0140220Y0064009D01*
X0140220Y0065607D02*
X0144069Y0065607D01*
X0144069Y0067206D02*
X0140220Y0067206D01*
X0140220Y0068805D02*
X0144069Y0068805D01*
X0144069Y0070403D02*
X0140220Y0070403D01*
X0140220Y0072002D02*
X0144069Y0072002D01*
X0144069Y0073600D02*
X0140220Y0073600D01*
X0140220Y0075199D02*
X0144069Y0075199D01*
X0144069Y0076797D02*
X0140220Y0076797D01*
X0140220Y0078396D02*
X0144069Y0078396D01*
X0144069Y0079994D02*
X0140220Y0079994D01*
X0140220Y0081593D02*
X0144069Y0081593D01*
X0144069Y0083191D02*
X0140220Y0083191D01*
X0140220Y0084790D02*
X0144069Y0084790D01*
X0144069Y0086388D02*
X0139611Y0086388D01*
X0138012Y0087987D02*
X0144069Y0087987D01*
X0144069Y0089585D02*
X0136414Y0089585D01*
X0134815Y0091184D02*
X0144069Y0091184D01*
X0144069Y0092782D02*
X0133217Y0092782D01*
X0131618Y0094381D02*
X0144069Y0094381D01*
X0144069Y0095979D02*
X0102640Y0095979D01*
X0100406Y0095083D02*
X0100406Y0094689D01*
X0098172Y0095979D02*
X0053299Y0095979D01*
X0053299Y0094381D02*
X0093210Y0094381D01*
X0092575Y0093746D02*
X0092575Y0093746D01*
X0091612Y0092782D02*
X0053299Y0092782D01*
X0053299Y0091184D02*
X0090013Y0091184D01*
X0088776Y0089585D02*
X0053299Y0089585D01*
X0053299Y0087987D02*
X0088545Y0087987D01*
X0088545Y0086388D02*
X0053299Y0086388D01*
X0053299Y0084790D02*
X0088545Y0084790D01*
X0088545Y0083191D02*
X0053299Y0083191D01*
X0053299Y0081593D02*
X0088545Y0081593D01*
X0088545Y0079994D02*
X0053299Y0079994D01*
X0053299Y0078396D02*
X0087461Y0078396D01*
X0085863Y0076797D02*
X0053299Y0076797D01*
X0053299Y0075199D02*
X0084264Y0075199D01*
X0082666Y0073600D02*
X0053299Y0073600D01*
X0053299Y0072002D02*
X0081067Y0072002D01*
X0079469Y0070403D02*
X0053299Y0070403D01*
X0053299Y0068805D02*
X0077870Y0068805D01*
X0076272Y0067206D02*
X0053299Y0067206D01*
X0053299Y0065607D02*
X0064960Y0065607D01*
X0065272Y0065834D02*
X0064635Y0065371D01*
X0064078Y0064815D01*
X0063616Y0064178D01*
X0063258Y0063477D01*
X0063015Y0062728D01*
X0062892Y0061951D01*
X0062892Y0058557D01*
X0067692Y0058557D01*
X0067692Y0058157D01*
X0068092Y0058157D01*
X0068092Y0050157D01*
X0068286Y0050157D01*
X0069063Y0050281D01*
X0069811Y0050524D01*
X0070513Y0050881D01*
X0071149Y0051344D01*
X0071706Y0051900D01*
X0072169Y0052537D01*
X0072526Y0053238D01*
X0072769Y0053987D01*
X0072892Y0054764D01*
X0072892Y0058157D01*
X0068092Y0058157D01*
X0068092Y0058557D01*
X0072892Y0058557D01*
X0072892Y0061951D01*
X0072769Y0062728D01*
X0072526Y0063477D01*
X0072169Y0064178D01*
X0071706Y0064815D01*
X0071149Y0065371D01*
X0070513Y0065834D01*
X0069811Y0066191D01*
X0069063Y0066434D01*
X0068286Y0066557D01*
X0068092Y0066557D01*
X0068092Y0058558D01*
X0067692Y0058558D01*
X0067692Y0066557D01*
X0067499Y0066557D01*
X0066721Y0066434D01*
X0065973Y0066191D01*
X0065272Y0065834D01*
X0067692Y0065607D02*
X0068092Y0065607D01*
X0068092Y0064009D02*
X0067692Y0064009D01*
X0067692Y0062410D02*
X0068092Y0062410D01*
X0068092Y0060812D02*
X0067692Y0060812D01*
X0067692Y0059213D02*
X0068092Y0059213D01*
X0067692Y0058157D02*
X0062892Y0058157D01*
X0062892Y0054764D01*
X0063015Y0053987D01*
X0063258Y0053238D01*
X0063616Y0052537D01*
X0064078Y0051900D01*
X0064635Y0051344D01*
X0065272Y0050881D01*
X0065973Y0050524D01*
X0066721Y0050281D01*
X0067499Y0050157D01*
X0067692Y0050157D01*
X0067692Y0058157D01*
X0067692Y0057615D02*
X0068092Y0057615D01*
X0068092Y0056016D02*
X0067692Y0056016D01*
X0067692Y0054418D02*
X0068092Y0054418D01*
X0068092Y0052819D02*
X0067692Y0052819D01*
X0067692Y0051221D02*
X0068092Y0051221D01*
X0070980Y0051221D02*
X0073978Y0051221D01*
X0073978Y0052819D02*
X0072312Y0052819D01*
X0072837Y0054418D02*
X0073978Y0054418D01*
X0073978Y0056016D02*
X0072892Y0056016D01*
X0072892Y0057615D02*
X0073978Y0057615D01*
X0073978Y0059213D02*
X0072892Y0059213D01*
X0072892Y0060812D02*
X0073978Y0060812D01*
X0073978Y0062410D02*
X0072819Y0062410D01*
X0072255Y0064009D02*
X0073978Y0064009D01*
X0074673Y0065607D02*
X0070824Y0065607D01*
X0063530Y0064009D02*
X0054280Y0064009D01*
X0054167Y0064280D02*
X0053299Y0065149D01*
X0053299Y0108007D01*
X0070333Y0125041D01*
X0071235Y0125943D01*
X0071724Y0127122D01*
X0071724Y0167374D01*
X0071235Y0168553D01*
X0070336Y0169452D01*
X0070336Y0171552D01*
X0069395Y0172493D01*
X0063701Y0172493D01*
X0062760Y0171552D01*
X0062760Y0165858D01*
X0063701Y0164917D01*
X0065309Y0164917D01*
X0065309Y0129088D01*
X0048275Y0112054D01*
X0047373Y0111152D01*
X0046885Y0109973D01*
X0046885Y0065149D01*
X0046017Y0064280D01*
X0045285Y0062514D01*
X0045285Y0054201D01*
X0046017Y0052434D01*
X0047369Y0051082D01*
X0049136Y0050350D01*
X0051048Y0050350D01*
X0052815Y0051082D01*
X0054167Y0052434D01*
X0054899Y0054201D01*
X0054899Y0062514D01*
X0054167Y0064280D01*
X0054899Y0062410D02*
X0062965Y0062410D01*
X0062892Y0060812D02*
X0054899Y0060812D01*
X0054899Y0059213D02*
X0062892Y0059213D01*
X0062892Y0057615D02*
X0054899Y0057615D01*
X0054899Y0056016D02*
X0062892Y0056016D01*
X0062947Y0054418D02*
X0054899Y0054418D01*
X0054327Y0052819D02*
X0063472Y0052819D01*
X0064804Y0051221D02*
X0052954Y0051221D01*
X0047230Y0051221D02*
X0040580Y0051221D01*
X0040580Y0049622D02*
X0073978Y0049622D01*
X0073978Y0048024D02*
X0040580Y0048024D01*
X0040580Y0046425D02*
X0073978Y0046425D01*
X0073978Y0044827D02*
X0040580Y0044827D01*
X0040580Y0043228D02*
X0073978Y0043228D01*
X0073978Y0041630D02*
X0040240Y0041630D01*
X0039354Y0040031D02*
X0047368Y0040031D01*
X0045914Y0038433D02*
X0037372Y0038433D01*
X0040432Y0052819D02*
X0045857Y0052819D01*
X0045285Y0054418D02*
X0039772Y0054418D01*
X0038327Y0056016D02*
X0045285Y0056016D01*
X0045285Y0057615D02*
X0024385Y0057615D01*
X0024639Y0059213D02*
X0045285Y0059213D01*
X0045285Y0060812D02*
X0024482Y0060812D01*
X0023820Y0062410D02*
X0045285Y0062410D01*
X0045904Y0064009D02*
X0022257Y0064009D01*
X0008058Y0064009D02*
X0007924Y0064009D01*
X0007924Y0065607D02*
X0046885Y0065607D01*
X0046885Y0067206D02*
X0007924Y0067206D01*
X0007924Y0068805D02*
X0046885Y0068805D01*
X0046885Y0070403D02*
X0007924Y0070403D01*
X0007924Y0072002D02*
X0046885Y0072002D01*
X0046885Y0073600D02*
X0007924Y0073600D01*
X0007924Y0075199D02*
X0046885Y0075199D01*
X0046885Y0076797D02*
X0007924Y0076797D01*
X0007924Y0078396D02*
X0046885Y0078396D01*
X0046885Y0079994D02*
X0007924Y0079994D01*
X0007924Y0081593D02*
X0046885Y0081593D01*
X0046885Y0083191D02*
X0007924Y0083191D01*
X0007924Y0084790D02*
X0046885Y0084790D01*
X0046885Y0086388D02*
X0007924Y0086388D01*
X0007924Y0087987D02*
X0046885Y0087987D01*
X0046885Y0089585D02*
X0007924Y0089585D01*
X0007924Y0091184D02*
X0024058Y0091184D01*
X0024398Y0091130D02*
X0024760Y0091130D01*
X0025122Y0091130D01*
X0025837Y0091243D01*
X0026526Y0091467D01*
X0027171Y0091796D01*
X0027757Y0092221D01*
X0028269Y0092733D01*
X0028694Y0093319D01*
X0029023Y0093964D01*
X0029247Y0094653D01*
X0029360Y0095368D01*
X0029360Y0098530D01*
X0029360Y0101692D01*
X0029247Y0102407D01*
X0029023Y0103096D01*
X0028694Y0103741D01*
X0028269Y0104327D01*
X0027757Y0104839D01*
X0027171Y0105264D01*
X0026526Y0105593D01*
X0025837Y0105817D01*
X0025122Y0105930D01*
X0024760Y0105930D01*
X0024760Y0098530D01*
X0029360Y0098530D01*
X0024760Y0098530D01*
X0024760Y0098530D01*
X0024760Y0098530D01*
X0024760Y0091130D01*
X0024760Y0098530D01*
X0024760Y0098530D01*
X0024760Y0105930D01*
X0024398Y0105930D01*
X0023683Y0105817D01*
X0022994Y0105593D01*
X0022349Y0105264D01*
X0021763Y0104839D01*
X0021251Y0104327D01*
X0020826Y0103741D01*
X0020497Y0103096D01*
X0020273Y0102407D01*
X0020160Y0101692D01*
X0020160Y0098530D01*
X0024760Y0098530D01*
X0024760Y0098530D01*
X0020160Y0098530D01*
X0020160Y0095368D01*
X0020273Y0094653D01*
X0020497Y0093964D01*
X0020826Y0093319D01*
X0021251Y0092733D01*
X0021763Y0092221D01*
X0022349Y0091796D01*
X0022994Y0091467D01*
X0023683Y0091243D01*
X0024398Y0091130D01*
X0024760Y0091184D02*
X0024760Y0091184D01*
X0025461Y0091184D02*
X0046885Y0091184D01*
X0046885Y0092782D02*
X0028304Y0092782D01*
X0029158Y0094381D02*
X0046885Y0094381D01*
X0046885Y0095979D02*
X0029360Y0095979D01*
X0029360Y0097578D02*
X0046885Y0097578D01*
X0046885Y0099176D02*
X0029360Y0099176D01*
X0029360Y0100775D02*
X0046885Y0100775D01*
X0046885Y0102373D02*
X0029252Y0102373D01*
X0028526Y0103972D02*
X0046885Y0103972D01*
X0046885Y0105570D02*
X0026570Y0105570D01*
X0024760Y0105570D02*
X0024760Y0105570D01*
X0024760Y0103972D02*
X0024760Y0103972D01*
X0024760Y0102373D02*
X0024760Y0102373D01*
X0024760Y0100775D02*
X0024760Y0100775D01*
X0024760Y0099176D02*
X0024760Y0099176D01*
X0024760Y0097578D02*
X0024760Y0097578D01*
X0024760Y0095979D02*
X0024760Y0095979D01*
X0024760Y0094381D02*
X0024760Y0094381D01*
X0024760Y0092782D02*
X0024760Y0092782D01*
X0021216Y0092782D02*
X0007924Y0092782D01*
X0007924Y0094381D02*
X0020361Y0094381D01*
X0020160Y0095979D02*
X0007924Y0095979D01*
X0007924Y0097578D02*
X0020160Y0097578D01*
X0020160Y0099176D02*
X0007924Y0099176D01*
X0007924Y0100775D02*
X0020160Y0100775D01*
X0020268Y0102373D02*
X0007924Y0102373D01*
X0007924Y0103972D02*
X0020993Y0103972D01*
X0022950Y0105570D02*
X0007924Y0105570D01*
X0007924Y0107169D02*
X0046885Y0107169D01*
X0046885Y0108767D02*
X0007924Y0108767D01*
X0007924Y0110366D02*
X0047048Y0110366D01*
X0048186Y0111964D02*
X0007924Y0111964D01*
X0007924Y0113563D02*
X0049784Y0113563D01*
X0048275Y0112054D02*
X0048275Y0112054D01*
X0051383Y0115161D02*
X0007924Y0115161D01*
X0007924Y0116760D02*
X0052981Y0116760D01*
X0054580Y0118358D02*
X0007924Y0118358D01*
X0007924Y0119957D02*
X0056178Y0119957D01*
X0057777Y0121555D02*
X0026198Y0121555D01*
X0025636Y0121323D02*
X0027256Y0121994D01*
X0028496Y0123234D01*
X0029167Y0124853D01*
X0029167Y0132207D01*
X0028496Y0133826D01*
X0028023Y0134299D01*
X0028023Y0164620D01*
X0039924Y0176521D01*
X0080574Y0176521D01*
X0086176Y0170920D01*
X0086176Y0155597D01*
X0085594Y0155016D01*
X0085594Y0149323D01*
X0086536Y0148381D01*
X0092229Y0148381D01*
X0093171Y0149323D01*
X0093171Y0155016D01*
X0092590Y0155597D01*
X0092590Y0172886D01*
X0092102Y0174065D01*
X0084621Y0181545D01*
X0083719Y0182447D01*
X0082540Y0182935D01*
X0037957Y0182935D01*
X0036779Y0182447D01*
X0022999Y0168668D01*
X0022097Y0167765D01*
X0021609Y0166587D01*
X0021609Y0134411D01*
X0021024Y0133826D01*
X0020353Y0132207D01*
X0020353Y0124853D01*
X0021024Y0123234D01*
X0022263Y0121994D01*
X0023883Y0121323D01*
X0025636Y0121323D01*
X0023322Y0121555D02*
X0007924Y0121555D01*
X0007924Y0123154D02*
X0021103Y0123154D01*
X0020395Y0124752D02*
X0007924Y0124752D01*
X0007924Y0126351D02*
X0020353Y0126351D01*
X0020353Y0127949D02*
X0007924Y0127949D01*
X0007924Y0129548D02*
X0020353Y0129548D01*
X0020353Y0131146D02*
X0007924Y0131146D01*
X0007924Y0132745D02*
X0020576Y0132745D01*
X0021541Y0134343D02*
X0007924Y0134343D01*
X0007924Y0135942D02*
X0021609Y0135942D01*
X0021609Y0137540D02*
X0007924Y0137540D01*
X0007924Y0139139D02*
X0021609Y0139139D01*
X0021609Y0140738D02*
X0007924Y0140738D01*
X0007924Y0142336D02*
X0021609Y0142336D01*
X0021609Y0143935D02*
X0007924Y0143935D01*
X0007924Y0145533D02*
X0021609Y0145533D01*
X0021609Y0147132D02*
X0007924Y0147132D01*
X0007924Y0148730D02*
X0021609Y0148730D01*
X0021609Y0150329D02*
X0007924Y0150329D01*
X0007924Y0151927D02*
X0021609Y0151927D01*
X0021609Y0153526D02*
X0007924Y0153526D01*
X0007924Y0155124D02*
X0021609Y0155124D01*
X0021609Y0156723D02*
X0007924Y0156723D01*
X0007924Y0158321D02*
X0021609Y0158321D01*
X0021609Y0159920D02*
X0007924Y0159920D01*
X0007924Y0161518D02*
X0021609Y0161518D01*
X0021609Y0163117D02*
X0007924Y0163117D01*
X0007924Y0164715D02*
X0021609Y0164715D01*
X0021609Y0166314D02*
X0007924Y0166314D01*
X0007924Y0167912D02*
X0022244Y0167912D01*
X0023842Y0169511D02*
X0007924Y0169511D01*
X0007924Y0171109D02*
X0025441Y0171109D01*
X0027039Y0172708D02*
X0007924Y0172708D01*
X0007924Y0174306D02*
X0028638Y0174306D01*
X0030236Y0175905D02*
X0007924Y0175905D01*
X0007924Y0177503D02*
X0031835Y0177503D01*
X0033433Y0179102D02*
X0007924Y0179102D01*
X0007924Y0180700D02*
X0035032Y0180700D01*
X0036630Y0182299D02*
X0007924Y0182299D01*
X0007924Y0183897D02*
X0129803Y0183897D01*
X0129739Y0182299D02*
X0083867Y0182299D01*
X0085466Y0180700D02*
X0130207Y0180700D01*
X0131432Y0179102D02*
X0087064Y0179102D01*
X0088663Y0177503D02*
X0133371Y0177503D01*
X0130866Y0175905D02*
X0090261Y0175905D01*
X0091860Y0174306D02*
X0129972Y0174306D01*
X0129739Y0172708D02*
X0092590Y0172708D01*
X0092590Y0171109D02*
X0130037Y0171109D01*
X0131023Y0169511D02*
X0092590Y0169511D01*
X0092590Y0167912D02*
X0144069Y0167912D01*
X0144069Y0158321D02*
X0142727Y0158321D01*
X0144035Y0156723D02*
X0144069Y0156723D01*
X0144069Y0148730D02*
X0143869Y0148730D01*
X0144069Y0147132D02*
X0071724Y0147132D01*
X0071724Y0148730D02*
X0086187Y0148730D01*
X0085594Y0150329D02*
X0071724Y0150329D01*
X0071724Y0151927D02*
X0085594Y0151927D01*
X0085594Y0153526D02*
X0071724Y0153526D01*
X0071724Y0155124D02*
X0085703Y0155124D01*
X0086176Y0156723D02*
X0071724Y0156723D01*
X0071724Y0158321D02*
X0086176Y0158321D01*
X0086176Y0159920D02*
X0071724Y0159920D01*
X0071724Y0161518D02*
X0086176Y0161518D01*
X0086176Y0163117D02*
X0071724Y0163117D01*
X0071724Y0164715D02*
X0086176Y0164715D01*
X0086176Y0166314D02*
X0071724Y0166314D01*
X0071501Y0167912D02*
X0086176Y0167912D01*
X0086176Y0169511D02*
X0070336Y0169511D01*
X0070336Y0171109D02*
X0085986Y0171109D01*
X0084387Y0172708D02*
X0036110Y0172708D01*
X0037709Y0174306D02*
X0082789Y0174306D01*
X0081190Y0175905D02*
X0039307Y0175905D01*
X0034512Y0171109D02*
X0062760Y0171109D01*
X0062760Y0169511D02*
X0032913Y0169511D01*
X0031315Y0167912D02*
X0062760Y0167912D01*
X0062760Y0166314D02*
X0029716Y0166314D01*
X0028118Y0164715D02*
X0065309Y0164715D01*
X0065309Y0163117D02*
X0028023Y0163117D01*
X0028023Y0161518D02*
X0065309Y0161518D01*
X0065309Y0159920D02*
X0028023Y0159920D01*
X0028023Y0158321D02*
X0065309Y0158321D01*
X0065309Y0156723D02*
X0028023Y0156723D01*
X0028023Y0155124D02*
X0065309Y0155124D01*
X0065309Y0153526D02*
X0028023Y0153526D01*
X0028023Y0151927D02*
X0065309Y0151927D01*
X0065309Y0150329D02*
X0028023Y0150329D01*
X0028023Y0148730D02*
X0065309Y0148730D01*
X0065309Y0147132D02*
X0028023Y0147132D01*
X0028023Y0145533D02*
X0065309Y0145533D01*
X0065309Y0143935D02*
X0028023Y0143935D01*
X0028023Y0142336D02*
X0065309Y0142336D01*
X0065309Y0140738D02*
X0028023Y0140738D01*
X0028023Y0139139D02*
X0065309Y0139139D01*
X0065309Y0137540D02*
X0028023Y0137540D01*
X0028023Y0135942D02*
X0065309Y0135942D01*
X0065309Y0134343D02*
X0028023Y0134343D01*
X0028944Y0132745D02*
X0065309Y0132745D01*
X0065309Y0131146D02*
X0029167Y0131146D01*
X0029167Y0129548D02*
X0065309Y0129548D01*
X0064171Y0127949D02*
X0029167Y0127949D01*
X0029167Y0126351D02*
X0062572Y0126351D01*
X0060974Y0124752D02*
X0029125Y0124752D01*
X0028416Y0123154D02*
X0059375Y0123154D01*
X0063651Y0118358D02*
X0089719Y0118358D01*
X0089719Y0116760D02*
X0062052Y0116760D01*
X0060454Y0115161D02*
X0089719Y0115161D01*
X0089719Y0113563D02*
X0058855Y0113563D01*
X0057256Y0111964D02*
X0089800Y0111964D01*
X0089719Y0112161D02*
X0090207Y0110983D01*
X0091109Y0110080D01*
X0095401Y0105789D01*
X0096579Y0105301D01*
X0104979Y0105301D01*
X0105508Y0104772D01*
X0105950Y0104589D01*
X0076026Y0104589D01*
X0075848Y0104826D01*
X0075848Y0107378D01*
X0074907Y0108320D01*
X0069213Y0108320D01*
X0068272Y0107378D01*
X0068272Y0101685D01*
X0069213Y0100743D01*
X0070892Y0100743D01*
X0071614Y0099781D01*
X0071703Y0099565D01*
X0071993Y0099275D01*
X0072239Y0098947D01*
X0072440Y0098828D01*
X0072605Y0098663D01*
X0072984Y0098506D01*
X0073337Y0098297D01*
X0073568Y0098264D01*
X0073784Y0098175D01*
X0074194Y0098175D01*
X0074600Y0098117D01*
X0074826Y0098175D01*
X0134115Y0098175D01*
X0135294Y0098663D01*
X0136196Y0099565D01*
X0140133Y0103502D01*
X0140621Y0104681D01*
X0140621Y0131812D01*
X0141202Y0132393D01*
X0141202Y0138087D01*
X0140261Y0139028D01*
X0134567Y0139028D01*
X0133626Y0138087D01*
X0133626Y0132393D01*
X0134207Y0131812D01*
X0134207Y0106647D01*
X0132149Y0104589D01*
X0120437Y0104589D01*
X0121001Y0104999D01*
X0121513Y0105511D01*
X0121939Y0106097D01*
X0122268Y0106742D01*
X0122491Y0107431D01*
X0122605Y0108146D01*
X0122605Y0108508D01*
X0122605Y0114470D01*
X0122491Y0115185D01*
X0122268Y0115874D01*
X0121939Y0116519D01*
X0121513Y0117105D01*
X0121001Y0117617D01*
X0120416Y0118042D01*
X0119771Y0118371D01*
X0119082Y0118595D01*
X0118367Y0118708D01*
X0118005Y0118708D01*
X0118005Y0108508D01*
X0122605Y0108508D01*
X0118005Y0108508D01*
X0118005Y0108508D01*
X0118005Y0108508D01*
X0118005Y0118708D01*
X0117643Y0118708D01*
X0116928Y0118595D01*
X0116239Y0118371D01*
X0115594Y0118042D01*
X0115008Y0117617D01*
X0114496Y0117105D01*
X0114070Y0116519D01*
X0113742Y0115874D01*
X0113518Y0115185D01*
X0113405Y0114470D01*
X0113405Y0108508D01*
X0118005Y0108508D01*
X0118005Y0108508D01*
X0113405Y0108508D01*
X0113405Y0108146D01*
X0113518Y0107431D01*
X0113742Y0106742D01*
X0114070Y0106097D01*
X0114496Y0105511D01*
X0115008Y0104999D01*
X0115573Y0104589D01*
X0110060Y0104589D01*
X0110501Y0104772D01*
X0111741Y0106011D01*
X0112412Y0107631D01*
X0112412Y0114984D01*
X0111741Y0116604D01*
X0110501Y0117844D01*
X0108881Y0118515D01*
X0107128Y0118515D01*
X0105508Y0117844D01*
X0104269Y0116604D01*
X0103598Y0114984D01*
X0103598Y0111715D01*
X0098546Y0111715D01*
X0096133Y0114128D01*
X0096133Y0134962D01*
X0096320Y0135149D01*
X0096320Y0140843D01*
X0095379Y0141784D01*
X0089685Y0141784D01*
X0088744Y0140843D01*
X0088744Y0135149D01*
X0089685Y0134208D01*
X0089719Y0134208D01*
X0089719Y0112161D01*
X0090824Y0110366D02*
X0055658Y0110366D01*
X0054059Y0108767D02*
X0092422Y0108767D01*
X0094021Y0107169D02*
X0075848Y0107169D01*
X0075848Y0105570D02*
X0095929Y0105570D01*
X0098296Y0111964D02*
X0103598Y0111964D01*
X0103598Y0113563D02*
X0096698Y0113563D01*
X0096133Y0115161D02*
X0103671Y0115161D01*
X0104424Y0116760D02*
X0096133Y0116760D01*
X0096133Y0118358D02*
X0106750Y0118358D01*
X0109259Y0118358D02*
X0116214Y0118358D01*
X0118005Y0118358D02*
X0118005Y0118358D01*
X0118005Y0116760D02*
X0118005Y0116760D01*
X0118005Y0115161D02*
X0118005Y0115161D01*
X0118005Y0113563D02*
X0118005Y0113563D01*
X0118005Y0111964D02*
X0118005Y0111964D01*
X0118005Y0110366D02*
X0118005Y0110366D01*
X0118005Y0108767D02*
X0118005Y0108767D01*
X0121556Y0105570D02*
X0133130Y0105570D01*
X0134207Y0107169D02*
X0122406Y0107169D01*
X0122605Y0108767D02*
X0134207Y0108767D01*
X0134207Y0110366D02*
X0122605Y0110366D01*
X0122605Y0111964D02*
X0134207Y0111964D01*
X0134207Y0113563D02*
X0122605Y0113563D01*
X0122495Y0115161D02*
X0134207Y0115161D01*
X0134207Y0116760D02*
X0121764Y0116760D01*
X0119795Y0118358D02*
X0134207Y0118358D01*
X0134207Y0119957D02*
X0096133Y0119957D01*
X0096133Y0121555D02*
X0134207Y0121555D01*
X0134207Y0123154D02*
X0096133Y0123154D01*
X0096133Y0124752D02*
X0134207Y0124752D01*
X0134207Y0126351D02*
X0096133Y0126351D01*
X0096133Y0127949D02*
X0134207Y0127949D01*
X0134207Y0129548D02*
X0096133Y0129548D01*
X0096133Y0131146D02*
X0134207Y0131146D01*
X0133626Y0132745D02*
X0096133Y0132745D01*
X0096133Y0134343D02*
X0133626Y0134343D01*
X0133626Y0135942D02*
X0096320Y0135942D01*
X0096320Y0137540D02*
X0133626Y0137540D01*
X0140621Y0131146D02*
X0144069Y0131146D01*
X0144069Y0129548D02*
X0140621Y0129548D01*
X0140621Y0127949D02*
X0144069Y0127949D01*
X0144069Y0126351D02*
X0140621Y0126351D01*
X0140621Y0124752D02*
X0144069Y0124752D01*
X0144069Y0123154D02*
X0140621Y0123154D01*
X0140621Y0121555D02*
X0144069Y0121555D01*
X0144069Y0119957D02*
X0140621Y0119957D01*
X0140621Y0118358D02*
X0144069Y0118358D01*
X0144069Y0116760D02*
X0140621Y0116760D01*
X0140621Y0115161D02*
X0144069Y0115161D01*
X0144069Y0113563D02*
X0140621Y0113563D01*
X0140621Y0111964D02*
X0144069Y0111964D01*
X0144069Y0110366D02*
X0140621Y0110366D01*
X0140621Y0108767D02*
X0144069Y0108767D01*
X0144069Y0107169D02*
X0140621Y0107169D01*
X0140621Y0105570D02*
X0144069Y0105570D01*
X0144069Y0103972D02*
X0140327Y0103972D01*
X0139004Y0102373D02*
X0144069Y0102373D01*
X0144069Y0100775D02*
X0137405Y0100775D01*
X0135807Y0099176D02*
X0144069Y0099176D01*
X0144069Y0097578D02*
X0053299Y0097578D01*
X0053299Y0099176D02*
X0072067Y0099176D01*
X0069182Y0100775D02*
X0053299Y0100775D01*
X0053299Y0102373D02*
X0068272Y0102373D01*
X0068272Y0103972D02*
X0053299Y0103972D01*
X0053299Y0105570D02*
X0068272Y0105570D01*
X0068272Y0107169D02*
X0053299Y0107169D01*
X0065249Y0119957D02*
X0089719Y0119957D01*
X0089719Y0121555D02*
X0066848Y0121555D01*
X0068446Y0123154D02*
X0089719Y0123154D01*
X0089719Y0124752D02*
X0070045Y0124752D01*
X0071404Y0126351D02*
X0089719Y0126351D01*
X0089719Y0127949D02*
X0071724Y0127949D01*
X0071724Y0129548D02*
X0089719Y0129548D01*
X0089719Y0131146D02*
X0071724Y0131146D01*
X0071724Y0132745D02*
X0089719Y0132745D01*
X0089550Y0134343D02*
X0071724Y0134343D01*
X0071724Y0135942D02*
X0088744Y0135942D01*
X0088744Y0137540D02*
X0071724Y0137540D01*
X0071724Y0139139D02*
X0088744Y0139139D01*
X0088744Y0140738D02*
X0071724Y0140738D01*
X0071724Y0142336D02*
X0144069Y0142336D01*
X0144069Y0140738D02*
X0096320Y0140738D01*
X0096320Y0139139D02*
X0144069Y0139139D01*
X0144069Y0137540D02*
X0141202Y0137540D01*
X0141202Y0135942D02*
X0144069Y0135942D01*
X0144069Y0134343D02*
X0141202Y0134343D01*
X0141202Y0132745D02*
X0144069Y0132745D01*
X0144069Y0143935D02*
X0071724Y0143935D01*
X0071724Y0145533D02*
X0144069Y0145533D01*
X0137946Y0148730D02*
X0137546Y0148730D01*
X0137546Y0147787D02*
X0137546Y0152587D01*
X0129546Y0152587D01*
X0129546Y0152393D01*
X0129669Y0151616D01*
X0129912Y0150867D01*
X0130269Y0150166D01*
X0130732Y0149529D01*
X0131288Y0148973D01*
X0131925Y0148510D01*
X0132626Y0148153D01*
X0133375Y0147910D01*
X0134152Y0147787D01*
X0137546Y0147787D01*
X0137546Y0150329D02*
X0137946Y0150329D01*
X0137946Y0151927D02*
X0137546Y0151927D01*
X0137546Y0153526D02*
X0137946Y0153526D01*
X0137946Y0155124D02*
X0137546Y0155124D01*
X0137546Y0156723D02*
X0137946Y0156723D01*
X0132765Y0158321D02*
X0092590Y0158321D01*
X0092590Y0156723D02*
X0131457Y0156723D01*
X0130125Y0155124D02*
X0093063Y0155124D01*
X0093171Y0153526D02*
X0129600Y0153526D01*
X0129619Y0151927D02*
X0093171Y0151927D01*
X0093171Y0150329D02*
X0130186Y0150329D01*
X0131622Y0148730D02*
X0092578Y0148730D01*
X0092590Y0159920D02*
X0130614Y0159920D01*
X0129868Y0161518D02*
X0092590Y0161518D01*
X0092590Y0163117D02*
X0129739Y0163117D01*
X0130141Y0164715D02*
X0092590Y0164715D01*
X0092590Y0166314D02*
X0131274Y0166314D01*
X0142120Y0177503D02*
X0144069Y0177503D01*
X0144059Y0179102D02*
X0144069Y0179102D01*
X0144069Y0187094D02*
X0143107Y0187094D01*
X0143624Y0188693D02*
X0144069Y0188693D01*
X0144069Y0196685D02*
X0143845Y0196685D01*
X0144069Y0198284D02*
X0142637Y0198284D01*
X0146469Y0205713D02*
X0146467Y0205870D01*
X0146461Y0206027D01*
X0146451Y0206184D01*
X0146438Y0206340D01*
X0146420Y0206496D01*
X0146399Y0206652D01*
X0146373Y0206807D01*
X0146344Y0206961D01*
X0146311Y0207115D01*
X0146274Y0207267D01*
X0146234Y0207419D01*
X0146189Y0207570D01*
X0146141Y0207719D01*
X0146089Y0207867D01*
X0146034Y0208014D01*
X0145974Y0208160D01*
X0145912Y0208304D01*
X0145845Y0208446D01*
X0145775Y0208587D01*
X0145702Y0208726D01*
X0145625Y0208863D01*
X0145545Y0208998D01*
X0145461Y0209130D01*
X0145374Y0209261D01*
X0145284Y0209390D01*
X0145191Y0209516D01*
X0145095Y0209640D01*
X0144995Y0209762D01*
X0144893Y0209881D01*
X0144787Y0209997D01*
X0144679Y0210111D01*
X0144568Y0210222D01*
X0144454Y0210330D01*
X0144338Y0210436D01*
X0144219Y0210538D01*
X0144097Y0210638D01*
X0143973Y0210734D01*
X0143847Y0210827D01*
X0143718Y0210917D01*
X0143587Y0211004D01*
X0143455Y0211088D01*
X0143320Y0211168D01*
X0143183Y0211245D01*
X0143044Y0211318D01*
X0142903Y0211388D01*
X0142761Y0211455D01*
X0142617Y0211517D01*
X0142471Y0211577D01*
X0142324Y0211632D01*
X0142176Y0211684D01*
X0142027Y0211732D01*
X0141876Y0211777D01*
X0141724Y0211817D01*
X0141572Y0211854D01*
X0141418Y0211887D01*
X0141264Y0211916D01*
X0141109Y0211942D01*
X0140953Y0211963D01*
X0140797Y0211981D01*
X0140641Y0211994D01*
X0140484Y0212004D01*
X0140327Y0212010D01*
X0140170Y0212012D01*
X0131237Y0206276D02*
X0106743Y0206276D01*
X0106743Y0204678D02*
X0130126Y0204678D01*
X0129739Y0203079D02*
X0106743Y0203079D01*
X0106743Y0201481D02*
X0129883Y0201481D01*
X0130652Y0199882D02*
X0106743Y0199882D01*
X0106743Y0198284D02*
X0132855Y0198284D01*
X0131646Y0196685D02*
X0106743Y0196685D01*
X0106743Y0195087D02*
X0130295Y0195087D01*
X0129739Y0193488D02*
X0106743Y0193488D01*
X0106743Y0191890D02*
X0129739Y0191890D01*
X0130376Y0190291D02*
X0106743Y0190291D01*
X0106120Y0188693D02*
X0131867Y0188693D01*
X0132384Y0187094D02*
X0104645Y0187094D01*
X0104679Y0187108D02*
X0104679Y0187108D01*
X0106018Y0188448D02*
X0106018Y0188448D01*
X0130465Y0185496D02*
X0007924Y0185496D01*
X0007924Y0054418D02*
X0008594Y0054418D01*
X0007924Y0040031D02*
X0009594Y0040031D01*
X0052817Y0040031D02*
X0064993Y0040031D01*
X0065272Y0040234D02*
X0064635Y0039771D01*
X0064078Y0039215D01*
X0063616Y0038578D01*
X0063258Y0037877D01*
X0063015Y0037128D01*
X0062892Y0036351D01*
X0062892Y0032957D01*
X0067692Y0032957D01*
X0067692Y0032557D01*
X0068092Y0032557D01*
X0068092Y0024557D01*
X0068286Y0024557D01*
X0069063Y0024681D01*
X0069811Y0024924D01*
X0070513Y0025281D01*
X0071149Y0025744D01*
X0071706Y0026300D01*
X0072169Y0026937D01*
X0072526Y0027638D01*
X0072769Y0028387D01*
X0072892Y0029164D01*
X0072892Y0032557D01*
X0068092Y0032557D01*
X0068092Y0032957D01*
X0072892Y0032957D01*
X0072892Y0036351D01*
X0072769Y0037128D01*
X0072526Y0037877D01*
X0072169Y0038578D01*
X0071706Y0039215D01*
X0071149Y0039771D01*
X0070513Y0040234D01*
X0069811Y0040591D01*
X0069063Y0040834D01*
X0068286Y0040957D01*
X0068092Y0040957D01*
X0068092Y0032958D01*
X0067692Y0032958D01*
X0067692Y0040957D01*
X0067499Y0040957D01*
X0066721Y0040834D01*
X0065973Y0040591D01*
X0065272Y0040234D01*
X0067692Y0040031D02*
X0068092Y0040031D01*
X0068092Y0038433D02*
X0067692Y0038433D01*
X0067692Y0036834D02*
X0068092Y0036834D01*
X0068092Y0035236D02*
X0067692Y0035236D01*
X0067692Y0033637D02*
X0068092Y0033637D01*
X0067692Y0032557D02*
X0062892Y0032557D01*
X0062892Y0029164D01*
X0063015Y0028387D01*
X0063258Y0027638D01*
X0063616Y0026937D01*
X0064078Y0026300D01*
X0064635Y0025744D01*
X0065272Y0025281D01*
X0065973Y0024924D01*
X0066721Y0024681D01*
X0067499Y0024557D01*
X0067692Y0024557D01*
X0067692Y0032557D01*
X0067692Y0032039D02*
X0068092Y0032039D01*
X0068092Y0030440D02*
X0067692Y0030440D01*
X0067692Y0028842D02*
X0068092Y0028842D01*
X0068092Y0027243D02*
X0067692Y0027243D01*
X0067692Y0025645D02*
X0068092Y0025645D01*
X0071013Y0025645D02*
X0073978Y0025645D01*
X0073978Y0027243D02*
X0072325Y0027243D01*
X0072841Y0028842D02*
X0073978Y0028842D01*
X0073978Y0030440D02*
X0072892Y0030440D01*
X0072892Y0032039D02*
X0073978Y0032039D01*
X0073978Y0033637D02*
X0072892Y0033637D01*
X0072892Y0035236D02*
X0073978Y0035236D01*
X0073978Y0036834D02*
X0072816Y0036834D01*
X0072243Y0038433D02*
X0073978Y0038433D01*
X0073978Y0040031D02*
X0070791Y0040031D01*
X0063542Y0038433D02*
X0054270Y0038433D01*
X0054899Y0036834D02*
X0062969Y0036834D01*
X0062892Y0035236D02*
X0054899Y0035236D01*
X0054899Y0033637D02*
X0062892Y0033637D01*
X0062892Y0032039D02*
X0054899Y0032039D01*
X0054899Y0030440D02*
X0062892Y0030440D01*
X0062943Y0028842D02*
X0054899Y0028842D01*
X0054337Y0027243D02*
X0063460Y0027243D01*
X0064771Y0025645D02*
X0052978Y0025645D01*
X0111300Y0105570D02*
X0114453Y0105570D01*
X0113603Y0107169D02*
X0112220Y0107169D01*
X0112412Y0108767D02*
X0113405Y0108767D01*
X0113405Y0110366D02*
X0112412Y0110366D01*
X0112412Y0111964D02*
X0113405Y0111964D01*
X0113405Y0113563D02*
X0112412Y0113563D01*
X0112339Y0115161D02*
X0113514Y0115161D01*
X0114246Y0116760D02*
X0111585Y0116760D01*
X0146470Y0025004D02*
X0146468Y0024804D01*
X0146460Y0024605D01*
X0146448Y0024405D01*
X0146431Y0024206D01*
X0146410Y0024007D01*
X0146383Y0023809D01*
X0146352Y0023612D01*
X0146316Y0023415D01*
X0146275Y0023220D01*
X0146230Y0023025D01*
X0146180Y0022832D01*
X0146125Y0022640D01*
X0146065Y0022449D01*
X0146001Y0022260D01*
X0145933Y0022072D01*
X0145860Y0021886D01*
X0145782Y0021702D01*
X0145700Y0021520D01*
X0145614Y0021340D01*
X0145523Y0021162D01*
X0145428Y0020986D01*
X0145329Y0020812D01*
X0145225Y0020641D01*
X0145118Y0020473D01*
X0145006Y0020307D01*
X0144891Y0020144D01*
X0144772Y0019984D01*
X0144648Y0019827D01*
X0144521Y0019672D01*
X0144391Y0019521D01*
X0144256Y0019373D01*
X0144119Y0019229D01*
X0143977Y0019087D01*
X0143833Y0018950D01*
X0143685Y0018815D01*
X0143534Y0018685D01*
X0143379Y0018558D01*
X0143222Y0018434D01*
X0143062Y0018315D01*
X0142899Y0018200D01*
X0142733Y0018088D01*
X0142565Y0017981D01*
X0142394Y0017877D01*
X0142220Y0017778D01*
X0142044Y0017683D01*
X0141866Y0017592D01*
X0141686Y0017506D01*
X0141504Y0017424D01*
X0141320Y0017346D01*
X0141134Y0017273D01*
X0140946Y0017205D01*
X0140757Y0017141D01*
X0140566Y0017081D01*
X0140374Y0017026D01*
X0140181Y0016976D01*
X0139986Y0016931D01*
X0139791Y0016890D01*
X0139594Y0016854D01*
X0139397Y0016823D01*
X0139199Y0016796D01*
X0139000Y0016775D01*
X0138801Y0016758D01*
X0138601Y0016746D01*
X0138402Y0016738D01*
X0138202Y0016736D01*
X0140220Y0020849D02*
X0142343Y0020849D01*
X0143465Y0022448D02*
X0140220Y0022448D01*
X0140220Y0024046D02*
X0143984Y0024046D01*
D12*
X0067892Y0029557D02*
X0067892Y0035957D01*
X0067892Y0055157D02*
X0067892Y0061557D01*
X0050092Y0061557D02*
X0050092Y0055157D01*
X0050092Y0035957D02*
X0050092Y0029557D01*
X0134546Y0152787D02*
X0140946Y0152787D01*
X0140946Y0162787D02*
X0134546Y0162787D01*
X0134546Y0172787D02*
X0140946Y0172787D01*
X0140946Y0182787D02*
X0134546Y0182787D01*
X0134546Y0192787D02*
X0140946Y0192787D01*
X0140946Y0202787D02*
X0134546Y0202787D01*
D13*
X0118005Y0114108D02*
X0118005Y0108508D01*
X0108005Y0108508D02*
X0108005Y0114108D01*
X0108005Y0078508D02*
X0108005Y0072908D01*
X0118005Y0072908D02*
X0118005Y0078508D01*
X0024760Y0095730D02*
X0024760Y0101330D01*
X0024760Y0125730D02*
X0024760Y0131330D01*
D14*
X0019094Y0059331D02*
X0011220Y0059331D01*
X0011220Y0034528D02*
X0019094Y0034528D01*
X0034843Y0043583D02*
X0034843Y0051457D01*
D15*
X0103162Y0037333D02*
X0103162Y0030233D01*
X0122847Y0030233D02*
X0122847Y0037333D01*
D16*
X0072060Y0104531D03*
X0092532Y0137996D03*
X0089383Y0152169D03*
X0066548Y0168705D03*
X0137414Y0135240D03*
M02*
