%
M48
M72
T01C0.02362
T02C0.03200
T03C0.03937
T04C0.04000
T05C0.04700
%
T01
X72060Y104531
X137414Y135240
X92532Y137996
X89383Y152169
X66548Y168705
T02
X24760Y98530
X24760Y128530
X108005Y78508
X118005Y78508
X118005Y108508
X108005Y108508
T03
X15157Y34528
X15157Y59331
X34843Y47520
T04
X50092Y32757
X67892Y32757
X67892Y58357
X50092Y58357
X137746Y152787
X137746Y162787
X137746Y172787
X137746Y182787
X137746Y192787
X137746Y202787
T05
X122847Y33783
X103162Y33783
M30
