G75*
%MOIN*%
%OFA0B0*%
%FSLAX25Y25*%
%IPPOS*%
%LPD*%
%AMOC8*
5,1,8,0,0,1.08239X$1,22.5*
%
%ADD10C,0.03200*%
%ADD11C,0.01600*%
%ADD12R,0.00500X0.00100*%
%ADD13R,0.00700X0.00100*%
%ADD14R,0.00900X0.00100*%
%ADD15R,0.01200X0.00100*%
%ADD16R,0.01300X0.00100*%
%ADD17R,0.01500X0.00100*%
%ADD18R,0.01600X0.00100*%
%ADD19R,0.01800X0.00100*%
%ADD20R,0.01900X0.00100*%
%ADD21R,0.02000X0.00100*%
%ADD22R,0.02200X0.00100*%
%ADD23R,0.02400X0.00100*%
%ADD24R,0.02500X0.00100*%
%ADD25R,0.02600X0.00100*%
%ADD26R,0.02700X0.00100*%
%ADD27R,0.02800X0.00100*%
%ADD28R,0.02900X0.00100*%
%ADD29R,0.03000X0.00100*%
%ADD30R,0.03100X0.00100*%
%ADD31R,0.00800X0.00100*%
%ADD32R,0.01400X0.00100*%
%ADD33R,0.01100X0.00100*%
%ADD34R,0.01000X0.00100*%
%ADD35R,0.02100X0.00100*%
%ADD36R,0.03200X0.00100*%
%ADD37R,0.03300X0.00100*%
%ADD38R,0.01700X0.00100*%
%ADD39R,0.02300X0.00100*%
%ADD40R,0.17100X0.00100*%
%ADD41R,0.17000X0.00100*%
%ADD42R,0.17300X0.00100*%
%ADD43R,0.00600X0.00100*%
%ADD44R,0.00200X0.00100*%
%ADD45R,0.00300X0.00100*%
%ADD46R,0.17200X0.00100*%
%ADD47R,0.00400X0.00100*%
%ADD48R,0.07700X0.00100*%
%ADD49R,0.09200X0.00100*%
%ADD50R,0.06400X0.00100*%
%ADD51R,0.09100X0.00100*%
%ADD52R,0.08000X0.00100*%
%ADD53R,0.09500X0.00100*%
%ADD54R,0.07200X0.00100*%
%ADD55R,0.08100X0.00100*%
%ADD56R,0.09600X0.00100*%
%ADD57R,0.03500X0.00100*%
%ADD58R,0.08500X0.00100*%
%ADD59R,0.08800X0.00100*%
%ADD60R,0.03700X0.00100*%
%ADD61R,0.09400X0.00100*%
%ADD62R,0.03900X0.00100*%
%ADD63R,0.09800X0.00100*%
%ADD64R,0.04100X0.00100*%
%ADD65R,0.10000X0.00100*%
%ADD66R,0.10100X0.00100*%
%ADD67R,0.04200X0.00100*%
%ADD68R,0.10200X0.00100*%
%ADD69R,0.04300X0.00100*%
%ADD70R,0.10300X0.00100*%
%ADD71R,0.03400X0.00100*%
%ADD72R,0.10400X0.00100*%
%ADD73R,0.04500X0.00100*%
%ADD74R,0.10500X0.00100*%
%ADD75R,0.04600X0.00100*%
%ADD76R,0.10600X0.00100*%
%ADD77R,0.04700X0.00100*%
%ADD78R,0.04800X0.00100*%
%ADD79R,0.10700X0.00100*%
%ADD80R,0.04900X0.00100*%
%ADD81R,0.09300X0.00100*%
%ADD82R,0.06600X0.00100*%
%ADD83R,0.06500X0.00100*%
%ADD84R,0.06300X0.00100*%
%ADD85R,0.06100X0.00100*%
%ADD86R,0.06000X0.00100*%
%ADD87R,0.05900X0.00100*%
%ADD88R,0.05800X0.00100*%
%ADD89R,0.05700X0.00100*%
%ADD90R,0.06200X0.00100*%
%ADD91R,0.06700X0.00100*%
%ADD92R,0.00100X0.00100*%
%ADD93R,0.05000X0.00100*%
%ADD94R,0.03600X0.00100*%
%ADD95R,0.09700X0.00100*%
%ADD96R,0.04400X0.00100*%
%ADD97R,0.08900X0.00100*%
%ADD98R,0.08700X0.00100*%
%ADD99R,0.08300X0.00100*%
%ADD100R,0.07300X0.00100*%
%ADD101R,0.03800X0.00100*%
%ADD102R,0.04000X0.00100*%
%ADD103R,0.05100X0.00100*%
%ADD104R,0.05400X0.00100*%
%ADD105R,0.05600X0.00100*%
%ADD106R,0.05500X0.00100*%
%ADD107R,0.07000X0.00100*%
%ADD108R,0.07500X0.00100*%
%ADD109R,0.06900X0.00100*%
%ADD110R,0.05300X0.00100*%
%ADD111R,0.07800X0.00100*%
%ADD112R,0.06800X0.00100*%
%ADD113R,0.17400X0.00100*%
%ADD114R,0.16900X0.00100*%
%ADD115R,0.16400X0.00100*%
%ADD116R,0.16000X0.00100*%
%ADD117R,0.15600X0.00100*%
%ADD118R,0.15000X0.00100*%
%ADD119R,0.14500X0.00100*%
%ADD120R,0.13900X0.00100*%
%ADD121R,0.13300X0.00100*%
%ADD122R,0.12700X0.00100*%
%ADD123R,0.12200X0.00100*%
%ADD124R,0.11300X0.00100*%
%ADD125R,0.05200X0.00100*%
%ADD126R,0.07900X0.00100*%
%ADD127R,0.11800X0.00100*%
%ADD128R,0.11900X0.00100*%
%ADD129R,0.12000X0.00100*%
%ADD130R,0.11600X0.00100*%
%ADD131R,0.11400X0.00100*%
%ADD132R,0.11000X0.00100*%
%ADD133R,0.08400X0.00100*%
%ADD134R,0.07100X0.00100*%
%ADD135C,0.00400*%
D10*
X0137233Y0044645D02*
X0137233Y0051459D01*
X0137233Y0057859D02*
X0137233Y0064673D01*
X0137233Y0071073D02*
X0137233Y0077887D01*
X0137233Y0084287D02*
X0137233Y0091102D01*
X0142254Y0096122D01*
X0146779Y0100648D02*
X0151800Y0105669D01*
X0151800Y0115905D01*
X0155343Y0119448D01*
X0162494Y0119448D01*
X0168894Y0119448D02*
X0176045Y0119448D01*
X0182445Y0119448D02*
X0189595Y0119448D01*
X0197076Y0111968D01*
X0197076Y0103781D01*
X0197076Y0097381D02*
X0197076Y0089194D01*
X0197076Y0082794D02*
X0197076Y0074606D01*
X0197076Y0068206D02*
X0197076Y0060019D01*
X0197076Y0053619D02*
X0197076Y0045432D01*
D11*
X0198257Y0044251D02*
X0040776Y0044251D01*
X0040635Y0044253D01*
X0040494Y0044259D01*
X0040353Y0044268D01*
X0040213Y0044282D01*
X0040073Y0044300D01*
X0039934Y0044321D01*
X0039795Y0044346D01*
X0039657Y0044375D01*
X0039520Y0044408D01*
X0039383Y0044444D01*
X0039248Y0044484D01*
X0039114Y0044528D01*
X0038981Y0044576D01*
X0038850Y0044627D01*
X0038720Y0044682D01*
X0038592Y0044741D01*
X0038465Y0044802D01*
X0038340Y0044868D01*
X0038217Y0044937D01*
X0038096Y0045009D01*
X0037977Y0045084D01*
X0037860Y0045163D01*
X0037745Y0045245D01*
X0037632Y0045330D01*
X0037522Y0045418D01*
X0037415Y0045509D01*
X0037310Y0045604D01*
X0037207Y0045701D01*
X0037108Y0045800D01*
X0037011Y0045903D01*
X0036916Y0046008D01*
X0036825Y0046115D01*
X0036737Y0046225D01*
X0036652Y0046338D01*
X0036570Y0046453D01*
X0036491Y0046570D01*
X0036416Y0046689D01*
X0036344Y0046810D01*
X0036275Y0046933D01*
X0036209Y0047058D01*
X0036148Y0047185D01*
X0036089Y0047313D01*
X0036034Y0047443D01*
X0035983Y0047574D01*
X0035935Y0047707D01*
X0035891Y0047841D01*
X0035851Y0047976D01*
X0035815Y0048113D01*
X0035782Y0048250D01*
X0035753Y0048388D01*
X0035728Y0048527D01*
X0035707Y0048666D01*
X0035689Y0048806D01*
X0035675Y0048946D01*
X0035666Y0049087D01*
X0035660Y0049228D01*
X0035658Y0049369D01*
X0035658Y0233228D01*
X0035660Y0233380D01*
X0035666Y0233532D01*
X0035676Y0233684D01*
X0035689Y0233835D01*
X0035707Y0233986D01*
X0035728Y0234137D01*
X0035754Y0234287D01*
X0035783Y0234436D01*
X0035816Y0234585D01*
X0035853Y0234732D01*
X0035893Y0234879D01*
X0035938Y0235024D01*
X0035986Y0235168D01*
X0036038Y0235311D01*
X0036093Y0235453D01*
X0036152Y0235593D01*
X0036215Y0235732D01*
X0036281Y0235869D01*
X0036351Y0236004D01*
X0036424Y0236137D01*
X0036501Y0236268D01*
X0036581Y0236398D01*
X0036664Y0236525D01*
X0036750Y0236650D01*
X0036840Y0236773D01*
X0036933Y0236893D01*
X0037029Y0237011D01*
X0037128Y0237127D01*
X0037230Y0237240D01*
X0037334Y0237350D01*
X0037442Y0237458D01*
X0037552Y0237562D01*
X0037665Y0237664D01*
X0037781Y0237763D01*
X0037899Y0237859D01*
X0038019Y0237952D01*
X0038142Y0238042D01*
X0038267Y0238128D01*
X0038394Y0238211D01*
X0038524Y0238291D01*
X0038655Y0238368D01*
X0038788Y0238441D01*
X0038923Y0238511D01*
X0039060Y0238577D01*
X0039199Y0238640D01*
X0039339Y0238699D01*
X0039481Y0238754D01*
X0039624Y0238806D01*
X0039768Y0238854D01*
X0039913Y0238899D01*
X0040060Y0238939D01*
X0040207Y0238976D01*
X0040356Y0239009D01*
X0040505Y0239038D01*
X0040655Y0239064D01*
X0040806Y0239085D01*
X0040957Y0239103D01*
X0041108Y0239116D01*
X0041260Y0239126D01*
X0041412Y0239132D01*
X0041564Y0239134D01*
X0041564Y0239133D02*
X0111249Y0239133D01*
X0111365Y0239131D01*
X0111481Y0239125D01*
X0111596Y0239116D01*
X0111711Y0239103D01*
X0111826Y0239086D01*
X0111940Y0239065D01*
X0112054Y0239040D01*
X0112166Y0239012D01*
X0112277Y0238980D01*
X0112388Y0238945D01*
X0112497Y0238906D01*
X0112605Y0238863D01*
X0112711Y0238817D01*
X0112816Y0238768D01*
X0112919Y0238715D01*
X0113021Y0238658D01*
X0113120Y0238599D01*
X0113217Y0238536D01*
X0113313Y0238470D01*
X0113406Y0238401D01*
X0113497Y0238329D01*
X0113585Y0238254D01*
X0113671Y0238176D01*
X0113754Y0238095D01*
X0113835Y0238012D01*
X0113913Y0237926D01*
X0113988Y0237838D01*
X0114060Y0237747D01*
X0114129Y0237654D01*
X0114195Y0237558D01*
X0114258Y0237461D01*
X0114317Y0237362D01*
X0114374Y0237260D01*
X0114427Y0237157D01*
X0114476Y0237052D01*
X0114522Y0236946D01*
X0114565Y0236838D01*
X0114604Y0236729D01*
X0114639Y0236618D01*
X0114671Y0236507D01*
X0114699Y0236395D01*
X0114724Y0236281D01*
X0114745Y0236167D01*
X0114762Y0236052D01*
X0114775Y0235937D01*
X0114784Y0235822D01*
X0114790Y0235706D01*
X0114792Y0235590D01*
X0114792Y0218661D01*
X0114794Y0218566D01*
X0114800Y0218471D01*
X0114809Y0218376D01*
X0114823Y0218282D01*
X0114840Y0218189D01*
X0114861Y0218096D01*
X0114885Y0218004D01*
X0114914Y0217913D01*
X0114945Y0217823D01*
X0114981Y0217735D01*
X0115020Y0217648D01*
X0115063Y0217563D01*
X0115108Y0217480D01*
X0115158Y0217399D01*
X0115210Y0217319D01*
X0115266Y0217242D01*
X0115324Y0217167D01*
X0115386Y0217095D01*
X0115451Y0217025D01*
X0115518Y0216958D01*
X0115588Y0216893D01*
X0115660Y0216831D01*
X0115735Y0216773D01*
X0115812Y0216717D01*
X0115892Y0216665D01*
X0115973Y0216615D01*
X0116056Y0216570D01*
X0116141Y0216527D01*
X0116228Y0216488D01*
X0116316Y0216452D01*
X0116406Y0216421D01*
X0116497Y0216392D01*
X0116589Y0216368D01*
X0116682Y0216347D01*
X0116775Y0216330D01*
X0116869Y0216316D01*
X0116964Y0216307D01*
X0117059Y0216301D01*
X0117154Y0216299D01*
X0117154Y0216298D02*
X0162036Y0216298D01*
X0162036Y0216299D02*
X0162131Y0216301D01*
X0162226Y0216307D01*
X0162321Y0216316D01*
X0162415Y0216330D01*
X0162508Y0216347D01*
X0162601Y0216368D01*
X0162693Y0216392D01*
X0162784Y0216421D01*
X0162874Y0216452D01*
X0162962Y0216488D01*
X0163049Y0216527D01*
X0163134Y0216570D01*
X0163217Y0216615D01*
X0163298Y0216665D01*
X0163378Y0216717D01*
X0163455Y0216773D01*
X0163530Y0216831D01*
X0163602Y0216893D01*
X0163672Y0216958D01*
X0163739Y0217025D01*
X0163804Y0217095D01*
X0163866Y0217167D01*
X0163924Y0217242D01*
X0163980Y0217319D01*
X0164032Y0217399D01*
X0164082Y0217480D01*
X0164127Y0217563D01*
X0164170Y0217648D01*
X0164209Y0217735D01*
X0164245Y0217823D01*
X0164276Y0217913D01*
X0164305Y0218004D01*
X0164329Y0218096D01*
X0164350Y0218189D01*
X0164367Y0218282D01*
X0164381Y0218376D01*
X0164390Y0218471D01*
X0164396Y0218566D01*
X0164398Y0218661D01*
X0164398Y0237558D01*
X0164400Y0237644D01*
X0164405Y0237730D01*
X0164415Y0237815D01*
X0164428Y0237900D01*
X0164445Y0237984D01*
X0164465Y0238068D01*
X0164489Y0238150D01*
X0164517Y0238231D01*
X0164548Y0238312D01*
X0164582Y0238390D01*
X0164620Y0238467D01*
X0164662Y0238543D01*
X0164706Y0238616D01*
X0164754Y0238687D01*
X0164805Y0238757D01*
X0164859Y0238824D01*
X0164915Y0238888D01*
X0164975Y0238950D01*
X0165037Y0239010D01*
X0165101Y0239066D01*
X0165168Y0239120D01*
X0165238Y0239171D01*
X0165309Y0239219D01*
X0165383Y0239263D01*
X0165458Y0239305D01*
X0165535Y0239343D01*
X0165613Y0239377D01*
X0165694Y0239408D01*
X0165775Y0239436D01*
X0165857Y0239460D01*
X0165941Y0239480D01*
X0166025Y0239497D01*
X0166110Y0239510D01*
X0166195Y0239520D01*
X0166281Y0239525D01*
X0166367Y0239527D01*
X0200225Y0239527D01*
X0200382Y0239525D01*
X0200539Y0239519D01*
X0200696Y0239509D01*
X0200852Y0239496D01*
X0201008Y0239478D01*
X0201164Y0239457D01*
X0201319Y0239431D01*
X0201473Y0239402D01*
X0201627Y0239369D01*
X0201779Y0239332D01*
X0201931Y0239292D01*
X0202082Y0239247D01*
X0202231Y0239199D01*
X0202379Y0239147D01*
X0202526Y0239092D01*
X0202672Y0239032D01*
X0202816Y0238970D01*
X0202958Y0238903D01*
X0203099Y0238833D01*
X0203238Y0238760D01*
X0203375Y0238683D01*
X0203510Y0238603D01*
X0203642Y0238519D01*
X0203773Y0238432D01*
X0203902Y0238342D01*
X0204028Y0238249D01*
X0204152Y0238153D01*
X0204274Y0238053D01*
X0204393Y0237951D01*
X0204509Y0237845D01*
X0204623Y0237737D01*
X0204734Y0237626D01*
X0204842Y0237512D01*
X0204948Y0237396D01*
X0205050Y0237277D01*
X0205150Y0237155D01*
X0205246Y0237031D01*
X0205339Y0236905D01*
X0205429Y0236776D01*
X0205516Y0236645D01*
X0205600Y0236513D01*
X0205680Y0236378D01*
X0205757Y0236241D01*
X0205830Y0236102D01*
X0205900Y0235961D01*
X0205967Y0235819D01*
X0206029Y0235675D01*
X0206089Y0235529D01*
X0206144Y0235382D01*
X0206196Y0235234D01*
X0206244Y0235085D01*
X0206289Y0234934D01*
X0206329Y0234782D01*
X0206366Y0234630D01*
X0206399Y0234476D01*
X0206428Y0234322D01*
X0206454Y0234167D01*
X0206475Y0234011D01*
X0206493Y0233855D01*
X0206506Y0233699D01*
X0206516Y0233542D01*
X0206522Y0233385D01*
X0206524Y0233228D01*
X0206524Y0052519D01*
X0206525Y0052519D02*
X0206523Y0052319D01*
X0206515Y0052120D01*
X0206503Y0051920D01*
X0206486Y0051721D01*
X0206465Y0051522D01*
X0206438Y0051324D01*
X0206407Y0051127D01*
X0206371Y0050930D01*
X0206330Y0050735D01*
X0206285Y0050540D01*
X0206235Y0050347D01*
X0206180Y0050155D01*
X0206120Y0049964D01*
X0206056Y0049775D01*
X0205988Y0049587D01*
X0205915Y0049401D01*
X0205837Y0049217D01*
X0205755Y0049035D01*
X0205669Y0048855D01*
X0205578Y0048677D01*
X0205483Y0048501D01*
X0205384Y0048327D01*
X0205280Y0048156D01*
X0205173Y0047988D01*
X0205061Y0047822D01*
X0204946Y0047659D01*
X0204827Y0047499D01*
X0204703Y0047342D01*
X0204576Y0047187D01*
X0204446Y0047036D01*
X0204311Y0046888D01*
X0204174Y0046744D01*
X0204032Y0046602D01*
X0203888Y0046465D01*
X0203740Y0046330D01*
X0203589Y0046200D01*
X0203434Y0046073D01*
X0203277Y0045949D01*
X0203117Y0045830D01*
X0202954Y0045715D01*
X0202788Y0045603D01*
X0202620Y0045496D01*
X0202449Y0045392D01*
X0202275Y0045293D01*
X0202099Y0045198D01*
X0201921Y0045107D01*
X0201741Y0045021D01*
X0201559Y0044939D01*
X0201375Y0044861D01*
X0201189Y0044788D01*
X0201001Y0044720D01*
X0200812Y0044656D01*
X0200621Y0044596D01*
X0200429Y0044541D01*
X0200236Y0044491D01*
X0200041Y0044446D01*
X0199846Y0044405D01*
X0199649Y0044369D01*
X0199452Y0044338D01*
X0199254Y0044311D01*
X0199055Y0044290D01*
X0198856Y0044273D01*
X0198656Y0044261D01*
X0198457Y0044253D01*
X0198257Y0044251D01*
D12*
X0131695Y0126153D03*
X0139795Y0134553D03*
X0139895Y0134653D03*
X0139995Y0134853D03*
X0141195Y0145853D03*
X0141195Y0145953D03*
X0141195Y0146053D03*
X0141195Y0146153D03*
X0141195Y0146253D03*
X0141195Y0146353D03*
X0136295Y0152353D03*
X0136195Y0152453D03*
X0135895Y0162253D03*
X0135895Y0162353D03*
X0147095Y0154553D03*
X0149695Y0161753D03*
X0112495Y0156553D03*
X0103095Y0130953D03*
D13*
X0103895Y0134653D03*
X0099595Y0135653D03*
X0097295Y0134653D03*
X0089495Y0134753D03*
X0108995Y0130953D03*
X0113095Y0130953D03*
X0131895Y0126253D03*
X0140195Y0135153D03*
X0140295Y0135253D03*
X0140295Y0135353D03*
X0140395Y0135453D03*
X0141095Y0146953D03*
X0141095Y0147053D03*
X0141095Y0147153D03*
X0141095Y0147253D03*
X0135795Y0152853D03*
X0125495Y0164153D03*
X0109895Y0152953D03*
X0149795Y0161553D03*
D14*
X0149795Y0161453D03*
X0140995Y0147953D03*
X0140995Y0147853D03*
X0140995Y0147753D03*
X0140995Y0147653D03*
X0135595Y0153053D03*
X0135495Y0153153D03*
X0135995Y0162653D03*
X0125395Y0164053D03*
X0112495Y0156253D03*
X0105895Y0135953D03*
X0105895Y0135853D03*
X0103895Y0134553D03*
X0103895Y0134453D03*
X0103895Y0134353D03*
X0103895Y0134253D03*
X0103895Y0134153D03*
X0103895Y0134053D03*
X0103895Y0133953D03*
X0103895Y0133853D03*
X0103895Y0133753D03*
X0103895Y0133653D03*
X0103895Y0133553D03*
X0103895Y0133453D03*
X0103895Y0133353D03*
X0103895Y0133253D03*
X0103895Y0133153D03*
X0103895Y0133053D03*
X0103895Y0132953D03*
X0103895Y0132853D03*
X0103895Y0132753D03*
X0103895Y0132653D03*
X0103895Y0132553D03*
X0103895Y0132453D03*
X0103895Y0132353D03*
X0103895Y0132253D03*
X0105895Y0131253D03*
X0105895Y0131153D03*
X0108995Y0134753D03*
X0112095Y0133753D03*
X0112095Y0133653D03*
X0114295Y0132153D03*
X0101495Y0131153D03*
X0097295Y0131153D03*
X0094195Y0134753D03*
X0091195Y0134453D03*
X0091095Y0131153D03*
X0088795Y0131153D03*
X0085995Y0134753D03*
X0084895Y0133653D03*
X0097295Y0135453D03*
X0097295Y0136153D03*
X0132095Y0126353D03*
X0140595Y0135753D03*
X0140595Y0135853D03*
X0140695Y0135953D03*
X0140795Y0136153D03*
D15*
X0141345Y0137153D03*
X0141445Y0137253D03*
X0141445Y0137353D03*
X0141545Y0137453D03*
X0141645Y0137653D03*
X0140845Y0148753D03*
X0140745Y0149153D03*
X0140745Y0149253D03*
X0140745Y0149353D03*
X0135045Y0153553D03*
X0134945Y0153653D03*
X0136045Y0162953D03*
X0114045Y0133453D03*
X0112045Y0132253D03*
X0109945Y0131853D03*
X0107945Y0131853D03*
X0107945Y0133853D03*
X0103745Y0131853D03*
X0101645Y0132053D03*
X0099545Y0133853D03*
X0095245Y0133853D03*
X0093245Y0133853D03*
X0093245Y0131853D03*
X0095245Y0131853D03*
X0091045Y0133653D03*
X0091045Y0133753D03*
X0089545Y0134653D03*
X0088945Y0133853D03*
X0086945Y0131753D03*
X0132445Y0126453D03*
D16*
X0132595Y0126553D03*
X0141595Y0137553D03*
X0141695Y0137753D03*
X0141695Y0137853D03*
X0141795Y0137953D03*
X0141895Y0138153D03*
X0140695Y0149453D03*
X0140695Y0149553D03*
X0140695Y0149653D03*
X0140595Y0149753D03*
X0140595Y0149853D03*
X0149895Y0161153D03*
X0125195Y0163853D03*
X0124195Y0159953D03*
X0101695Y0131953D03*
X0090995Y0133853D03*
X0086895Y0133453D03*
X0084995Y0132353D03*
D17*
X0085602Y0133809D03*
X0085995Y0134653D03*
X0089595Y0134553D03*
X0094195Y0134653D03*
X0099295Y0131753D03*
X0099195Y0131453D03*
X0103095Y0131153D03*
X0108995Y0134653D03*
X0113095Y0134653D03*
X0113895Y0133353D03*
X0113095Y0131053D03*
X0132895Y0126653D03*
X0142095Y0138553D03*
X0142095Y0138653D03*
X0142195Y0138853D03*
X0142295Y0138953D03*
X0142295Y0139053D03*
X0142395Y0139253D03*
X0140495Y0150253D03*
X0140395Y0150553D03*
X0140295Y0150753D03*
X0140295Y0150853D03*
X0134595Y0153953D03*
X0136095Y0163153D03*
X0125095Y0163753D03*
D18*
X0124945Y0163653D03*
X0124145Y0160053D03*
X0134345Y0154153D03*
X0134445Y0154053D03*
X0140045Y0151553D03*
X0140145Y0151253D03*
X0140145Y0151153D03*
X0140245Y0151053D03*
X0140245Y0150953D03*
X0142745Y0140053D03*
X0142645Y0139853D03*
X0142645Y0139753D03*
X0142545Y0139653D03*
X0142545Y0139553D03*
X0142445Y0139453D03*
X0142445Y0139353D03*
X0142345Y0139153D03*
X0133345Y0126853D03*
X0133145Y0126753D03*
X0149945Y0160953D03*
X0099245Y0131653D03*
X0099245Y0131553D03*
X0086745Y0133353D03*
D19*
X0085245Y0132453D03*
X0094245Y0131153D03*
X0099545Y0133953D03*
X0103145Y0131253D03*
X0108945Y0131153D03*
X0133545Y0126953D03*
X0143045Y0140853D03*
X0143145Y0141153D03*
X0143145Y0141253D03*
X0143245Y0141353D03*
X0143245Y0141453D03*
X0143345Y0141553D03*
X0143345Y0141653D03*
X0143345Y0141753D03*
X0143445Y0142053D03*
X0139845Y0152053D03*
X0139745Y0152253D03*
X0139745Y0152353D03*
X0139645Y0152453D03*
X0134045Y0154353D03*
X0124045Y0160153D03*
X0124845Y0163553D03*
D20*
X0123995Y0160253D03*
X0133895Y0154453D03*
X0139395Y0153053D03*
X0139495Y0152853D03*
X0139495Y0152753D03*
X0139595Y0152653D03*
X0139595Y0152553D03*
X0143895Y0143553D03*
X0143795Y0143153D03*
X0143695Y0142953D03*
X0143695Y0142853D03*
X0143695Y0142753D03*
X0143595Y0142653D03*
X0143595Y0142553D03*
X0143595Y0142453D03*
X0143595Y0142353D03*
X0143495Y0142253D03*
X0143495Y0142153D03*
X0143395Y0141953D03*
X0143395Y0141853D03*
X0133995Y0127153D03*
X0133795Y0127053D03*
X0113095Y0134553D03*
X0108995Y0134553D03*
X0113695Y0138753D03*
X0101295Y0138753D03*
X0094195Y0134553D03*
X0086495Y0133253D03*
X0085995Y0134553D03*
X0085295Y0138753D03*
X0149995Y0160653D03*
D21*
X0150045Y0160553D03*
X0139445Y0152953D03*
X0139345Y0153153D03*
X0139245Y0153353D03*
X0139145Y0153553D03*
X0133745Y0154553D03*
X0124745Y0163453D03*
X0144045Y0144253D03*
X0144045Y0144153D03*
X0144045Y0144053D03*
X0143945Y0143853D03*
X0143945Y0143753D03*
X0143945Y0143653D03*
X0143845Y0143453D03*
X0143845Y0143353D03*
X0143845Y0143253D03*
X0143745Y0143053D03*
X0144145Y0144653D03*
X0134245Y0127253D03*
X0113645Y0133253D03*
X0113145Y0131153D03*
X0099545Y0134053D03*
X0085945Y0131153D03*
D22*
X0085445Y0132553D03*
X0073145Y0140653D03*
X0073145Y0140753D03*
X0073145Y0140853D03*
X0073145Y0140953D03*
X0073145Y0141053D03*
X0073145Y0141153D03*
X0073145Y0141253D03*
X0073145Y0141353D03*
X0073145Y0141453D03*
X0073145Y0141553D03*
X0073145Y0141653D03*
X0073145Y0141753D03*
X0073145Y0141853D03*
X0073145Y0141953D03*
X0073145Y0142053D03*
X0073145Y0142153D03*
X0073145Y0142253D03*
X0073145Y0142353D03*
X0073145Y0142453D03*
X0073145Y0142553D03*
X0073145Y0144453D03*
X0073145Y0144553D03*
X0073145Y0144653D03*
X0073145Y0144753D03*
X0073145Y0144853D03*
X0073145Y0144953D03*
X0073145Y0145053D03*
X0073145Y0145153D03*
X0073145Y0145253D03*
X0073145Y0145353D03*
X0073145Y0145453D03*
X0073145Y0145553D03*
X0073145Y0145653D03*
X0073145Y0145753D03*
X0073145Y0145853D03*
X0073145Y0145953D03*
X0073145Y0146053D03*
X0073145Y0146153D03*
X0097545Y0145253D03*
X0097545Y0145153D03*
X0097545Y0145053D03*
X0097545Y0144953D03*
X0097545Y0144853D03*
X0097545Y0144753D03*
X0097545Y0144653D03*
X0097545Y0144553D03*
X0097545Y0144453D03*
X0097545Y0144353D03*
X0097545Y0144253D03*
X0097545Y0144153D03*
X0097545Y0144053D03*
X0097545Y0143953D03*
X0097545Y0143853D03*
X0097545Y0143753D03*
X0097545Y0143653D03*
X0097545Y0143553D03*
X0097545Y0143453D03*
X0097545Y0143353D03*
X0097545Y0143253D03*
X0097545Y0143153D03*
X0097545Y0143053D03*
X0097545Y0142953D03*
X0097545Y0142853D03*
X0097545Y0142753D03*
X0097545Y0142653D03*
X0097545Y0142553D03*
X0097545Y0142453D03*
X0097545Y0142353D03*
X0097545Y0142253D03*
X0097545Y0142153D03*
X0097545Y0142053D03*
X0097545Y0141953D03*
X0097545Y0141853D03*
X0097545Y0141753D03*
X0097545Y0141653D03*
X0108945Y0134453D03*
X0108945Y0131253D03*
X0113445Y0133153D03*
X0113145Y0134453D03*
X0134445Y0127353D03*
X0134645Y0127453D03*
X0134845Y0127553D03*
X0144245Y0145153D03*
X0144245Y0145253D03*
X0144345Y0145553D03*
X0144345Y0145653D03*
X0144345Y0145753D03*
X0144445Y0146053D03*
X0144445Y0146153D03*
X0144445Y0146253D03*
X0144445Y0146353D03*
X0144445Y0146453D03*
X0144545Y0146653D03*
X0144545Y0146753D03*
X0144545Y0146853D03*
X0144545Y0146953D03*
X0144545Y0147053D03*
X0138845Y0154053D03*
X0138745Y0154253D03*
X0138645Y0154353D03*
X0138545Y0154553D03*
X0133445Y0154753D03*
X0133845Y0147853D03*
X0123945Y0160353D03*
D23*
X0132945Y0155053D03*
X0133145Y0154953D03*
X0138145Y0155153D03*
X0138245Y0154953D03*
X0138345Y0154853D03*
X0144745Y0149953D03*
X0144745Y0149853D03*
X0144745Y0149753D03*
X0144745Y0149653D03*
X0144745Y0149553D03*
X0144745Y0149453D03*
X0144745Y0149353D03*
X0144745Y0149253D03*
X0144745Y0149153D03*
X0144745Y0149053D03*
X0144745Y0148953D03*
X0144745Y0148853D03*
X0144745Y0148753D03*
X0144745Y0148653D03*
X0144645Y0147853D03*
X0150145Y0160253D03*
X0124545Y0144353D03*
X0124545Y0142653D03*
X0113145Y0134353D03*
X0112745Y0132653D03*
X0113145Y0131253D03*
X0108945Y0131353D03*
X0108745Y0140753D03*
X0108845Y0140853D03*
X0108845Y0140953D03*
X0108945Y0141153D03*
X0109045Y0141353D03*
X0109145Y0141553D03*
X0109145Y0141653D03*
X0109245Y0141853D03*
X0109245Y0141953D03*
X0109345Y0142053D03*
X0109445Y0142253D03*
X0109445Y0142353D03*
X0109545Y0142553D03*
X0109545Y0142653D03*
X0109645Y0142753D03*
X0109645Y0142853D03*
X0109745Y0142953D03*
X0109745Y0143053D03*
X0109845Y0143253D03*
X0109945Y0143453D03*
X0110045Y0143653D03*
X0110045Y0143753D03*
X0110145Y0143953D03*
X0110245Y0144153D03*
X0110345Y0144353D03*
X0110345Y0144453D03*
X0110445Y0144653D03*
X0110445Y0144753D03*
X0110545Y0144853D03*
X0110645Y0145053D03*
X0110645Y0145153D03*
X0110745Y0145353D03*
X0110745Y0145453D03*
X0110845Y0145653D03*
X0110945Y0145853D03*
X0111045Y0146053D03*
X0104945Y0143753D03*
X0104945Y0143653D03*
X0105045Y0143453D03*
X0105145Y0143253D03*
X0105145Y0143153D03*
X0105245Y0143053D03*
X0105245Y0142953D03*
X0105345Y0142753D03*
X0105445Y0142553D03*
X0105445Y0142453D03*
X0105545Y0142353D03*
X0105545Y0142253D03*
X0105645Y0142053D03*
X0105745Y0141853D03*
X0105745Y0141753D03*
X0105845Y0141653D03*
X0105845Y0141553D03*
X0105845Y0141453D03*
X0105945Y0141353D03*
X0105945Y0141253D03*
X0106045Y0141153D03*
X0106045Y0141053D03*
X0106145Y0140953D03*
X0106145Y0140853D03*
X0106245Y0140753D03*
X0104845Y0143953D03*
X0104745Y0144153D03*
X0104645Y0144353D03*
X0104645Y0144453D03*
X0104545Y0144553D03*
X0104545Y0144653D03*
X0104445Y0144853D03*
X0104345Y0145053D03*
X0104345Y0145153D03*
X0104245Y0145353D03*
X0104145Y0145553D03*
X0104045Y0145753D03*
X0104045Y0145853D03*
X0097445Y0145853D03*
X0097445Y0145753D03*
X0097445Y0141253D03*
X0097445Y0141153D03*
X0088945Y0141153D03*
X0088945Y0141253D03*
X0088945Y0141353D03*
X0088945Y0145453D03*
X0088945Y0145553D03*
X0089045Y0145753D03*
X0085245Y0142653D03*
X0086145Y0133053D03*
X0085945Y0131253D03*
X0073045Y0146253D03*
X0135045Y0127653D03*
X0135245Y0127753D03*
D24*
X0135395Y0127853D03*
X0135595Y0127953D03*
X0124495Y0146253D03*
X0132795Y0155153D03*
X0137895Y0155453D03*
X0137995Y0155353D03*
X0138095Y0155253D03*
X0138195Y0155053D03*
X0144695Y0150353D03*
X0144695Y0150253D03*
X0144695Y0150153D03*
X0144695Y0150053D03*
X0113295Y0133053D03*
X0112895Y0132753D03*
X0108995Y0134353D03*
X0109495Y0142453D03*
X0109795Y0143153D03*
X0109895Y0143353D03*
X0109995Y0143553D03*
X0110095Y0143853D03*
X0110195Y0144053D03*
X0110295Y0144253D03*
X0110395Y0144553D03*
X0110595Y0144953D03*
X0110695Y0145253D03*
X0110795Y0145553D03*
X0110895Y0145753D03*
X0110995Y0145953D03*
X0105095Y0143353D03*
X0104995Y0143553D03*
X0104895Y0143853D03*
X0104795Y0144053D03*
X0104695Y0144253D03*
X0104495Y0144753D03*
X0104395Y0144953D03*
X0104295Y0145253D03*
X0104195Y0145453D03*
X0104095Y0145653D03*
X0103995Y0145953D03*
X0103895Y0146053D03*
X0097395Y0141053D03*
X0094195Y0134353D03*
X0094195Y0131353D03*
X0085995Y0132953D03*
X0085895Y0132853D03*
X0085795Y0132753D03*
X0085995Y0134353D03*
X0088995Y0141053D03*
X0088995Y0145653D03*
X0089095Y0145853D03*
D25*
X0089045Y0140953D03*
X0085945Y0134253D03*
X0085945Y0131353D03*
X0094245Y0131453D03*
X0097345Y0145953D03*
X0097245Y0146053D03*
X0108945Y0131453D03*
X0113145Y0131353D03*
X0113045Y0132853D03*
X0113145Y0132953D03*
X0113145Y0134253D03*
X0132645Y0155253D03*
X0137745Y0155653D03*
X0137845Y0155553D03*
X0144645Y0151953D03*
X0144645Y0151853D03*
X0144745Y0151253D03*
X0144745Y0151153D03*
X0144745Y0151053D03*
X0144745Y0150953D03*
X0144745Y0150853D03*
X0144745Y0150753D03*
X0144745Y0150653D03*
X0144745Y0150553D03*
X0144745Y0150453D03*
X0150145Y0160153D03*
X0136445Y0128453D03*
X0136145Y0128253D03*
X0135945Y0128153D03*
X0135745Y0128053D03*
D26*
X0136295Y0128353D03*
X0136595Y0128553D03*
X0136795Y0128653D03*
X0144695Y0151353D03*
X0144695Y0151453D03*
X0144695Y0151553D03*
X0144695Y0151653D03*
X0144695Y0151753D03*
X0144595Y0152053D03*
X0144595Y0152153D03*
X0144595Y0152253D03*
X0144595Y0152353D03*
X0144595Y0152453D03*
X0137695Y0155753D03*
X0137595Y0155853D03*
X0150195Y0160053D03*
X0110995Y0153153D03*
X0097295Y0140953D03*
X0097295Y0140853D03*
X0094195Y0134253D03*
X0085995Y0134153D03*
X0089095Y0140853D03*
X0089195Y0145953D03*
X0108995Y0134253D03*
D27*
X0108945Y0131553D03*
X0113145Y0131453D03*
X0113145Y0134053D03*
X0113145Y0134153D03*
X0097145Y0140753D03*
X0097145Y0146153D03*
X0089245Y0146053D03*
X0089245Y0140753D03*
X0085945Y0131453D03*
X0094245Y0131553D03*
X0124945Y0163353D03*
X0132245Y0155453D03*
X0132445Y0155353D03*
X0137245Y0156253D03*
X0137345Y0156153D03*
X0137445Y0156053D03*
X0137545Y0155953D03*
X0144545Y0152953D03*
X0144545Y0152853D03*
X0144545Y0152753D03*
X0144545Y0152653D03*
X0144545Y0152553D03*
X0150245Y0159953D03*
X0137545Y0129153D03*
X0137245Y0128953D03*
X0136945Y0128753D03*
D28*
X0137095Y0128853D03*
X0137395Y0129053D03*
X0137695Y0129253D03*
X0137895Y0129353D03*
X0137995Y0129453D03*
X0138295Y0129653D03*
X0144495Y0153053D03*
X0144495Y0153153D03*
X0144495Y0153253D03*
X0144495Y0153353D03*
X0144495Y0153453D03*
X0144395Y0153653D03*
X0144395Y0153753D03*
X0144395Y0153853D03*
X0137195Y0156353D03*
X0137095Y0156453D03*
X0136995Y0156553D03*
X0113095Y0131553D03*
X0108995Y0134153D03*
X0107495Y0138753D03*
X0094195Y0134153D03*
X0085995Y0134053D03*
X0076995Y0138753D03*
X0089395Y0146153D03*
D29*
X0090145Y0134353D03*
X0094245Y0134053D03*
X0094245Y0131653D03*
X0085945Y0131653D03*
X0085945Y0131553D03*
X0108945Y0131653D03*
X0108945Y0134053D03*
X0123345Y0158553D03*
X0132045Y0155553D03*
X0136745Y0156853D03*
X0136845Y0156753D03*
X0136945Y0156653D03*
X0144245Y0154553D03*
X0144245Y0154453D03*
X0144345Y0154253D03*
X0144345Y0154153D03*
X0144345Y0154053D03*
X0144345Y0153953D03*
X0144445Y0153553D03*
X0150245Y0159853D03*
X0140145Y0131053D03*
X0140045Y0130953D03*
X0139645Y0130653D03*
X0139545Y0130553D03*
X0139245Y0130353D03*
X0139145Y0130253D03*
X0138945Y0130153D03*
X0138845Y0130053D03*
X0138545Y0129853D03*
X0138445Y0129753D03*
X0138145Y0129553D03*
D30*
X0138695Y0129953D03*
X0139395Y0130453D03*
X0139795Y0130753D03*
X0139895Y0130853D03*
X0140295Y0131153D03*
X0140395Y0131253D03*
X0140495Y0131353D03*
X0140595Y0131453D03*
X0140695Y0131553D03*
X0140895Y0131653D03*
X0140995Y0131753D03*
X0141095Y0131853D03*
X0141195Y0131953D03*
X0141295Y0132053D03*
X0141395Y0132153D03*
X0141495Y0132253D03*
X0141595Y0132353D03*
X0141895Y0132653D03*
X0142195Y0132953D03*
X0142495Y0133253D03*
X0142795Y0133553D03*
X0143095Y0133853D03*
X0143295Y0134053D03*
X0143395Y0134153D03*
X0143495Y0134253D03*
X0143595Y0134353D03*
X0143695Y0134453D03*
X0143795Y0134553D03*
X0143895Y0134653D03*
X0144095Y0134953D03*
X0144195Y0135053D03*
X0144295Y0135153D03*
X0144395Y0135253D03*
X0144595Y0135553D03*
X0144695Y0135653D03*
X0144795Y0135753D03*
X0144895Y0135853D03*
X0145095Y0136153D03*
X0145195Y0136253D03*
X0145595Y0136853D03*
X0145695Y0136953D03*
X0145795Y0137153D03*
X0145895Y0137253D03*
X0146095Y0137553D03*
X0146195Y0137653D03*
X0146295Y0137853D03*
X0146395Y0137953D03*
X0146695Y0138453D03*
X0146795Y0138653D03*
X0146995Y0138953D03*
X0147095Y0139053D03*
X0147095Y0139153D03*
X0147295Y0139453D03*
X0147395Y0139653D03*
X0147595Y0140053D03*
X0144295Y0154353D03*
X0144195Y0154653D03*
X0144195Y0154753D03*
X0144195Y0154853D03*
X0144095Y0155053D03*
X0144095Y0155153D03*
X0144095Y0155253D03*
X0143995Y0155553D03*
X0136595Y0156953D03*
X0131895Y0155653D03*
X0150295Y0159753D03*
X0113095Y0131653D03*
X0108995Y0131753D03*
X0108995Y0133953D03*
X0102595Y0131453D03*
X0102595Y0131353D03*
X0094195Y0131753D03*
X0094195Y0133953D03*
X0090095Y0134253D03*
X0081295Y0142653D03*
X0081195Y0142553D03*
X0081095Y0142453D03*
X0080795Y0142253D03*
X0080695Y0142153D03*
X0080595Y0142053D03*
X0080495Y0141953D03*
X0080395Y0141853D03*
X0080295Y0141753D03*
X0081195Y0144653D03*
X0081095Y0144753D03*
X0080995Y0144853D03*
X0080595Y0145153D03*
X0080495Y0145253D03*
X0080395Y0145353D03*
D31*
X0087145Y0132153D03*
X0085945Y0130953D03*
X0091145Y0134553D03*
X0094245Y0130953D03*
X0097345Y0136253D03*
X0113145Y0134753D03*
X0112445Y0156353D03*
X0124445Y0159653D03*
X0135945Y0162553D03*
X0135745Y0152953D03*
X0141045Y0147553D03*
X0141045Y0147453D03*
X0141045Y0147353D03*
X0147245Y0154653D03*
X0140545Y0135653D03*
X0140445Y0135553D03*
D32*
X0141845Y0138053D03*
X0141945Y0138253D03*
X0141945Y0138353D03*
X0142045Y0138453D03*
X0142145Y0138753D03*
X0140545Y0149953D03*
X0140545Y0150053D03*
X0140545Y0150153D03*
X0140445Y0150353D03*
X0140445Y0150453D03*
X0140345Y0150653D03*
X0134845Y0153753D03*
X0134745Y0153853D03*
X0136045Y0163053D03*
X0149945Y0161053D03*
X0112145Y0132353D03*
X0108945Y0131053D03*
X0101745Y0131853D03*
X0099145Y0131353D03*
X0099145Y0131253D03*
X0094245Y0131053D03*
D33*
X0095295Y0131953D03*
X0095395Y0132053D03*
X0095495Y0133453D03*
X0095395Y0133653D03*
X0095295Y0133753D03*
X0093095Y0133753D03*
X0092995Y0133553D03*
X0092895Y0132453D03*
X0092995Y0132153D03*
X0093095Y0131953D03*
X0091095Y0133453D03*
X0091095Y0133553D03*
X0088895Y0133753D03*
X0088795Y0133653D03*
X0088795Y0133553D03*
X0086995Y0133553D03*
X0087095Y0131953D03*
X0084895Y0131753D03*
X0084895Y0132253D03*
X0099095Y0131153D03*
X0099495Y0131853D03*
X0101595Y0132153D03*
X0101595Y0132253D03*
X0103095Y0131053D03*
X0103795Y0131953D03*
X0107795Y0132053D03*
X0107895Y0131953D03*
X0107795Y0133653D03*
X0107895Y0133753D03*
X0109995Y0133853D03*
X0110095Y0133753D03*
X0110295Y0132453D03*
X0110195Y0132153D03*
X0110095Y0131953D03*
X0111995Y0132153D03*
X0112095Y0131753D03*
X0114095Y0131753D03*
X0114195Y0131853D03*
X0114095Y0133953D03*
X0112195Y0133953D03*
X0124295Y0159853D03*
X0125295Y0163953D03*
X0135995Y0162853D03*
X0135995Y0162753D03*
X0135195Y0153453D03*
X0135295Y0153353D03*
X0140795Y0149053D03*
X0140795Y0148953D03*
X0140795Y0148853D03*
X0140895Y0148653D03*
X0140895Y0148553D03*
X0140895Y0148453D03*
X0147395Y0154753D03*
X0149895Y0161253D03*
X0141295Y0137053D03*
X0141295Y0136953D03*
X0141195Y0136853D03*
X0141095Y0136653D03*
D34*
X0141145Y0136753D03*
X0141045Y0136553D03*
X0140945Y0136453D03*
X0140945Y0136353D03*
X0140845Y0136253D03*
X0140745Y0136053D03*
X0140945Y0148053D03*
X0140945Y0148153D03*
X0140945Y0148253D03*
X0140945Y0148353D03*
X0135445Y0153253D03*
X0124345Y0159753D03*
X0105845Y0135753D03*
X0105845Y0135653D03*
X0105845Y0135553D03*
X0105845Y0135453D03*
X0105845Y0135353D03*
X0105845Y0135253D03*
X0105845Y0135153D03*
X0105845Y0135053D03*
X0105845Y0134953D03*
X0105845Y0134853D03*
X0105845Y0134753D03*
X0105845Y0134653D03*
X0105845Y0134553D03*
X0105845Y0134453D03*
X0105845Y0134353D03*
X0105845Y0134253D03*
X0105845Y0134153D03*
X0105845Y0134053D03*
X0105845Y0133953D03*
X0105845Y0133853D03*
X0105845Y0133753D03*
X0105845Y0133653D03*
X0105845Y0133553D03*
X0105845Y0133453D03*
X0105845Y0133353D03*
X0105845Y0133253D03*
X0105845Y0133153D03*
X0105845Y0133053D03*
X0105845Y0132953D03*
X0105845Y0132853D03*
X0105845Y0132753D03*
X0105845Y0132653D03*
X0105845Y0132553D03*
X0105845Y0132453D03*
X0105845Y0132353D03*
X0105845Y0132253D03*
X0105845Y0132153D03*
X0105845Y0132053D03*
X0105845Y0131953D03*
X0105845Y0131853D03*
X0105845Y0131753D03*
X0105845Y0131653D03*
X0105845Y0131553D03*
X0105845Y0131453D03*
X0105845Y0131353D03*
X0107645Y0132353D03*
X0107645Y0132453D03*
X0107645Y0132553D03*
X0107645Y0132653D03*
X0107645Y0132753D03*
X0107645Y0132853D03*
X0107645Y0132953D03*
X0107645Y0133053D03*
X0107645Y0133153D03*
X0107645Y0133253D03*
X0107645Y0133353D03*
X0107745Y0133453D03*
X0107745Y0133553D03*
X0107745Y0132253D03*
X0107745Y0132153D03*
X0110145Y0132053D03*
X0110245Y0132253D03*
X0110245Y0132353D03*
X0110345Y0132553D03*
X0110345Y0132653D03*
X0110345Y0132753D03*
X0110345Y0132853D03*
X0110345Y0132953D03*
X0110345Y0133053D03*
X0110345Y0133153D03*
X0110345Y0133253D03*
X0110245Y0133353D03*
X0110245Y0133453D03*
X0110245Y0133553D03*
X0110145Y0133653D03*
X0112145Y0133853D03*
X0111945Y0132053D03*
X0111945Y0131953D03*
X0112045Y0131853D03*
X0114245Y0131953D03*
X0114245Y0132053D03*
X0114145Y0133553D03*
X0114145Y0133653D03*
X0114145Y0133753D03*
X0114145Y0133853D03*
X0103845Y0132153D03*
X0103845Y0132053D03*
X0101545Y0132353D03*
X0101545Y0132453D03*
X0101545Y0132553D03*
X0101545Y0132653D03*
X0101545Y0132753D03*
X0101545Y0132853D03*
X0101545Y0132953D03*
X0101545Y0133053D03*
X0101545Y0133153D03*
X0101545Y0133253D03*
X0101545Y0133353D03*
X0101545Y0133453D03*
X0101545Y0133553D03*
X0101545Y0133653D03*
X0101545Y0133753D03*
X0101545Y0133853D03*
X0101545Y0133953D03*
X0101545Y0134053D03*
X0101545Y0134153D03*
X0101545Y0134253D03*
X0101545Y0134353D03*
X0101545Y0134453D03*
X0101545Y0134553D03*
X0099545Y0134753D03*
X0099545Y0134853D03*
X0099545Y0134953D03*
X0099545Y0135053D03*
X0099545Y0135153D03*
X0099545Y0135253D03*
X0099545Y0135353D03*
X0099545Y0135453D03*
X0099545Y0135553D03*
X0099545Y0133753D03*
X0099545Y0133653D03*
X0099545Y0133553D03*
X0099545Y0133453D03*
X0099545Y0133353D03*
X0099545Y0133253D03*
X0099545Y0133153D03*
X0099545Y0133053D03*
X0099545Y0132953D03*
X0099545Y0132853D03*
X0099545Y0132753D03*
X0099545Y0132653D03*
X0099545Y0132553D03*
X0099545Y0132453D03*
X0099545Y0132353D03*
X0099545Y0132253D03*
X0099545Y0132153D03*
X0099545Y0132053D03*
X0099545Y0131953D03*
X0101545Y0131253D03*
X0097345Y0131253D03*
X0097345Y0131353D03*
X0097345Y0131453D03*
X0097345Y0131553D03*
X0097345Y0131653D03*
X0097345Y0131753D03*
X0097345Y0131853D03*
X0097345Y0131953D03*
X0097345Y0132053D03*
X0097345Y0132153D03*
X0097345Y0132253D03*
X0097345Y0132353D03*
X0097345Y0132453D03*
X0097345Y0132553D03*
X0097345Y0132653D03*
X0097345Y0132753D03*
X0097345Y0132853D03*
X0097345Y0132953D03*
X0097345Y0133053D03*
X0097345Y0133153D03*
X0097345Y0133253D03*
X0097345Y0133353D03*
X0097345Y0133453D03*
X0097345Y0133553D03*
X0097345Y0133653D03*
X0097345Y0133753D03*
X0097345Y0133853D03*
X0097345Y0133953D03*
X0097345Y0134053D03*
X0097345Y0134153D03*
X0097345Y0134253D03*
X0097345Y0134353D03*
X0097345Y0134453D03*
X0097345Y0134553D03*
X0097345Y0135553D03*
X0097345Y0135653D03*
X0097345Y0135753D03*
X0097345Y0135853D03*
X0097345Y0135953D03*
X0097345Y0136053D03*
X0095445Y0133553D03*
X0095545Y0133353D03*
X0095545Y0133253D03*
X0095545Y0133153D03*
X0095545Y0133053D03*
X0095545Y0132953D03*
X0095545Y0132853D03*
X0095545Y0132753D03*
X0095545Y0132653D03*
X0095545Y0132553D03*
X0095545Y0132453D03*
X0095545Y0132353D03*
X0095445Y0132253D03*
X0095445Y0132153D03*
X0093045Y0132053D03*
X0092945Y0132253D03*
X0092945Y0132353D03*
X0092845Y0132553D03*
X0092845Y0132653D03*
X0092845Y0132753D03*
X0092845Y0132853D03*
X0092845Y0132953D03*
X0092845Y0133053D03*
X0092845Y0133153D03*
X0092845Y0133253D03*
X0092945Y0133353D03*
X0092945Y0133453D03*
X0093045Y0133653D03*
X0091145Y0133353D03*
X0091145Y0133253D03*
X0091145Y0133153D03*
X0091145Y0133053D03*
X0091145Y0132953D03*
X0091145Y0132853D03*
X0091145Y0132753D03*
X0091145Y0132653D03*
X0091145Y0132553D03*
X0091145Y0132453D03*
X0091145Y0132353D03*
X0091145Y0132253D03*
X0091145Y0132153D03*
X0091145Y0132053D03*
X0091145Y0131953D03*
X0091145Y0131853D03*
X0091145Y0131753D03*
X0091145Y0131653D03*
X0091145Y0131553D03*
X0091145Y0131453D03*
X0091145Y0131353D03*
X0091145Y0131253D03*
X0088745Y0131253D03*
X0088745Y0131353D03*
X0088745Y0131453D03*
X0088745Y0131553D03*
X0088745Y0131653D03*
X0088745Y0131753D03*
X0088745Y0131853D03*
X0088745Y0131953D03*
X0088745Y0132053D03*
X0088745Y0132153D03*
X0088745Y0132253D03*
X0088745Y0132353D03*
X0088745Y0132453D03*
X0088745Y0132553D03*
X0088745Y0132653D03*
X0088745Y0132753D03*
X0088745Y0132853D03*
X0088745Y0132953D03*
X0088745Y0133053D03*
X0088745Y0133153D03*
X0088745Y0133253D03*
X0088745Y0133353D03*
X0088745Y0133453D03*
X0087045Y0133653D03*
X0087045Y0133753D03*
X0087045Y0133853D03*
X0086945Y0133953D03*
X0085045Y0133953D03*
X0084945Y0133853D03*
X0084945Y0133753D03*
X0084845Y0132153D03*
X0084845Y0132053D03*
X0084845Y0131953D03*
X0084845Y0131853D03*
X0087045Y0131853D03*
X0087145Y0132053D03*
X0149845Y0161353D03*
D35*
X0150095Y0160453D03*
X0138995Y0153853D03*
X0138995Y0153753D03*
X0139095Y0153653D03*
X0139195Y0153453D03*
X0139295Y0153253D03*
X0138895Y0153953D03*
X0138795Y0154153D03*
X0133595Y0154653D03*
X0133895Y0147953D03*
X0143995Y0143953D03*
X0144095Y0144353D03*
X0144095Y0144453D03*
X0144095Y0144553D03*
X0144195Y0144753D03*
X0144195Y0144853D03*
X0144195Y0144953D03*
X0144195Y0145053D03*
X0144295Y0145353D03*
X0144295Y0145453D03*
X0144395Y0145853D03*
X0144395Y0145953D03*
X0144495Y0146553D03*
X0113695Y0138853D03*
X0112595Y0132553D03*
X0101295Y0138853D03*
X0099495Y0134553D03*
X0099495Y0134453D03*
X0099495Y0134353D03*
X0099495Y0134253D03*
X0099495Y0134153D03*
X0094195Y0131253D03*
X0085295Y0138853D03*
X0088895Y0141853D03*
X0088895Y0144953D03*
X0085295Y0147953D03*
D36*
X0080845Y0144953D03*
X0080745Y0145053D03*
X0080245Y0145453D03*
X0080145Y0145553D03*
X0080045Y0145653D03*
X0079745Y0145853D03*
X0079645Y0145953D03*
X0079545Y0146053D03*
X0080945Y0142353D03*
X0080145Y0141653D03*
X0080045Y0141553D03*
X0079945Y0141453D03*
X0079345Y0140953D03*
X0079245Y0140853D03*
X0079145Y0140753D03*
X0078445Y0140153D03*
X0078345Y0140053D03*
X0077545Y0139353D03*
X0077445Y0139253D03*
X0089445Y0140653D03*
X0090045Y0134153D03*
X0090045Y0134053D03*
X0096945Y0140653D03*
X0102645Y0131653D03*
X0102645Y0131553D03*
X0131645Y0155753D03*
X0136345Y0157253D03*
X0136445Y0157153D03*
X0136545Y0157053D03*
X0143945Y0155753D03*
X0143945Y0155653D03*
X0144045Y0155453D03*
X0144045Y0155353D03*
X0144145Y0154953D03*
X0150345Y0159653D03*
X0148745Y0142453D03*
X0148645Y0142153D03*
X0148445Y0141753D03*
X0148345Y0141453D03*
X0148245Y0141353D03*
X0148245Y0141253D03*
X0148145Y0141153D03*
X0148145Y0141053D03*
X0148045Y0140853D03*
X0147945Y0140753D03*
X0147945Y0140653D03*
X0147845Y0140453D03*
X0147745Y0140353D03*
X0147745Y0140253D03*
X0147645Y0140153D03*
X0147545Y0139953D03*
X0147445Y0139853D03*
X0147445Y0139753D03*
X0147345Y0139553D03*
X0147245Y0139353D03*
X0147145Y0139253D03*
X0146945Y0138853D03*
X0146845Y0138753D03*
X0146745Y0138553D03*
X0146645Y0138353D03*
X0146545Y0138253D03*
X0146545Y0138153D03*
X0146445Y0138053D03*
X0146245Y0137753D03*
X0146045Y0137453D03*
X0145945Y0137353D03*
X0145745Y0137053D03*
X0145545Y0136753D03*
X0145445Y0136653D03*
X0145445Y0136553D03*
X0145345Y0136453D03*
X0145245Y0136353D03*
X0145045Y0136053D03*
X0144945Y0135953D03*
X0144545Y0135453D03*
X0144445Y0135353D03*
X0144045Y0134853D03*
X0143945Y0134753D03*
X0143245Y0133953D03*
X0143045Y0133753D03*
X0142945Y0133653D03*
X0142745Y0133453D03*
X0142645Y0133353D03*
X0142445Y0133153D03*
X0142345Y0133053D03*
X0142145Y0132853D03*
X0142045Y0132753D03*
X0141845Y0132553D03*
X0141745Y0132453D03*
D37*
X0147895Y0140553D03*
X0148095Y0140953D03*
X0148395Y0141553D03*
X0148395Y0141653D03*
X0148495Y0141853D03*
X0148495Y0141953D03*
X0148595Y0142053D03*
X0148695Y0142253D03*
X0148695Y0142353D03*
X0148795Y0142553D03*
X0148795Y0142653D03*
X0148895Y0142753D03*
X0148895Y0142853D03*
X0148995Y0143053D03*
X0148995Y0143153D03*
X0149095Y0143353D03*
X0149195Y0143553D03*
X0149195Y0143653D03*
X0149295Y0143853D03*
X0143895Y0155853D03*
X0143895Y0155953D03*
X0143895Y0156053D03*
X0143795Y0156253D03*
X0136195Y0157353D03*
X0136095Y0157453D03*
X0135995Y0157553D03*
X0125095Y0163253D03*
X0107495Y0138853D03*
X0102695Y0131753D03*
X0089995Y0133953D03*
X0079795Y0141353D03*
X0079695Y0141253D03*
X0079595Y0141153D03*
X0079495Y0141053D03*
X0078995Y0140653D03*
X0078895Y0140553D03*
X0078795Y0140453D03*
X0078695Y0140353D03*
X0078595Y0140253D03*
X0078095Y0139853D03*
X0077995Y0139753D03*
X0077895Y0139653D03*
X0077795Y0139553D03*
X0077695Y0139453D03*
X0077295Y0139153D03*
X0077195Y0139053D03*
X0077095Y0138953D03*
X0076995Y0138853D03*
X0079895Y0145753D03*
X0079395Y0146153D03*
X0079295Y0146253D03*
X0079195Y0146353D03*
X0078895Y0146553D03*
X0078795Y0146653D03*
X0078695Y0146753D03*
X0078095Y0147253D03*
X0096895Y0146253D03*
D38*
X0099495Y0134653D03*
X0089595Y0134453D03*
X0110395Y0153053D03*
X0112395Y0132453D03*
X0134195Y0154253D03*
X0139795Y0152153D03*
X0139895Y0151953D03*
X0139895Y0151853D03*
X0139995Y0151753D03*
X0139995Y0151653D03*
X0140095Y0151453D03*
X0140095Y0151353D03*
X0143095Y0141053D03*
X0143095Y0140953D03*
X0142995Y0140753D03*
X0142995Y0140653D03*
X0142895Y0140553D03*
X0142895Y0140453D03*
X0142895Y0140353D03*
X0142795Y0140253D03*
X0142795Y0140153D03*
X0142695Y0139953D03*
X0149995Y0160753D03*
X0149995Y0160853D03*
D39*
X0150095Y0160353D03*
X0138495Y0154653D03*
X0138395Y0154753D03*
X0138595Y0154453D03*
X0133295Y0154853D03*
X0133895Y0147753D03*
X0133895Y0147653D03*
X0133895Y0147553D03*
X0133895Y0147453D03*
X0133895Y0147353D03*
X0133895Y0147253D03*
X0133895Y0147153D03*
X0133895Y0147053D03*
X0133895Y0146953D03*
X0133895Y0146853D03*
X0133895Y0146753D03*
X0133895Y0146653D03*
X0133895Y0146553D03*
X0133895Y0146453D03*
X0133895Y0146353D03*
X0133895Y0146253D03*
X0133895Y0146153D03*
X0133895Y0146053D03*
X0133895Y0145953D03*
X0133895Y0145853D03*
X0133895Y0145753D03*
X0133895Y0145653D03*
X0133895Y0145553D03*
X0133895Y0145453D03*
X0133895Y0145353D03*
X0133895Y0145253D03*
X0133895Y0145153D03*
X0133895Y0145053D03*
X0133895Y0144953D03*
X0133895Y0144853D03*
X0133895Y0144753D03*
X0133895Y0144653D03*
X0133895Y0144553D03*
X0133895Y0144453D03*
X0133895Y0144353D03*
X0133895Y0144253D03*
X0133895Y0144153D03*
X0133895Y0144053D03*
X0133895Y0143953D03*
X0133895Y0143853D03*
X0133895Y0143753D03*
X0133895Y0143653D03*
X0133895Y0143553D03*
X0133895Y0143453D03*
X0133895Y0143353D03*
X0133895Y0143253D03*
X0133895Y0143153D03*
X0133895Y0143053D03*
X0133895Y0142953D03*
X0133895Y0142853D03*
X0133895Y0142753D03*
X0133895Y0142653D03*
X0133895Y0142553D03*
X0133895Y0142453D03*
X0133895Y0142353D03*
X0133895Y0142253D03*
X0133895Y0142153D03*
X0133895Y0142053D03*
X0133895Y0141953D03*
X0133895Y0141853D03*
X0133895Y0141753D03*
X0133895Y0141653D03*
X0133895Y0141553D03*
X0133895Y0141453D03*
X0133895Y0141353D03*
X0133895Y0141253D03*
X0133895Y0141153D03*
X0133895Y0141053D03*
X0133895Y0140953D03*
X0133895Y0140853D03*
X0133895Y0140753D03*
X0133895Y0140653D03*
X0124595Y0140653D03*
X0124595Y0140753D03*
X0124595Y0140853D03*
X0124595Y0140953D03*
X0124595Y0141053D03*
X0124595Y0141153D03*
X0124595Y0141253D03*
X0124595Y0141353D03*
X0124595Y0141453D03*
X0124595Y0141553D03*
X0124595Y0141653D03*
X0124595Y0141753D03*
X0124595Y0141853D03*
X0124595Y0141953D03*
X0124595Y0142053D03*
X0124595Y0142153D03*
X0124595Y0142253D03*
X0124595Y0142353D03*
X0124595Y0142453D03*
X0124595Y0142553D03*
X0124595Y0144453D03*
X0124595Y0144553D03*
X0124595Y0144653D03*
X0124595Y0144753D03*
X0124595Y0144853D03*
X0124595Y0144953D03*
X0124595Y0145053D03*
X0124595Y0145153D03*
X0124595Y0145253D03*
X0124595Y0145353D03*
X0124595Y0145453D03*
X0124595Y0145553D03*
X0124595Y0145653D03*
X0124595Y0145753D03*
X0124595Y0145853D03*
X0124595Y0145953D03*
X0124595Y0146053D03*
X0124595Y0146153D03*
X0124595Y0140553D03*
X0113695Y0140553D03*
X0113695Y0140653D03*
X0113695Y0140753D03*
X0113695Y0140853D03*
X0113695Y0140953D03*
X0113695Y0141053D03*
X0113695Y0141153D03*
X0113695Y0141253D03*
X0113695Y0141353D03*
X0113695Y0141453D03*
X0113695Y0141553D03*
X0113695Y0141653D03*
X0113695Y0141753D03*
X0113695Y0141853D03*
X0113695Y0141953D03*
X0113695Y0142053D03*
X0113695Y0142153D03*
X0113695Y0142253D03*
X0113695Y0142353D03*
X0113695Y0142453D03*
X0113695Y0142553D03*
X0113695Y0142653D03*
X0113695Y0142753D03*
X0113695Y0142853D03*
X0113695Y0142953D03*
X0113695Y0143053D03*
X0113695Y0143153D03*
X0113695Y0143253D03*
X0113695Y0143353D03*
X0113695Y0143453D03*
X0113695Y0143553D03*
X0113695Y0143653D03*
X0113695Y0143753D03*
X0113695Y0143853D03*
X0113695Y0143953D03*
X0113695Y0144053D03*
X0113695Y0144153D03*
X0113695Y0144253D03*
X0113695Y0144353D03*
X0113695Y0144453D03*
X0113695Y0144553D03*
X0113695Y0144653D03*
X0113695Y0144753D03*
X0113695Y0144853D03*
X0113695Y0144953D03*
X0113695Y0145053D03*
X0113695Y0145153D03*
X0113695Y0145253D03*
X0113695Y0145353D03*
X0113695Y0145453D03*
X0113695Y0145553D03*
X0113695Y0145653D03*
X0113695Y0145753D03*
X0113695Y0145853D03*
X0113695Y0145953D03*
X0113695Y0146053D03*
X0113695Y0140453D03*
X0113695Y0140353D03*
X0113695Y0140253D03*
X0113695Y0140153D03*
X0113695Y0140053D03*
X0113695Y0139953D03*
X0113695Y0139853D03*
X0113695Y0139753D03*
X0113695Y0139653D03*
X0113695Y0139553D03*
X0113695Y0139453D03*
X0113695Y0139353D03*
X0113695Y0139253D03*
X0113695Y0139153D03*
X0113695Y0139053D03*
X0113695Y0138953D03*
X0109395Y0142153D03*
X0109195Y0141753D03*
X0109095Y0141453D03*
X0108995Y0141253D03*
X0108895Y0141053D03*
X0105695Y0141953D03*
X0105595Y0142153D03*
X0105395Y0142653D03*
X0105295Y0142853D03*
X0101295Y0142853D03*
X0101295Y0142953D03*
X0101295Y0143053D03*
X0101295Y0143153D03*
X0101295Y0143253D03*
X0101295Y0143353D03*
X0101295Y0143453D03*
X0101295Y0143553D03*
X0101295Y0143653D03*
X0101295Y0143753D03*
X0101295Y0143853D03*
X0101295Y0143953D03*
X0101295Y0144053D03*
X0101295Y0144153D03*
X0101295Y0144253D03*
X0101295Y0144353D03*
X0101295Y0144453D03*
X0101295Y0144553D03*
X0101295Y0144653D03*
X0101295Y0144753D03*
X0101295Y0144853D03*
X0101295Y0144953D03*
X0101295Y0145053D03*
X0101295Y0145153D03*
X0101295Y0145253D03*
X0101295Y0145353D03*
X0101295Y0145453D03*
X0101295Y0145553D03*
X0101295Y0145653D03*
X0101295Y0145753D03*
X0101295Y0145853D03*
X0101295Y0145953D03*
X0101295Y0146053D03*
X0101295Y0142753D03*
X0101295Y0142653D03*
X0101295Y0142553D03*
X0101295Y0142453D03*
X0101295Y0142353D03*
X0101295Y0142253D03*
X0101295Y0142153D03*
X0101295Y0142053D03*
X0101295Y0141953D03*
X0101295Y0141853D03*
X0101295Y0141753D03*
X0101295Y0141653D03*
X0101295Y0141553D03*
X0101295Y0141453D03*
X0101295Y0141353D03*
X0101295Y0141253D03*
X0101295Y0141153D03*
X0101295Y0141053D03*
X0101295Y0140953D03*
X0101295Y0140853D03*
X0101295Y0140753D03*
X0101295Y0140653D03*
X0101295Y0140553D03*
X0101295Y0140453D03*
X0101295Y0140353D03*
X0101295Y0140253D03*
X0101295Y0140153D03*
X0101295Y0140053D03*
X0101295Y0139953D03*
X0101295Y0139853D03*
X0101295Y0139753D03*
X0101295Y0139653D03*
X0101295Y0139553D03*
X0101295Y0139453D03*
X0101295Y0139353D03*
X0101295Y0139253D03*
X0101295Y0139153D03*
X0101295Y0139053D03*
X0101295Y0138953D03*
X0097495Y0141353D03*
X0097495Y0141453D03*
X0097495Y0141553D03*
X0097495Y0145353D03*
X0097495Y0145453D03*
X0097495Y0145553D03*
X0097495Y0145653D03*
X0088895Y0145353D03*
X0088895Y0145253D03*
X0088895Y0145153D03*
X0088895Y0145053D03*
X0088895Y0141753D03*
X0088895Y0141653D03*
X0088895Y0141553D03*
X0088895Y0141453D03*
X0085295Y0141453D03*
X0085295Y0141553D03*
X0085295Y0141653D03*
X0085295Y0141753D03*
X0085295Y0141853D03*
X0085295Y0141953D03*
X0085295Y0142053D03*
X0085295Y0142153D03*
X0085295Y0142253D03*
X0085295Y0142353D03*
X0085295Y0142453D03*
X0085295Y0142553D03*
X0085295Y0141353D03*
X0085295Y0141253D03*
X0085295Y0141153D03*
X0085295Y0141053D03*
X0085295Y0140953D03*
X0085295Y0140853D03*
X0085295Y0140753D03*
X0085295Y0140653D03*
X0085295Y0140553D03*
X0085295Y0140453D03*
X0085295Y0140353D03*
X0085295Y0140253D03*
X0085295Y0140153D03*
X0085295Y0140053D03*
X0085295Y0139953D03*
X0085295Y0139853D03*
X0085295Y0139753D03*
X0085295Y0139653D03*
X0085295Y0139553D03*
X0085295Y0139453D03*
X0085295Y0139353D03*
X0085295Y0139253D03*
X0085295Y0139153D03*
X0085295Y0139053D03*
X0085295Y0138953D03*
X0085995Y0134453D03*
X0086295Y0133153D03*
X0085595Y0132653D03*
X0094195Y0134453D03*
X0085295Y0144653D03*
X0085295Y0144753D03*
X0085295Y0144853D03*
X0085295Y0144953D03*
X0085295Y0145053D03*
X0085295Y0145153D03*
X0085295Y0145253D03*
X0085295Y0145353D03*
X0085295Y0145453D03*
X0085295Y0145553D03*
X0085295Y0145653D03*
X0085295Y0145753D03*
X0085295Y0145853D03*
X0085295Y0145953D03*
X0085295Y0146053D03*
X0085295Y0146153D03*
X0085295Y0146253D03*
X0085295Y0146353D03*
X0085295Y0146453D03*
X0085295Y0146553D03*
X0085295Y0146653D03*
X0085295Y0146753D03*
X0085295Y0146853D03*
X0085295Y0146953D03*
X0085295Y0147053D03*
X0085295Y0147153D03*
X0085295Y0147253D03*
X0085295Y0147353D03*
X0085295Y0147453D03*
X0085295Y0147553D03*
X0085295Y0147653D03*
X0085295Y0147753D03*
X0085295Y0147853D03*
X0073095Y0144353D03*
X0073095Y0142653D03*
X0073095Y0140553D03*
X0144595Y0147153D03*
X0144595Y0147253D03*
X0144595Y0147353D03*
X0144595Y0147453D03*
X0144595Y0147553D03*
X0144595Y0147653D03*
X0144595Y0147753D03*
X0144695Y0147953D03*
X0144695Y0148053D03*
X0144695Y0148153D03*
X0144695Y0148253D03*
X0144695Y0148353D03*
X0144695Y0148453D03*
X0144695Y0148553D03*
D40*
X0126395Y0132853D03*
X0073295Y0132953D03*
X0073295Y0133053D03*
X0073295Y0133153D03*
X0073295Y0133253D03*
X0073295Y0133353D03*
X0073295Y0133453D03*
X0073295Y0133553D03*
X0073295Y0133653D03*
X0073295Y0133753D03*
D41*
X0073245Y0133853D03*
X0073245Y0132853D03*
D42*
X0126395Y0132953D03*
X0126395Y0133053D03*
X0126395Y0133153D03*
X0126395Y0133253D03*
X0126395Y0133353D03*
X0126395Y0133453D03*
X0126395Y0133553D03*
X0126395Y0133653D03*
X0126395Y0133753D03*
D43*
X0139945Y0134753D03*
X0140045Y0134953D03*
X0140145Y0135053D03*
X0141145Y0146453D03*
X0141145Y0146553D03*
X0141145Y0146653D03*
X0141145Y0146753D03*
X0141145Y0146853D03*
X0136145Y0152553D03*
X0136045Y0152653D03*
X0135945Y0152753D03*
X0135945Y0162453D03*
X0125645Y0164253D03*
X0124545Y0159553D03*
X0112445Y0156453D03*
X0112045Y0133553D03*
X0101545Y0134653D03*
X0091145Y0134653D03*
X0084845Y0133553D03*
X0149745Y0161653D03*
D44*
X0149645Y0161953D03*
X0136545Y0152053D03*
X0141245Y0145053D03*
X0139445Y0134053D03*
X0139245Y0133753D03*
D45*
X0139295Y0133853D03*
X0139395Y0133953D03*
X0139495Y0134153D03*
X0139595Y0134253D03*
X0141195Y0145153D03*
X0136495Y0152153D03*
X0135895Y0162153D03*
X0124595Y0159453D03*
X0112495Y0156653D03*
X0149695Y0161853D03*
D46*
X0126345Y0133853D03*
D47*
X0139645Y0134353D03*
X0139745Y0134453D03*
X0141245Y0145253D03*
X0141245Y0145353D03*
X0141245Y0145453D03*
X0141245Y0145553D03*
X0141245Y0145653D03*
X0141245Y0145753D03*
X0136445Y0152253D03*
X0125745Y0164353D03*
D48*
X0130895Y0160253D03*
X0130995Y0138753D03*
D49*
X0120945Y0138753D03*
X0069645Y0142753D03*
X0069645Y0144253D03*
D50*
X0083245Y0144353D03*
X0083245Y0142953D03*
X0093145Y0138753D03*
X0132045Y0159953D03*
X0137745Y0165453D03*
X0137845Y0165353D03*
X0137145Y0167353D03*
X0150945Y0157153D03*
X0150745Y0156553D03*
D51*
X0093195Y0139253D03*
X0069495Y0138753D03*
D52*
X0093145Y0138953D03*
X0130945Y0138853D03*
X0131045Y0140553D03*
D53*
X0120995Y0140453D03*
X0120895Y0138853D03*
X0120995Y0146353D03*
X0093295Y0147353D03*
X0069495Y0147353D03*
X0069495Y0147453D03*
X0069495Y0147553D03*
X0069495Y0147653D03*
X0069495Y0147753D03*
X0069495Y0147853D03*
X0069495Y0147953D03*
X0069495Y0147253D03*
X0069495Y0147153D03*
X0069495Y0147053D03*
X0069495Y0146953D03*
X0069495Y0146853D03*
X0069495Y0146753D03*
X0069495Y0146653D03*
X0069495Y0146553D03*
X0069495Y0146453D03*
X0069495Y0146353D03*
X0069495Y0140353D03*
X0069495Y0140253D03*
X0069495Y0140153D03*
X0069495Y0140053D03*
X0069495Y0139953D03*
X0069495Y0139853D03*
X0069495Y0139753D03*
X0069495Y0139653D03*
X0069495Y0139553D03*
X0069495Y0139453D03*
X0069495Y0139353D03*
X0069495Y0139253D03*
X0069495Y0139153D03*
X0069495Y0139053D03*
X0069495Y0138953D03*
X0069495Y0138853D03*
D54*
X0093145Y0138853D03*
X0115445Y0156053D03*
X0125945Y0162753D03*
X0131345Y0160153D03*
X0138745Y0163653D03*
X0138845Y0163553D03*
X0138845Y0163453D03*
D55*
X0130595Y0160353D03*
X0130995Y0140453D03*
X0130995Y0140353D03*
X0130995Y0140253D03*
X0130995Y0140153D03*
X0130995Y0140053D03*
X0130995Y0139953D03*
X0130995Y0139853D03*
X0130995Y0139753D03*
X0130995Y0139653D03*
X0130995Y0139553D03*
X0130995Y0139453D03*
X0130995Y0139353D03*
X0130995Y0139253D03*
X0130995Y0139153D03*
X0130995Y0139053D03*
X0130995Y0138953D03*
X0093295Y0147853D03*
D56*
X0093145Y0139453D03*
X0120945Y0139453D03*
X0120945Y0139553D03*
X0120945Y0139653D03*
X0120945Y0139753D03*
X0120945Y0139853D03*
X0120945Y0139953D03*
X0120945Y0140053D03*
X0120945Y0140153D03*
X0120945Y0140253D03*
X0120945Y0140353D03*
X0120945Y0139353D03*
X0120945Y0139253D03*
X0120945Y0139153D03*
X0120945Y0139053D03*
X0120945Y0138953D03*
X0120945Y0146453D03*
X0120945Y0146553D03*
X0120945Y0146653D03*
X0120945Y0146753D03*
X0120945Y0146853D03*
X0120945Y0146953D03*
X0120945Y0147053D03*
X0120945Y0147153D03*
X0120945Y0147253D03*
X0120945Y0147353D03*
X0120945Y0147453D03*
X0120945Y0147553D03*
X0120945Y0147653D03*
X0120945Y0147753D03*
X0120945Y0147853D03*
D57*
X0131195Y0155953D03*
X0135795Y0157753D03*
X0135895Y0157653D03*
X0143395Y0157453D03*
X0143495Y0157153D03*
X0143495Y0157053D03*
X0143595Y0156953D03*
X0143595Y0156853D03*
X0150395Y0159353D03*
X0150295Y0147353D03*
X0150195Y0147053D03*
X0150095Y0146753D03*
X0150095Y0146653D03*
X0150095Y0146553D03*
X0149995Y0146253D03*
X0149995Y0146153D03*
X0149995Y0146053D03*
X0149995Y0145953D03*
X0149895Y0145853D03*
X0149895Y0145753D03*
X0149895Y0145653D03*
X0149795Y0145453D03*
X0149795Y0145353D03*
X0149595Y0144753D03*
X0149495Y0144453D03*
X0149395Y0144153D03*
X0107495Y0139153D03*
X0107495Y0139053D03*
X0107495Y0138953D03*
D58*
X0093095Y0139053D03*
D59*
X0093145Y0139153D03*
X0123245Y0158153D03*
D60*
X0135395Y0158053D03*
X0143095Y0158153D03*
X0143195Y0157953D03*
X0150395Y0159253D03*
X0150595Y0149653D03*
X0150595Y0149553D03*
X0150595Y0149453D03*
X0150595Y0149353D03*
X0150595Y0149253D03*
X0150595Y0149153D03*
X0150595Y0149053D03*
X0150495Y0148953D03*
X0150495Y0148853D03*
X0150495Y0148753D03*
X0150495Y0148653D03*
X0150495Y0148553D03*
X0150395Y0148053D03*
X0150395Y0147953D03*
X0111595Y0153253D03*
X0107495Y0139353D03*
X0107495Y0139253D03*
D61*
X0121045Y0142953D03*
X0121045Y0143053D03*
X0121045Y0143153D03*
X0121045Y0143253D03*
X0121045Y0143353D03*
X0121045Y0143453D03*
X0121045Y0143553D03*
X0121045Y0143653D03*
X0121045Y0143753D03*
X0121045Y0143853D03*
X0121045Y0143953D03*
X0121045Y0144053D03*
X0120945Y0147953D03*
X0126245Y0162353D03*
X0093145Y0139353D03*
X0069545Y0140453D03*
D62*
X0107495Y0139553D03*
X0107495Y0139453D03*
X0112295Y0154053D03*
X0130695Y0156153D03*
X0134995Y0158353D03*
X0142695Y0159053D03*
X0142795Y0158853D03*
X0142795Y0158753D03*
X0142895Y0158653D03*
X0142995Y0158453D03*
X0142995Y0158353D03*
X0150495Y0159053D03*
X0150695Y0150853D03*
X0150695Y0150753D03*
X0150695Y0150653D03*
X0150695Y0150553D03*
X0150695Y0150453D03*
X0150695Y0150353D03*
X0150695Y0150253D03*
X0150695Y0150153D03*
X0150695Y0150053D03*
D63*
X0126245Y0162253D03*
X0123245Y0158053D03*
X0093245Y0147153D03*
X0093145Y0139553D03*
D64*
X0102295Y0147953D03*
X0107495Y0139753D03*
X0107495Y0139653D03*
X0112695Y0147953D03*
X0112595Y0154353D03*
X0134695Y0158553D03*
X0142395Y0159653D03*
X0142495Y0159453D03*
X0142595Y0159253D03*
X0150495Y0158953D03*
X0150795Y0153553D03*
X0150795Y0153453D03*
X0150795Y0153353D03*
X0150795Y0153253D03*
X0150795Y0153153D03*
X0150795Y0153053D03*
X0150795Y0152953D03*
X0150795Y0152853D03*
X0150795Y0152753D03*
X0150795Y0152653D03*
X0150795Y0152553D03*
X0150795Y0152453D03*
D65*
X0093245Y0147053D03*
X0093145Y0139653D03*
D66*
X0093195Y0139753D03*
X0093295Y0146953D03*
X0126295Y0162153D03*
D67*
X0130445Y0156253D03*
X0134645Y0158653D03*
X0142245Y0159853D03*
X0142245Y0159953D03*
X0142345Y0159753D03*
X0142445Y0159553D03*
X0150545Y0158853D03*
X0150745Y0154453D03*
X0150745Y0154353D03*
X0150745Y0154253D03*
X0150745Y0154153D03*
X0150745Y0154053D03*
X0150745Y0153953D03*
X0150745Y0153853D03*
X0150745Y0153753D03*
X0150745Y0153653D03*
X0112745Y0154453D03*
X0112245Y0153853D03*
X0107445Y0139853D03*
D68*
X0093145Y0139853D03*
X0093245Y0146753D03*
X0093245Y0146853D03*
D69*
X0102295Y0147753D03*
X0102295Y0147853D03*
X0107495Y0140053D03*
X0107495Y0139953D03*
X0112695Y0147753D03*
X0112695Y0147853D03*
X0112895Y0154553D03*
X0134295Y0158853D03*
X0134395Y0158753D03*
X0141995Y0160353D03*
X0142095Y0160153D03*
X0142195Y0160053D03*
X0150695Y0154753D03*
X0150695Y0154653D03*
X0150695Y0154553D03*
D70*
X0093195Y0139953D03*
D71*
X0089645Y0146253D03*
X0079045Y0146453D03*
X0078545Y0146853D03*
X0078445Y0146953D03*
X0078345Y0147053D03*
X0078245Y0147153D03*
X0077945Y0147353D03*
X0077845Y0147453D03*
X0077745Y0147553D03*
X0077645Y0147653D03*
X0077445Y0147753D03*
X0077345Y0147853D03*
X0077245Y0147953D03*
X0078245Y0139953D03*
X0131445Y0155853D03*
X0143645Y0156653D03*
X0143645Y0156753D03*
X0143745Y0156553D03*
X0143745Y0156453D03*
X0143745Y0156353D03*
X0143845Y0156153D03*
X0150345Y0159453D03*
X0150345Y0159553D03*
X0149845Y0145553D03*
X0149745Y0145253D03*
X0149745Y0145153D03*
X0149645Y0145053D03*
X0149645Y0144953D03*
X0149645Y0144853D03*
X0149545Y0144653D03*
X0149545Y0144553D03*
X0149445Y0144353D03*
X0149445Y0144253D03*
X0149345Y0144053D03*
X0149345Y0143953D03*
X0149245Y0143753D03*
X0149145Y0143453D03*
X0149045Y0143253D03*
X0148945Y0142953D03*
D72*
X0093245Y0140053D03*
X0093245Y0146553D03*
X0093245Y0146653D03*
D73*
X0102395Y0147253D03*
X0102395Y0147353D03*
X0102395Y0147453D03*
X0107495Y0140253D03*
X0107495Y0140153D03*
X0112595Y0147253D03*
X0112595Y0147353D03*
X0112595Y0147453D03*
X0112995Y0154653D03*
X0130095Y0156353D03*
X0134095Y0158953D03*
X0141695Y0160853D03*
X0141795Y0160753D03*
X0141795Y0160653D03*
X0150595Y0158653D03*
D74*
X0093195Y0140253D03*
X0093195Y0140153D03*
D75*
X0102445Y0147053D03*
X0102445Y0147153D03*
X0107445Y0140353D03*
X0112545Y0147053D03*
X0112545Y0147153D03*
X0112245Y0153553D03*
X0113145Y0154753D03*
X0125445Y0163153D03*
X0133945Y0159053D03*
X0141545Y0161053D03*
X0141645Y0160953D03*
D76*
X0123245Y0157953D03*
X0093245Y0146453D03*
X0093245Y0146353D03*
X0093245Y0140453D03*
X0093245Y0140353D03*
D77*
X0102495Y0146853D03*
X0102495Y0146953D03*
X0107495Y0140453D03*
X0112495Y0146853D03*
X0112495Y0146953D03*
X0112095Y0153353D03*
X0112195Y0153453D03*
X0113295Y0154853D03*
X0133795Y0159153D03*
X0141295Y0161453D03*
X0141395Y0161353D03*
X0141395Y0161253D03*
X0141495Y0161153D03*
X0150595Y0158553D03*
X0150595Y0158453D03*
D78*
X0150645Y0158353D03*
X0141245Y0161553D03*
X0141145Y0161653D03*
X0129745Y0156453D03*
X0113445Y0154953D03*
X0112445Y0146753D03*
X0112445Y0146653D03*
X0112445Y0146553D03*
X0107445Y0140553D03*
X0102545Y0146553D03*
X0102545Y0146653D03*
X0102545Y0146753D03*
D79*
X0093195Y0140553D03*
X0126295Y0162053D03*
D80*
X0133595Y0159253D03*
X0140995Y0161853D03*
X0141095Y0161753D03*
X0112395Y0146453D03*
X0112395Y0146353D03*
X0107495Y0140653D03*
X0102595Y0146253D03*
X0102595Y0146353D03*
X0102595Y0146453D03*
D81*
X0093295Y0147453D03*
X0069595Y0144153D03*
X0069595Y0144053D03*
X0069595Y0143953D03*
X0069595Y0143853D03*
X0069595Y0143753D03*
X0069595Y0143653D03*
X0069595Y0143553D03*
X0069595Y0143453D03*
X0069595Y0143353D03*
X0069595Y0143253D03*
X0069595Y0143153D03*
X0069595Y0143053D03*
X0069595Y0142953D03*
X0069595Y0142853D03*
X0121095Y0142853D03*
X0121095Y0142753D03*
X0121095Y0144153D03*
X0121095Y0144253D03*
D82*
X0115045Y0155853D03*
X0131745Y0160053D03*
X0138045Y0164953D03*
X0137945Y0165153D03*
X0137145Y0167453D03*
X0137145Y0167553D03*
X0150945Y0156653D03*
X0151045Y0156953D03*
X0083145Y0144453D03*
X0083145Y0142753D03*
D83*
X0083195Y0142853D03*
X0137895Y0165253D03*
X0150995Y0157053D03*
D84*
X0137695Y0165553D03*
X0137595Y0165653D03*
X0137095Y0167253D03*
X0114795Y0155753D03*
X0093295Y0148053D03*
X0083295Y0144253D03*
X0083295Y0143053D03*
D85*
X0083395Y0143153D03*
X0114595Y0155653D03*
X0125795Y0162953D03*
X0137395Y0165953D03*
X0137495Y0165853D03*
X0150895Y0157353D03*
X0150595Y0156453D03*
D86*
X0150845Y0157453D03*
X0137345Y0166053D03*
X0137045Y0167053D03*
X0132345Y0159853D03*
X0083445Y0144053D03*
X0083445Y0143253D03*
D87*
X0083495Y0143353D03*
X0083495Y0143953D03*
X0114495Y0155553D03*
X0128895Y0156653D03*
X0137295Y0166153D03*
X0137195Y0166253D03*
X0136995Y0166853D03*
X0136995Y0166953D03*
X0150395Y0156353D03*
X0149895Y0154953D03*
X0149895Y0154853D03*
D88*
X0150845Y0157553D03*
X0137145Y0166353D03*
X0132545Y0159753D03*
X0083545Y0143853D03*
X0083545Y0143453D03*
D89*
X0083595Y0143553D03*
X0083595Y0143653D03*
X0083595Y0143753D03*
X0114295Y0155453D03*
X0136995Y0166553D03*
X0136995Y0166653D03*
X0136995Y0166753D03*
X0137095Y0166453D03*
X0150795Y0157753D03*
X0150795Y0157653D03*
X0149895Y0155253D03*
X0149895Y0155153D03*
X0149895Y0155053D03*
D90*
X0150945Y0157253D03*
X0137545Y0165753D03*
X0137045Y0167153D03*
X0083345Y0144153D03*
D91*
X0083095Y0144553D03*
X0116495Y0156253D03*
X0137995Y0165053D03*
X0138095Y0164853D03*
X0137195Y0167653D03*
D92*
X0141295Y0144953D03*
D93*
X0150645Y0158253D03*
X0140945Y0161953D03*
X0140845Y0162053D03*
X0133445Y0159353D03*
X0113645Y0155053D03*
X0112345Y0146253D03*
X0112345Y0146153D03*
X0102645Y0146153D03*
D94*
X0135545Y0157953D03*
X0135645Y0157853D03*
X0143245Y0157853D03*
X0143245Y0157753D03*
X0143345Y0157653D03*
X0143345Y0157553D03*
X0143445Y0157353D03*
X0143445Y0157253D03*
X0150445Y0148453D03*
X0150445Y0148353D03*
X0150445Y0148253D03*
X0150445Y0148153D03*
X0150345Y0147853D03*
X0150345Y0147753D03*
X0150345Y0147653D03*
X0150345Y0147553D03*
X0150345Y0147453D03*
X0150245Y0147253D03*
X0150245Y0147153D03*
X0150145Y0146953D03*
X0150145Y0146853D03*
X0150045Y0146453D03*
X0150045Y0146353D03*
D95*
X0093295Y0147253D03*
D96*
X0102345Y0147553D03*
X0102345Y0147653D03*
X0112645Y0147653D03*
X0112645Y0147553D03*
X0112245Y0153653D03*
X0112245Y0153753D03*
X0141845Y0160553D03*
X0141945Y0160453D03*
X0142045Y0160253D03*
X0150545Y0158753D03*
D97*
X0126195Y0162453D03*
X0093295Y0147553D03*
D98*
X0093295Y0147653D03*
D99*
X0093295Y0147753D03*
X0118195Y0156653D03*
D100*
X0117295Y0156453D03*
X0138895Y0163353D03*
X0138995Y0163253D03*
X0093295Y0147953D03*
D101*
X0112345Y0154153D03*
X0130945Y0156053D03*
X0135145Y0158253D03*
X0135245Y0158153D03*
X0142945Y0158553D03*
X0143045Y0158253D03*
X0143145Y0158053D03*
X0150445Y0159153D03*
X0150645Y0149953D03*
X0150645Y0149853D03*
X0150645Y0149753D03*
D102*
X0150745Y0150953D03*
X0150745Y0151053D03*
X0150745Y0151153D03*
X0150745Y0151253D03*
X0150745Y0151353D03*
X0150745Y0151453D03*
X0150745Y0151553D03*
X0150745Y0151653D03*
X0150745Y0151753D03*
X0150745Y0151853D03*
X0150745Y0151953D03*
X0150745Y0152053D03*
X0150745Y0152153D03*
X0150745Y0152253D03*
X0150745Y0152353D03*
X0142745Y0158953D03*
X0142645Y0159153D03*
X0142545Y0159353D03*
X0134845Y0158453D03*
X0112445Y0154253D03*
X0112245Y0153953D03*
D103*
X0113795Y0155153D03*
X0123295Y0158453D03*
X0140595Y0162353D03*
X0140695Y0162253D03*
X0140795Y0162153D03*
X0150695Y0158153D03*
D104*
X0150745Y0157953D03*
X0150745Y0157853D03*
X0150045Y0156053D03*
X0150045Y0155953D03*
X0150045Y0155853D03*
X0113945Y0155253D03*
D105*
X0114145Y0155353D03*
X0149945Y0155353D03*
X0149945Y0155453D03*
D106*
X0149995Y0155553D03*
X0149995Y0155653D03*
X0149995Y0155753D03*
X0150095Y0156153D03*
X0150195Y0156253D03*
X0140095Y0162953D03*
X0139995Y0163053D03*
X0139895Y0163153D03*
X0132795Y0159653D03*
X0125695Y0163053D03*
D107*
X0137245Y0167853D03*
X0137345Y0168153D03*
X0138445Y0164253D03*
X0138445Y0164153D03*
X0138545Y0164053D03*
X0115245Y0155953D03*
D108*
X0115695Y0156153D03*
D109*
X0116895Y0156353D03*
X0123295Y0158353D03*
X0138295Y0164453D03*
X0138395Y0164353D03*
X0137195Y0167753D03*
D110*
X0140195Y0162853D03*
X0140295Y0162753D03*
X0132995Y0159553D03*
X0129395Y0156553D03*
D111*
X0126045Y0162653D03*
X0117645Y0156553D03*
D112*
X0125945Y0162853D03*
X0138145Y0164753D03*
X0138245Y0164653D03*
X0138245Y0164553D03*
X0151045Y0156853D03*
X0151045Y0156753D03*
D113*
X0122945Y0156753D03*
D114*
X0122995Y0156853D03*
D115*
X0123045Y0156953D03*
D116*
X0123045Y0157053D03*
D117*
X0123045Y0157153D03*
D118*
X0123045Y0157253D03*
D119*
X0123095Y0157353D03*
D120*
X0123095Y0157453D03*
D121*
X0123095Y0157553D03*
D122*
X0123095Y0157653D03*
D123*
X0123145Y0157753D03*
D124*
X0123195Y0157853D03*
D125*
X0133245Y0159453D03*
X0140345Y0162653D03*
X0140445Y0162553D03*
X0140545Y0162453D03*
X0150745Y0158053D03*
D126*
X0123295Y0158253D03*
D127*
X0128645Y0160453D03*
D128*
X0128395Y0160553D03*
X0128295Y0160653D03*
X0128095Y0160753D03*
X0127995Y0160853D03*
X0127795Y0160953D03*
X0127595Y0161053D03*
X0127495Y0161153D03*
X0127295Y0161253D03*
X0126895Y0161453D03*
X0126695Y0161553D03*
X0126595Y0161653D03*
D129*
X0127145Y0161353D03*
D130*
X0126445Y0161753D03*
D131*
X0126345Y0161853D03*
D132*
X0126345Y0161953D03*
D133*
X0126145Y0162553D03*
D134*
X0137295Y0167953D03*
X0137295Y0168053D03*
X0138595Y0163953D03*
X0138695Y0163853D03*
X0138695Y0163753D03*
D135*
X0171806Y0217996D02*
X0173341Y0217996D01*
X0172574Y0217996D02*
X0172574Y0222600D01*
X0173341Y0222600D01*
X0174876Y0220298D02*
X0174876Y0219531D01*
X0177945Y0219531D01*
X0177945Y0220298D02*
X0177178Y0221065D01*
X0175643Y0221065D01*
X0174876Y0220298D01*
X0175643Y0217996D02*
X0177178Y0217996D01*
X0177945Y0218763D01*
X0177945Y0220298D01*
X0179480Y0220298D02*
X0179480Y0218763D01*
X0180247Y0217996D01*
X0182549Y0217996D01*
X0182549Y0222600D01*
X0182549Y0221065D02*
X0180247Y0221065D01*
X0179480Y0220298D01*
X0184083Y0221065D02*
X0184851Y0221065D01*
X0186385Y0219531D01*
X0186385Y0221065D02*
X0186385Y0217996D01*
X0187920Y0218763D02*
X0187920Y0220298D01*
X0188687Y0221065D01*
X0190222Y0221065D01*
X0190989Y0220298D01*
X0190989Y0218763D01*
X0190222Y0217996D01*
X0188687Y0217996D01*
X0187920Y0218763D01*
X0187920Y0215100D02*
X0188687Y0214333D01*
X0187920Y0215100D02*
X0186385Y0215100D01*
X0185618Y0214333D01*
X0185618Y0213565D01*
X0188687Y0210496D01*
X0185618Y0210496D01*
X0190222Y0210496D02*
X0190989Y0210496D01*
X0190989Y0211263D01*
X0190222Y0211263D01*
X0190222Y0210496D01*
X0192524Y0210496D02*
X0195593Y0210496D01*
X0194059Y0210496D02*
X0194059Y0215100D01*
X0195593Y0213565D01*
X0197128Y0212031D02*
X0197128Y0215100D01*
X0197128Y0217996D02*
X0199430Y0217996D01*
X0200197Y0218763D01*
X0200197Y0220298D01*
X0199430Y0221065D01*
X0197128Y0221065D01*
X0197128Y0222600D02*
X0197128Y0217996D01*
X0195593Y0218763D02*
X0194826Y0217996D01*
X0193291Y0217996D01*
X0192524Y0218763D01*
X0192524Y0220298D01*
X0193291Y0221065D01*
X0194826Y0221065D01*
X0195593Y0220298D01*
X0195593Y0218763D01*
X0200197Y0215100D02*
X0200197Y0212031D01*
X0198663Y0210496D01*
X0197128Y0212031D01*
X0197128Y0225496D02*
X0197128Y0230100D01*
X0198663Y0228565D01*
X0200197Y0230100D01*
X0200197Y0225496D01*
X0195593Y0226263D02*
X0194826Y0225496D01*
X0193291Y0225496D01*
X0192524Y0226263D01*
X0192524Y0229333D01*
X0193291Y0230100D01*
X0194826Y0230100D01*
X0195593Y0229333D01*
X0195593Y0226263D01*
X0194059Y0227031D02*
X0192524Y0225496D01*
X0189455Y0225496D02*
X0189455Y0230100D01*
X0190989Y0230100D02*
X0187920Y0230100D01*
X0186385Y0230100D02*
X0183316Y0230100D01*
X0184851Y0230100D02*
X0184851Y0225496D01*
M02*
