G75*
%MOIN*%
%OFA0B0*%
%FSLAX25Y25*%
%IPPOS*%
%LPD*%
%AMOC8*
5,1,8,0,0,1.08239X$1,22.5*
%
%ADD10C,0.03200*%
%ADD11C,0.01600*%
%ADD12C,0.06400*%
%ADD13C,0.05600*%
%ADD14C,0.07450*%
%ADD15C,0.08274*%
D10*
X0137233Y0044645D02*
X0137233Y0051459D01*
X0137233Y0057859D02*
X0137233Y0064673D01*
X0137233Y0071073D02*
X0137233Y0077887D01*
X0137233Y0084287D02*
X0137233Y0091102D01*
X0142254Y0096122D01*
X0146779Y0100648D02*
X0151800Y0105669D01*
X0151800Y0115905D01*
X0155343Y0119448D01*
X0162494Y0119448D01*
X0168894Y0119448D02*
X0176045Y0119448D01*
X0182445Y0119448D02*
X0189595Y0119448D01*
X0197076Y0111968D01*
X0197076Y0103781D01*
X0197076Y0097381D02*
X0197076Y0089194D01*
X0197076Y0082794D02*
X0197076Y0074606D01*
X0197076Y0068206D02*
X0197076Y0060019D01*
X0197076Y0053619D02*
X0197076Y0045432D01*
D11*
X0198257Y0044251D02*
X0040776Y0044251D01*
X0040635Y0044253D01*
X0040494Y0044259D01*
X0040353Y0044268D01*
X0040213Y0044282D01*
X0040073Y0044300D01*
X0039934Y0044321D01*
X0039795Y0044346D01*
X0039657Y0044375D01*
X0039520Y0044408D01*
X0039383Y0044444D01*
X0039248Y0044484D01*
X0039114Y0044528D01*
X0038981Y0044576D01*
X0038850Y0044627D01*
X0038720Y0044682D01*
X0038592Y0044741D01*
X0038465Y0044802D01*
X0038340Y0044868D01*
X0038217Y0044937D01*
X0038096Y0045009D01*
X0037977Y0045084D01*
X0037860Y0045163D01*
X0037745Y0045245D01*
X0037632Y0045330D01*
X0037522Y0045418D01*
X0037415Y0045509D01*
X0037310Y0045604D01*
X0037207Y0045701D01*
X0037108Y0045800D01*
X0037011Y0045903D01*
X0036916Y0046008D01*
X0036825Y0046115D01*
X0036737Y0046225D01*
X0036652Y0046338D01*
X0036570Y0046453D01*
X0036491Y0046570D01*
X0036416Y0046689D01*
X0036344Y0046810D01*
X0036275Y0046933D01*
X0036209Y0047058D01*
X0036148Y0047185D01*
X0036089Y0047313D01*
X0036034Y0047443D01*
X0035983Y0047574D01*
X0035935Y0047707D01*
X0035891Y0047841D01*
X0035851Y0047976D01*
X0035815Y0048113D01*
X0035782Y0048250D01*
X0035753Y0048388D01*
X0035728Y0048527D01*
X0035707Y0048666D01*
X0035689Y0048806D01*
X0035675Y0048946D01*
X0035666Y0049087D01*
X0035660Y0049228D01*
X0035658Y0049369D01*
X0035658Y0233228D01*
X0035660Y0233380D01*
X0035666Y0233532D01*
X0035676Y0233684D01*
X0035689Y0233835D01*
X0035707Y0233986D01*
X0035728Y0234137D01*
X0035754Y0234287D01*
X0035783Y0234436D01*
X0035816Y0234585D01*
X0035853Y0234732D01*
X0035893Y0234879D01*
X0035938Y0235024D01*
X0035986Y0235168D01*
X0036038Y0235311D01*
X0036093Y0235453D01*
X0036152Y0235593D01*
X0036215Y0235732D01*
X0036281Y0235869D01*
X0036351Y0236004D01*
X0036424Y0236137D01*
X0036501Y0236268D01*
X0036581Y0236398D01*
X0036664Y0236525D01*
X0036750Y0236650D01*
X0036840Y0236773D01*
X0036933Y0236893D01*
X0037029Y0237011D01*
X0037128Y0237127D01*
X0037230Y0237240D01*
X0037334Y0237350D01*
X0037442Y0237458D01*
X0037552Y0237562D01*
X0037665Y0237664D01*
X0037781Y0237763D01*
X0037899Y0237859D01*
X0038019Y0237952D01*
X0038142Y0238042D01*
X0038267Y0238128D01*
X0038394Y0238211D01*
X0038524Y0238291D01*
X0038655Y0238368D01*
X0038788Y0238441D01*
X0038923Y0238511D01*
X0039060Y0238577D01*
X0039199Y0238640D01*
X0039339Y0238699D01*
X0039481Y0238754D01*
X0039624Y0238806D01*
X0039768Y0238854D01*
X0039913Y0238899D01*
X0040060Y0238939D01*
X0040207Y0238976D01*
X0040356Y0239009D01*
X0040505Y0239038D01*
X0040655Y0239064D01*
X0040806Y0239085D01*
X0040957Y0239103D01*
X0041108Y0239116D01*
X0041260Y0239126D01*
X0041412Y0239132D01*
X0041564Y0239134D01*
X0041564Y0239133D02*
X0111249Y0239133D01*
X0111365Y0239131D01*
X0111481Y0239125D01*
X0111596Y0239116D01*
X0111711Y0239103D01*
X0111826Y0239086D01*
X0111940Y0239065D01*
X0112054Y0239040D01*
X0112166Y0239012D01*
X0112277Y0238980D01*
X0112388Y0238945D01*
X0112497Y0238906D01*
X0112605Y0238863D01*
X0112711Y0238817D01*
X0112816Y0238768D01*
X0112919Y0238715D01*
X0113021Y0238658D01*
X0113120Y0238599D01*
X0113217Y0238536D01*
X0113313Y0238470D01*
X0113406Y0238401D01*
X0113497Y0238329D01*
X0113585Y0238254D01*
X0113671Y0238176D01*
X0113754Y0238095D01*
X0113835Y0238012D01*
X0113913Y0237926D01*
X0113988Y0237838D01*
X0114060Y0237747D01*
X0114129Y0237654D01*
X0114195Y0237558D01*
X0114258Y0237461D01*
X0114317Y0237362D01*
X0114374Y0237260D01*
X0114427Y0237157D01*
X0114476Y0237052D01*
X0114522Y0236946D01*
X0114565Y0236838D01*
X0114604Y0236729D01*
X0114639Y0236618D01*
X0114671Y0236507D01*
X0114699Y0236395D01*
X0114724Y0236281D01*
X0114745Y0236167D01*
X0114762Y0236052D01*
X0114775Y0235937D01*
X0114784Y0235822D01*
X0114790Y0235706D01*
X0114792Y0235590D01*
X0114792Y0218661D01*
X0114794Y0218566D01*
X0114800Y0218471D01*
X0114809Y0218376D01*
X0114823Y0218282D01*
X0114840Y0218189D01*
X0114861Y0218096D01*
X0114885Y0218004D01*
X0114914Y0217913D01*
X0114945Y0217823D01*
X0114981Y0217735D01*
X0115020Y0217648D01*
X0115063Y0217563D01*
X0115108Y0217480D01*
X0115158Y0217399D01*
X0115210Y0217319D01*
X0115266Y0217242D01*
X0115324Y0217167D01*
X0115386Y0217095D01*
X0115451Y0217025D01*
X0115518Y0216958D01*
X0115588Y0216893D01*
X0115660Y0216831D01*
X0115735Y0216773D01*
X0115812Y0216717D01*
X0115892Y0216665D01*
X0115973Y0216615D01*
X0116056Y0216570D01*
X0116141Y0216527D01*
X0116228Y0216488D01*
X0116316Y0216452D01*
X0116406Y0216421D01*
X0116497Y0216392D01*
X0116589Y0216368D01*
X0116682Y0216347D01*
X0116775Y0216330D01*
X0116869Y0216316D01*
X0116964Y0216307D01*
X0117059Y0216301D01*
X0117154Y0216299D01*
X0117154Y0216298D02*
X0162036Y0216298D01*
X0162036Y0216299D02*
X0162131Y0216301D01*
X0162226Y0216307D01*
X0162321Y0216316D01*
X0162415Y0216330D01*
X0162508Y0216347D01*
X0162601Y0216368D01*
X0162693Y0216392D01*
X0162784Y0216421D01*
X0162874Y0216452D01*
X0162962Y0216488D01*
X0163049Y0216527D01*
X0163134Y0216570D01*
X0163217Y0216615D01*
X0163298Y0216665D01*
X0163378Y0216717D01*
X0163455Y0216773D01*
X0163530Y0216831D01*
X0163602Y0216893D01*
X0163672Y0216958D01*
X0163739Y0217025D01*
X0163804Y0217095D01*
X0163866Y0217167D01*
X0163924Y0217242D01*
X0163980Y0217319D01*
X0164032Y0217399D01*
X0164082Y0217480D01*
X0164127Y0217563D01*
X0164170Y0217648D01*
X0164209Y0217735D01*
X0164245Y0217823D01*
X0164276Y0217913D01*
X0164305Y0218004D01*
X0164329Y0218096D01*
X0164350Y0218189D01*
X0164367Y0218282D01*
X0164381Y0218376D01*
X0164390Y0218471D01*
X0164396Y0218566D01*
X0164398Y0218661D01*
X0164398Y0237558D01*
X0164400Y0237644D01*
X0164405Y0237730D01*
X0164415Y0237815D01*
X0164428Y0237900D01*
X0164445Y0237984D01*
X0164465Y0238068D01*
X0164489Y0238150D01*
X0164517Y0238231D01*
X0164548Y0238312D01*
X0164582Y0238390D01*
X0164620Y0238467D01*
X0164662Y0238543D01*
X0164706Y0238616D01*
X0164754Y0238687D01*
X0164805Y0238757D01*
X0164859Y0238824D01*
X0164915Y0238888D01*
X0164975Y0238950D01*
X0165037Y0239010D01*
X0165101Y0239066D01*
X0165168Y0239120D01*
X0165238Y0239171D01*
X0165309Y0239219D01*
X0165383Y0239263D01*
X0165458Y0239305D01*
X0165535Y0239343D01*
X0165613Y0239377D01*
X0165694Y0239408D01*
X0165775Y0239436D01*
X0165857Y0239460D01*
X0165941Y0239480D01*
X0166025Y0239497D01*
X0166110Y0239510D01*
X0166195Y0239520D01*
X0166281Y0239525D01*
X0166367Y0239527D01*
X0200225Y0239527D01*
X0200382Y0239525D01*
X0200539Y0239519D01*
X0200696Y0239509D01*
X0200852Y0239496D01*
X0201008Y0239478D01*
X0201164Y0239457D01*
X0201319Y0239431D01*
X0201473Y0239402D01*
X0201627Y0239369D01*
X0201779Y0239332D01*
X0201931Y0239292D01*
X0202082Y0239247D01*
X0202231Y0239199D01*
X0202379Y0239147D01*
X0202526Y0239092D01*
X0202672Y0239032D01*
X0202816Y0238970D01*
X0202958Y0238903D01*
X0203099Y0238833D01*
X0203238Y0238760D01*
X0203375Y0238683D01*
X0203510Y0238603D01*
X0203642Y0238519D01*
X0203773Y0238432D01*
X0203902Y0238342D01*
X0204028Y0238249D01*
X0204152Y0238153D01*
X0204274Y0238053D01*
X0204393Y0237951D01*
X0204509Y0237845D01*
X0204623Y0237737D01*
X0204734Y0237626D01*
X0204842Y0237512D01*
X0204948Y0237396D01*
X0205050Y0237277D01*
X0205150Y0237155D01*
X0205246Y0237031D01*
X0205339Y0236905D01*
X0205429Y0236776D01*
X0205516Y0236645D01*
X0205600Y0236513D01*
X0205680Y0236378D01*
X0205757Y0236241D01*
X0205830Y0236102D01*
X0205900Y0235961D01*
X0205967Y0235819D01*
X0206029Y0235675D01*
X0206089Y0235529D01*
X0206144Y0235382D01*
X0206196Y0235234D01*
X0206244Y0235085D01*
X0206289Y0234934D01*
X0206329Y0234782D01*
X0206366Y0234630D01*
X0206399Y0234476D01*
X0206428Y0234322D01*
X0206454Y0234167D01*
X0206475Y0234011D01*
X0206493Y0233855D01*
X0206506Y0233699D01*
X0206516Y0233542D01*
X0206522Y0233385D01*
X0206524Y0233228D01*
X0206524Y0052519D01*
X0206525Y0052519D02*
X0206523Y0052319D01*
X0206515Y0052120D01*
X0206503Y0051920D01*
X0206486Y0051721D01*
X0206465Y0051522D01*
X0206438Y0051324D01*
X0206407Y0051127D01*
X0206371Y0050930D01*
X0206330Y0050735D01*
X0206285Y0050540D01*
X0206235Y0050347D01*
X0206180Y0050155D01*
X0206120Y0049964D01*
X0206056Y0049775D01*
X0205988Y0049587D01*
X0205915Y0049401D01*
X0205837Y0049217D01*
X0205755Y0049035D01*
X0205669Y0048855D01*
X0205578Y0048677D01*
X0205483Y0048501D01*
X0205384Y0048327D01*
X0205280Y0048156D01*
X0205173Y0047988D01*
X0205061Y0047822D01*
X0204946Y0047659D01*
X0204827Y0047499D01*
X0204703Y0047342D01*
X0204576Y0047187D01*
X0204446Y0047036D01*
X0204311Y0046888D01*
X0204174Y0046744D01*
X0204032Y0046602D01*
X0203888Y0046465D01*
X0203740Y0046330D01*
X0203589Y0046200D01*
X0203434Y0046073D01*
X0203277Y0045949D01*
X0203117Y0045830D01*
X0202954Y0045715D01*
X0202788Y0045603D01*
X0202620Y0045496D01*
X0202449Y0045392D01*
X0202275Y0045293D01*
X0202099Y0045198D01*
X0201921Y0045107D01*
X0201741Y0045021D01*
X0201559Y0044939D01*
X0201375Y0044861D01*
X0201189Y0044788D01*
X0201001Y0044720D01*
X0200812Y0044656D01*
X0200621Y0044596D01*
X0200429Y0044541D01*
X0200236Y0044491D01*
X0200041Y0044446D01*
X0199846Y0044405D01*
X0199649Y0044369D01*
X0199452Y0044338D01*
X0199254Y0044311D01*
X0199055Y0044290D01*
X0198856Y0044273D01*
X0198656Y0044261D01*
X0198457Y0044253D01*
X0198257Y0044251D01*
D12*
X0095740Y0128939D02*
X0089740Y0128939D01*
X0089740Y0138939D02*
X0095740Y0138939D01*
X0095740Y0148939D02*
X0089740Y0148939D01*
X0089740Y0158939D02*
X0095740Y0158939D01*
X0061089Y0168306D02*
X0061089Y0174306D01*
X0043289Y0174306D02*
X0043289Y0168306D01*
X0043289Y0148706D02*
X0043289Y0142706D01*
X0061089Y0142706D02*
X0061089Y0148706D01*
X0066806Y0111335D02*
X0072806Y0111335D01*
X0072806Y0093535D02*
X0066806Y0093535D01*
X0047206Y0093535D02*
X0041206Y0093535D01*
X0041206Y0111335D02*
X0047206Y0111335D01*
X0194801Y0180302D02*
X0200801Y0180302D01*
X0200801Y0190302D02*
X0194801Y0190302D01*
X0194801Y0200302D02*
X0200801Y0200302D01*
X0200801Y0210302D02*
X0194801Y0210302D01*
X0194801Y0220302D02*
X0200801Y0220302D01*
X0200801Y0230302D02*
X0194801Y0230302D01*
D13*
X0178060Y0141223D02*
X0178060Y0136023D01*
X0168060Y0136023D02*
X0168060Y0141223D01*
X0168060Y0106023D02*
X0168060Y0100823D01*
X0178060Y0100823D02*
X0178060Y0106023D01*
X0079115Y0168545D02*
X0079115Y0173745D01*
X0079115Y0198545D02*
X0079115Y0203745D01*
D14*
X0163217Y0064823D02*
X0163217Y0057773D01*
X0182902Y0057773D02*
X0182902Y0064823D01*
D15*
X0115890Y0070710D02*
X0115890Y0078584D01*
X0100142Y0086458D02*
X0092268Y0086458D01*
X0092268Y0061655D02*
X0100142Y0061655D01*
M02*
