%
M48
M72
T01C0.02362
T02C0.03200
T03C0.03937
T04C0.04000
T05C0.04700
%
T01
X199827Y121498
X151402Y167954
X149438Y179684
X140772Y184883
X136441Y191970
X121480Y193151
X135260Y172285
X158488Y207718
X177780Y227797
X184866Y190789
X98646Y217167
X46677Y205750
T02
X168060Y106023
X178060Y106023
X178060Y136023
X168060Y136023
X79115Y171145
X79115Y201145
T03
X96205Y61655
X115890Y74647
X96205Y86458
T04
X44206Y93535
X44206Y111335
X69806Y111335
X69806Y93535
X92740Y128939
X92740Y138939
X92740Y148939
X92740Y158939
X61089Y171306
X43289Y171306
X43289Y145706
X61089Y145706
X197801Y180302
X197801Y190302
X197801Y200302
X197801Y210302
X197801Y220302
X197801Y230302
T05
X182902Y61298
X163217Y61298
M30
